<?xml version="1.0" encoding="utf-8"?>
<!DOCTYPE svg PUBLIC "-//W3C//DTD SVG 1.1//EN" "http://www.w3.org/Graphics/SVG/1.1/DTD/svg11.dtd">
<svg xmlns="http://www.w3.org/2000/svg" xmlns:xlink="http://www.w3.org/1999/xlink" version="1.1" baseProfile="full" width="367.215" height="161.753" viewBox="0 0 367.21 161.75" enable-background="new 0 0 367.21 161.75" xml:space="preserve">
	<g>
		<path fill="none" stroke-width="1.02409" stroke-linejoin="round" stroke="#000000" stroke-opacity="1" d="M 248.783,5.30896L 248.662,0.713501L 290.506,0.713501C 290.506,0.713501 298.245,0.673096 310.339,4.54309C 322.432,8.41321 327.511,11.5573 327.511,11.5573L 329.325,12.6053L 329.379,17.3429"/>
		<path fill="none" stroke-width="1.02409" stroke-linejoin="round" stroke="#000000" stroke-opacity="1" d="M 38.3167,16.7172L 38.1958,11.8798C 38.1957,11.8799 48.3543,5.47021 56.8196,3.41443C 65.285,1.35852 79.2595,0.511963 98.7839,0.512085C 118.308,0.512085 118.859,0.632935 118.859,0.632935L 119.132,5.65125"/>
		<path fill="none" stroke-width="1.02409" stroke-linejoin="round" stroke="#000000" stroke-opacity="1" d="M 78.3942,5.47705C 78.5786,5.47705 78.7628,5.47766 78.9469,5.479L 78.9469,5.47717L 287.922,5.47717L 287.922,5.48218L 288.82,5.47705C 331.834,5.47705 366.703,40.3461 366.703,83.3591C 366.703,126.372 331.833,161.241 288.82,161.241C 269.847,161.241 252.459,154.457 238.948,143.181L 128.266,143.181C 114.756,154.457 97.3674,161.241 78.3942,161.241C 35.381,161.241 0.512047,126.372 0.512047,83.3591C 0.512047,40.3461 35.381,5.47705 78.3942,5.47705 Z "/>
		<path fill="none" stroke-width="1.02409" stroke-linejoin="round" stroke="#000000" stroke-opacity="1" d="M 160.968,84.7777L 160.968,84.7777C 162.628,86.7885 162.344,89.7645 160.333,91.4248L 145.069,104.028C 143.058,105.688 140.082,105.404 138.422,103.393L 138.422,103.393C 136.762,101.382 137.046,98.4064 139.057,96.7461L 154.321,84.1429C 156.332,82.4828 159.308,82.767 160.968,84.7777 Z "/>
		<path fill="none" stroke-width="1.02409" stroke-linejoin="round" stroke="#000000" stroke-opacity="1" d="M 202.458,84.7804L 202.458,84.7804C 204.118,86.7911 203.834,89.767 201.824,91.4271L 186.559,104.031C 184.548,105.691 181.572,105.407 179.912,103.396L 179.912,103.396C 178.252,101.385 178.536,98.4095 180.547,96.7493L 195.812,84.1456C 197.822,82.4855 200.798,82.7697 202.458,84.7804 Z "/>
		<g>
			<ellipse fill="none" stroke-width="1.02409" stroke-linejoin="round" stroke="#000000" stroke-opacity="1" cx="77.9844" cy="83.569" rx="42.0851" ry="42.0851"/>
			<g>
				<path fill="none" stroke-width="1.02409" stroke-linejoin="round" stroke="#000000" stroke-opacity="1" d="M 68.6723,52.9724L 87.2962,52.9724C 87.8305,52.9724 88.2637,53.4056 88.2637,53.9398L 88.2637,73.2894L 107.613,73.2894C 108.147,73.2894 108.581,73.7225 108.581,74.257L 108.581,92.8807C 108.581,93.4152 108.147,93.8483 107.613,93.8483L 88.2637,93.8483L 88.2637,113.198C 88.2637,113.732 87.8305,114.165 87.2962,114.165L 68.6723,114.165C 68.138,114.165 67.7048,113.732 67.7048,113.198L 67.7048,93.8483L 48.3553,93.8483C 47.821,93.8483 47.3878,93.4152 47.3878,92.8807L 47.3878,74.257C 47.3878,73.7225 47.821,73.2894 48.3553,73.2894L 67.7048,73.2894L 67.7048,53.9398C 67.7048,53.4056 68.138,52.9724 68.6723,52.9724 Z "/>
				<g>
					<path fill="none" stroke-width="1.02409" stroke-linejoin="round" stroke="#000000" stroke-opacity="1" d="M 77.9841,56.6486L 71.5029,67.8743L 84.4652,67.8743L 77.9841,56.6486 Z "/>
					<path fill="none" stroke-width="1.02409" stroke-linejoin="round" stroke="#000000" stroke-opacity="1" d="M 77.9841,110.49L 84.4653,99.264L 71.503,99.264L 77.9841,110.49 Z "/>
					<g>
						<path fill="none" stroke-width="1.02409" stroke-linejoin="round" stroke="#000000" stroke-opacity="1" d="M 77.9843,75.6729C 82.1586,75.6729 85.5427,79.0569 85.5427,83.2312C 85.5427,87.4056 82.1586,90.7897 77.9843,90.7897C 73.8099,90.7897 70.4259,87.4056 70.4259,83.2312C 70.4259,79.0569 73.8099,75.6729 77.9843,75.6729 Z "/>
						<path fill="none" stroke-width="1.02409" stroke-linejoin="round" stroke="#000000" stroke-opacity="1" d="M 104.821,83.2313L 93.5954,76.7501L 93.5954,89.7125L 104.821,83.2313 Z "/>
						<path fill="none" stroke-width="1.02409" stroke-linejoin="round" stroke="#000000" stroke-opacity="1" d="M 51.1476,83.2318L 62.3732,89.713L 62.3732,76.7507L 51.1476,83.2318 Z "/>
					</g>
				</g>
			</g>
		</g>
		<ellipse fill="none" stroke-width="1.02409" stroke-linejoin="round" stroke="#000000" stroke-opacity="1" cx="290.264" cy="82.7477" rx="67.7234" ry="67.7234"/>
		<path fill="none" stroke-width="1.02409" stroke-linejoin="round" stroke="#000000" stroke-opacity="1" d="M 303.059,43.6395L 303.059,43.6395C 309.291,51.2037 308.211,62.3883 300.647,68.6207L 266.228,96.9791C 258.664,103.212 247.479,102.132 241.247,94.5676L 241.247,94.5676C 235.015,87.0033 236.094,75.8187 243.659,69.5863L 278.077,41.2279C 285.642,34.9954 296.826,36.0751 303.059,43.6395 Z "/>
		<path fill="none" stroke-width="1.02409" stroke-linejoin="round" stroke="#000000" stroke-opacity="1" d="M 338.1,71.4327L 338.1,71.4327C 344.333,78.9969 343.253,90.1815 335.689,96.4141L 301.27,124.772C 293.706,131.005 282.521,129.925 276.289,122.361L 276.289,122.361C 270.056,114.797 271.136,103.612 278.7,97.3795L 313.119,69.0211C 320.684,62.7887 331.868,63.8684 338.1,71.4327 Z "/>
		<path fill="none" stroke-width="1.02409" stroke-linejoin="round" stroke="#000000" stroke-opacity="1" d="M 255.071,69.324C 262.752,69.324 268.979,75.5504 268.979,83.2316C 268.979,90.9125 262.752,97.139 255.071,97.139C 247.39,97.139 241.164,90.9125 241.164,83.2316C 241.164,75.5504 247.39,69.324 255.071,69.324 Z "/>
		<path fill="none" stroke-width="1.02409" stroke-linejoin="round" stroke="#000000" stroke-opacity="1" d="M 289.538,42.597C 297.219,42.597 303.445,48.8236 303.445,56.5046C 303.445,64.1855 297.219,70.4122 289.538,70.4122C 281.857,70.4122 275.63,64.1855 275.63,56.5046C 275.63,48.8236 281.857,42.597 289.538,42.597 Z "/>
		<path fill="none" stroke-width="1.02409" stroke-linejoin="round" stroke="#000000" stroke-opacity="1" d="M 289.538,96.7758C 297.219,96.7758 303.445,103.002 303.445,110.683C 303.445,118.364 297.219,124.591 289.538,124.591C 281.857,124.591 275.63,118.364 275.63,110.683C 275.63,103.002 281.857,96.7758 289.538,96.7758 Z "/>
		<path fill="none" stroke-width="1.02409" stroke-linejoin="round" stroke="#000000" stroke-opacity="1" d="M 324.367,69.2028C 332.048,69.2028 338.275,75.4293 338.275,83.1104C 338.275,90.7913 332.048,97.0179 324.367,97.0179C 316.686,97.0179 310.46,90.7913 310.46,83.1104C 310.46,75.4293 316.686,69.2028 324.367,69.2028 Z "/>
		<g>
			<path fill="#000000" fill-opacity="1" stroke-width="1.02409" stroke-linejoin="round" d="M 321.605,39.2573L 319.717,39.2573L 316.677,35.657C 316.584,35.5477 316.482,35.3925 316.372,35.1909L 316.337,35.1909C 316.275,35.2916 316.17,35.447 316.023,35.657L 312.889,39.2573L 310.993,39.2573L 315.449,34.5297L 311.365,29.8523L 313.268,29.8523L 315.976,33.1588C 316.154,33.3771 316.311,33.5953 316.447,33.8137L 316.485,33.8137C 316.683,33.5255 316.855,33.298 317.003,33.1315L 319.822,29.8523L 321.605,29.8523L 317.436,34.5149L 321.605,39.2573 Z "/>
		</g>
		<g>
			<path fill="#000000" fill-opacity="1" stroke-width="1.02409" stroke-linejoin="round" d="M 237.245,92.326L 232.537,97.6382L 232.537,100.777L 230.899,100.777L 230.899,97.6608L 226.396,92.326L 228.305,92.326L 231.402,96.1536C 231.44,96.2001 231.552,96.3729 231.737,96.6722L 231.766,96.6722C 231.832,96.5389 231.956,96.3661 232.137,96.1536L 235.403,92.326L 237.245,92.326 Z "/>
		</g>
		<g>
			<path fill="#000000" fill-opacity="1" stroke-width="1.02409" stroke-linejoin="round" d="M 256.641,130.086L 256.641,121.227L 261.33,121.227C 262.757,121.227 263.888,121.414 264.723,121.787C 265.557,122.16 265.975,122.646 265.975,123.244C 265.975,123.744 265.725,124.178 265.226,124.547C 264.726,124.917 264.038,125.179 263.16,125.334L 263.16,125.36C 264.295,125.43 265.204,125.656 265.886,126.038C 266.567,126.421 266.908,126.918 266.908,127.531C 266.908,128.292 266.397,128.908 265.373,129.379C 264.35,129.85 263.059,130.086 261.501,130.086L 256.641,130.086 Z M 258.508,122.113L 258.508,125.024L 260.48,125.024C 261.535,125.024 262.365,124.885 262.969,124.606C 263.573,124.327 263.875,123.934 263.875,123.426C 263.875,122.551 262.824,122.113 260.721,122.113L 258.508,122.113 Z M 258.508,125.91L 258.508,129.2L 261.173,129.2C 262.325,129.2 263.219,129.051 263.855,128.754C 264.49,128.457 264.808,128.049 264.808,127.529C 264.808,126.45 263.46,125.91 260.765,125.91L 258.508,125.91 Z "/>
		</g>
		<g>
			<path fill="#000000" fill-opacity="1" stroke-width="1.02409" stroke-linejoin="round" d="M 350.602,68.6172L 349.101,68.6172L 347.844,66.4742L 343.009,66.4742L 341.823,68.6172L 340.315,68.6172L 344.749,61.1169L 346.152,61.1169L 350.602,68.6172 Z M 347.415,65.7242L 345.617,62.5785C 345.559,62.4747 345.501,62.309 345.443,62.0812L 345.41,62.0812C 345.355,62.2921 345.293,62.4579 345.221,62.5785L 343.435,65.7242L 347.415,65.7242 Z "/>
		</g>
		<g>
			<path fill="none" stroke-width="1.02409" stroke-linejoin="round" stroke="#000000" stroke-opacity="1" d="M 140.444,112.119C 140.372,112.059 140.286,112.002 140.186,111.948C 140.086,111.893 139.979,111.846 139.865,111.806C 139.751,111.766 139.632,111.734 139.508,111.71C 139.384,111.687 139.261,111.675 139.139,111.675C 138.908,111.675 138.714,111.708 138.557,111.775C 138.4,111.841 138.273,111.926 138.178,112.028C 138.082,112.13 138.013,112.242 137.972,112.363C 137.93,112.484 137.909,112.598 137.909,112.704C 137.909,112.839 137.928,112.961 137.965,113.07C 138.003,113.179 138.059,113.284 138.135,113.385C 138.21,113.485 138.307,113.586 138.425,113.686C 138.543,113.786 138.682,113.894 138.841,114.008C 139.019,114.138 139.179,114.266 139.319,114.392C 139.46,114.519 139.579,114.649 139.677,114.783C 139.775,114.916 139.849,115.057 139.9,115.205C 139.95,115.353 139.975,115.513 139.975,115.685C 139.975,115.791 139.964,115.908 139.943,116.036C 139.922,116.164 139.883,116.293 139.827,116.422C 139.77,116.551 139.693,116.677 139.594,116.801C 139.496,116.925 139.371,117.034 139.219,117.129C 139.068,117.224 138.885,117.299 138.672,117.357C 138.458,117.414 138.207,117.443 137.918,117.443C 137.756,117.443 137.597,117.431 137.441,117.408C 137.286,117.385 137.137,117.354 136.997,117.317C 136.856,117.279 136.728,117.236 136.611,117.188C 136.494,117.141 136.394,117.093 136.311,117.046L 136.435,116.289C 136.528,116.361 136.633,116.429 136.752,116.494C 136.871,116.558 136.997,116.615 137.129,116.664C 137.262,116.713 137.399,116.751 137.54,116.779C 137.682,116.807 137.822,116.822 137.961,116.822C 138.181,116.822 138.369,116.795 138.526,116.741C 138.683,116.688 138.813,116.614 138.916,116.521C 139.018,116.427 139.094,116.317 139.141,116.189C 139.189,116.062 139.213,115.924 139.213,115.776C 139.213,115.647 139.192,115.53 139.152,115.427C 139.112,115.323 139.05,115.222 138.966,115.123C 138.883,115.024 138.777,114.924 138.648,114.822C 138.52,114.719 138.367,114.607 138.191,114.483C 138.049,114.383 137.914,114.275 137.786,114.158C 137.657,114.042 137.545,113.914 137.448,113.776C 137.35,113.638 137.274,113.488 137.217,113.326C 137.161,113.163 137.133,112.988 137.133,112.798C 137.133,112.562 137.177,112.339 137.265,112.128C 137.354,111.918 137.484,111.733 137.658,111.573C 137.831,111.414 138.045,111.287 138.301,111.194C 138.556,111.101 138.853,111.054 139.192,111.054C 139.321,111.054 139.45,111.062 139.579,111.078C 139.708,111.094 139.833,111.117 139.954,111.145C 140.075,111.173 140.19,111.204 140.298,111.238C 140.406,111.273 140.502,111.308 140.587,111.344L 140.444,112.119 Z "/>
			<path fill="none" stroke-width="1.02409" stroke-linejoin="round" stroke="#000000" stroke-opacity="1" d="M 145.227,111.764L 142.831,111.764L 142.381,113.893L 144.599,113.893L 144.456,114.515L 142.238,114.515L 141.783,116.733L 144.33,116.733L 144.2,117.354L 140.907,117.354L 142.22,111.143L 145.37,111.143L 145.227,111.764 Z "/>
			<path fill="none" stroke-width="1.02409" stroke-linejoin="round" stroke="#000000" stroke-opacity="1" d="M 148.563,117.354L 145.343,117.354L 146.656,111.143L 147.411,111.143L 146.232,116.733L 148.706,116.733L 148.563,117.354 Z "/>
			<path fill="none" stroke-width="1.02409" stroke-linejoin="round" stroke="#000000" stroke-opacity="1" d="M 153.745,111.764L 151.35,111.764L 150.899,113.893L 153.117,113.893L 152.975,114.515L 150.756,114.515L 150.301,116.733L 152.848,116.733L 152.718,117.354L 149.425,117.354L 150.738,111.143L 153.888,111.143L 153.745,111.764 Z "/>
			<path fill="none" stroke-width="1.02409" stroke-linejoin="round" stroke="#000000" stroke-opacity="1" d="M 159.283,112.141C 159.199,112.087 159.103,112.033 158.995,111.977C 158.886,111.921 158.767,111.87 158.637,111.826C 158.507,111.782 158.364,111.745 158.21,111.717C 158.056,111.689 157.89,111.675 157.714,111.675C 157.281,111.675 156.891,111.752 156.543,111.906C 156.195,112.06 155.899,112.272 155.657,112.543C 155.414,112.814 155.227,113.131 155.095,113.496C 154.963,113.861 154.898,114.255 154.898,114.68C 154.898,115.026 154.945,115.332 155.04,115.598C 155.136,115.864 155.271,116.088 155.448,116.27C 155.625,116.452 155.836,116.589 156.081,116.682C 156.326,116.775 156.598,116.822 156.896,116.822C 157.086,116.822 157.259,116.81 157.415,116.787C 157.572,116.764 157.716,116.731 157.849,116.689C 157.981,116.647 158.106,116.598 158.223,116.54C 158.34,116.483 158.453,116.421 158.563,116.356L 158.394,117.116C 158.16,117.222 157.91,117.303 157.643,117.359C 157.376,117.415 157.076,117.443 156.743,117.443C 156.35,117.443 155.993,117.378 155.671,117.249C 155.35,117.119 155.075,116.936 154.848,116.7C 154.621,116.463 154.446,116.178 154.322,115.845C 154.197,115.512 154.135,115.141 154.135,114.734C 154.135,114.193 154.221,113.697 154.393,113.247C 154.565,112.796 154.809,112.408 155.125,112.084C 155.441,111.76 155.821,111.507 156.265,111.326C 156.708,111.144 157.2,111.054 157.74,111.054C 158.11,111.054 158.437,111.092 158.721,111.168C 159.006,111.245 159.246,111.331 159.442,111.427L 159.283,112.141 Z "/>
			<path fill="none" stroke-width="1.02409" stroke-linejoin="round" stroke="#000000" stroke-opacity="1" d="M 164.377,111.764L 162.609,111.764L 161.439,117.354L 160.694,117.354L 161.873,111.764L 160.065,111.764L 160.204,111.143L 164.52,111.143L 164.377,111.764 Z "/>
		</g>
		<g>
			<path fill="none" stroke-width="1.02409" stroke-linejoin="round" stroke="#000000" stroke-opacity="1" d="M 182.436,111.981C 182.364,111.92 182.278,111.863 182.178,111.809C 182.078,111.755 181.971,111.708 181.857,111.668C 181.743,111.628 181.624,111.596 181.5,111.572C 181.376,111.549 181.253,111.537 181.131,111.537C 180.9,111.537 180.706,111.57 180.549,111.637C 180.392,111.703 180.265,111.788 180.17,111.89C 180.074,111.992 180.005,112.103 179.964,112.224C 179.922,112.346 179.901,112.459 179.901,112.566C 179.901,112.701 179.92,112.823 179.957,112.932C 179.995,113.041 180.051,113.146 180.127,113.246C 180.202,113.347 180.299,113.448 180.417,113.548C 180.535,113.648 180.674,113.756 180.833,113.87C 181.011,114 181.171,114.128 181.311,114.254C 181.452,114.381 181.571,114.511 181.669,114.645C 181.767,114.778 181.841,114.919 181.892,115.067C 181.942,115.215 181.967,115.375 181.967,115.547C 181.967,115.653 181.956,115.77 181.935,115.898C 181.914,116.026 181.875,116.154 181.819,116.283C 181.762,116.412 181.685,116.539 181.587,116.663C 181.488,116.786 181.363,116.896 181.211,116.991C 181.06,117.085 180.877,117.161 180.664,117.219C 180.45,117.276 180.199,117.305 179.91,117.305C 179.748,117.305 179.589,117.293 179.433,117.27C 179.278,117.247 179.129,117.216 178.989,117.178C 178.848,117.141 178.72,117.098 178.603,117.05C 178.486,117.003 178.386,116.955 178.303,116.908L 178.427,116.151C 178.52,116.223 178.625,116.291 178.744,116.356C 178.863,116.42 178.989,116.476 179.121,116.525C 179.254,116.574 179.391,116.613 179.532,116.641C 179.674,116.669 179.814,116.683 179.953,116.683C 180.173,116.683 180.361,116.657 180.518,116.603C 180.675,116.549 180.805,116.476 180.908,116.383C 181.01,116.289 181.086,116.179 181.133,116.051C 181.181,115.924 181.205,115.786 181.205,115.638C 181.205,115.509 181.184,115.392 181.144,115.289C 181.104,115.185 181.042,115.084 180.958,114.985C 180.875,114.886 180.769,114.786 180.64,114.683C 180.512,114.581 180.359,114.468 180.183,114.344C 180.041,114.245 179.906,114.136 179.778,114.02C 179.649,113.904 179.537,113.776 179.44,113.638C 179.343,113.5 179.266,113.35 179.209,113.187C 179.153,113.025 179.125,112.849 179.125,112.66C 179.125,112.424 179.169,112.201 179.257,111.99C 179.346,111.779 179.476,111.594 179.65,111.435C 179.823,111.276 180.037,111.149 180.293,111.056C 180.549,110.962 180.845,110.916 181.184,110.916C 181.313,110.916 181.442,110.924 181.571,110.94C 181.7,110.956 181.825,110.978 181.946,111.006C 182.067,111.035 182.182,111.066 182.29,111.1C 182.398,111.134 182.494,111.169 182.579,111.205L 182.436,111.981 Z "/>
			<path fill="none" stroke-width="1.02409" stroke-linejoin="round" stroke="#000000" stroke-opacity="1" d="M 187.735,111.626L 185.967,111.626L 184.797,117.216L 184.052,117.216L 185.231,111.626L 183.423,111.626L 183.562,111.005L 187.878,111.005L 187.735,111.626 Z "/>
			<path fill="none" stroke-width="1.02409" stroke-linejoin="round" stroke="#000000" stroke-opacity="1" d="M 191.166,117.216L 190.885,115.441L 188.251,115.441L 187.245,117.216L 186.387,117.216L 190.088,111.005L 190.85,111.005L 191.933,117.216L 191.166,117.216 Z M 190.361,111.759L 190.157,112.179L 188.624,114.82L 190.767,114.82L 190.369,112.179 Z "/>
			<path fill="none" stroke-width="1.02409" stroke-linejoin="round" stroke="#000000" stroke-opacity="1" d="M 197.493,112.538C 197.493,112.806 197.446,113.048 197.352,113.264C 197.258,113.479 197.129,113.665 196.964,113.821C 196.8,113.977 196.604,114.101 196.375,114.195C 196.147,114.288 195.898,114.346 195.629,114.369L 195.629,114.387C 195.765,114.431 195.884,114.522 195.987,114.661C 196.09,114.799 196.173,114.986 196.237,115.221L 196.757,117.216L 195.959,117.216L 195.5,115.348C 195.434,115.075 195.328,114.874 195.182,114.746C 195.035,114.618 194.843,114.554 194.603,114.554L 194.061,114.554L 193.494,117.216L 192.748,117.216L 194.061,111.005L 195.774,111.005C 196.077,111.005 196.336,111.045 196.553,111.125C 196.769,111.205 196.946,111.316 197.085,111.456C 197.224,111.596 197.326,111.759 197.393,111.944C 197.459,112.13 197.493,112.328 197.493,112.538 Z M 196.73,112.606C 196.73,112.464 196.708,112.334 196.665,112.214C 196.622,112.093 196.555,111.99 196.466,111.903C 196.377,111.816 196.263,111.748 196.124,111.699C 195.986,111.65 195.821,111.626 195.629,111.626L 194.673,111.626L 194.196,113.933L 195.054,113.933C 195.357,113.933 195.615,113.896 195.827,113.822C 196.039,113.748 196.212,113.65 196.347,113.529C 196.481,113.408 196.579,113.267 196.639,113.106C 196.7,112.944 196.73,112.778 196.73,112.606 Z "/>
			<path fill="none" stroke-width="1.02409" stroke-linejoin="round" stroke="#000000" stroke-opacity="1" d="M 202.509,111.626L 200.741,111.626L 199.571,117.216L 198.827,117.216L 200.005,111.626L 198.197,111.626L 198.336,111.005L 202.652,111.005L 202.509,111.626 Z "/>
		</g>
		<path fill="#000000" fill-opacity="1" stroke-width="1.02409" stroke-linejoin="round" d="M 122.058,31.0291L 220.015,31.0291C 221.752,31.0291 223.16,32.4366 223.16,34.1732L 223.16,34.1732C 223.16,35.9095 221.752,37.3173 220.015,37.3173L 122.058,37.3173C 120.322,37.3173 118.914,35.9095 118.914,34.1732L 118.914,34.1732C 118.914,32.4366 120.322,31.0291 122.058,31.0291 Z "/>
		<g>
			<path fill="#000000" fill-opacity="1" stroke-width="1.02409" stroke-linejoin="round" d="M 128.601,21.4447C 129.355,21.0735 129.881,20.7023 130.18,20.3309C 130.462,19.9838 130.701,19.4092 130.899,18.6072C 131.25,17.1815 131.172,16.1493 130.665,15.5106C 130.184,14.9073 129.269,14.6056 127.922,14.6056C 126.585,14.6056 125.506,14.9249 124.686,15.5636C 123.852,16.2133 123.273,17.1935 122.951,18.5042C 122.762,19.269 122.729,19.89 122.852,20.3671C 122.98,20.8646 123.277,21.2239 123.745,21.4447C 122.902,21.816 122.275,22.3553 121.862,23.0626C 121.613,23.5045 121.362,24.236 121.111,25.257L 121.075,25.4658C 120.664,27.1366 120.668,28.3545 121.089,29.1193C 121.541,29.9325 122.527,30.339 124.049,30.339C 125.537,30.339 126.703,29.9501 127.547,29.1722C 128.358,28.4408 128.964,27.2628 129.364,25.6385L 129.385,25.5521C 129.568,24.8096 129.683,24.2935 129.732,24.0039C 129.816,23.5287 129.845,23.1453 129.82,22.8539C 129.78,22.5289 129.667,22.257 129.483,22.038C 129.287,21.817 128.993,21.6193 128.601,21.4447 Z M 128.563,19.217C 128.431,19.7517 128.169,20.1583 127.775,20.4366C 127.393,20.7023 126.92,20.835 126.354,20.835C 125.769,20.835 125.358,20.6957 125.122,20.4172C 124.883,20.1517 124.819,19.7926 124.931,19.3396L 125.214,18.1896C 125.339,17.679 125.593,17.2677 125.974,16.9559C 126.372,16.618 126.859,16.4491 127.434,16.4491C 127.978,16.4491 128.379,16.6115 128.637,16.9364C 128.884,17.2501 128.944,17.6678 128.816,18.1896L 128.563,19.217 Z M 126.931,26.4406C 126.774,27.0791 126.468,27.5719 126.014,27.9191C 125.58,28.2682 125.059,28.4426 124.451,28.4426C 123.831,28.4426 123.401,28.2682 123.16,27.9191C 122.928,27.5831 122.891,27.0958 123.048,26.4572L 123.532,24.4912C 123.681,23.8878 123.969,23.4237 124.397,23.0989C 124.814,22.774 125.337,22.6116 125.967,22.6116C 126.565,22.6116 126.991,22.7795 127.246,23.1156C 127.499,23.4515 127.554,23.9102 127.411,24.4912L 126.931,26.4406 Z "/>
			<path fill="#000000" fill-opacity="1" stroke-width="1.02409" stroke-linejoin="round" d="M 129.909,30.0438L 134.62,30.0438C 135.402,30.0438 136.028,29.9974 136.496,29.9047C 137.03,29.8118 137.469,29.6428 137.812,29.3978C 138.164,29.1547 138.47,28.7954 138.73,28.3202C 138.972,27.8672 139.187,27.2582 139.375,26.4934L 139.723,25.0815C 139.971,24.0735 139.994,23.3374 139.791,22.8733C 139.597,22.3851 139.106,22.0426 138.318,21.8458C 139.149,21.649 139.732,21.3761 140.068,21.0271C 140.4,20.691 140.674,20.0822 140.891,19.2003L 141.209,17.911C 141.5,16.7284 141.447,15.9283 141.051,15.5106C 140.653,15.0929 139.721,14.8842 138.255,14.8842L 133.641,14.8842L 129.909,30.0438 Z M 135.485,16.7275L 135.649,16.7275C 136.573,16.7275 137.189,16.7396 137.498,16.7638C 137.993,16.786 138.34,16.8556 138.539,16.9725C 138.752,17.0765 138.87,17.2567 138.894,17.5128C 138.913,17.7449 138.863,18.1041 138.743,18.5905C 138.582,19.205 138.451,19.6459 138.353,19.9132C 138.223,20.2622 138.079,20.5175 137.919,20.679C 137.76,20.8424 137.538,20.9528 137.25,21.0104C 137.008,21.068 136.648,21.0967 136.17,21.0967L 134.406,21.1134L 135.485,16.7275 Z M 133.964,22.9067L 134.063,22.9067C 135.084,22.9067 135.765,22.9188 136.107,22.943C 136.646,22.9652 137.027,23.0283 137.25,23.1323C 137.485,23.2382 137.622,23.4126 137.661,23.6559C 137.693,23.8767 137.653,24.2192 137.538,24.6833L 137.187,26.1091C 137.067,26.5973 136.934,26.963 136.787,27.2062C 136.634,27.4735 136.424,27.6648 136.155,27.7799C 135.909,27.8969 135.548,27.972 135.072,28.0055C 134.762,28.0297 134.178,28.0416 133.321,28.0416L 132.696,28.0583L 133.964,22.9067 Z "/>
			<path fill="#000000" fill-opacity="1" stroke-width="1.02409" stroke-linejoin="round" d="M 144.022,14.8842L 140.29,30.0438L 142.622,30.0438L 146.354,14.8842L 144.022,14.8842 Z "/>
			<path fill="#000000" fill-opacity="1" stroke-width="1.02409" stroke-linejoin="round" d="M 147.465,14.8842L 146.981,16.8501L 149.574,16.8501L 146.326,30.0438L 148.639,30.0438L 151.887,16.8501L 155.033,16.8501L 155.517,14.8842L 147.465,14.8842 Z "/>
			<path fill="#000000" fill-opacity="1" stroke-width="1.02409" stroke-linejoin="round" d="M 152.893,30.0438L 156.955,30.0438C 158.65,30.0438 159.894,29.7589 160.686,29.189C 161.46,28.645 162.014,27.6936 162.349,26.3346L 164.383,18.0697C 164.677,16.8741 164.576,16.0499 164.079,15.597C 163.566,15.1217 162.446,14.8842 160.718,14.8842L 156.625,14.8842L 152.893,30.0438 Z M 158.449,16.7471C 159.525,16.7471 160.256,16.7582 160.642,16.7804C 161.178,16.8158 161.549,16.8973 161.755,17.0255C 161.972,17.1647 162.081,17.3848 162.083,17.6854C 162.088,17.9286 162.014,18.3584 161.862,18.9747L 160.32,25.2404C 160.135,25.994 159.973,26.5212 159.834,26.8219C 159.663,27.2062 159.436,27.4847 159.154,27.6573C 158.876,27.8207 158.458,27.9257 157.903,27.972C 157.49,28.0184 156.745,28.0416 155.669,28.0416L 158.449,16.7471 Z "/>
			<path fill="#000000" fill-opacity="1" stroke-width="1.02409" stroke-linejoin="round" d="M 174.118,19.5819C 174.464,18.1783 174.513,17.0941 174.267,16.3293C 173.879,15.1691 172.821,14.589 171.093,14.589C 169.333,14.589 167.978,15.1691 167.029,16.3293C 166.408,17.0831 165.93,18.1672 165.594,19.5819L 164.223,25.1512C 163.852,26.6605 163.783,27.7975 164.017,28.5624C 164.375,29.7579 165.44,30.3557 167.212,30.3557C 168.951,30.3557 170.299,29.7579 171.255,28.5624C 171.871,27.7864 172.368,26.6493 172.747,25.1512L 174.118,19.5819 Z M 170.306,25.7972C 170.132,26.5045 169.874,27.067 169.533,27.4847C 169.064,28.064 168.454,28.3535 167.705,28.3535C 167.009,28.3535 166.559,28.064 166.354,27.4847C 166.183,27.0317 166.177,26.486 166.334,25.8473L 168.073,18.7826C 168.213,18.2145 168.479,17.7272 168.871,17.3207C 169.351,16.8324 169.928,16.5883 170.601,16.5883C 171.242,16.5883 171.685,16.8204 171.929,17.2845C 172.147,17.6799 172.181,18.1793 172.033,18.7826L 170.306,25.7972 Z "/>
			<path fill="#000000" fill-opacity="1" stroke-width="1.02409" stroke-linejoin="round" d="M 189.822,19.8269C 190.239,18.132 190.202,16.8501 189.71,15.9813C 189.187,15.0531 188.138,14.589 186.563,14.589C 184.89,14.589 183.604,15.1338 182.704,16.2235C 182.018,17.0701 181.442,18.4392 180.976,20.3309L 179.866,24.8392C 179.412,26.6846 179.297,28.0128 179.522,28.8241C 179.813,29.8452 180.676,30.3557 182.11,30.3557C 182.655,30.3557 183.175,30.2518 183.671,30.0438C 184.07,29.8805 184.501,29.6307 184.964,29.2948L 185.056,30.0438L 187.143,30.0438L 189.088,22.141L 185.111,22.141L 184.614,24.1598L 186.293,24.1598L 185.844,25.9866C 185.658,26.7421 185.363,27.3223 184.959,27.7269C 184.507,28.191 183.945,28.4232 183.272,28.4232C 182.674,28.4232 182.243,28.2087 181.98,27.7799C 181.726,27.3511 181.682,26.7997 181.847,26.1259L 183.642,18.8356C 183.779,18.2787 184.053,17.7848 184.463,17.3541C 184.962,16.8324 185.532,16.5717 186.174,16.5717C 187.118,16.5717 187.679,16.8269 187.858,17.3374C 187.97,17.64 187.934,18.1626 187.751,18.9052L 187.705,19.0945L 187.366,20.4701L 189.664,20.4701L 189.822,19.8269 Z "/>
			<path fill="#000000" fill-opacity="1" stroke-width="1.02409" stroke-linejoin="round" d="M 195.066,14.8842L 188.45,30.0438L 190.766,30.0438L 192.439,26.162L 195.55,26.162L 195.33,30.0438L 197.612,30.0438L 198.491,14.8842L 195.066,14.8842 Z M 196.115,17.5824L 195.657,24.0735L 193.36,24.0735L 196.115,17.5824 Z "/>
			<path fill="#000000" fill-opacity="1" stroke-width="1.02409" stroke-linejoin="round" d="M 209.868,14.8842L 205.38,26.3541L 206.264,18.7297L 206.574,14.8842L 202.5,14.8842L 198.768,30.0438L 201.05,30.0438L 204.174,17.3541L 203.348,30.0438L 205.615,30.0438L 210.971,17.3541L 207.847,30.0438L 210.145,30.0438L 213.877,14.8842L 209.868,14.8842 Z "/>
			<path fill="#000000" fill-opacity="1" stroke-width="1.02409" stroke-linejoin="round" d="M 211.708,30.0438L 218.098,30.0438L 218.6,28.0055L 214.51,28.0055L 215.701,23.1685L 219.399,23.1685L 219.866,21.2721L 216.167,21.2721L 217.247,16.8862L 221.191,16.8862L 221.684,14.8842L 215.439,14.8842L 211.708,30.0438 Z "/>
			<path fill="#000000" fill-opacity="1" stroke-width="1.02409" stroke-linejoin="round" d="M 219.386,30.0438L 221.684,30.0438L 223.184,23.951L 225.367,23.951C 226.553,23.951 227.463,23.6781 228.096,23.1323C 228.728,22.5995 229.197,21.712 229.503,20.4701L 230.12,17.964C 230.38,16.9076 230.29,16.1241 229.85,15.6136C 229.436,15.1273 228.692,14.8842 227.617,14.8842L 223.118,14.8842L 219.386,30.0438 Z M 224.923,16.8862L 226.733,16.8862C 227.102,16.8862 227.376,16.9847 227.555,17.1815C 227.768,17.4247 227.814,17.7959 227.691,18.2953L 227.155,20.4701C 227.027,20.9918 226.789,21.3807 226.443,21.6368C 226.15,21.8578 225.808,21.9683 225.417,21.9683L 223.677,21.9489L 224.923,16.8862 Z "/>
			<path fill="#000000" fill-opacity="1" stroke-width="1.02409" stroke-linejoin="round" d="M 234.628,14.8842L 228.012,30.0438L 230.328,30.0438L 232.001,26.162L 235.113,26.162L 234.893,30.0438L 237.175,30.0438L 238.053,14.8842L 234.628,14.8842 Z M 235.678,17.5824L 235.22,24.0735L 232.922,24.0735L 235.678,17.5824 Z "/>
			<path fill="#000000" fill-opacity="1" stroke-width="1.02409" stroke-linejoin="round" d="M 237.984,30.0438L 242.046,30.0438C 243.741,30.0438 244.985,29.7589 245.777,29.189C 246.551,28.645 247.105,27.6936 247.44,26.3346L 249.474,18.0697C 249.768,16.8741 249.667,16.0499 249.17,15.597C 248.657,15.1217 247.537,14.8842 245.809,14.8842L 241.716,14.8842L 237.984,30.0438 Z M 243.54,16.7471C 244.616,16.7471 245.347,16.7582 245.733,16.7804C 246.269,16.8158 246.64,16.8973 246.846,17.0255C 247.063,17.1647 247.172,17.3848 247.174,17.6854C 247.179,17.9286 247.105,18.3584 246.953,18.9747L 245.411,25.2404C 245.226,25.994 245.064,26.5212 244.925,26.8219C 244.754,27.2062 244.527,27.4847 244.245,27.6573C 243.967,27.8207 243.549,27.9257 242.994,27.972C 242.581,28.0184 241.836,28.0416 240.76,28.0416L 243.54,16.7471 Z "/>
		</g>
	</g>
</svg>
