<?xml version="1.0" encoding="UTF-8" standalone="no"?>
<!-- Created with Inkscape (http://www.inkscape.org/) -->
<svg id="svg2" xmlns:rdf="http://www.w3.org/1999/02/22-rdf-syntax-ns#" xmlns="http://www.w3.org/2000/svg" height="130.34mm" width="339.74mm" version="1.1" xmlns:cc="http://creativecommons.org/ns#" xmlns:dc="http://purl.org/dc/elements/1.1/" viewBox="0 0 1203.7883 461.81781">
 <metadata id="metadata4">
  <rdf:RDF>
   <cc:Work rdf:about="">
    <dc:format>image/svg+xml</dc:format>
    <dc:type rdf:resource="http://purl.org/dc/dcmitype/StillImage"/>
    <dc:title/>
   </cc:Work>
  </rdf:RDF>
 </metadata>
 <g>
  <g id="g3142" transform="matrix(.67854 0 0 .67854 274.48 19.874)" stroke-width="2.2106">
   <g stroke-linejoin="round" stroke="#000" fill="none">
    <path id="path3144" d="m248.78 5.309-0.121-4.5955h41.844s7.739-0.040405 19.833 3.8296c12.093 3.8701 17.172 7.0142 17.172 7.0142l1.814 1.048 0.054 4.7376"/>
    <path id="path3146" d="m38.317 16.717-0.1209-4.8374c-0.0001 0.0001 10.158-6.4096 18.624-8.4654 8.4654-2.0559 22.44-2.9025 41.964-2.9023 19.524 0 20.075 0.12085 20.075 0.12085l0.273 5.0183"/>
    <path id="path3148" d="m78.394 5.477c0.1844 0 0.3686 0.00061 0.5527 0.00195v-0.00183h208.98v0.00501l0.898-0.00513c43.014 0 77.883 34.869 77.883 77.882s-34.87 77.882-77.883 77.882c-18.973 0-36.361-6.784-49.872-18.06h-110.68c-13.51 11.276-30.899 18.06-49.872 18.06-43.027 0-77.896-34.87-77.896-77.881 0.00005-43.013 34.869-77.882 77.882-77.882z"/>
    <path id="path3150" d="m160.97 84.778c1.66 2.0108 1.376 4.9868-0.635 6.6471l-15.264 12.603c-2.011 1.66-4.987 1.376-6.647-0.635s-1.376-4.9866 0.635-6.6469l15.264-12.603c2.011-1.6601 4.987-1.3759 6.647 0.6348z"/>
    <path id="path3152" d="m202.46 84.78c1.66 2.0107 1.376 4.9866-0.634 6.6467l-15.265 12.604c-2.011 1.66-4.987 1.376-6.647-0.635s-1.376-4.9865 0.635-6.6467l15.265-12.604c2.01-1.6601 4.986-1.3759 6.646 0.6348z"/>
   </g>
   <g id="g3154" stroke-linejoin="round" stroke="#000" fill="none">
    <circle id="ellipse3156" cy="83.569" cx="77.984" r="42.085"/>
    <g id="g3158">
     <path id="path3160" d="m68.672 52.972h18.624c0.5343 0 0.9675 0.4332 0.9675 0.9674v19.35h19.349c0.534 0 0.968 0.4331 0.968 0.9676v18.624c0 0.5345-0.434 0.9676-0.968 0.9676h-19.349v19.35c0 0.534-0.4332 0.967-0.9675 0.967h-18.624c-0.5343 0-0.9675-0.433-0.9675-0.967v-19.35h-19.35c-0.5343 0-0.9675-0.4331-0.9675-0.9676v-18.624c0-0.5345 0.4332-0.9676 0.9675-0.9676h19.35v-19.35c0-0.5342 0.4332-0.9674 0.9675-0.9674z"/>
     <g id="g3162">
      <path id="path3164" d="m77.984 56.649-6.4812 11.226h12.962l-6.4811-11.226z"/>
      <path id="path3166" d="m77.984 110.49 6.4812-11.226h-12.962l6.4811 11.226z"/>
      <g id="g3168">
       <path id="path3170" d="m77.984 75.673c4.1743 0 7.5584 3.384 7.5584 7.5583 0 4.1744-3.3841 7.5585-7.5584 7.5585-4.1744 0-7.5584-3.3841-7.5584-7.5585 0-4.1743 3.384-7.5583 7.5584-7.5583z"/>
       <path id="path3172" d="m104.82 83.231-11.226-6.4812v12.962l11.226-6.4812z"/>
       <path id="path3174" d="m51.148 83.232 11.226 6.4812v-12.962l-11.226 6.4811z"/>
      </g>
     </g>
    </g>
   </g>
   <g stroke-linejoin="round" stroke="#000" fill="none">
    <circle id="ellipse3176" cy="82.748" cx="290.26" r="67.723"/>
    <path id="path3178" d="m303.06 43.64c6.232 7.5642 5.152 18.749-2.412 24.981l-34.419 28.358c-7.564 6.2329-18.749 5.1529-24.981-2.4115-6.232-7.5643-5.153-18.749 2.412-24.981l34.418-28.358c7.565-6.2325 18.749-5.1528 24.982 2.4116z"/>
    <path id="path3180" d="m338.1 71.433c6.233 7.5642 5.153 18.749-2.411 24.981l-34.42 28.356c-7.564 6.233-18.749 5.153-24.981-2.411-6.233-7.564-5.153-18.749 2.411-24.982l34.419-28.358c7.565-6.2324 18.749-5.1527 24.981 2.4116z"/>
    <path id="path3182" d="m255.07 69.324c7.681 0 13.908 6.2264 13.908 13.908 0 7.6809-6.227 13.907-13.908 13.907s-13.907-6.2265-13.907-13.907c0-7.6812 6.226-13.908 13.907-13.908z"/>
    <path id="path3184" d="m289.54 42.597c7.681 0 13.907 6.2266 13.907 13.908 0 7.6809-6.226 13.908-13.907 13.908s-13.908-6.2267-13.908-13.908c0-7.681 6.227-13.908 13.908-13.908z"/>
    <path id="path3186" d="m289.54 96.776c7.681 0 13.907 6.2262 13.907 13.907 0 7.681-6.226 13.908-13.907 13.908s-13.908-6.227-13.908-13.908 6.227-13.907 13.908-13.907z"/>
    <path id="path3188" d="m324.37 69.203c7.681 0 13.908 6.2265 13.908 13.908 0 7.6809-6.227 13.908-13.908 13.908s-13.907-6.2266-13.907-13.908c0-7.6811 6.226-13.908 13.907-13.908z"/>
   </g>
   <g id="g3190">
    <path id="path3192" stroke-linejoin="round" d="m321.6 39.257h-1.888l-3.04-3.6003c-0.093-0.1093-0.195-0.2645-0.305-0.4661h-0.035c-0.062 0.1007-0.167 0.2561-0.314 0.4661l-3.134 3.6003h-1.896l4.456-4.7276-4.084-4.6774h1.903l2.708 3.3065c0.178 0.2183 0.335 0.4365 0.471 0.6549h0.038c0.198-0.2882 0.37-0.5157 0.518-0.6822l2.819-3.2792h1.783l-4.169 4.6626 4.169 4.7424z" stroke-width="2.2106"/>
   </g>
   <g id="g3194">
    <path id="path3196" stroke-linejoin="round" d="m237.24 92.326-4.708 5.3122v3.1388h-1.638v-3.1162l-4.503-5.3348h1.909l3.097 3.8276c0.038 0.0465 0.15 0.2193 0.335 0.5186h0.029c0.066-0.1333 0.19-0.3061 0.371-0.5186l3.266-3.8276h1.842z" stroke-width="2.2106"/>
   </g>
   <g id="g3198">
    <path id="path3200" stroke-linejoin="round" d="m256.64 130.09v-8.859h4.689c1.427 0 2.558 0.187 3.393 0.56 0.834 0.373 1.252 0.859 1.252 1.457 0 0.5-0.25 0.934-0.749 1.303-0.5 0.37-1.188 0.632-2.066 0.787v0.026c1.135 0.07 2.044 0.296 2.726 0.678 0.681 0.383 1.022 0.88 1.022 1.493 0 0.761-0.511 1.377-1.535 1.848-1.023 0.471-2.314 0.707-3.872 0.707h-4.86zm1.867-7.973v2.911h1.972c1.055 0 1.885-0.139 2.489-0.418s0.906-0.672 0.906-1.18c0-0.875-1.051-1.313-3.154-1.313h-2.213zm0 3.797v3.29h2.665c1.152 0 2.046-0.149 2.682-0.446 0.635-0.297 0.953-0.705 0.953-1.225 0-1.079-1.348-1.619-4.043-1.619h-2.257z" stroke-width="2.2106"/>
   </g>
   <g id="g3202">
    <path id="path3204" stroke-linejoin="round" d="m350.6 68.617h-1.501l-1.257-2.143h-4.835l-1.186 2.143h-1.508l4.434-7.5003h1.403l4.45 7.5003zm-3.187-2.893-1.798-3.1457c-0.058-0.1038-0.116-0.2695-0.174-0.4973h-0.033c-0.055 0.2109-0.117 0.3767-0.189 0.4973l-1.786 3.1457h3.98z" stroke-width="2.2106"/>
   </g>
   <g id="g3206" stroke-linejoin="round" stroke="#000" fill="none">
    <path id="path3208" d="m140.44 112.12c-0.072-0.06-0.158-0.117-0.258-0.171-0.1-0.055-0.207-0.102-0.321-0.142s-0.233-0.072-0.357-0.096c-0.124-0.023-0.247-0.035-0.369-0.035-0.231 0-0.425 0.033-0.582 0.1-0.157 0.066-0.284 0.151-0.379 0.253-0.096 0.102-0.165 0.214-0.206 0.335-0.042 0.121-0.063 0.235-0.063 0.341 0 0.135 0.019 0.257 0.056 0.366 0.038 0.109 0.094 0.214 0.17 0.315 0.075 0.1 0.172 0.201 0.29 0.301s0.257 0.208 0.416 0.322c0.178 0.13 0.338 0.258 0.478 0.384 0.141 0.127 0.26 0.257 0.358 0.391 0.098 0.133 0.172 0.274 0.223 0.422 0.05 0.148 0.075 0.308 0.075 0.48 0 0.106-0.011 0.223-0.032 0.351s-0.06 0.257-0.116 0.386c-0.057 0.129-0.134 0.255-0.233 0.379-0.098 0.124-0.223 0.233-0.375 0.328-0.151 0.095-0.334 0.17-0.547 0.228-0.214 0.057-0.465 0.086-0.754 0.086-0.162 0-0.321-0.012-0.477-0.035-0.155-0.023-0.304-0.054-0.444-0.091-0.141-0.038-0.269-0.081-0.386-0.129-0.117-0.047-0.217-0.095-0.3-0.142l0.124-0.757c0.093 0.072 0.198 0.14 0.317 0.205 0.119 0.064 0.245 0.121 0.377 0.17 0.133 0.049 0.27 0.087 0.411 0.115 0.142 0.028 0.282 0.043 0.421 0.043 0.22 0 0.408-0.027 0.565-0.081 0.157-0.053 0.287-0.127 0.39-0.22 0.102-0.094 0.178-0.204 0.225-0.332 0.048-0.127 0.072-0.265 0.072-0.413 0-0.129-0.021-0.246-0.061-0.349-0.04-0.104-0.102-0.205-0.186-0.304-0.083-0.099-0.189-0.199-0.318-0.301-0.128-0.103-0.281-0.215-0.457-0.339-0.142-0.1-0.277-0.208-0.405-0.325-0.129-0.116-0.241-0.244-0.338-0.382-0.098-0.138-0.174-0.288-0.231-0.45-0.056-0.163-0.084-0.338-0.084-0.528 0-0.236 0.044-0.459 0.132-0.67 0.089-0.21 0.219-0.395 0.393-0.555 0.173-0.159 0.387-0.286 0.643-0.379 0.255-0.093 0.552-0.14 0.891-0.14 0.129 0 0.258 0.008 0.387 0.024s0.254 0.039 0.375 0.067 0.236 0.059 0.344 0.093c0.108 0.035 0.204 0.07 0.289 0.106l-0.143 0.775z"/>
    <path id="path3210" d="m145.23 111.76h-2.396l-0.45 2.129h2.218l-0.143 0.622h-2.218l-0.455 2.218h2.547l-0.13 0.621h-3.293l1.313-6.211h3.15l-0.143 0.621z"/>
    <path id="path3212" d="m148.56 117.35h-3.22l1.313-6.211h0.755l-1.179 5.59h2.474l-0.143 0.621z"/>
    <path id="path3214" d="m153.74 111.76h-2.395l-0.451 2.129h2.218l-0.142 0.622h-2.219l-0.455 2.218h2.547l-0.13 0.621h-3.293l1.313-6.211h3.15l-0.143 0.621z"/>
    <path id="path3216" d="m159.28 112.14c-0.084-0.054-0.18-0.108-0.288-0.164-0.109-0.056-0.228-0.107-0.358-0.151s-0.273-0.081-0.427-0.109-0.32-0.042-0.496-0.042c-0.433 0-0.823 0.077-1.171 0.231s-0.644 0.366-0.886 0.637c-0.243 0.271-0.43 0.588-0.562 0.953s-0.197 0.759-0.197 1.184c0 0.346 0.047 0.652 0.142 0.918 0.096 0.266 0.231 0.49 0.408 0.672s0.388 0.319 0.633 0.412 0.517 0.14 0.815 0.14c0.19 0 0.363-0.012 0.519-0.035 0.157-0.023 0.301-0.056 0.434-0.098 0.132-0.042 0.257-0.091 0.374-0.149 0.117-0.057 0.23-0.119 0.34-0.184l-0.169 0.76c-0.234 0.106-0.484 0.187-0.751 0.243s-0.567 0.084-0.9 0.084c-0.393 0-0.75-0.065-1.072-0.194-0.321-0.13-0.596-0.313-0.823-0.549-0.227-0.237-0.402-0.522-0.526-0.855-0.125-0.333-0.187-0.704-0.187-1.111 0-0.541 0.086-1.037 0.258-1.487 0.172-0.451 0.416-0.839 0.732-1.163s0.696-0.577 1.14-0.758c0.443-0.182 0.935-0.272 1.475-0.272 0.37 0 0.697 0.038 0.981 0.114 0.285 0.077 0.525 0.163 0.721 0.259l-0.159 0.714z"/>
    <path id="path3218" d="m164.38 111.76h-1.768l-1.17 5.59h-0.745l1.179-5.59h-1.808l0.139-0.621h4.316l-0.143 0.621z"/>
   </g>
   <g id="g3220" stroke-linejoin="round" stroke="#000" fill="none">
    <path id="path3222" d="m182.44 111.98c-0.072-0.061-0.158-0.118-0.258-0.172s-0.207-0.101-0.321-0.141-0.233-0.072-0.357-0.096c-0.124-0.023-0.247-0.035-0.369-0.035-0.231 0-0.425 0.033-0.582 0.1-0.157 0.066-0.284 0.151-0.379 0.253-0.096 0.102-0.165 0.213-0.206 0.334-0.042 0.122-0.063 0.235-0.063 0.342 0 0.135 0.019 0.257 0.056 0.366 0.038 0.109 0.094 0.214 0.17 0.314 0.075 0.101 0.172 0.202 0.29 0.302s0.257 0.208 0.416 0.322c0.178 0.13 0.338 0.258 0.478 0.384 0.141 0.127 0.26 0.257 0.358 0.391 0.098 0.133 0.172 0.274 0.223 0.422 0.05 0.148 0.075 0.308 0.075 0.48 0 0.106-0.011 0.223-0.032 0.351s-0.06 0.256-0.116 0.385c-0.057 0.129-0.134 0.256-0.232 0.38-0.099 0.123-0.224 0.233-0.376 0.328-0.151 0.094-0.334 0.17-0.547 0.228-0.214 0.057-0.465 0.086-0.754 0.086-0.162 0-0.321-0.012-0.477-0.035-0.155-0.023-0.304-0.054-0.444-0.092-0.141-0.037-0.269-0.08-0.386-0.128-0.117-0.047-0.217-0.095-0.3-0.142l0.124-0.757c0.093 0.072 0.198 0.14 0.317 0.205 0.119 0.064 0.245 0.12 0.377 0.169 0.133 0.049 0.27 0.088 0.411 0.116 0.142 0.028 0.282 0.042 0.421 0.042 0.22 0 0.408-0.026 0.565-0.08s0.287-0.127 0.39-0.22c0.102-0.094 0.178-0.204 0.225-0.332 0.048-0.127 0.072-0.265 0.072-0.413 0-0.129-0.021-0.246-0.061-0.349-0.04-0.104-0.102-0.205-0.186-0.304-0.083-0.099-0.189-0.199-0.318-0.302-0.128-0.102-0.281-0.215-0.457-0.339-0.142-0.099-0.277-0.208-0.405-0.324-0.129-0.116-0.241-0.244-0.338-0.382s-0.174-0.288-0.231-0.451c-0.056-0.162-0.084-0.338-0.084-0.527 0-0.236 0.044-0.459 0.132-0.67 0.089-0.211 0.219-0.396 0.393-0.555 0.173-0.159 0.387-0.286 0.643-0.379 0.256-0.094 0.552-0.14 0.891-0.14 0.129 0 0.258 0.008 0.387 0.024s0.254 0.038 0.375 0.066c0.121 0.029 0.236 0.06 0.344 0.094s0.204 0.069 0.289 0.105l-0.143 0.776z"/>
    <path id="path3224" d="m187.74 111.63h-1.768l-1.17 5.59h-0.745l1.179-5.59h-1.808l0.139-0.621h4.316l-0.143 0.621z"/>
    <path id="path3226" d="m191.17 117.22-0.281-1.775h-2.634l-1.006 1.775h-0.858l3.701-6.211h0.762l1.083 6.211h-0.767zm-0.805-5.457-0.204 0.42-1.533 2.641h2.143l-0.398-2.641z"/>
    <path id="path3228" d="m197.49 112.54c0 0.268-0.047 0.51-0.141 0.726-0.094 0.215-0.223 0.401-0.388 0.557-0.164 0.156-0.36 0.28-0.589 0.374-0.228 0.093-0.477 0.151-0.746 0.174v0.018c0.136 0.044 0.255 0.135 0.358 0.274 0.103 0.138 0.186 0.325 0.25 0.56l0.52 1.995h-0.798l-0.459-1.868c-0.066-0.273-0.172-0.474-0.318-0.602-0.147-0.128-0.339-0.192-0.579-0.192h-0.542l-0.567 2.662h-0.746l1.313-6.211h1.713c0.303 0 0.562 0.04 0.779 0.12 0.216 0.08 0.393 0.191 0.532 0.331s0.241 0.303 0.308 0.488c0.066 0.186 0.1 0.384 0.1 0.594zm-0.763 0.068c0-0.142-0.022-0.272-0.065-0.392-0.043-0.121-0.11-0.224-0.199-0.311s-0.203-0.155-0.342-0.204c-0.138-0.049-0.303-0.073-0.495-0.073h-0.956l-0.477 2.307h0.858c0.303 0 0.561-0.037 0.773-0.111s0.385-0.172 0.52-0.293c0.134-0.121 0.232-0.262 0.292-0.423 0.061-0.162 0.091-0.328 0.091-0.5z"/>
    <path id="path3230" d="m202.51 111.63h-1.768l-1.17 5.59h-0.744l1.178-5.59h-1.808l0.139-0.621h4.316l-0.143 0.621z"/>
   </g>
   <path id="path3232" stroke-linejoin="round" d="m122.06 31.029h97.957c1.737 0 3.145 1.4075 3.145 3.1441 0 1.7363-1.408 3.1441-3.145 3.1441h-97.957c-1.736 0-3.144-1.4078-3.144-3.1441 0-1.7366 1.408-3.1441 3.144-3.1441z"/>
   <g id="g3234" stroke-linejoin="round">
    <path id="path3236" d="m128.6 21.445c0.754-0.3712 1.28-0.7424 1.579-1.1138 0.282-0.3471 0.521-0.9217 0.719-1.7237 0.351-1.4257 0.273-2.4579-0.234-3.0966-0.481-0.6033-1.396-0.905-2.743-0.905-1.337 0-2.416 0.3193-3.236 0.958-0.834 0.6497-1.413 1.6299-1.735 2.9406-0.189 0.7648-0.222 1.3858-0.099 1.8629 0.128 0.4975 0.425 0.8568 0.893 1.0776-0.843 0.3713-1.47 0.9106-1.883 1.6179-0.249 0.4419-0.5 1.1734-0.751 2.1944l-0.036 0.2088c-0.411 1.6708-0.407 2.8887 0.014 3.6535 0.452 0.8132 1.438 1.2197 2.96 1.2197 1.488 0 2.654-0.3889 3.498-1.1668 0.811-0.7314 1.417-1.9094 1.817-3.5337l0.021-0.0864c0.183-0.7425 0.298-1.2586 0.347-1.5482 0.084-0.4752 0.113-0.8586 0.088-1.15-0.04-0.325-0.153-0.5969-0.337-0.8159-0.196-0.221-0.49-0.4187-0.882-0.5933zm-0.038-2.2277c-0.132 0.5347-0.394 0.9413-0.788 1.2196-0.382 0.2657-0.855 0.3984-1.421 0.3984-0.585 0-0.996-0.1393-1.232-0.4178-0.239-0.2655-0.303-0.6246-0.191-1.0776l0.283-1.15c0.125-0.5106 0.379-0.9219 0.76-1.2337 0.398-0.3379 0.885-0.5068 1.46-0.5068 0.544 0 0.945 0.1624 1.203 0.4873 0.247 0.3137 0.307 0.7314 0.179 1.2532l-0.253 1.0274zm-1.632 7.2236c-0.157 0.6385-0.463 1.1313-0.917 1.4785-0.434 0.3491-0.955 0.5235-1.563 0.5235-0.62 0-1.05-0.1744-1.291-0.5235-0.232-0.336-0.269-0.8233-0.112-1.4619l0.484-1.966c0.149-0.6034 0.437-1.0675 0.865-1.3923 0.417-0.3249 0.94-0.4873 1.57-0.4873 0.598 0 1.024 0.1679 1.279 0.504 0.253 0.3359 0.308 0.7946 0.165 1.3756l-0.48 1.9494z"/>
    <path id="path3238" d="m129.91 30.044h4.711c0.782 0 1.408-0.0464 1.876-0.1391 0.534-0.0929 0.973-0.2619 1.316-0.5069 0.352-0.2431 0.658-0.6024 0.918-1.0776 0.242-0.453 0.457-1.062 0.645-1.8268l0.348-1.4119c0.248-1.008 0.271-1.7441 0.068-2.2082-0.194-0.4882-0.685-0.8307-1.473-1.0275 0.831-0.1968 1.414-0.4697 1.75-0.8187 0.332-0.3361 0.606-0.9449 0.823-1.8268l0.318-1.2893c0.291-1.1826 0.238-1.9827-0.158-2.4004-0.398-0.4177-1.33-0.6264-2.796-0.6264h-4.614l-3.732 15.16zm5.576-13.316h0.164c0.924 0 1.54 0.0121 1.849 0.0363 0.495 0.0222 0.842 0.0918 1.041 0.2087 0.213 0.104 0.331 0.2842 0.355 0.5403 0.019 0.2321-0.031 0.5913-0.151 1.0777-0.161 0.6145-0.292 1.0554-0.39 1.3227-0.13 0.349-0.274 0.6043-0.434 0.7658-0.159 0.1634-0.381 0.2738-0.669 0.3314-0.242 0.0576-0.602 0.0863-1.08 0.0863l-1.764 0.0167 1.079-4.3859zm-1.521 6.1792h0.099c1.021 0 1.702 0.0121 2.044 0.0363 0.539 0.0222 0.92 0.0853 1.143 0.1893 0.235 0.1059 0.372 0.2803 0.411 0.5236 0.032 0.2208-0.008 0.5633-0.123 1.0274l-0.351 1.4258c-0.12 0.4882-0.253 0.8539-0.4 1.0971-0.153 0.2673-0.363 0.4586-0.632 0.5737-0.246 0.117-0.607 0.1921-1.083 0.2256-0.31 0.0242-0.894 0.0361-1.751 0.0361l-0.625 0.0167 1.268-5.1516z"/>
    <path id="path3240" d="m144.02 14.884-3.732 15.16h2.332l3.732-15.16h-2.332z"/>
    <path id="path3242" d="m147.46 14.884-0.484 1.9659h2.593l-3.248 13.194h2.313l3.248-13.194h3.146l0.484-1.9659h-8.052z"/>
    <path id="path3244" d="m152.89 30.044h4.062c1.695 0 2.939-0.2849 3.731-0.8548 0.774-0.544 1.328-1.4954 1.663-2.8544l2.034-8.2649c0.294-1.1956 0.193-2.0198-0.304-2.4727-0.513-0.4753-1.633-0.7128-3.361-0.7128h-4.093l-3.732 15.16zm5.556-13.297c1.076 0 1.807 0.0111 2.193 0.0333 0.536 0.0354 0.907 0.1169 1.113 0.2451 0.217 0.1392 0.326 0.3593 0.328 0.6599 0.005 0.2432-0.069 0.673-0.221 1.2893l-1.542 6.2657c-0.185 0.7536-0.347 1.2808-0.486 1.5815-0.171 0.3843-0.398 0.6628-0.68 0.8354-0.278 0.1634-0.696 0.2684-1.251 0.3147-0.413 0.0464-1.158 0.0696-2.234 0.0696l2.78-11.294z"/>
    <path id="path3246" d="m174.12 19.582c0.346-1.4036 0.395-2.4878 0.149-3.2526-0.388-1.1602-1.446-1.7403-3.174-1.7403-1.76 0-3.115 0.5801-4.064 1.7403-0.621 0.7538-1.099 1.8379-1.435 3.2526l-1.371 5.5693c-0.371 1.5093-0.44 2.6463-0.206 3.4112 0.358 1.1955 1.423 1.7933 3.195 1.7933 1.739 0 3.087-0.5978 4.043-1.7933 0.616-0.776 1.113-1.9131 1.492-3.4112l1.371-5.5693zm-3.812 6.2153c-0.174 0.7073-0.432 1.2698-0.773 1.6875-0.469 0.5793-1.079 0.8688-1.828 0.8688-0.696 0-1.146-0.2895-1.351-0.8688-0.171-0.453-0.177-0.9987-0.02-1.6374l1.739-7.0647c0.14-0.5681 0.406-1.0554 0.798-1.4619 0.48-0.4883 1.057-0.7324 1.73-0.7324 0.641 0 1.084 0.2321 1.328 0.6962 0.218 0.3954 0.252 0.8948 0.104 1.4981l-1.727 7.0146z"/>
    <path id="path3248" d="m189.82 19.827c0.417-1.6949 0.38-2.9768-0.112-3.8456-0.523-0.9282-1.572-1.3923-3.147-1.3923-1.673 0-2.959 0.5448-3.859 1.6345-0.686 0.8466-1.262 2.2157-1.728 4.1074l-1.11 4.5083c-0.454 1.8454-0.569 3.1736-0.344 3.9849 0.291 1.0211 1.154 1.5316 2.588 1.5316 0.545 0 1.065-0.1039 1.561-0.3119 0.399-0.1633 0.83-0.4131 1.293-0.749l0.092 0.749h2.087l1.945-7.9028h-3.977l-0.497 2.0188h1.679l-0.449 1.8268c-0.186 0.7555-0.481 1.3357-0.885 1.7403-0.452 0.4641-1.014 0.6963-1.687 0.6963-0.598 0-1.029-0.2145-1.292-0.6433-0.254-0.4288-0.298-0.9802-0.133-1.654l1.795-7.2903c0.137-0.5569 0.411-1.0508 0.821-1.4815 0.499-0.5217 1.069-0.7824 1.711-0.7824 0.944 0 1.505 0.2552 1.684 0.7657 0.112 0.3026 0.076 0.8252-0.107 1.5678l-0.046 0.1893-0.339 1.3756h2.298l0.158-0.6432z"/>
    <path id="path3250" d="m195.07 14.884-6.616 15.16h2.316l1.673-3.8818h3.111l-0.22 3.8818h2.282l0.879-15.16h-3.425zm1.049 2.6982-0.458 6.4911h-2.297l2.755-6.4911z"/>
    <path id="path3252" d="m209.87 14.884-4.488 11.47 0.884-7.6244 0.31-3.8455h-4.074l-3.732 15.16h2.282l3.124-12.69-0.826 12.69h2.267l5.356-12.69-3.124 12.69h2.298l3.732-15.16h-4.009z"/>
    <path id="path3254" d="m211.71 30.044h6.39l0.502-2.0383h-4.09l1.191-4.837h3.698l0.467-1.8964h-3.699l1.08-4.3859h3.944l0.493-2.002h-6.245l-3.731 15.16z"/>
    <path id="path3256" d="m219.39 30.044h2.298l1.5-6.0928h2.183c1.186 0 2.096-0.2729 2.729-0.8187 0.632-0.5328 1.101-1.4203 1.407-2.6622l0.617-2.5061c0.26-1.0564 0.17-1.8399-0.27-2.3504-0.414-0.4863-1.158-0.7294-2.233-0.7294h-4.499l-3.732 15.16zm5.537-13.158h1.81c0.369 0 0.643 0.0985 0.822 0.2953 0.213 0.2432 0.259 0.6144 0.136 1.1138l-0.536 2.1748c-0.128 0.5217-0.366 0.9106-0.712 1.1667-0.293 0.221-0.635 0.3315-1.026 0.3315l-1.74-0.0194 1.246-5.0627z"/>
    <path id="path3258" d="m234.63 14.884-6.616 15.16h2.316l1.673-3.8818h3.112l-0.22 3.8818h2.282l0.878-15.16h-3.425zm1.05 2.6982-0.458 6.4911h-2.298l2.756-6.4911z"/>
    <path id="path3260" d="m237.98 30.044h4.062c1.695 0 2.939-0.2849 3.731-0.8548 0.774-0.544 1.328-1.4954 1.663-2.8544l2.034-8.2649c0.294-1.1956 0.193-2.0198-0.304-2.4727-0.513-0.4753-1.633-0.7128-3.361-0.7128h-4.093l-3.732 15.16zm5.556-13.297c1.076 0 1.807 0.0111 2.193 0.0333 0.536 0.0354 0.907 0.1169 1.113 0.2451 0.217 0.1392 0.326 0.3593 0.328 0.6599 0.005 0.2432-0.069 0.673-0.221 1.2893l-1.542 6.2657c-0.185 0.7536-0.347 1.2808-0.486 1.5815-0.171 0.3843-0.398 0.6628-0.68 0.8354-0.278 0.1634-0.696 0.2684-1.251 0.3147-0.413 0.0464-1.158 0.0696-2.234 0.0696l2.78-11.294z"/>
   </g>
  </g>
  <g id="g3330" stroke-linejoin="round" transform="matrix(.89889 0 0 .89889 711.43 87.496)" stroke="#000" stroke-width="1.6687" fill="none">
   <path id="path3332" d="m39.674 0.51202c21.628 0 39.162 17.533 39.162 39.162v158.36c0 21.628-17.533 39.161-39.162 39.161-21.628 0-39.162-17.533-39.162-39.161v-158.36c0.00007-21.625 17.533-39.158 39.162-39.158z"/>
   <circle id="ellipse3334" cy="39.145" cx="39.674" r="34.892"/>
   <g id="g3336">
    <path id="path3338" d="m39.674 126.37c7.3218 0 13.257 5.936 13.257 13.258 0 7.321-5.9355 13.257-13.257 13.257-7.3217 0-13.257-5.936-13.257-13.257 0-7.322 5.9355-13.258 13.257-13.258z"/>
    <circle id="ellipse3340" cy="139.63" cx="39.674" r="4.9206"/>
   </g>
   <g id="g3342">
    <path id="path3344" d="m39.674 86.969c7.3218 0 13.257 5.9353 13.257 13.257 0 7.322-5.9355 13.257-13.257 13.257-7.3217 0-13.257-5.935-13.257-13.257 0-7.3221 5.9355-13.257 13.257-13.257z"/>
    <line id="line3346" y2="100.23" y1="100.23" x2="45.557" x1="33.79"/>
   </g>
   <path id="path3348" d="m39.674 197.17c1.2128 0 2.1959 0.984 2.1959 2.196 0 1.213-0.9831 2.196-2.1959 2.196s-2.196-0.983-2.196-2.196c0-1.212 0.9831-2.196 2.196-2.196z"/>
  </g>
  <g id="g3412" transform="matrix(4.0043 0 0 4.0043 59.11 -5.2066)" stroke="#000" stroke-width=".24973" fill="#b7b7b7">
   <g id="g3367" stroke="#000" stroke-width=".24973" fill="#b7b7b7">
    <g id="eye" stroke="#000" stroke-width=".24973" fill="#b7b7b7">
     <path id="path3370" d="m31.919 15.757c-0.01-0.042-0.004-0.087-0.02-0.128-0.006-0.017-0.021-0.026-0.027-0.042-0.01-0.024-0.008-0.051-0.021-0.074-2.9-5.551-9.213-9.528-15.873-9.528-6.661 0-12.973 3.971-15.875 9.521-0.013 0.023-0.011 0.05-0.021 0.074-0.007 0.016-0.021 0.025-0.027 0.042-0.016 0.041-0.01 0.086-0.02 0.128-0.018 0.075-0.035 0.147-0.035 0.224s0.018 0.148 0.035 0.224c0.01 0.042 0.004 0.087 0.02 0.128 0.006 0.017 0.021 0.026 0.027 0.042 0.01 0.024 0.008 0.051 0.021 0.074 2.901 5.551 9.214 9.528 15.875 9.528 6.66 0 12.973-3.971 15.873-9.521 0.014-0.023 0.012-0.05 0.021-0.074 0.006-0.016 0.021-0.025 0.027-0.042 0.016-0.041 0.01-0.086 0.02-0.128 0.017-0.076 0.035-0.148 0.035-0.224s-0.018-0.149-0.035-0.224zm-15.942 8.212c-5.615 0-11.112-3.191-13.851-7.995 2.754-4.81 8.243-7.99 13.851-7.99 5.613 0 11.111 3.192 13.85 7.995-2.754 4.811-8.242 7.99-13.85 7.99z"/>
     <path id="path3372" d="m15.977 11.98c-0.002 0-0.004 0.001-0.006 0.001-2.205 0.004-3.992 1.791-3.992 3.996 0 0.276 0.224 0.5 0.5 0.5 0.275 0 0.499-0.224 0.499-0.5 0-1.652 1.345-2.997 2.999-2.997v-0.001c0.275 0 0.498-0.224 0.498-0.499 0-0.277-0.222-0.5-0.498-0.5z"/>
     <path id="path3374" d="m15.954 8.981c-3.867 0-7 3.134-7 7s3.134 7 7 7c3.865 0 7-3.135 7-7 0-3.867-3.135-7-7-7zm0 13c-3.309 0-6-2.691-6-6s2.691-6 6-6 6 2.691 6 6-2.691 6-6 6z"/>
    </g>
   </g>
  </g>
  <g id="g3436" stroke-linejoin="round" transform="matrix(.89892 0 0 .89892 604.89 3.8167)" stroke-width="1.6687">
   <g stroke="#000" fill="none">
    <ellipse id="ellipse3438" rx="46.522" ry="36.194" cy="41.641" cx="61.2"/>
    <path id="path3440" d="m97.699 109.28-0.3053-0.493v117.67c0 20.393-16.532 36.925-36.925 36.925s-36.925-16.532-36.925-36.925v-131.3c-0.42-2.931-2.125-12.351-8.067-26.502-3.336-4.477-5.7469-9.481-7.0101-14.827-0.3118-0.664-0.3855-1.043-0.2592-1.181-0.4928-2.43-0.7494-4.928-0.7494-7.475 0-24.667 24.061-44.663 53.742-44.663s53.742 19.996 53.742 44.663c0 8.0313-2.551 15.568-7.016 22.08l0.192-0.0228c-9.037 14.913-10.644 28.681-10.716 36.168v1.079c0.0299 3.047 0.3053 4.797 0.3053 4.797z"/>
    <path id="path3442" d="m102.42 110.96-0.345-0.5v119.42c0 20.698-18.669 37.477-41.697 37.477-23.029 0-41.697-16.779-41.697-37.477v-133.26c-0.483-2.963-2.409-12.523-9.1189-26.886-3.7674-4.544-6.4897-9.623-7.9161-15.048-0.3522-0.674-0.4354-1.059-0.2928-1.199-0.55644-2.467-0.84618-5.001-0.84618-7.586 0-25.036 27.171-45.331 60.688-45.331s60.688 20.295 60.688 45.33c0 8.1512-2.88 15.8-7.923 22.41l0.217-0.0232c-10.215 15.135-12.03 29.109-12.111 36.707v1.096c0.034 3.092 0.345 4.868 0.345 4.868z"/>
   </g>
   <g id="g3444" stroke="#000" fill="none">
    <path id="path3446" d="m42.875 91.42c7.2688 0 13.161 5.8925 13.161 13.162 0 7.268-5.8925 13.161-13.161 13.161-7.2688 0-13.161-5.893-13.161-13.161 0-7.2692 5.8925-13.162 13.161-13.162z"/>
    <path id="path3448" d="m79.526 91.42c7.2688 0 13.161 5.8925 13.161 13.162 0 7.268-5.8926 13.161-13.161 13.161-7.2688 0-13.161-5.893-13.161-13.161 0-7.2692 5.8925-13.162 13.161-13.162z"/>
   </g>
   <g stroke="#000" fill="none">
    <path id="path3450" d="m61.201 124.14c6.3097 0 11.425 5.115 11.425 11.425v40.032c0 6.31-5.1151 11.425-11.425 11.425-6.3098 0-11.425-5.115-11.425-11.425v-40.032c0-6.31 5.115-11.425 11.425-11.425z"/>
    <path id="path3452" d="m61.199 217.86c0.9838 0 1.7814 0.798 1.7814 1.782 0 0.983-0.7976 1.781-1.7814 1.781s-1.7814-0.798-1.7814-1.781c0-0.984 0.7976-1.782 1.7814-1.782z"/>
    <line id="line3454" y2="140.99" y1="131.45" x2="61.201" x1="61.201"/>
    <line id="line3456" y2="136.02" y1="136.02" x2="65.803" x1="56.598"/>
    <line id="line3458" y2="175.14" y1="175.14" x2="65.561" x1="56.84"/>
   </g>
   <g id="g3460">
    <path id="path3462" d="m76.684 235.8-0.0918-5.298h1.672v6.682h-2.404l-1.6676-5.483h-0.0376l0.0934 5.483h-1.6591v-6.682h2.5052l1.5531 5.298h0.0364z"/>
    <path id="path3464" d="m46.304 231.12-0.9238 6.128h-1.8241l1.2506-6.751h3.0047l1.2441 6.751h-1.8128l-0.9007-6.128h-0.038z"/>
    <path id="path3466" d="m54.175 235.66 0.8336-5.162h2.7531l0.1493 6.751h-1.689l-0.0437-6.071-0.0368 0.002-1.1273 6.069h-1.7124l-1.1293-6.071h-0.0372l-0.0425 6.071h-1.6877l0.1492-6.751h2.7531l0.8308 5.162h0.0368z"/>
    <path id="path3468" d="m40.715 235.34c0.0655 0.163 0.0437 0.373 0.0129 0.501-0.0549 0.22-0.2066 0.45-0.6576 0.45-0.4214 0-0.6787-0.242-0.6787-0.609l-0.0016-0.656h-1.8099v0.523c0 1.505 1.1842 1.958 2.4526 1.958 1.2227 0 2.2257-0.415 2.3875-1.541 0.0825-0.584 0.0218-0.967-0.0073-1.109-0.286-1.415-2.8465-1.833-3.0386-2.626-0.0324-0.138-0.0252-0.276-0.0073-0.353 0.0489-0.217 0.1949-0.453 0.6168-0.453 0.3967 0 0.6277 0.244 0.6277 0.611v0.416h1.6845v-0.471c0-1.472-1.3201-1.702-2.2766-1.702-1.2001 0-2.1792 0.398-2.36 1.5-0.0494 0.297-0.0559 0.568 0.0161 0.909 0.2925 1.379 2.6917 1.779 3.0395 2.652z"/>
    <path id="path3470" d="m62.666 235.33c0.0632 0.161 0.0437 0.369 0.0126 0.496-0.0546 0.222-0.2059 0.444-0.6512 0.444-0.419 0-0.6722-0.236-0.6722-0.602l-0.0012-0.649h-1.7933l-0.0009 0.516c0 1.492 1.1742 1.938 2.4308 1.938 1.2089 0 2.2035-0.408 2.3616-1.524 0.0821-0.577 0.0219-0.956-0.0069-1.1-0.2827-1.399-2.8186-1.814-3.0067-2.598-0.0323-0.136-0.0234-0.272-0.008-0.347 0.0477-0.216 0.192-0.45 0.6107-0.45 0.3919 0 0.6212 0.241 0.6212 0.602v0.414h1.6672v-0.466c0-1.456-1.308-1.684-2.2524-1.684-1.1887 0-2.1598 0.389-2.3366 1.483-0.0501 0.295-0.057 0.563 0.015 0.9 0.29 1.367 2.6649 1.763 3.0103 2.627z"/>
    <path id="path3472" d="m68.331 236.24c0.4696 0 0.6156-0.318 0.6487-0.487 0.015-0.072 0.017-0.171 0.0166-0.258v-4.993h1.7113v4.839c0.0016 0.125-0.0113 0.379-0.0186 0.446-0.1173 1.259-1.1155 1.666-2.358 1.666-1.2404 0-2.2378-0.407-2.3539-1.666-0.0065-0.067-0.0194-0.321-0.0162-0.446v-4.839h1.7064v4.993c-0.0016 0.087 0.0016 0.186 0.0162 0.258 0.0335 0.169 0.1795 0.487 0.6475 0.487z"/>
    <path id="path3474" d="m82.418 236.17c0.4874 0 0.6585-0.308 0.69-0.488 0.013-0.076 0.0178-0.171 0.0154-0.257v-0.979h-0.6912v-0.987h2.3887v1.811c-0.0008 0.127-0.0021 0.221-0.0206 0.446-0.1129 1.229-1.1802 1.668-2.3758 1.668-1.1964 0-2.2633-0.439-2.3742-1.668-0.0194-0.225-0.0226-0.319-0.0234-0.446l0.0008-2.84c0-0.122 0.0141-0.334 0.0279-0.442 0.15-1.266 1.1725-1.669 2.3697-1.669 1.1964 0 2.2459 0.399 2.3709 1.669 0.0194 0.211 0.0117 0.442 0.0129 0.442v0.225h-1.7011v-0.38s-0.0016-0.159-0.0223-0.254c-0.0303-0.148-0.1581-0.491-0.6746-0.491-0.4902 0-0.635 0.325-0.6722 0.491-0.0194 0.086-0.0275 0.206-0.0275 0.317v3.087c-0.0008 0.086 0.0033 0.181 0.0154 0.257 0.0324 0.18 0.2026 0.488 0.6912 0.488z"/>
   </g>
  </g>
 </g>
 <g id="g3514" style="image-rendering:optimizeQuality;shape-rendering:geometricPrecision" fill-rule="evenodd" transform="matrix(.013636 0 0 .013509 1063.7 -1.7279)" fill="#3c3c3c">
  <g id="g3506" fill="#3c3c3c" transform="matrix(1.842 0 0 1.8422 -3564.5 -5796.5)">
   <path id="path3508" fill="#3c3c3c" d="m6444 3410 1069 389c-37 380-65 704-83 972-19 269-107 491-264 667l-417 667h-97c-231-186-426-338-583-459-158-120-329-208-514-264l-167 639c-55 56-299 292-729 709-431 416-674 828-729 1236-65 92-128 268-188 527-60 260-118 431-173 514-84 56-176 84-278 84-130 0-255-42-375-125-139-148-208-357-208-625 0-93 6-192 20-299 14-106 40-215 77-326-176 18-352 32-528 41-28 10-56-7-83-48-28-42-56-58-84-49-65 93-162 382-291 868-130 486-338 785-625 896-149 0-264-46-348-139 223-1120 449-2241 681-3361 18-93 7-213-35-361-41-148-62-245-62-292 0-46 14-106 41-180 306-278 732-563 1278-855 547-291 959-511 1236-659 565-121 1135-241 1709-361 277 0 527 64 750 194zm-1306-14c-46 9-164 33-354 70s-403 78-639 125c-236 46-424 152-562 319-84 46-158 90-223 132-64 42-129 63-194 63-158 74-357 187-597 340-241 153-426 266-556 340 56 0 134-25 236-76s171-77 209-77c-56 65-181 137-375 216-195 78-311 182-348 312 0 241-41 530-125 868-83 338-176 711-277 1118 27 9 62 16 104 21 41 5 62 21 62 49-37 37-74 55-111 55l83 84c-9 37-41 50-97 41-55-9-104 100-146 327-41 226-95 544-159 951 0 111 14 222 41 333-55 93-106 181-152 264 37 37 92 56 166 56h84c37-19 74-37 111-56 37-18 74-51 111-97s78-116 125-208c46-139 92-278 139-417 0-65-33-116-98-153 93-65 167-166 223-305 55-139 106-273 152-403 0-28-16-44-48-49-33-4-63-11-90-21l-14-111 222-41c83-278 167-561 250-848 0-111-23-208-70-291 28-28 65-19 112 28 46 46 87 55 125 27l-70 125c195 47 352-18 472-194-111-65-185-125-222-181-83 0-125-32-125-97 19-65 33-118 42-160 9-41 9-76 0-104 28 0 55 23 83 70-18 139 63 250 243 333 181 83 285 162 313 236-10-74-51-160-125-257s-116-160-125-187l305 264c0-47-18-112-55-195s-56-148-56-194c65 92 123 162 174 208s76 102 76 167c0 46-9 99-28 159-18 61-39 137-62 230-23 92-111 335-264 729-153 393-229 696-229 909 0 176 32 343 97 500 46-138 88-254 125-347 37-92 111-139 222-139 185 0 297 61 334 181 74-222 148-445 222-667-47 9-95 14-146 14h-104c-130 0-232-28-306-83 19-9 40-14 63-14h76l-111-97c37-37 88-56 153-56 46 0 118 21 215 63 97 41 174 53 229 34 28-148 125-333 292-555s259-352 278-389l-125-111-209-195c65 19 153 58 264 118 111 61 185 91 222 91 75 0 144-51 209-153 241-130 426-412 555-847 130-436 273-718 431-848 268-27 507 26 715 160s401 252 577 354c101-120 169-257 201-409 32-153 49-336 49-549v-347c0-74-75-125-223-153s-389-118-722-271-597-229-792-229c-166 0-319 32-458 97zm875 1514v56l847 666c0-9 19-32 56-69s46-70 28-97c-102-139-225-246-368-320-144-74-331-153-563-236zm514 97-278-125 278 125zm-583 42c92 93 199 185 319 278 120 92 227 162 320 208-56-74-132-153-230-236-97-83-233-167-409-250zm-4348 42c-37 37-55 78-55 125 0 46 14 83 42 111l13-236zm4417 264-208-112 278 195-70-83zm347 166 361 334c10-10 14-19 14-28s5-33 14-70c-92-37-171-78-236-125-65-46-116-83-153-111zm-3416 889v56c64 0 97-10 97-28-46-19-79-28-97-28zm-500 278-264 819 69 111c74 19 130 28 167 28 74 0 155-18 243-55s155-65 201-84c84-305 172-611 264-916h-180c-19 157-47 277-84 361-37 83-111 157-222 222 46-83 93-169 139-257s69-178 69-271c0-46-4-83-13-111-47 19-112 46-195 83s-148 61-194 70zm986 1694c-65-27-111-44-139-48-28-5-56 11-83 48 64 56 148 65 250 28l-28-28zm-375 139c-28 111-42 176-42 195 0 46 23 83 70 111 111 18 194 28 250 28 55 0 101-19 138-56 47-130 47-222 0-278-27 19-71 16-132-7-60-23-122-48-187-76-37 0-69 28-97 83zm-70 306c121 139 246 185 375 139-102-19-178-35-229-49s-99-44-146-90zm-1958 222v-139l-56 167 56-28zm2361-1611c167 0 306 55 417 167l-417-167zm2333-4056c65-18 135-9 209 28 92 65 157 111 194 139l-403-167zm-1652 3084 222 83c-37 9-74 5-111-14-37-18-74-42-111-69zm986-973c55-231 134-442 236-632 102-189 241-340 417-451-149 130-274 324-375 583-10-9-14-23-14-41-56 55-105 136-146 243-42 106-81 206-118 298zm-2556 1639c19 10 35 35 49 77 14 41 39 53 76 34-74 56-120 47-139-27l14-84z"/>
  </g>
 </g>
 <g id="g3520" stroke-linejoin="round" transform="matrix(.83839 0 0 .83839 835.41 2.5501)" stroke="#000" stroke-width="1.7891">
  <g fill="none">
   <ellipse id="ellipse3522" rx="49.502" ry="22.872" cy="27.035" cx="90.149"/>
   <path id="path3524" d="m24.845 31.574-22.864 27.07c-0.00006 0-4.7454 12.187 2.4805 19.736 0 0 9.3828 8.4121 12.079 8.1964 2.6961-0.2157 5.6081-2.6962 11.971-9.3827 6.3631-6.6867 5.3945-4.1538 7.12-2.8596s14.452 7.7651 15.422 20.491c0.9705 12.726 11.378 156.49 11.863 165.22 0.4853 8.736-0.5227 69.885 27.825 69.885s25.722-45.749 26.693-66.957c0.97-21.208 8.318-151.44 12.571-168.26 4.253-16.824 15.631-21.839 15.631-21.839s10.888 10.353 13.804 12.51 11.648-3.0198 17.04-7.3336c0 0 3.748-5.8778 1.888-16.797 0 0-23.053-31.869-34.943-41.656-11.88-9.7742-29.29-19.966-53.702-19.076-24.415 0.8897-41.495 2.9928-64.873 31.062z"/>
   <circle id="ellipse3526" cy="140.53" cx="89.915" r="32.145"/>
  </g>
  <g id="g3528" fill="none">
   <path id="path3530" d="m90.032 87.866c4.2016 0 7.6076 3.406 7.6076 7.6075 0 4.2017-3.406 7.608-7.6076 7.608-4.2015 0-7.6076-3.4063-7.6076-7.608 0-4.2015 3.4061-7.6075 7.6076-7.6075z"/>
   <g id="g3532">
    <line id="line3534" y2="93.937" y1="93.937" x2="92.83" x1="87.234"/>
    <line id="line3536" y2="95.474" y1="95.474" x2="92.83" x1="87.234"/>
    <line id="line3538" y2="97.011" y1="97.011" x2="92.83" x1="87.234"/>
   </g>
  </g>
  <g id="g3540" fill="none">
   <path id="path3542" d="m89.918 191.65c4.2015 0 7.6076 3.406 7.6076 7.608s-3.4061 7.608-7.6076 7.608-7.6076-3.406-7.6076-7.608 3.4061-7.608 7.6076-7.608z"/>
   <g id="g3544">
    <path id="path3546" d="m86.617 198.27 3.3029-3.302 3.3029 3.302-3.3028 3.303-3.303-3.303z"/>
    <path id="path3548" d="m92.212 199.24 1.0111 1.011-3.3028 3.303-3.303-3.303 1.0393-1.039"/>
   </g>
  </g>
  <g fill="none">
   <path id="path3550" d="m89.837 210.11c0.9157 0 1.6581 0.743 1.6581 1.658 0 0.916-0.7424 1.659-1.6581 1.659-0.9158 0-1.6582-0.743-1.6582-1.659 0-0.915 0.7424-1.658 1.6582-1.658z"/>
   <path id="path3552" d="m35.104 31.142c1.1465 0.5847 0.5627 4.0266-1.304 7.6881-1.8668 3.6615-4.3096 6.1557-5.4561 5.5712-1.1466-0.5846-0.5627-4.0266 1.304-7.688 1.8668-3.6615 4.3095-6.1557 5.4561-5.5713z"/>
   <path id="path3554" d="m40.172 59.761c2.0141 1.1401 2.2912 4.4595 0.6188 7.4141-1.6725 2.9546-4.661 4.4255-6.6751 3.2855-2.0143-1.1401-2.2912-4.4596-0.6188-7.4142 1.6724-2.9545 4.6609-4.4255 6.6751-3.2854z"/>
   <path id="path3556" d="m17.815 74.631c2.4825-2.1146 5.6456-2.4781 7.065-0.8119 1.4195 1.6664 0.5578 4.7315-1.9247 6.8462-2.4825 2.1148-5.6456 2.4782-7.0651 0.8118-1.4195-1.6663-0.5576-4.7314 1.9248-6.8461z"/>
   <path id="path3558" d="m162.69 75.321c2.115 2.4825 2.478 5.6456 0.812 7.065-1.666 1.4196-4.731 0.5578-6.846-1.9247s-2.478-5.6456-0.812-7.065c1.666-1.4196 4.731-0.5578 6.846 1.9247z"/>
   <path id="path3560" d="m145.3 69.139c-1.88 1.3499-5.01 0.2085-6.99-2.5493-1.98-2.7579-2.061-6.0879-0.181-7.4377 1.88-1.3499 5.009-0.2085 6.989 2.5494 1.981 2.7578 2.062 6.0878 0.182 7.4376z"/>
   <path id="path3562" d="m151.56 44.135c-1.1 0.6671-3.72-1.6413-5.85-5.1558-2.13-3.5146-2.965-6.9045-1.865-7.5716 1.101-0.6672 3.72 1.6412 5.851 5.1557 2.13 3.5145 2.965 6.9044 1.864 7.5717z"/>
   <path id="path3564" d="m13.559 51.544c1.0034 0.8058-0.2694 4.0568-2.843 7.2612-2.5735 3.204-5.4733 5.149-6.4767 4.343s0.2695-4.057 2.843-7.261c2.5736-3.205 5.4737-5.149 6.4767-4.343z"/>
   <path id="path3566" d="m176.13 63.343c-0.981 0.8328-3.932-1.0322-6.592-4.1655-2.659-3.1335-4.02-6.3487-3.039-7.1814 0.982-0.8329 3.933 1.0322 6.592 4.1655 2.66 3.1334 4.02 6.3486 3.039 7.1814z"/>
   <path id="path3568" d="m60.422 45.537s28.472-28.634 58.4 0.4854"/>
   <path id="path3570" d="m44.462 24.354c1.6009-0.7937 4.2483 1.2849 5.9131 4.6425 1.6648 3.3578 1.7166 6.7233 0.1157 7.5171-1.6009 0.7937-4.2483-1.2849-5.9131-4.6425-1.6648-3.3578-1.7166-6.7233-0.1157-7.5171z"/>
   <path id="path3572" d="m136.87 24.08c1.58 0.833 1.445 4.1963-0.302 7.5117-1.747 3.3156-4.445 5.328-6.026 4.4949-1.581-0.833-1.446-4.1962 0.302-7.5117 1.747-3.3156 4.445-5.328 6.026-4.4949z"/>
   <path id="path3574" d="m49.745 88.569s38.502-11.355 82.341 0.6471"/>
   <g stroke-linecap="round">
    <line id="line3576" y2="261.08" y1="254.56" x2="85.712" x1="85.712"/>
    <path id="path3578" d="m74.523 254.94 3.3434 6.147 3.505-5.5"/>
    <path id="path3580" d="m89.519 254.94 3.3433 6.147 3.505-5.5"/>
    <path id="path3582" d="m104.89 254.56h-4.24v6.525h4.125"/>
   </g>
   <line id="line3584" y2="258.32" y1="258.32" x2="103.86" x1="100.78"/>
  </g>
  <path id="path3586" d="m82.504 244.98 6.2012-8.844h3.1815l5.768 9.167-2.4248 2.481-11-0.108-1.7256-2.696zm2.6417-1.053 1.1238 1.756 7.1642 0.07 1.5792-1.616-3.7565-5.97h-2.072l-4.0387 5.76z" stroke-linecap="round"/>
 </g>
 <g id="g3630" transform="matrix(.59777 0 0 .59777 282.45 153.02)" stroke-width="2.5093">
  <g stroke-linejoin="round" stroke="#000">
   <path id="path3632" d="m59.774 30.37s-10.26 5.1298-13.951 14.847c-0.1131 0.2954-31.568 84.444-37.487 111.67-5.9189 27.227-11.049 54.059-5.5244 74.578 5.5244 20.519 17.362 32.751 36.697 37.487 0 0 10.26-2.763 25.649-21.309s30.384-42.221 41.432-47.746c11.049-5.524 15.247-6.313 24.071-6.313h127.85c5.525 0 15.39 1.184 22.098 7.497 6.708 6.314 20.519 20.125 26.832 29.989 6.314 9.865 29.2 35.514 36.697 37.487 7.498 1.973 40.644-17.757 40.644-48.141 0-30.383-6.708-69.448-19.73-107.72-13.022-38.276-25.254-67.476-25.254-67.476s-5.031-8.8785-10.556-12.43" fill="none"/>
   <path id="path3634" d="m51.98 39.788s20.124-14.354 39.805-19.385c19.681-5.0309 24.86-6.2148 30.927-0.2959 6.067 5.919 30.63 31.074 33.59 32.258 2.959 1.1837 8.003 2.8115 23.971 2.8115h43.955s5.764 0.5918 17.01-12.874 19.355-31.727 46.168-23.824c27.276 8.0396 27.424 7.8916 44.737 19.434" fill="none"/>
   <g id="g3636">
    <path id="path3638" d="m135.78 110.76h11.838c0.981 0 1.776 0.795 1.776 1.776v17.362h17.362c0.981 0 1.776 0.795 1.776 1.776v11.838c0 0.98-0.795 1.775-1.776 1.775h-17.362v17.363c0 0.98-0.795 1.775-1.776 1.775h-11.838c-0.98 0-1.775-0.795-1.775-1.775v-17.363h-17.362c-0.981 0-1.776-0.795-1.776-1.775v-11.838c0-0.981 0.795-1.776 1.776-1.776h17.362v-17.362c0-0.981 0.795-1.776 1.775-1.776z"/>
    <path id="path3640" d="m115.88 126.28h14.501v-14.501c0-2.942 2.386-5.327 5.328-5.327h11.985c2.942 0 5.327 2.385 5.327 5.327v14.501h14.502c2.942 0 5.327 2.385 5.327 5.327v11.986c0 2.942-2.385 5.327-5.327 5.327h-14.502v14.501c0 2.942-2.385 5.327-5.327 5.327h-11.985c-2.942 0-5.328-2.385-5.328-5.327v-14.501h-14.501c-2.942 0-5.327-2.385-5.327-5.327v-11.986c0-2.942 2.385-5.327 5.327-5.327z" fill="none"/>
   </g>
   <g id="g3642" fill="none">
    <ellipse id="ellipse3644" rx="24.07" ry="24.07" cy="132.67" cx="244.63"/>
    <path id="path3646" d="m244.64 111.46c11.714 0 21.209 9.495 21.209 21.209s-9.495 21.21-21.209 21.21-21.209-9.496-21.209-21.21 9.495-21.209 21.209-21.209z"/>
    <path id="path3648" d="m244.64 117.77c8.227 0 14.896 6.67 14.896 14.896 0 8.227-6.669 14.896-14.896 14.896s-14.896-6.669-14.896-14.896c0-8.226 6.669-14.896 14.896-14.896z"/>
    <circle id="ellipse3650" cy="132.67" cx="244.63" r="27.819"/>
   </g>
   <g id="g3652" fill="none">
    <circle id="ellipse3654" cy="73.577" cx="92.617" r="24.07"/>
    <path id="path3656" d="m92.617 52.367c11.714 0 21.21 9.4958 21.21 21.21s-9.496 21.21-21.21 21.21-21.209-9.4959-21.209-21.21 9.4958-21.21 21.209-21.21z"/>
    <path id="path3658" d="m92.617 58.681c8.2268 0 14.896 6.6692 14.896 14.896s-6.669 14.896-14.896 14.896c-8.2268 0-14.896-6.669-14.896-14.896 0-8.2268 6.6691-14.896 14.896-14.896z"/>
    <circle id="ellipse3660" cy="73.577" cx="92.616" r="27.819"/>
   </g>
   <path id="path3662" d="m39.445 269.2s0.7892-5.327 10.062-15.389c9.2729-10.062 48.732-52.678 48.732-52.678s7.6949-10.655 27.03-11.246c19.335-0.592 85.527-2.171 137.42-0.198 0 0 15.389 2.171 26.635 13.417s48.443 51.48 51.403 57.103c2.959 5.623 3.847 6.511 4.143 8.287" fill="none"/>
   <g id="g3664" fill="none">
    <path id="path3666" d="m164.33 65.412c4.658 0 8.434 3.7761 8.434 8.4343s-3.776 8.4346-8.434 8.4346c-4.659 0-8.435-3.7764-8.435-8.4346s3.776-8.4343 8.435-8.4343z"/>
    <g id="g3668">
     <rect id="rect3670" height="3.5515" width="5.1791" y="73.649" x="163.3"/>
     <path id="path3672" d="m161.08 74.044h-0.912v-3.5513h5.179v0.9868"/>
    </g>
   </g>
   <g id="g3674" fill="none">
    <path id="path3676" d="m221.06 65.412c4.658 0 8.434 3.7762 8.434 8.4344s-3.776 8.4346-8.434 8.4346-8.435-3.7764-8.435-8.4346 3.777-8.4344 8.435-8.4344z"/>
    <g id="g3678">
     <line id="line3680" y2="71.442" y1="71.442" x2="225.08" x1="217.04"/>
     <line id="line3682" y2="73.846" y1="73.846" x2="225.08" x1="217.04"/>
     <line id="line3684" y2="76.251" y1="76.251" x2="225.08" x1="217.04"/>
    </g>
   </g>
  </g>
  <g stroke-linejoin="round" stroke="#000">
   <path id="path3686" d="m58.376 31.192s1.5784-6.4121 4.2419-9.3716c2.664-2.959 17.362-14.994 38.962-18.25 21.61-3.2552 24.86-1.9728 24.86-1.9728l11.838 6.7082s95.837-0.09863 110.44-0.09863c0 0 12.825-7.6947 13.811-7.6947s27.72-0.29639 60.274 20.124c0 0 4.143 6.5108 5.031 10.95" fill="none"/>
   <path id="path3688" d="m192.69 20.192c8.118 0 14.699 6.5806 14.699 14.699 0 8.1178-6.581 14.699-14.699 14.699s-14.699-6.5809-14.699-14.699c0-8.118 6.581-14.699 14.699-14.699z" fill="none"/>
   <path id="path3690" d="m188.49 28.232s-9.273 9.4209-7.3 15.932l0.986 0.9865s2.664-8.1386 10.457-13.86c0 0 8.878 5.9683 10.654 13.614 0 0 2.762-8.8784-6.363-16.573 0 0 3.354-4.6364 5.87-3.8472 0 0-3.601-4.3406-10.112 0.5918 0 0-4.291-4.8337-9.766-1.0851 0 0 2.959 0.9371 5.574 4.2418z"/>
  </g>
  <g id="g3692">
   <path id="path3694" stroke-linejoin="round" d="m293.59 35.636c7.273 0 13.169 5.8964 13.169 13.17 0 7.2735-5.896 13.17-13.169 13.17-7.274 0-13.17-5.8961-13.17-13.17 0-7.2734 5.896-13.17 13.17-13.17z" stroke="#000" fill="none"/>
   <g id="g3696">
    <path id="path3698" stroke-linejoin="round" d="m300.23 40.795-5.263 10.298v5.7212h-2.746v-5.6676l-5.264-10.352h3.029l3.322 6.8548c0.04 0.0833 0.158 0.3921 0.354 0.9261h0.035c0.07-0.2384 0.196-0.547 0.38-0.9261l3.407-6.8548h2.746z" stroke="#000" stroke-width="2.5093"/>
   </g>
  </g>
  <g id="g3700">
   <path id="path3702" stroke-linejoin="round" d="m266.28 61.76c7.273 0 13.17 5.8962 13.17 13.17 0 7.2734-5.897 13.17-13.17 13.17s-13.17-5.8964-13.17-13.17c0-7.2734 5.897-13.17 13.17-13.17z" stroke="#000" fill="none"/>
   <g id="g3704">
    <path id="path3706" stroke-linejoin="round" d="m273.15 82.94h-3.176l-3.279-5.8787c-0.095-0.1788-0.202-0.4314-0.322-0.758h-0.046c-0.067 0.1645-0.178 0.4171-0.333 0.758l-3.375 5.8787h-3.201l5.296-8.0527-4.838-7.9668h3.261l2.9 5.4065c0.186 0.3576 0.354 0.7152 0.504 1.0727h0.033c0.216-0.4695 0.404-0.8414 0.561-1.1157l3.011-5.3635h3.004l-4.953 7.9419 4.953 8.0776z" stroke="#000" stroke-width="2.5093"/>
   </g>
  </g>
  <g id="g3708">
   <ellipse id="ellipse3710" stroke-linejoin="round" rx="13.17" ry="13.17" stroke="#000" cy="76.262" cx="319.73" fill="none"/>
   <g id="g3712">
    <path id="path3714" stroke-linejoin="round" d="m314.35 84.271v-16.02h5.056c1.542 0 2.763 0.335 3.663 1.0048 0.9 0.6699 1.35 1.5425 1.35 2.6174 0 0.8988-0.253 1.6801-0.76 2.344-0.506 0.6638-1.206 1.1354-2.1 1.4142v0.0465c1.077 0.1264 1.938 0.5376 2.581 1.2337 0.644 0.696 0.966 1.6008 0.966 2.7139 0 1.3827-0.535 2.5026-1.606 3.3595-1.07 0.857-2.422 1.2856-4.055 1.2856h-5.095zm2.746-13.96v4.5771h1.681c0.903 0 1.612-0.2187 2.125-0.6562 0.514-0.4374 0.771-1.0566 0.771-1.8575 0-1.3755-0.896-2.0634-2.689-2.0634h-1.888zm0 6.6367v5.2636h2.221c0.97 0 1.72-0.2378 2.249-0.7133 0.529-0.4756 0.794-1.1307 0.794-1.965 0-1.7235-1.128-2.5853-3.383-2.5853h-1.881z" stroke="#000" stroke-width="2.5093"/>
   </g>
  </g>
  <g id="g3716">
   <path id="path3718" stroke-linejoin="round" d="m293.62 87.508c7.274 0 13.17 5.8961 13.17 13.169 0 7.274-5.896 13.17-13.17 13.17-7.273 0-13.169-5.896-13.169-13.17 0-7.2733 5.896-13.169 13.169-13.169z" stroke="#000" fill="none"/>
   <g id="g3720">
    <path id="path3722" stroke-linejoin="round" d="m301.06 108.69h-2.975l-1.412-4.119h-6.161l-1.352 4.119h-2.975l5.971-16.02h2.979l5.925 16.02zm-5.074-6.179-2.178-6.54c-0.064-0.2098-0.133-0.5471-0.207-1.0121h-0.046c-0.065 0.4268-0.137 0.7642-0.219 1.0121l-2.149 6.54h4.799z" stroke="#000" stroke-width="2.5093"/>
   </g>
  </g>
 </g>
 <g fill="#000000">
  <text id="text4221" style="word-spacing:0px;letter-spacing:0px" xml:space="preserve" font-size="40px" line-height="125%" y="169.2428" x="-1.88" font-family="Lato"><tspan id="tspan4223" x="-1.88" y="169.2428"><tspan id="tspan4225" font-size="40px" line-height="125%" y="169.2428" x="-1.88" font-family="Lato">Gaze based </tspan></tspan><tspan id="tspan4227" x="-1.88" y="219.2428"><tspan id="tspan4229" font-size="40px" line-height="125%" x="-1.88" font-family="Lato">Interactions</tspan></tspan></text>
  <flowRoot id="flowRoot3848" style="word-spacing:0px;letter-spacing:0px" xml:space="preserve" transform="translate(-18.88 -38.289)" line-height="125%" font-size="40px" font-family="sans-serif"><flowRegion id="flowRegion3850"><rect id="rect3852" y="375.66" width="233" x="26" height="216"/></flowRegion><flowPara id="flowPara3854"/></flowRoot>
  <g font-family="Lato">
   <g font-size="40px">
    <text id="text4527" style="word-spacing:0px;letter-spacing:0px" xml:space="preserve" line-height="125%" y="376.49783" x="288.12"><tspan id="tspan4529" x="288.12" y="376.49783"><tspan id="tspan4531" y="376.49783" x="288.12">Traditional </tspan></tspan><tspan id="tspan4533" x="288.12" y="426.49783"><tspan id="tspan4535" x="288.12">Gamepad</tspan></tspan></text>
    <text id="text4513" style="word-spacing:0px;letter-spacing:0px" xml:space="preserve" line-height="125%" y="361.49783" x="582.12"><tspan id="tspan4515" x="582.12" y="361.49783"><tspan id="tspan4517" y="361.49783" x="582.12">3 Degrees of </tspan></tspan><tspan id="tspan4519" x="582.12" y="411.49783"><tspan id="tspan4521" x="582.12">Freedom </tspan></tspan><tspan id="tspan4523" x="582.12" y="461.49783"><tspan id="tspan4525" x="582.12">Controller</tspan></tspan></text>
    <text id="text4503" style="word-spacing:0px;letter-spacing:0px" xml:space="preserve" line-height="125%" y="348.49783" x="842.12"><tspan id="tspan4505" x="842.12" y="348.49783"><tspan id="tspan4507" y="348.49783" x="842.12">6 DOF </tspan></tspan><tspan id="tspan4509" x="842.12" y="398.49783"><tspan id="tspan4511" x="842.12">Controller</tspan></tspan></text>
   </g>
   <text id="text4493" style="word-spacing:0px;letter-spacing:0px" xml:space="preserve" transform="scale(1.0214 .97908)" line-height="125%" font-size="40px" y="215.50555" x="996.27545"><tspan id="tspan4495" x="996.27545" y="215.50555"><tspan id="tspan4497" y="215.50555" x="996.27545">Hand </tspan></tspan><tspan id="tspan4499" x="996.27545" y="265.50552"><tspan id="tspan4501" y="265.50552" x="996.27545">Tracking</tspan></tspan></text>
  </g>
 </g>
</svg>
