<?xml version="1.0" encoding="UTF-8" standalone="no"?>
<!-- Created with Inkscape (http://www.inkscape.org/) -->

<svg
   xmlns:dc="http://purl.org/dc/elements/1.1/"
   xmlns:cc="http://creativecommons.org/ns#"
   xmlns:rdf="http://www.w3.org/1999/02/22-rdf-syntax-ns#"
   xmlns:svg="http://www.w3.org/2000/svg"
   xmlns="http://www.w3.org/2000/svg"
   xmlns:sodipodi="http://sodipodi.sourceforge.net/DTD/sodipodi-0.dtd"
   xmlns:inkscape="http://www.inkscape.org/namespaces/inkscape"
   height="130.33525mm"
   width="339.73581mm"
   viewBox="0 0 1203.7883 461.81781"
   id="svg2"
   version="1.1"
   inkscape:version="0.91 r13725"
   sodipodi:docname="devices-original.svg">
  <defs
     id="defs8" />
  <sodipodi:namedview
     pagecolor="#ffffff"
     bordercolor="#666666"
     borderopacity="1"
     objecttolerance="10"
     gridtolerance="10"
     guidetolerance="10"
     inkscape:pageopacity="0"
     inkscape:pageshadow="2"
     inkscape:window-width="1920"
     inkscape:window-height="1016"
     id="namedview6"
     showgrid="false"
     inkscape:zoom="1"
     inkscape:cx="474.32879"
     inkscape:cy="121.98714"
     inkscape:window-x="0"
     inkscape:window-y="27"
     inkscape:window-maximized="1"
     inkscape:current-layer="svg2"
     fit-margin-top="0"
     fit-margin-left="0"
     fit-margin-right="0"
     fit-margin-bottom="0" />
  <metadata
     id="metadata4">
    <rdf:RDF>
      <cc:Work
         rdf:about="">
        <dc:format>image/svg+xml</dc:format>
        <dc:type
           rdf:resource="http://purl.org/dc/dcmitype/StillImage" />
        <dc:title></dc:title>
      </cc:Work>
    </rdf:RDF>
  </metadata>
  <g
     id="g3142"
     transform="matrix(0.6785358,0,0,0.6785358,274.47692,19.874144)"
     style="stroke-width:2.21064234;stroke-miterlimit:4;stroke-dasharray:none">
    <path
       id="path3144"
       d="m 248.783,5.30896 -0.121,-4.595459 41.844,0 c 0,0 7.739,-0.040405 19.833,3.829589 12.093,3.87012 17.172,7.01421 17.172,7.01421 l 1.814,1.048 0.054,4.7376"
       inkscape:connector-curvature="0"
       style="fill:none;stroke:#000000;stroke-width:2.21064234;stroke-linejoin:round;stroke-miterlimit:4;stroke-dasharray:none;stroke-opacity:1" />
    <path
       id="path3146"
       d="m 38.3167,16.7172 -0.1209,-4.8374 c -10e-5,10e-5 10.1585,-6.40959 18.6238,-8.46537 8.4654,-2.05591 22.4399,-2.902467 41.9643,-2.902345 19.5241,0 20.0751,0.12085 20.0751,0.12085 l 0.273,5.018315"
       inkscape:connector-curvature="0"
       style="fill:none;stroke:#000000;stroke-width:2.21064234;stroke-linejoin:round;stroke-miterlimit:4;stroke-dasharray:none;stroke-opacity:1" />
    <path
       id="path3148"
       d="m 78.3942,5.47705 c 0.1844,0 0.3686,6.1e-4 0.5527,0.00195 l 0,-0.00183 208.9751,0 0,0.00501 0.898,-0.00513 c 43.014,0 77.883,34.86905 77.883,77.88205 0,43.0129 -34.87,77.8819 -77.883,77.8819 -18.973,0 -36.361,-6.784 -49.872,-18.06 l -110.682,0 c -13.51,11.276 -30.8986,18.06 -49.8718,18.06 C 35.381,161.241 0.512047,126.372 0.512047,83.3591 0.512047,40.3461 35.381,5.47705 78.3942,5.47705 Z"
       inkscape:connector-curvature="0"
       style="fill:none;stroke:#000000;stroke-width:2.21064234;stroke-linejoin:round;stroke-miterlimit:4;stroke-dasharray:none;stroke-opacity:1" />
    <path
       id="path3150"
       d="m 160.968,84.7777 0,0 c 1.66,2.0108 1.376,4.9868 -0.635,6.6471 l -15.264,12.6032 c -2.011,1.66 -4.987,1.376 -6.647,-0.635 l 0,0 c -1.66,-2.011 -1.376,-4.9866 0.635,-6.6469 l 15.264,-12.6032 c 2.011,-1.6601 4.987,-1.3759 6.647,0.6348 z"
       inkscape:connector-curvature="0"
       style="fill:none;stroke:#000000;stroke-width:2.21064234;stroke-linejoin:round;stroke-miterlimit:4;stroke-dasharray:none;stroke-opacity:1" />
    <path
       id="path3152"
       d="m 202.458,84.7804 0,0 c 1.66,2.0107 1.376,4.9866 -0.634,6.6467 l -15.265,12.6039 c -2.011,1.66 -4.987,1.376 -6.647,-0.635 l 0,0 c -1.66,-2.011 -1.376,-4.9865 0.635,-6.6467 l 15.265,-12.6037 c 2.01,-1.6601 4.986,-1.3759 6.646,0.6348 z"
       inkscape:connector-curvature="0"
       style="fill:none;stroke:#000000;stroke-width:2.21064234;stroke-linejoin:round;stroke-miterlimit:4;stroke-dasharray:none;stroke-opacity:1" />
    <g
       id="g3154"
       style="stroke-width:2.21064234;stroke-miterlimit:4;stroke-dasharray:none">
      <circle
         id="ellipse3156"
         cy="83.569"
         cx="77.984398"
         r="42.085098"
         style="fill:none;stroke:#000000;stroke-width:2.21064234;stroke-linejoin:round;stroke-miterlimit:4;stroke-dasharray:none;stroke-opacity:1" />
      <g
         id="g3158"
         style="stroke-width:2.21064234;stroke-miterlimit:4;stroke-dasharray:none">
        <path
           id="path3160"
           d="m 68.6723,52.9724 18.6239,0 c 0.5343,0 0.9675,0.4332 0.9675,0.9674 l 0,19.3496 19.3493,0 c 0.534,0 0.968,0.4331 0.968,0.9676 l 0,18.6237 c 0,0.5345 -0.434,0.9676 -0.968,0.9676 l -19.3493,0 0,19.3497 c 0,0.534 -0.4332,0.967 -0.9675,0.967 l -18.6239,0 c -0.5343,0 -0.9675,-0.433 -0.9675,-0.967 l 0,-19.3497 -19.3495,0 c -0.5343,0 -0.9675,-0.4331 -0.9675,-0.9676 l 0,-18.6237 c 0,-0.5345 0.4332,-0.9676 0.9675,-0.9676 l 19.3495,0 0,-19.3496 c 0,-0.5342 0.4332,-0.9674 0.9675,-0.9674 z"
           inkscape:connector-curvature="0"
           style="fill:none;stroke:#000000;stroke-width:2.21064234;stroke-linejoin:round;stroke-miterlimit:4;stroke-dasharray:none;stroke-opacity:1" />
        <g
           id="g3162"
           style="stroke-width:2.21064234;stroke-miterlimit:4;stroke-dasharray:none">
          <path
             id="path3164"
             d="m 77.9841,56.6486 -6.4812,11.2257 12.9623,0 -6.4811,-11.2257 z"
             inkscape:connector-curvature="0"
             style="fill:none;stroke:#000000;stroke-width:2.21064234;stroke-linejoin:round;stroke-miterlimit:4;stroke-dasharray:none;stroke-opacity:1" />
          <path
             id="path3166"
             d="m 77.9841,110.49 6.4812,-11.226 -12.9623,0 6.4811,11.226 z"
             inkscape:connector-curvature="0"
             style="fill:none;stroke:#000000;stroke-width:2.21064234;stroke-linejoin:round;stroke-miterlimit:4;stroke-dasharray:none;stroke-opacity:1" />
          <g
             id="g3168"
             style="stroke-width:2.21064234;stroke-miterlimit:4;stroke-dasharray:none">
            <path
               id="path3170"
               d="m 77.9843,75.6729 c 4.1743,0 7.5584,3.384 7.5584,7.5583 0,4.1744 -3.3841,7.5585 -7.5584,7.5585 -4.1744,0 -7.5584,-3.3841 -7.5584,-7.5585 0,-4.1743 3.384,-7.5583 7.5584,-7.5583 z"
               inkscape:connector-curvature="0"
               style="fill:none;stroke:#000000;stroke-width:2.21064234;stroke-linejoin:round;stroke-miterlimit:4;stroke-dasharray:none;stroke-opacity:1" />
            <path
               id="path3172"
               d="m 104.821,83.2313 -11.2256,-6.4812 0,12.9624 11.2256,-6.4812 z"
               inkscape:connector-curvature="0"
               style="fill:none;stroke:#000000;stroke-width:2.21064234;stroke-linejoin:round;stroke-miterlimit:4;stroke-dasharray:none;stroke-opacity:1" />
            <path
               id="path3174"
               d="m 51.1476,83.2318 11.2256,6.4812 0,-12.9623 -11.2256,6.4811 z"
               inkscape:connector-curvature="0"
               style="fill:none;stroke:#000000;stroke-width:2.21064234;stroke-linejoin:round;stroke-miterlimit:4;stroke-dasharray:none;stroke-opacity:1" />
          </g>
        </g>
      </g>
    </g>
    <circle
       id="ellipse3176"
       cy="82.747704"
       cx="290.26401"
       r="67.723396"
       style="fill:none;stroke:#000000;stroke-width:2.21064234;stroke-linejoin:round;stroke-miterlimit:4;stroke-dasharray:none;stroke-opacity:1" />
    <path
       id="path3178"
       d="m 303.059,43.6395 0,0 c 6.232,7.5642 5.152,18.7488 -2.412,24.9812 l -34.419,28.3584 c -7.564,6.2329 -18.749,5.1529 -24.981,-2.4115 l 0,0 c -6.232,-7.5643 -5.153,-18.7489 2.412,-24.9813 l 34.418,-28.3584 c 7.565,-6.2325 18.749,-5.1528 24.982,2.4116 z"
       inkscape:connector-curvature="0"
       style="fill:none;stroke:#000000;stroke-width:2.21064234;stroke-linejoin:round;stroke-miterlimit:4;stroke-dasharray:none;stroke-opacity:1" />
    <path
       id="path3180"
       d="m 338.1,71.4327 0,0 c 6.233,7.5642 5.153,18.7488 -2.411,24.9814 L 301.27,124.772 c -7.564,6.233 -18.749,5.153 -24.981,-2.411 l 0,0 c -6.233,-7.564 -5.153,-18.749 2.411,-24.9815 l 34.419,-28.3584 c 7.565,-6.2324 18.749,-5.1527 24.981,2.4116 z"
       inkscape:connector-curvature="0"
       style="fill:none;stroke:#000000;stroke-width:2.21064234;stroke-linejoin:round;stroke-miterlimit:4;stroke-dasharray:none;stroke-opacity:1" />
    <path
       id="path3182"
       d="m 255.071,69.324 c 7.681,0 13.908,6.2264 13.908,13.9076 0,7.6809 -6.227,13.9074 -13.908,13.9074 -7.681,0 -13.907,-6.2265 -13.907,-13.9074 0,-7.6812 6.226,-13.9076 13.907,-13.9076 z"
       inkscape:connector-curvature="0"
       style="fill:none;stroke:#000000;stroke-width:2.21064234;stroke-linejoin:round;stroke-miterlimit:4;stroke-dasharray:none;stroke-opacity:1" />
    <path
       id="path3184"
       d="m 289.538,42.597 c 7.681,0 13.907,6.2266 13.907,13.9076 0,7.6809 -6.226,13.9076 -13.907,13.9076 -7.681,0 -13.908,-6.2267 -13.908,-13.9076 0,-7.681 6.227,-13.9076 13.908,-13.9076 z"
       inkscape:connector-curvature="0"
       style="fill:none;stroke:#000000;stroke-width:2.21064234;stroke-linejoin:round;stroke-miterlimit:4;stroke-dasharray:none;stroke-opacity:1" />
    <path
       id="path3186"
       d="m 289.538,96.7758 c 7.681,0 13.907,6.2262 13.907,13.9072 0,7.681 -6.226,13.908 -13.907,13.908 -7.681,0 -13.908,-6.227 -13.908,-13.908 0,-7.681 6.227,-13.9072 13.908,-13.9072 z"
       inkscape:connector-curvature="0"
       style="fill:none;stroke:#000000;stroke-width:2.21064234;stroke-linejoin:round;stroke-miterlimit:4;stroke-dasharray:none;stroke-opacity:1" />
    <path
       id="path3188"
       d="m 324.367,69.2028 c 7.681,0 13.908,6.2265 13.908,13.9076 0,7.6809 -6.227,13.9075 -13.908,13.9075 -7.681,0 -13.907,-6.2266 -13.907,-13.9075 0,-7.6811 6.226,-13.9076 13.907,-13.9076 z"
       inkscape:connector-curvature="0"
       style="fill:none;stroke:#000000;stroke-width:2.21064234;stroke-linejoin:round;stroke-miterlimit:4;stroke-dasharray:none;stroke-opacity:1" />
    <g
       id="g3190"
       style="stroke-width:2.21064234;stroke-miterlimit:4;stroke-dasharray:none">
      <path
         id="path3192"
         d="m 321.605,39.2573 -1.888,0 -3.04,-3.6003 c -0.093,-0.1093 -0.195,-0.2645 -0.305,-0.4661 l -0.035,0 c -0.062,0.1007 -0.167,0.2561 -0.314,0.4661 l -3.134,3.6003 -1.896,0 4.456,-4.7276 -4.084,-4.6774 1.903,0 2.708,3.3065 c 0.178,0.2183 0.335,0.4365 0.471,0.6549 l 0.038,0 c 0.198,-0.2882 0.37,-0.5157 0.518,-0.6822 l 2.819,-3.2792 1.783,0 -4.169,4.6626 4.169,4.7424 z"
         inkscape:connector-curvature="0"
         style="fill:#000000;fill-opacity:1;stroke-width:2.21064234;stroke-linejoin:round;stroke-miterlimit:4;stroke-dasharray:none" />
    </g>
    <g
       id="g3194"
       style="stroke-width:2.21064234;stroke-miterlimit:4;stroke-dasharray:none">
      <path
         id="path3196"
         d="m 237.245,92.326 -4.708,5.3122 0,3.1388 -1.638,0 0,-3.1162 -4.503,-5.3348 1.909,0 3.097,3.8276 c 0.038,0.0465 0.15,0.2193 0.335,0.5186 l 0.029,0 c 0.066,-0.1333 0.19,-0.3061 0.371,-0.5186 l 3.266,-3.8276 1.842,0 z"
         inkscape:connector-curvature="0"
         style="fill:#000000;fill-opacity:1;stroke-width:2.21064234;stroke-linejoin:round;stroke-miterlimit:4;stroke-dasharray:none" />
    </g>
    <g
       id="g3198"
       style="stroke-width:2.21064234;stroke-miterlimit:4;stroke-dasharray:none">
      <path
         id="path3200"
         d="m 256.641,130.086 0,-8.859 4.689,0 c 1.427,0 2.558,0.187 3.393,0.56 0.834,0.373 1.252,0.859 1.252,1.457 0,0.5 -0.25,0.934 -0.749,1.303 -0.5,0.37 -1.188,0.632 -2.066,0.787 l 0,0.026 c 1.135,0.07 2.044,0.296 2.726,0.678 0.681,0.383 1.022,0.88 1.022,1.493 0,0.761 -0.511,1.377 -1.535,1.848 -1.023,0.471 -2.314,0.707 -3.872,0.707 l -4.86,0 z m 1.867,-7.973 0,2.911 1.972,0 c 1.055,0 1.885,-0.139 2.489,-0.418 0.604,-0.279 0.906,-0.672 0.906,-1.18 0,-0.875 -1.051,-1.313 -3.154,-1.313 l -2.213,0 z m 0,3.797 0,3.29 2.665,0 c 1.152,0 2.046,-0.149 2.682,-0.446 0.635,-0.297 0.953,-0.705 0.953,-1.225 0,-1.079 -1.348,-1.619 -4.043,-1.619 l -2.257,0 z"
         inkscape:connector-curvature="0"
         style="fill:#000000;fill-opacity:1;stroke-width:2.21064234;stroke-linejoin:round;stroke-miterlimit:4;stroke-dasharray:none" />
    </g>
    <g
       id="g3202"
       style="stroke-width:2.21064234;stroke-miterlimit:4;stroke-dasharray:none">
      <path
         id="path3204"
         d="m 350.602,68.6172 -1.501,0 -1.257,-2.143 -4.835,0 -1.186,2.143 -1.508,0 4.434,-7.5003 1.403,0 4.45,7.5003 z m -3.187,-2.893 -1.798,-3.1457 c -0.058,-0.1038 -0.116,-0.2695 -0.174,-0.4973 l -0.033,0 c -0.055,0.2109 -0.117,0.3767 -0.189,0.4973 l -1.786,3.1457 3.98,0 z"
         inkscape:connector-curvature="0"
         style="fill:#000000;fill-opacity:1;stroke-width:2.21064234;stroke-linejoin:round;stroke-miterlimit:4;stroke-dasharray:none" />
    </g>
    <g
       id="g3206"
       style="stroke-width:2.21064234;stroke-miterlimit:4;stroke-dasharray:none">
      <path
         id="path3208"
         d="m 140.444,112.119 c -0.072,-0.06 -0.158,-0.117 -0.258,-0.171 -0.1,-0.055 -0.207,-0.102 -0.321,-0.142 -0.114,-0.04 -0.233,-0.072 -0.357,-0.096 -0.124,-0.023 -0.247,-0.035 -0.369,-0.035 -0.231,0 -0.425,0.033 -0.582,0.1 -0.157,0.066 -0.284,0.151 -0.379,0.253 -0.096,0.102 -0.165,0.214 -0.206,0.335 -0.042,0.121 -0.063,0.235 -0.063,0.341 0,0.135 0.019,0.257 0.056,0.366 0.038,0.109 0.094,0.214 0.17,0.315 0.075,0.1 0.172,0.201 0.29,0.301 0.118,0.1 0.257,0.208 0.416,0.322 0.178,0.13 0.338,0.258 0.478,0.384 0.141,0.127 0.26,0.257 0.358,0.391 0.098,0.133 0.172,0.274 0.223,0.422 0.05,0.148 0.075,0.308 0.075,0.48 0,0.106 -0.011,0.223 -0.032,0.351 -0.021,0.128 -0.06,0.257 -0.116,0.386 -0.057,0.129 -0.134,0.255 -0.233,0.379 -0.098,0.124 -0.223,0.233 -0.375,0.328 -0.151,0.095 -0.334,0.17 -0.547,0.228 -0.214,0.057 -0.465,0.086 -0.754,0.086 -0.162,0 -0.321,-0.012 -0.477,-0.035 -0.155,-0.023 -0.304,-0.054 -0.444,-0.091 -0.141,-0.038 -0.269,-0.081 -0.386,-0.129 -0.117,-0.047 -0.217,-0.095 -0.3,-0.142 l 0.124,-0.757 c 0.093,0.072 0.198,0.14 0.317,0.205 0.119,0.064 0.245,0.121 0.377,0.17 0.133,0.049 0.27,0.087 0.411,0.115 0.142,0.028 0.282,0.043 0.421,0.043 0.22,0 0.408,-0.027 0.565,-0.081 0.157,-0.053 0.287,-0.127 0.39,-0.22 0.102,-0.094 0.178,-0.204 0.225,-0.332 0.048,-0.127 0.072,-0.265 0.072,-0.413 0,-0.129 -0.021,-0.246 -0.061,-0.349 -0.04,-0.104 -0.102,-0.205 -0.186,-0.304 -0.083,-0.099 -0.189,-0.199 -0.318,-0.301 -0.128,-0.103 -0.281,-0.215 -0.457,-0.339 -0.142,-0.1 -0.277,-0.208 -0.405,-0.325 -0.129,-0.116 -0.241,-0.244 -0.338,-0.382 -0.098,-0.138 -0.174,-0.288 -0.231,-0.45 -0.056,-0.163 -0.084,-0.338 -0.084,-0.528 0,-0.236 0.044,-0.459 0.132,-0.67 0.089,-0.21 0.219,-0.395 0.393,-0.555 0.173,-0.159 0.387,-0.286 0.643,-0.379 0.255,-0.093 0.552,-0.14 0.891,-0.14 0.129,0 0.258,0.008 0.387,0.024 0.129,0.016 0.254,0.039 0.375,0.067 0.121,0.028 0.236,0.059 0.344,0.093 0.108,0.035 0.204,0.07 0.289,0.106 l -0.143,0.775 z"
         inkscape:connector-curvature="0"
         style="fill:none;stroke:#000000;stroke-width:2.21064234;stroke-linejoin:round;stroke-miterlimit:4;stroke-dasharray:none;stroke-opacity:1" />
      <path
         id="path3210"
         d="m 145.227,111.764 -2.396,0 -0.45,2.129 2.218,0 -0.143,0.622 -2.218,0 -0.455,2.218 2.547,0 -0.13,0.621 -3.293,0 1.313,-6.211 3.15,0 -0.143,0.621 z"
         inkscape:connector-curvature="0"
         style="fill:none;stroke:#000000;stroke-width:2.21064234;stroke-linejoin:round;stroke-miterlimit:4;stroke-dasharray:none;stroke-opacity:1" />
      <path
         id="path3212"
         d="m 148.563,117.354 -3.22,0 1.313,-6.211 0.755,0 -1.179,5.59 2.474,0 -0.143,0.621 z"
         inkscape:connector-curvature="0"
         style="fill:none;stroke:#000000;stroke-width:2.21064234;stroke-linejoin:round;stroke-miterlimit:4;stroke-dasharray:none;stroke-opacity:1" />
      <path
         id="path3214"
         d="m 153.745,111.764 -2.395,0 -0.451,2.129 2.218,0 -0.142,0.622 -2.219,0 -0.455,2.218 2.547,0 -0.13,0.621 -3.293,0 1.313,-6.211 3.15,0 -0.143,0.621 z"
         inkscape:connector-curvature="0"
         style="fill:none;stroke:#000000;stroke-width:2.21064234;stroke-linejoin:round;stroke-miterlimit:4;stroke-dasharray:none;stroke-opacity:1" />
      <path
         id="path3216"
         d="m 159.283,112.141 c -0.084,-0.054 -0.18,-0.108 -0.288,-0.164 -0.109,-0.056 -0.228,-0.107 -0.358,-0.151 -0.13,-0.044 -0.273,-0.081 -0.427,-0.109 -0.154,-0.028 -0.32,-0.042 -0.496,-0.042 -0.433,0 -0.823,0.077 -1.171,0.231 -0.348,0.154 -0.644,0.366 -0.886,0.637 -0.243,0.271 -0.43,0.588 -0.562,0.953 -0.132,0.365 -0.197,0.759 -0.197,1.184 0,0.346 0.047,0.652 0.142,0.918 0.096,0.266 0.231,0.49 0.408,0.672 0.177,0.182 0.388,0.319 0.633,0.412 0.245,0.093 0.517,0.14 0.815,0.14 0.19,0 0.363,-0.012 0.519,-0.035 0.157,-0.023 0.301,-0.056 0.434,-0.098 0.132,-0.042 0.257,-0.091 0.374,-0.149 0.117,-0.057 0.23,-0.119 0.34,-0.184 l -0.169,0.76 c -0.234,0.106 -0.484,0.187 -0.751,0.243 -0.267,0.056 -0.567,0.084 -0.9,0.084 -0.393,0 -0.75,-0.065 -1.072,-0.194 -0.321,-0.13 -0.596,-0.313 -0.823,-0.549 -0.227,-0.237 -0.402,-0.522 -0.526,-0.855 -0.125,-0.333 -0.187,-0.704 -0.187,-1.111 0,-0.541 0.086,-1.037 0.258,-1.487 0.172,-0.451 0.416,-0.839 0.732,-1.163 0.316,-0.324 0.696,-0.577 1.14,-0.758 0.443,-0.182 0.935,-0.272 1.475,-0.272 0.37,0 0.697,0.038 0.981,0.114 0.285,0.077 0.525,0.163 0.721,0.259 l -0.159,0.714 z"
         inkscape:connector-curvature="0"
         style="fill:none;stroke:#000000;stroke-width:2.21064234;stroke-linejoin:round;stroke-miterlimit:4;stroke-dasharray:none;stroke-opacity:1" />
      <path
         id="path3218"
         d="m 164.377,111.764 -1.768,0 -1.17,5.59 -0.745,0 1.179,-5.59 -1.808,0 0.139,-0.621 4.316,0 -0.143,0.621 z"
         inkscape:connector-curvature="0"
         style="fill:none;stroke:#000000;stroke-width:2.21064234;stroke-linejoin:round;stroke-miterlimit:4;stroke-dasharray:none;stroke-opacity:1" />
    </g>
    <g
       id="g3220"
       style="stroke-width:2.21064234;stroke-miterlimit:4;stroke-dasharray:none">
      <path
         id="path3222"
         d="m 182.436,111.981 c -0.072,-0.061 -0.158,-0.118 -0.258,-0.172 -0.1,-0.054 -0.207,-0.101 -0.321,-0.141 -0.114,-0.04 -0.233,-0.072 -0.357,-0.096 -0.124,-0.023 -0.247,-0.035 -0.369,-0.035 -0.231,0 -0.425,0.033 -0.582,0.1 -0.157,0.066 -0.284,0.151 -0.379,0.253 -0.096,0.102 -0.165,0.213 -0.206,0.334 -0.042,0.122 -0.063,0.235 -0.063,0.342 0,0.135 0.019,0.257 0.056,0.366 0.038,0.109 0.094,0.214 0.17,0.314 0.075,0.101 0.172,0.202 0.29,0.302 0.118,0.1 0.257,0.208 0.416,0.322 0.178,0.13 0.338,0.258 0.478,0.384 0.141,0.127 0.26,0.257 0.358,0.391 0.098,0.133 0.172,0.274 0.223,0.422 0.05,0.148 0.075,0.308 0.075,0.48 0,0.106 -0.011,0.223 -0.032,0.351 -0.021,0.128 -0.06,0.256 -0.116,0.385 -0.057,0.129 -0.134,0.256 -0.232,0.38 -0.099,0.123 -0.224,0.233 -0.376,0.328 -0.151,0.094 -0.334,0.17 -0.547,0.228 -0.214,0.057 -0.465,0.086 -0.754,0.086 -0.162,0 -0.321,-0.012 -0.477,-0.035 -0.155,-0.023 -0.304,-0.054 -0.444,-0.092 -0.141,-0.037 -0.269,-0.08 -0.386,-0.128 -0.117,-0.047 -0.217,-0.095 -0.3,-0.142 l 0.124,-0.757 c 0.093,0.072 0.198,0.14 0.317,0.205 0.119,0.064 0.245,0.12 0.377,0.169 0.133,0.049 0.27,0.088 0.411,0.116 0.142,0.028 0.282,0.042 0.421,0.042 0.22,0 0.408,-0.026 0.565,-0.08 0.157,-0.054 0.287,-0.127 0.39,-0.22 0.102,-0.094 0.178,-0.204 0.225,-0.332 0.048,-0.127 0.072,-0.265 0.072,-0.413 0,-0.129 -0.021,-0.246 -0.061,-0.349 -0.04,-0.104 -0.102,-0.205 -0.186,-0.304 -0.083,-0.099 -0.189,-0.199 -0.318,-0.302 -0.128,-0.102 -0.281,-0.215 -0.457,-0.339 -0.142,-0.099 -0.277,-0.208 -0.405,-0.324 -0.129,-0.116 -0.241,-0.244 -0.338,-0.382 -0.097,-0.138 -0.174,-0.288 -0.231,-0.451 -0.056,-0.162 -0.084,-0.338 -0.084,-0.527 0,-0.236 0.044,-0.459 0.132,-0.67 0.089,-0.211 0.219,-0.396 0.393,-0.555 0.173,-0.159 0.387,-0.286 0.643,-0.379 0.256,-0.094 0.552,-0.14 0.891,-0.14 0.129,0 0.258,0.008 0.387,0.024 0.129,0.016 0.254,0.038 0.375,0.066 0.121,0.029 0.236,0.06 0.344,0.094 0.108,0.034 0.204,0.069 0.289,0.105 l -0.143,0.776 z"
         inkscape:connector-curvature="0"
         style="fill:none;stroke:#000000;stroke-width:2.21064234;stroke-linejoin:round;stroke-miterlimit:4;stroke-dasharray:none;stroke-opacity:1" />
      <path
         id="path3224"
         d="m 187.735,111.626 -1.768,0 -1.17,5.59 -0.745,0 1.179,-5.59 -1.808,0 0.139,-0.621 4.316,0 -0.143,0.621 z"
         inkscape:connector-curvature="0"
         style="fill:none;stroke:#000000;stroke-width:2.21064234;stroke-linejoin:round;stroke-miterlimit:4;stroke-dasharray:none;stroke-opacity:1" />
      <path
         id="path3226"
         d="m 191.166,117.216 -0.281,-1.775 -2.634,0 -1.006,1.775 -0.858,0 3.701,-6.211 0.762,0 1.083,6.211 -0.767,0 z m -0.805,-5.457 -0.204,0.42 -1.533,2.641 2.143,0 -0.398,-2.641 z"
         inkscape:connector-curvature="0"
         style="fill:none;stroke:#000000;stroke-width:2.21064234;stroke-linejoin:round;stroke-miterlimit:4;stroke-dasharray:none;stroke-opacity:1" />
      <path
         id="path3228"
         d="m 197.493,112.538 c 0,0.268 -0.047,0.51 -0.141,0.726 -0.094,0.215 -0.223,0.401 -0.388,0.557 -0.164,0.156 -0.36,0.28 -0.589,0.374 -0.228,0.093 -0.477,0.151 -0.746,0.174 l 0,0.018 c 0.136,0.044 0.255,0.135 0.358,0.274 0.103,0.138 0.186,0.325 0.25,0.56 l 0.52,1.995 -0.798,0 -0.459,-1.868 c -0.066,-0.273 -0.172,-0.474 -0.318,-0.602 -0.147,-0.128 -0.339,-0.192 -0.579,-0.192 l -0.542,0 -0.567,2.662 -0.746,0 1.313,-6.211 1.713,0 c 0.303,0 0.562,0.04 0.779,0.12 0.216,0.08 0.393,0.191 0.532,0.331 0.139,0.14 0.241,0.303 0.308,0.488 0.066,0.186 0.1,0.384 0.1,0.594 z m -0.763,0.068 c 0,-0.142 -0.022,-0.272 -0.065,-0.392 -0.043,-0.121 -0.11,-0.224 -0.199,-0.311 -0.089,-0.087 -0.203,-0.155 -0.342,-0.204 -0.138,-0.049 -0.303,-0.073 -0.495,-0.073 l -0.956,0 -0.477,2.307 0.858,0 c 0.303,0 0.561,-0.037 0.773,-0.111 0.212,-0.074 0.385,-0.172 0.52,-0.293 0.134,-0.121 0.232,-0.262 0.292,-0.423 0.061,-0.162 0.091,-0.328 0.091,-0.5 z"
         inkscape:connector-curvature="0"
         style="fill:none;stroke:#000000;stroke-width:2.21064234;stroke-linejoin:round;stroke-miterlimit:4;stroke-dasharray:none;stroke-opacity:1" />
      <path
         id="path3230"
         d="m 202.509,111.626 -1.768,0 -1.17,5.59 -0.744,0 1.178,-5.59 -1.808,0 0.139,-0.621 4.316,0 -0.143,0.621 z"
         inkscape:connector-curvature="0"
         style="fill:none;stroke:#000000;stroke-width:2.21064234;stroke-linejoin:round;stroke-miterlimit:4;stroke-dasharray:none;stroke-opacity:1" />
    </g>
    <path
       id="path3232"
       d="m 122.058,31.0291 97.957,0 c 1.737,0 3.145,1.4075 3.145,3.1441 l 0,0 c 0,1.7363 -1.408,3.1441 -3.145,3.1441 l -97.957,0 c -1.736,0 -3.144,-1.4078 -3.144,-3.1441 l 0,0 c 0,-1.7366 1.408,-3.1441 3.144,-3.1441 z"
       inkscape:connector-curvature="0"
       style="fill:#000000;fill-opacity:1;stroke-width:2.21064234;stroke-linejoin:round;stroke-miterlimit:4;stroke-dasharray:none" />
    <g
       id="g3234"
       style="stroke-width:2.21064234;stroke-miterlimit:4;stroke-dasharray:none">
      <path
         id="path3236"
         d="m 128.601,21.4447 c 0.754,-0.3712 1.28,-0.7424 1.579,-1.1138 0.282,-0.3471 0.521,-0.9217 0.719,-1.7237 0.351,-1.4257 0.273,-2.4579 -0.234,-3.0966 -0.481,-0.6033 -1.396,-0.905 -2.743,-0.905 -1.337,0 -2.416,0.3193 -3.236,0.958 -0.834,0.6497 -1.413,1.6299 -1.735,2.9406 -0.189,0.7648 -0.222,1.3858 -0.099,1.8629 0.128,0.4975 0.425,0.8568 0.893,1.0776 -0.843,0.3713 -1.47,0.9106 -1.883,1.6179 -0.249,0.4419 -0.5,1.1734 -0.751,2.1944 l -0.036,0.2088 c -0.411,1.6708 -0.407,2.8887 0.014,3.6535 0.452,0.8132 1.438,1.2197 2.96,1.2197 1.488,0 2.654,-0.3889 3.498,-1.1668 0.811,-0.7314 1.417,-1.9094 1.817,-3.5337 l 0.021,-0.0864 c 0.183,-0.7425 0.298,-1.2586 0.347,-1.5482 0.084,-0.4752 0.113,-0.8586 0.088,-1.15 -0.04,-0.325 -0.153,-0.5969 -0.337,-0.8159 -0.196,-0.221 -0.49,-0.4187 -0.882,-0.5933 z m -0.038,-2.2277 c -0.132,0.5347 -0.394,0.9413 -0.788,1.2196 -0.382,0.2657 -0.855,0.3984 -1.421,0.3984 -0.585,0 -0.996,-0.1393 -1.232,-0.4178 -0.239,-0.2655 -0.303,-0.6246 -0.191,-1.0776 l 0.283,-1.15 c 0.125,-0.5106 0.379,-0.9219 0.76,-1.2337 0.398,-0.3379 0.885,-0.5068 1.46,-0.5068 0.544,0 0.945,0.1624 1.203,0.4873 0.247,0.3137 0.307,0.7314 0.179,1.2532 l -0.253,1.0274 z m -1.632,7.2236 c -0.157,0.6385 -0.463,1.1313 -0.917,1.4785 -0.434,0.3491 -0.955,0.5235 -1.563,0.5235 -0.62,0 -1.05,-0.1744 -1.291,-0.5235 -0.232,-0.336 -0.269,-0.8233 -0.112,-1.4619 l 0.484,-1.966 c 0.149,-0.6034 0.437,-1.0675 0.865,-1.3923 0.417,-0.3249 0.94,-0.4873 1.57,-0.4873 0.598,0 1.024,0.1679 1.279,0.504 0.253,0.3359 0.308,0.7946 0.165,1.3756 l -0.48,1.9494 z"
         inkscape:connector-curvature="0"
         style="fill:#000000;fill-opacity:1;stroke-width:2.21064234;stroke-linejoin:round;stroke-miterlimit:4;stroke-dasharray:none" />
      <path
         id="path3238"
         d="m 129.909,30.0438 4.711,0 c 0.782,0 1.408,-0.0464 1.876,-0.1391 0.534,-0.0929 0.973,-0.2619 1.316,-0.5069 0.352,-0.2431 0.658,-0.6024 0.918,-1.0776 0.242,-0.453 0.457,-1.062 0.645,-1.8268 l 0.348,-1.4119 c 0.248,-1.008 0.271,-1.7441 0.068,-2.2082 -0.194,-0.4882 -0.685,-0.8307 -1.473,-1.0275 0.831,-0.1968 1.414,-0.4697 1.75,-0.8187 0.332,-0.3361 0.606,-0.9449 0.823,-1.8268 l 0.318,-1.2893 c 0.291,-1.1826 0.238,-1.9827 -0.158,-2.4004 -0.398,-0.4177 -1.33,-0.6264 -2.796,-0.6264 l -4.614,0 -3.732,15.1596 z m 5.576,-13.3163 0.164,0 c 0.924,0 1.54,0.0121 1.849,0.0363 0.495,0.0222 0.842,0.0918 1.041,0.2087 0.213,0.104 0.331,0.2842 0.355,0.5403 0.019,0.2321 -0.031,0.5913 -0.151,1.0777 -0.161,0.6145 -0.292,1.0554 -0.39,1.3227 -0.13,0.349 -0.274,0.6043 -0.434,0.7658 -0.159,0.1634 -0.381,0.2738 -0.669,0.3314 -0.242,0.0576 -0.602,0.0863 -1.08,0.0863 l -1.764,0.0167 1.079,-4.3859 z m -1.521,6.1792 0.099,0 c 1.021,0 1.702,0.0121 2.044,0.0363 0.539,0.0222 0.92,0.0853 1.143,0.1893 0.235,0.1059 0.372,0.2803 0.411,0.5236 0.032,0.2208 -0.008,0.5633 -0.123,1.0274 l -0.351,1.4258 c -0.12,0.4882 -0.253,0.8539 -0.4,1.0971 -0.153,0.2673 -0.363,0.4586 -0.632,0.5737 -0.246,0.117 -0.607,0.1921 -1.083,0.2256 -0.31,0.0242 -0.894,0.0361 -1.751,0.0361 l -0.625,0.0167 1.268,-5.1516 z"
         inkscape:connector-curvature="0"
         style="fill:#000000;fill-opacity:1;stroke-width:2.21064234;stroke-linejoin:round;stroke-miterlimit:4;stroke-dasharray:none" />
      <path
         id="path3240"
         d="m 144.022,14.8842 -3.732,15.1596 2.332,0 3.732,-15.1596 -2.332,0 z"
         inkscape:connector-curvature="0"
         style="fill:#000000;fill-opacity:1;stroke-width:2.21064234;stroke-linejoin:round;stroke-miterlimit:4;stroke-dasharray:none" />
      <path
         id="path3242"
         d="m 147.465,14.8842 -0.484,1.9659 2.593,0 -3.248,13.1937 2.313,0 3.248,-13.1937 3.146,0 0.484,-1.9659 -8.052,0 z"
         inkscape:connector-curvature="0"
         style="fill:#000000;fill-opacity:1;stroke-width:2.21064234;stroke-linejoin:round;stroke-miterlimit:4;stroke-dasharray:none" />
      <path
         id="path3244"
         d="m 152.893,30.0438 4.062,0 c 1.695,0 2.939,-0.2849 3.731,-0.8548 0.774,-0.544 1.328,-1.4954 1.663,-2.8544 l 2.034,-8.2649 c 0.294,-1.1956 0.193,-2.0198 -0.304,-2.4727 -0.513,-0.4753 -1.633,-0.7128 -3.361,-0.7128 l -4.093,0 -3.732,15.1596 z m 5.556,-13.2967 c 1.076,0 1.807,0.0111 2.193,0.0333 0.536,0.0354 0.907,0.1169 1.113,0.2451 0.217,0.1392 0.326,0.3593 0.328,0.6599 0.005,0.2432 -0.069,0.673 -0.221,1.2893 l -1.542,6.2657 c -0.185,0.7536 -0.347,1.2808 -0.486,1.5815 -0.171,0.3843 -0.398,0.6628 -0.68,0.8354 -0.278,0.1634 -0.696,0.2684 -1.251,0.3147 -0.413,0.0464 -1.158,0.0696 -2.234,0.0696 l 2.78,-11.2945 z"
         inkscape:connector-curvature="0"
         style="fill:#000000;fill-opacity:1;stroke-width:2.21064234;stroke-linejoin:round;stroke-miterlimit:4;stroke-dasharray:none" />
      <path
         id="path3246"
         d="m 174.118,19.5819 c 0.346,-1.4036 0.395,-2.4878 0.149,-3.2526 -0.388,-1.1602 -1.446,-1.7403 -3.174,-1.7403 -1.76,0 -3.115,0.5801 -4.064,1.7403 -0.621,0.7538 -1.099,1.8379 -1.435,3.2526 l -1.371,5.5693 c -0.371,1.5093 -0.44,2.6463 -0.206,3.4112 0.358,1.1955 1.423,1.7933 3.195,1.7933 1.739,0 3.087,-0.5978 4.043,-1.7933 0.616,-0.776 1.113,-1.9131 1.492,-3.4112 l 1.371,-5.5693 z m -3.812,6.2153 c -0.174,0.7073 -0.432,1.2698 -0.773,1.6875 -0.469,0.5793 -1.079,0.8688 -1.828,0.8688 -0.696,0 -1.146,-0.2895 -1.351,-0.8688 -0.171,-0.453 -0.177,-0.9987 -0.02,-1.6374 l 1.739,-7.0647 c 0.14,-0.5681 0.406,-1.0554 0.798,-1.4619 0.48,-0.4883 1.057,-0.7324 1.73,-0.7324 0.641,0 1.084,0.2321 1.328,0.6962 0.218,0.3954 0.252,0.8948 0.104,1.4981 l -1.727,7.0146 z"
         inkscape:connector-curvature="0"
         style="fill:#000000;fill-opacity:1;stroke-width:2.21064234;stroke-linejoin:round;stroke-miterlimit:4;stroke-dasharray:none" />
      <path
         id="path3248"
         d="m 189.822,19.8269 c 0.417,-1.6949 0.38,-2.9768 -0.112,-3.8456 -0.523,-0.9282 -1.572,-1.3923 -3.147,-1.3923 -1.673,0 -2.959,0.5448 -3.859,1.6345 -0.686,0.8466 -1.262,2.2157 -1.728,4.1074 l -1.11,4.5083 c -0.454,1.8454 -0.569,3.1736 -0.344,3.9849 0.291,1.0211 1.154,1.5316 2.588,1.5316 0.545,0 1.065,-0.1039 1.561,-0.3119 0.399,-0.1633 0.83,-0.4131 1.293,-0.749 l 0.092,0.749 2.087,0 1.945,-7.9028 -3.977,0 -0.497,2.0188 1.679,0 -0.449,1.8268 c -0.186,0.7555 -0.481,1.3357 -0.885,1.7403 -0.452,0.4641 -1.014,0.6963 -1.687,0.6963 -0.598,0 -1.029,-0.2145 -1.292,-0.6433 -0.254,-0.4288 -0.298,-0.9802 -0.133,-1.654 l 1.795,-7.2903 c 0.137,-0.5569 0.411,-1.0508 0.821,-1.4815 0.499,-0.5217 1.069,-0.7824 1.711,-0.7824 0.944,0 1.505,0.2552 1.684,0.7657 0.112,0.3026 0.076,0.8252 -0.107,1.5678 l -0.046,0.1893 -0.339,1.3756 2.298,0 0.158,-0.6432 z"
         inkscape:connector-curvature="0"
         style="fill:#000000;fill-opacity:1;stroke-width:2.21064234;stroke-linejoin:round;stroke-miterlimit:4;stroke-dasharray:none" />
      <path
         id="path3250"
         d="m 195.066,14.8842 -6.616,15.1596 2.316,0 1.673,-3.8818 3.111,0 -0.22,3.8818 2.282,0 0.879,-15.1596 -3.425,0 z m 1.049,2.6982 -0.458,6.4911 -2.297,0 2.755,-6.4911 z"
         inkscape:connector-curvature="0"
         style="fill:#000000;fill-opacity:1;stroke-width:2.21064234;stroke-linejoin:round;stroke-miterlimit:4;stroke-dasharray:none" />
      <path
         id="path3252"
         d="m 209.868,14.8842 -4.488,11.4699 0.884,-7.6244 0.31,-3.8455 -4.074,0 -3.732,15.1596 2.282,0 3.124,-12.6897 -0.826,12.6897 2.267,0 5.356,-12.6897 -3.124,12.6897 2.298,0 3.732,-15.1596 -4.009,0 z"
         inkscape:connector-curvature="0"
         style="fill:#000000;fill-opacity:1;stroke-width:2.21064234;stroke-linejoin:round;stroke-miterlimit:4;stroke-dasharray:none" />
      <path
         id="path3254"
         d="m 211.708,30.0438 6.39,0 0.502,-2.0383 -4.09,0 1.191,-4.837 3.698,0 0.467,-1.8964 -3.699,0 1.08,-4.3859 3.944,0 0.493,-2.002 -6.245,0 -3.731,15.1596 z"
         inkscape:connector-curvature="0"
         style="fill:#000000;fill-opacity:1;stroke-width:2.21064234;stroke-linejoin:round;stroke-miterlimit:4;stroke-dasharray:none" />
      <path
         id="path3256"
         d="m 219.386,30.0438 2.298,0 1.5,-6.0928 2.183,0 c 1.186,0 2.096,-0.2729 2.729,-0.8187 0.632,-0.5328 1.101,-1.4203 1.407,-2.6622 l 0.617,-2.5061 c 0.26,-1.0564 0.17,-1.8399 -0.27,-2.3504 -0.414,-0.4863 -1.158,-0.7294 -2.233,-0.7294 l -4.499,0 -3.732,15.1596 z m 5.537,-13.1576 1.81,0 c 0.369,0 0.643,0.0985 0.822,0.2953 0.213,0.2432 0.259,0.6144 0.136,1.1138 l -0.536,2.1748 c -0.128,0.5217 -0.366,0.9106 -0.712,1.1667 -0.293,0.221 -0.635,0.3315 -1.026,0.3315 l -1.74,-0.0194 1.246,-5.0627 z"
         inkscape:connector-curvature="0"
         style="fill:#000000;fill-opacity:1;stroke-width:2.21064234;stroke-linejoin:round;stroke-miterlimit:4;stroke-dasharray:none" />
      <path
         id="path3258"
         d="m 234.628,14.8842 -6.616,15.1596 2.316,0 1.673,-3.8818 3.112,0 -0.22,3.8818 2.282,0 0.878,-15.1596 -3.425,0 z m 1.05,2.6982 -0.458,6.4911 -2.298,0 2.756,-6.4911 z"
         inkscape:connector-curvature="0"
         style="fill:#000000;fill-opacity:1;stroke-width:2.21064234;stroke-linejoin:round;stroke-miterlimit:4;stroke-dasharray:none" />
      <path
         id="path3260"
         d="m 237.984,30.0438 4.062,0 c 1.695,0 2.939,-0.2849 3.731,-0.8548 0.774,-0.544 1.328,-1.4954 1.663,-2.8544 l 2.034,-8.2649 c 0.294,-1.1956 0.193,-2.0198 -0.304,-2.4727 -0.513,-0.4753 -1.633,-0.7128 -3.361,-0.7128 l -4.093,0 -3.732,15.1596 z m 5.556,-13.2967 c 1.076,0 1.807,0.0111 2.193,0.0333 0.536,0.0354 0.907,0.1169 1.113,0.2451 0.217,0.1392 0.326,0.3593 0.328,0.6599 0.005,0.2432 -0.069,0.673 -0.221,1.2893 l -1.542,6.2657 c -0.185,0.7536 -0.347,1.2808 -0.486,1.5815 -0.171,0.3843 -0.398,0.6628 -0.68,0.8354 -0.278,0.1634 -0.696,0.2684 -1.251,0.3147 -0.413,0.0464 -1.158,0.0696 -2.234,0.0696 l 2.78,-11.2945 z"
         inkscape:connector-curvature="0"
         style="fill:#000000;fill-opacity:1;stroke-width:2.21064234;stroke-linejoin:round;stroke-miterlimit:4;stroke-dasharray:none" />
    </g>
  </g>
  <g
     id="g3330"
     transform="matrix(0.89889323,0,0,0.89889328,711.43446,87.496044)"
     style="stroke-width:1.6687187;stroke-miterlimit:4;stroke-dasharray:none">
    <path
       id="path3332"
       d="m 39.6736,0.512024 0,0 c 21.6283,0 39.1616,17.533276 39.1616,39.161576 l 0,158.3554 c 0,21.628 -17.5333,39.161 -39.1616,39.161 l 0,0 c -21.6283,0 -39.16153,-17.533 -39.16153,-39.161 l 0,-158.3554 C 0.51207,18.0453 18.0453,0.512024 39.6736,0.512024 Z"
       inkscape:connector-curvature="0"
       style="fill:none;stroke:#000000;stroke-width:1.6687187;stroke-linejoin:round;stroke-miterlimit:4;stroke-dasharray:none;stroke-opacity:1" />
    <circle
       id="ellipse3334"
       cy="39.145"
       cx="39.673698"
       r="34.891701"
       style="fill:none;stroke:#000000;stroke-width:1.6687187;stroke-linejoin:round;stroke-miterlimit:4;stroke-dasharray:none;stroke-opacity:1" />
    <g
       id="g3336"
       style="stroke-width:1.6687187;stroke-miterlimit:4;stroke-dasharray:none">
      <path
         id="path3338"
         d="m 39.6736,126.374 c 7.3218,0 13.2573,5.936 13.2573,13.258 0,7.321 -5.9355,13.257 -13.2573,13.257 -7.3217,0 -13.2572,-5.936 -13.2572,-13.257 0,-7.322 5.9355,-13.258 13.2572,-13.258 z"
         inkscape:connector-curvature="0"
         style="fill:none;stroke:#000000;stroke-width:1.6687187;stroke-linejoin:round;stroke-miterlimit:4;stroke-dasharray:none;stroke-opacity:1" />
      <circle
         id="ellipse3340"
         cy="139.632"
         cx="39.673698"
         r="4.92065"
         style="fill:none;stroke:#000000;stroke-width:1.6687187;stroke-linejoin:round;stroke-miterlimit:4;stroke-dasharray:none;stroke-opacity:1" />
    </g>
    <g
       id="g3342"
       style="stroke-width:1.6687187;stroke-miterlimit:4;stroke-dasharray:none">
      <path
         id="path3344"
         d="m 39.6736,86.9686 c 7.3218,0 13.2573,5.9353 13.2573,13.2574 0,7.322 -5.9355,13.257 -13.2573,13.257 -7.3217,0 -13.2572,-5.935 -13.2572,-13.257 0,-7.3221 5.9355,-13.2574 13.2572,-13.2574 z"
         inkscape:connector-curvature="0"
         style="fill:none;stroke:#000000;stroke-width:1.6687187;stroke-linejoin:round;stroke-miterlimit:4;stroke-dasharray:none;stroke-opacity:1" />
      <line
         id="line3346"
         y2="100.226"
         x2="45.557201"
         y1="100.226"
         x1="33.7901"
         style="fill:none;stroke:#000000;stroke-width:1.6687187;stroke-linejoin:round;stroke-miterlimit:4;stroke-dasharray:none;stroke-opacity:1" />
    </g>
    <path
       id="path3348"
       d="m 39.6737,197.174 c 1.2128,0 2.1959,0.984 2.1959,2.196 0,1.213 -0.9831,2.196 -2.1959,2.196 -1.2128,0 -2.196,-0.983 -2.196,-2.196 0,-1.212 0.9831,-2.196 2.196,-2.196 z"
       inkscape:connector-curvature="0"
       style="fill:none;stroke:#000000;stroke-width:1.6687187;stroke-linejoin:round;stroke-miterlimit:4;stroke-dasharray:none;stroke-opacity:1" />
  </g>
  <g
     id="g3412"
     transform="matrix(4.0043187,0,0,4.0043187,59.10992,-5.2066462)"
     style="fill:#b7b7b7;fill-opacity:1;stroke:#000000;stroke-width:0.24973036;stroke-miterlimit:4;stroke-dasharray:none;stroke-opacity:1">
    <g
       id="g3367"
       style="fill:#b7b7b7;fill-opacity:1;stroke:#000000;stroke-width:0.24973036;stroke-miterlimit:4;stroke-dasharray:none;stroke-opacity:1">
      <g
         id="eye"
         style="fill:#b7b7b7;fill-opacity:1;stroke:#000000;stroke-width:0.24973036;stroke-miterlimit:4;stroke-dasharray:none;stroke-opacity:1">
        <path
           id="path3370"
           d="M 31.919,15.757 C 31.909,15.715 31.915,15.67 31.899,15.629 31.893,15.612 31.878,15.603 31.872,15.587 31.862,15.563 31.864,15.536 31.851,15.513 28.951,9.962 22.638,5.985 15.978,5.985 9.317,5.985 3.005,9.956 0.103,15.506 0.09,15.529 0.092,15.556 0.082,15.58 0.075,15.596 0.061,15.605 0.055,15.622 0.039,15.663 0.045,15.708 0.035,15.75 0.017,15.825 0,15.897 0,15.974 c 0,0.077 0.018,0.148 0.035,0.224 0.01,0.042 0.004,0.087 0.02,0.128 0.006,0.017 0.021,0.026 0.027,0.042 0.01,0.024 0.008,0.051 0.021,0.074 2.901,5.551 9.214,9.528 15.875,9.528 6.66,0 12.973,-3.971 15.873,-9.521 0.014,-0.023 0.012,-0.05 0.021,-0.074 0.006,-0.016 0.021,-0.025 0.027,-0.042 0.016,-0.041 0.01,-0.086 0.02,-0.128 0.017,-0.076 0.035,-0.148 0.035,-0.224 0,-0.076 -0.018,-0.149 -0.035,-0.224 z m -15.942,8.212 c -5.615,0 -11.112,-3.191 -13.851,-7.995 2.754,-4.81 8.243,-7.99 13.851,-7.99 5.613,0 11.111,3.192 13.85,7.995 -2.754,4.811 -8.242,7.99 -13.85,7.99 z"
           style="fill:#b7b7b7;fill-opacity:1;stroke:#000000;stroke-width:0.24973036;stroke-miterlimit:4;stroke-dasharray:none;stroke-opacity:1"
           inkscape:connector-curvature="0" />
        <path
           id="path3372"
           d="m 15.977,11.98 c -0.002,0 -0.004,10e-4 -0.006,10e-4 -2.205,0.004 -3.992,1.791 -3.992,3.996 0,0.276 0.224,0.5 0.5,0.5 0.275,0 0.499,-0.224 0.499,-0.5 0,-1.652 1.345,-2.997 2.999,-2.997 l 0,-0.001 c 0.275,0 0.498,-0.224 0.498,-0.499 0,-0.277 -0.222,-0.5 -0.498,-0.5 z"
           style="fill:#b7b7b7;fill-opacity:1;stroke:#000000;stroke-width:0.24973036;stroke-miterlimit:4;stroke-dasharray:none;stroke-opacity:1"
           inkscape:connector-curvature="0" />
        <path
           id="path3374"
           d="m 15.954,8.981 c -3.867,0 -7,3.134 -7,7 0,3.866 3.134,7 7,7 3.865,0 7,-3.135 7,-7 0,-3.867 -3.135,-7 -7,-7 z m 0,13 c -3.309,0 -6,-2.691 -6,-6 0,-3.309 2.691,-6 6,-6 3.309,0 6,2.691 6,6 0,3.309 -2.691,6 -6,6 z"
           style="fill:#b7b7b7;fill-opacity:1;stroke:#000000;stroke-width:0.24973036;stroke-miterlimit:4;stroke-dasharray:none;stroke-opacity:1"
           inkscape:connector-curvature="0" />
      </g>
    </g>
    <g
       id="g3376"
       style="fill:#b7b7b7;fill-opacity:1;stroke:#000000;stroke-width:0.24973036;stroke-miterlimit:4;stroke-dasharray:none;stroke-opacity:1" />
    <g
       id="g3378"
       style="fill:#b7b7b7;fill-opacity:1;stroke:#000000;stroke-width:0.24973036;stroke-miterlimit:4;stroke-dasharray:none;stroke-opacity:1" />
    <g
       id="g3380"
       style="fill:#b7b7b7;fill-opacity:1;stroke:#000000;stroke-width:0.24973036;stroke-miterlimit:4;stroke-dasharray:none;stroke-opacity:1" />
    <g
       id="g3382"
       style="fill:#b7b7b7;fill-opacity:1;stroke:#000000;stroke-width:0.24973036;stroke-miterlimit:4;stroke-dasharray:none;stroke-opacity:1" />
    <g
       id="g3384"
       style="fill:#b7b7b7;fill-opacity:1;stroke:#000000;stroke-width:0.24973036;stroke-miterlimit:4;stroke-dasharray:none;stroke-opacity:1" />
    <g
       id="g3386"
       style="fill:#b7b7b7;fill-opacity:1;stroke:#000000;stroke-width:0.24973036;stroke-miterlimit:4;stroke-dasharray:none;stroke-opacity:1" />
    <g
       id="g3388"
       style="fill:#b7b7b7;fill-opacity:1;stroke:#000000;stroke-width:0.24973036;stroke-miterlimit:4;stroke-dasharray:none;stroke-opacity:1" />
    <g
       id="g3390"
       style="fill:#b7b7b7;fill-opacity:1;stroke:#000000;stroke-width:0.24973036;stroke-miterlimit:4;stroke-dasharray:none;stroke-opacity:1" />
    <g
       id="g3392"
       style="fill:#b7b7b7;fill-opacity:1;stroke:#000000;stroke-width:0.24973036;stroke-miterlimit:4;stroke-dasharray:none;stroke-opacity:1" />
    <g
       id="g3394"
       style="fill:#b7b7b7;fill-opacity:1;stroke:#000000;stroke-width:0.24973036;stroke-miterlimit:4;stroke-dasharray:none;stroke-opacity:1" />
    <g
       id="g3396"
       style="fill:#b7b7b7;fill-opacity:1;stroke:#000000;stroke-width:0.24973036;stroke-miterlimit:4;stroke-dasharray:none;stroke-opacity:1" />
    <g
       id="g3398"
       style="fill:#b7b7b7;fill-opacity:1;stroke:#000000;stroke-width:0.24973036;stroke-miterlimit:4;stroke-dasharray:none;stroke-opacity:1" />
    <g
       id="g3400"
       style="fill:#b7b7b7;fill-opacity:1;stroke:#000000;stroke-width:0.24973036;stroke-miterlimit:4;stroke-dasharray:none;stroke-opacity:1" />
    <g
       id="g3402"
       style="fill:#b7b7b7;fill-opacity:1;stroke:#000000;stroke-width:0.24973036;stroke-miterlimit:4;stroke-dasharray:none;stroke-opacity:1" />
    <g
       id="g3404"
       style="fill:#b7b7b7;fill-opacity:1;stroke:#000000;stroke-width:0.24973036;stroke-miterlimit:4;stroke-dasharray:none;stroke-opacity:1" />
  </g>
  <g
     id="g3436"
     transform="matrix(0.89892495,0,0,0.89892495,604.88642,3.8167218)"
     style="stroke-width:1.66865993;stroke-miterlimit:4;stroke-dasharray:none">
    <ellipse
       id="ellipse3438"
       ry="36.193699"
       rx="46.521801"
       cy="41.6408"
       cx="61.2005"
       style="fill:none;stroke:#000000;stroke-width:1.66865993;stroke-linejoin:round;stroke-miterlimit:4;stroke-dasharray:none;stroke-opacity:1" />
    <path
       id="path3440"
       d="m 97.6992,109.276 -0.3053,-0.493 0,117.666 c 0,20.393 -16.5318,36.925 -36.9247,36.925 -20.393,0 -36.9248,-16.532 -36.9248,-36.925 l 0,-131.2996 C 23.1242,92.2293 21.4191,82.8092 15.477,68.6576 12.1408,64.1806 9.73013,59.1769 8.46692,53.8314 8.15506,53.1674 8.08136,52.7881 8.20767,52.6503 7.71487,50.2197 7.45831,47.7224 7.45831,45.1754 c 0,-24.667 24.06129,-44.6633 53.74229,-44.6633 29.6809,0 53.7424,19.9963 53.7424,44.6633 0,8.0313 -2.551,15.5677 -7.016,22.0797 l 0.192,-0.0228 C 99.0733,82.1449 97.466,95.9133 97.3939,103.4 l 0,1.079 c 0.0299,3.047 0.3053,4.797 0.3053,4.797 z"
       inkscape:connector-curvature="0"
       style="fill:none;stroke:#000000;stroke-width:1.66865993;stroke-linejoin:round;stroke-miterlimit:4;stroke-dasharray:none;stroke-opacity:1" />
    <path
       id="path3442"
       d="m 102.417,110.958 -0.345,-0.5 0,119.423 c 0,20.698 -18.6686,37.477 -41.6974,37.477 -23.0288,0 -41.6973,-16.779 -41.6973,-37.477 l 0,-133.26 C 18.2028,93.6572 16.2772,84.0966 9.56714,69.7335 5.79971,65.1896 3.07745,60.1113 1.651,54.6861 1.29883,54.012 1.21561,53.6271 1.35822,53.4872 0.801758,51.0203 0.512024,48.4857 0.512024,45.9007 0.512024,20.8654 27.6832,0.570328 61.2005,0.570328 c 33.5173,0 60.6885,20.295072 60.6885,45.330372 0,8.1512 -2.88,15.8001 -7.923,22.4095 l 0.217,-0.0232 c -10.215,15.1354 -12.03,29.1094 -12.111,36.707 l 0,1.096 c 0.034,3.092 0.345,4.868 0.345,4.868 z"
       inkscape:connector-curvature="0"
       style="fill:none;stroke:#000000;stroke-width:1.66865993;stroke-linejoin:round;stroke-miterlimit:4;stroke-dasharray:none;stroke-opacity:1" />
    <g
       id="g3444"
       style="stroke-width:1.66865993;stroke-miterlimit:4;stroke-dasharray:none">
      <path
         id="path3446"
         d="m 42.8752,91.4203 c 7.2688,0 13.1613,5.8925 13.1613,13.1617 0,7.268 -5.8925,13.161 -13.1613,13.161 -7.2688,0 -13.1614,-5.893 -13.1614,-13.161 0,-7.2692 5.8925,-13.1617 13.1614,-13.1617 z"
         inkscape:connector-curvature="0"
         style="fill:none;stroke:#000000;stroke-width:1.66865993;stroke-linejoin:round;stroke-miterlimit:4;stroke-dasharray:none;stroke-opacity:1" />
      <path
         id="path3448"
         d="m 79.5259,91.4203 c 7.2688,0 13.1614,5.8925 13.1614,13.1617 0,7.268 -5.8926,13.161 -13.1614,13.161 -7.2688,0 -13.1613,-5.893 -13.1613,-13.161 0,-7.2692 5.8925,-13.1617 13.1613,-13.1617 z"
         inkscape:connector-curvature="0"
         style="fill:none;stroke:#000000;stroke-width:1.66865993;stroke-linejoin:round;stroke-miterlimit:4;stroke-dasharray:none;stroke-opacity:1" />
    </g>
    <path
       id="path3450"
       d="m 61.2006,124.141 0,0 c 6.3097,0 11.4248,5.115 11.4248,11.425 l 0,40.032 c 0,6.31 -5.1151,11.425 -11.4248,11.425 l 0,0 c -6.3098,0 -11.4248,-5.115 -11.4248,-11.425 l 0,-40.032 c 0,-6.31 5.115,-11.425 11.4248,-11.425 z"
       inkscape:connector-curvature="0"
       style="fill:none;stroke:#000000;stroke-width:1.66865993;stroke-linejoin:round;stroke-miterlimit:4;stroke-dasharray:none;stroke-opacity:1" />
    <path
       id="path3452"
       d="m 61.1992,217.855 c 0.9838,0 1.7814,0.798 1.7814,1.782 0,0.983 -0.7976,1.781 -1.7814,1.781 -0.9838,0 -1.7814,-0.798 -1.7814,-1.781 0,-0.984 0.7976,-1.782 1.7814,-1.782 z"
       inkscape:connector-curvature="0"
       style="fill:none;stroke:#000000;stroke-width:1.66865993;stroke-linejoin:round;stroke-miterlimit:4;stroke-dasharray:none;stroke-opacity:1" />
    <line
       id="line3454"
       y2="140.991"
       x2="61.2006"
       y1="131.453"
       x1="61.2006"
       style="fill:none;stroke:#000000;stroke-width:1.66865993;stroke-linejoin:round;stroke-miterlimit:4;stroke-dasharray:none;stroke-opacity:1" />
    <line
       id="line3456"
       y2="136.02299"
       x2="65.802597"
       y1="136.02299"
       x1="56.598499"
       style="fill:none;stroke:#000000;stroke-width:1.66865993;stroke-linejoin:round;stroke-miterlimit:4;stroke-dasharray:none;stroke-opacity:1" />
    <line
       id="line3458"
       y2="175.14101"
       x2="65.560997"
       y1="175.14101"
       x1="56.840099"
       style="fill:none;stroke:#000000;stroke-width:1.66865993;stroke-linejoin:round;stroke-miterlimit:4;stroke-dasharray:none;stroke-opacity:1" />
    <g
       id="g3460"
       style="stroke-width:1.66865993;stroke-miterlimit:4;stroke-dasharray:none">
      <path
         id="path3462"
         d="m 76.6842,235.797 -0.0918,-5.298 1.672,0 0,6.682 -2.404,0 -1.6676,-5.483 -0.0376,0 0.0934,5.483 -1.6591,0 0,-6.682 2.5052,0 1.5531,5.298 0.0364,0 z"
         inkscape:connector-curvature="0"
         style="fill:#000000;fill-opacity:1;stroke-width:1.66865993;stroke-linejoin:round;stroke-miterlimit:4;stroke-dasharray:none" />
      <path
         id="path3464"
         d="m 46.3045,231.122 -0.9238,6.128 -1.8241,0 1.2506,-6.751 3.0047,0 1.2441,6.751 -1.8128,0 -0.9007,-6.128 -0.038,0 z"
         inkscape:connector-curvature="0"
         style="fill:#000000;fill-opacity:1;stroke-width:1.66865993;stroke-linejoin:round;stroke-miterlimit:4;stroke-dasharray:none" />
      <path
         id="path3466"
         d="m 54.1746,235.661 0.8336,-5.162 2.7531,0 0.1493,6.751 -1.689,0 -0.0437,-6.071 -0.0368,0.002 -1.1273,6.069 -1.7124,0 -1.1293,-6.071 -0.0372,0 -0.0425,6.071 -1.6877,0 0.1492,-6.751 2.7531,0 0.8308,5.162 0.0368,0 z"
         inkscape:connector-curvature="0"
         style="fill:#000000;fill-opacity:1;stroke-width:1.66865993;stroke-linejoin:round;stroke-miterlimit:4;stroke-dasharray:none" />
      <path
         id="path3468"
         d="m 40.7154,235.344 c 0.0655,0.163 0.0437,0.373 0.0129,0.501 -0.0549,0.22 -0.2066,0.45 -0.6576,0.45 -0.4214,0 -0.6787,-0.242 -0.6787,-0.609 l -0.0016,-0.656 -1.8099,0 0,0.523 c 0,1.505 1.1842,1.958 2.4526,1.958 1.2227,0 2.2257,-0.415 2.3875,-1.541 0.0825,-0.584 0.0218,-0.967 -0.0073,-1.109 -0.286,-1.415 -2.8465,-1.833 -3.0386,-2.626 -0.0324,-0.138 -0.0252,-0.276 -0.0073,-0.353 0.0489,-0.217 0.1949,-0.453 0.6168,-0.453 0.3967,0 0.6277,0.244 0.6277,0.611 l 0,0.416 1.6845,0 0,-0.471 c 0,-1.472 -1.3201,-1.702 -2.2766,-1.702 -1.2001,0 -2.1792,0.398 -2.36,1.5 -0.0494,0.297 -0.0559,0.568 0.0161,0.909 0.2925,1.379 2.6917,1.779 3.0395,2.652 z"
         inkscape:connector-curvature="0"
         style="fill:#000000;fill-opacity:1;stroke-width:1.66865993;stroke-linejoin:round;stroke-miterlimit:4;stroke-dasharray:none" />
      <path
         id="path3470"
         d="m 62.6657,235.331 c 0.0632,0.161 0.0437,0.369 0.0126,0.496 -0.0546,0.222 -0.2059,0.444 -0.6512,0.444 -0.419,0 -0.6722,-0.236 -0.6722,-0.602 l -0.0012,-0.649 -1.7933,0 -9e-4,0.516 c 0,1.492 1.1742,1.938 2.4308,1.938 1.2089,0 2.2035,-0.408 2.3616,-1.524 0.0821,-0.577 0.0219,-0.956 -0.0069,-1.1 -0.2827,-1.399 -2.8186,-1.814 -3.0067,-2.598 -0.0323,-0.136 -0.0234,-0.272 -0.008,-0.347 0.0477,-0.216 0.192,-0.45 0.6107,-0.45 0.3919,0 0.6212,0.241 0.6212,0.602 l 0,0.414 1.6672,0 0,-0.466 c 0,-1.456 -1.308,-1.684 -2.2524,-1.684 -1.1887,0 -2.1598,0.389 -2.3366,1.483 -0.0501,0.295 -0.057,0.563 0.015,0.9 0.29,1.367 2.6649,1.763 3.0103,2.627 z"
         inkscape:connector-curvature="0"
         style="fill:#000000;fill-opacity:1;stroke-width:1.66865993;stroke-linejoin:round;stroke-miterlimit:4;stroke-dasharray:none" />
      <path
         id="path3472"
         d="m 68.3313,236.235 c 0.4696,0 0.6156,-0.318 0.6487,-0.487 0.015,-0.072 0.017,-0.171 0.0166,-0.258 l 0,-4.993 1.7113,0 0,4.839 c 0.0016,0.125 -0.0113,0.379 -0.0186,0.446 -0.1173,1.259 -1.1155,1.666 -2.358,1.666 -1.2404,0 -2.2378,-0.407 -2.3539,-1.666 -0.0065,-0.067 -0.0194,-0.321 -0.0162,-0.446 l 0,-4.839 1.7064,0 0,4.993 c -0.0016,0.087 0.0016,0.186 0.0162,0.258 0.0335,0.169 0.1795,0.487 0.6475,0.487 z"
         inkscape:connector-curvature="0"
         style="fill:#000000;fill-opacity:1;stroke-width:1.66865993;stroke-linejoin:round;stroke-miterlimit:4;stroke-dasharray:none" />
      <path
         id="path3474"
         d="m 82.4177,236.166 c 0.4874,0 0.6585,-0.308 0.69,-0.488 0.013,-0.076 0.0178,-0.171 0.0154,-0.257 l 0,-0.979 -0.6912,0 0,-0.987 2.3887,0 0,1.811 c -8e-4,0.127 -0.0021,0.221 -0.0206,0.446 -0.1129,1.229 -1.1802,1.668 -2.3758,1.668 -1.1964,0 -2.2633,-0.439 -2.3742,-1.668 -0.0194,-0.225 -0.0226,-0.319 -0.0234,-0.446 l 8e-4,-2.84 c 0,-0.122 0.0141,-0.334 0.0279,-0.442 0.15,-1.266 1.1725,-1.669 2.3697,-1.669 1.1964,0 2.2459,0.399 2.3709,1.669 0.0194,0.211 0.0117,0.442 0.0129,0.442 l 0,0.225 -1.7011,0 0,-0.38 c 0,0 -0.0016,-0.159 -0.0223,-0.254 -0.0303,-0.148 -0.1581,-0.491 -0.6746,-0.491 -0.4902,0 -0.635,0.325 -0.6722,0.491 -0.0194,0.086 -0.0275,0.206 -0.0275,0.317 l 0,3.087 c -8e-4,0.086 0.0033,0.181 0.0154,0.257 0.0324,0.18 0.2026,0.488 0.6912,0.488 z"
         inkscape:connector-curvature="0"
         style="fill:#000000;fill-opacity:1;stroke-width:1.66865993;stroke-linejoin:round;stroke-miterlimit:4;stroke-dasharray:none" />
    </g>
  </g>
  <g
     style="fill:#3c3c3c;fill-opacity:1;fill-rule:evenodd;image-rendering:optimizeQuality;shape-rendering:geometricPrecision;text-rendering:geometricPrecision"
     id="g3514"
     transform="matrix(0.01363635,0,0,0.01350923,1063.6858,-1.7279462)">
    <g
       id="g3506"
       transform="matrix(1.84197,0,0,1.84216,-3564.529,-5796.478)"
       style="fill:#3c3c3c;fill-opacity:1">
      <path
         id="path3508"
         d="m 6444,3410 1069,389 c -37,380 -65,704 -83,972 -19,269 -107,491 -264,667 l -417,667 -97,0 c -231,-186 -426,-338 -583,-459 -158,-120 -329,-208 -514,-264 l -167,639 c -55,56 -299,292 -729,709 -431,416 -674,828 -729,1236 -65,92 -128,268 -188,527 -60,260 -118,431 -173,514 -84,56 -176,84 -278,84 -130,0 -255,-42 -375,-125 -139,-148 -208,-357 -208,-625 0,-93 6,-192 20,-299 14,-106 40,-215 77,-326 -176,18 -352,32 -528,41 -28,10 -56,-7 -83,-48 -28,-42 -56,-58 -84,-49 -65,93 -162,382 -291,868 -130,486 -338,785 -625,896 -149,0 -264,-46 -348,-139 223,-1120 449,-2241 681,-3361 18,-93 7,-213 -35,-361 -41,-148 -62,-245 -62,-292 0,-46 14,-106 41,-180 306,-278 732,-563 1278,-855 547,-291 959,-511 1236,-659 565,-121 1135,-241 1709,-361 277,0 527,64 750,194 z m -1306,-14 c -46,9 -164,33 -354,70 -190,37 -403,78 -639,125 -236,46 -424,152 -562,319 -84,46 -158,90 -223,132 -64,42 -129,63 -194,63 -158,74 -357,187 -597,340 -241,153 -426,266 -556,340 56,0 134,-25 236,-76 102,-51 171,-77 209,-77 -56,65 -181,137 -375,216 -195,78 -311,182 -348,312 0,241 -41,530 -125,868 -83,338 -176,711 -277,1118 27,9 62,16 104,21 41,5 62,21 62,49 -37,37 -74,55 -111,55 l 83,84 c -9,37 -41,50 -97,41 -55,-9 -104,100 -146,327 -41,226 -95,544 -159,951 0,111 14,222 41,333 -55,93 -106,181 -152,264 37,37 92,56 166,56 l 84,0 c 37,-19 74,-37 111,-56 37,-18 74,-51 111,-97 37,-46 78,-116 125,-208 46,-139 92,-278 139,-417 0,-65 -33,-116 -98,-153 93,-65 167,-166 223,-305 55,-139 106,-273 152,-403 0,-28 -16,-44 -48,-49 -33,-4 -63,-11 -90,-21 l -14,-111 222,-41 c 83,-278 167,-561 250,-848 0,-111 -23,-208 -70,-291 28,-28 65,-19 112,28 46,46 87,55 125,27 l -70,125 c 195,47 352,-18 472,-194 -111,-65 -185,-125 -222,-181 -83,0 -125,-32 -125,-97 19,-65 33,-118 42,-160 9,-41 9,-76 0,-104 28,0 55,23 83,70 -18,139 63,250 243,333 181,83 285,162 313,236 -10,-74 -51,-160 -125,-257 -74,-97 -116,-160 -125,-187 l 305,264 c 0,-47 -18,-112 -55,-195 -37,-83 -56,-148 -56,-194 65,92 123,162 174,208 51,46 76,102 76,167 0,46 -9,99 -28,159 -18,61 -39,137 -62,230 -23,92 -111,335 -264,729 -153,393 -229,696 -229,909 0,176 32,343 97,500 46,-138 88,-254 125,-347 37,-92 111,-139 222,-139 185,0 297,61 334,181 74,-222 148,-445 222,-667 -47,9 -95,14 -146,14 l -104,0 c -130,0 -232,-28 -306,-83 19,-9 40,-14 63,-14 l 76,0 -111,-97 c 37,-37 88,-56 153,-56 46,0 118,21 215,63 97,41 174,53 229,34 28,-148 125,-333 292,-555 167,-222 259,-352 278,-389 l -125,-111 -209,-195 c 65,19 153,58 264,118 111,61 185,91 222,91 75,0 144,-51 209,-153 241,-130 426,-412 555,-847 130,-436 273,-718 431,-848 268,-27 507,26 715,160 208,134 401,252 577,354 101,-120 169,-257 201,-409 32,-153 49,-336 49,-549 l 0,-347 c 0,-74 -75,-125 -223,-153 -148,-28 -389,-118 -722,-271 -333,-153 -597,-229 -792,-229 -166,0 -319,32 -458,97 z m 875,1514 0,56 847,666 c 0,-9 19,-32 56,-69 37,-37 46,-70 28,-97 -102,-139 -225,-246 -368,-320 -144,-74 -331,-153 -563,-236 z m 514,97 -278,-125 278,125 z m -583,42 c 92,93 199,185 319,278 120,92 227,162 320,208 -56,-74 -132,-153 -230,-236 -97,-83 -233,-167 -409,-250 z m -4348,42 c -37,37 -55,78 -55,125 0,46 14,83 42,111 l 13,-236 z m 4417,264 -208,-112 278,195 -70,-83 z m 347,166 361,334 c 10,-10 14,-19 14,-28 0,-9 5,-33 14,-70 -92,-37 -171,-78 -236,-125 -65,-46 -116,-83 -153,-111 z m -3416,889 0,56 c 64,0 97,-10 97,-28 -46,-19 -79,-28 -97,-28 z m -500,278 -264,819 69,111 c 74,19 130,28 167,28 74,0 155,-18 243,-55 88,-37 155,-65 201,-84 84,-305 172,-611 264,-916 l -180,0 c -19,157 -47,277 -84,361 -37,83 -111,157 -222,222 46,-83 93,-169 139,-257 46,-88 69,-178 69,-271 0,-46 -4,-83 -13,-111 -47,19 -112,46 -195,83 -83,37 -148,61 -194,70 z m 986,1694 c -65,-27 -111,-44 -139,-48 -28,-5 -56,11 -83,48 64,56 148,65 250,28 l -28,-28 z m -375,139 c -28,111 -42,176 -42,195 0,46 23,83 70,111 111,18 194,28 250,28 55,0 101,-19 138,-56 47,-130 47,-222 0,-278 -27,19 -71,16 -132,-7 -60,-23 -122,-48 -187,-76 -37,0 -69,28 -97,83 z m -70,306 c 121,139 246,185 375,139 -102,-19 -178,-35 -229,-49 -51,-14 -99,-44 -146,-90 z m -1958,222 0,-139 -56,167 56,-28 z M 3388,7438 c 167,0 306,55 417,167 L 3388,7438 Z M 5721,3382 c 65,-18 135,-9 209,28 92,65 157,111 194,139 l -403,-167 z m -1652,3084 222,83 c -37,9 -74,5 -111,-14 -37,-18 -74,-42 -111,-69 z m 986,-973 c 55,-231 134,-442 236,-632 102,-189 241,-340 417,-451 -149,130 -274,324 -375,583 -10,-9 -14,-23 -14,-41 -56,55 -105,136 -146,243 -42,106 -81,206 -118,298 z M 2499,7132 c 19,10 35,35 49,77 14,41 39,53 76,34 -74,56 -120,47 -139,-27 l 14,-84 z"
         inkscape:connector-curvature="0"
         style="fill:#3c3c3c;fill-opacity:1" />
    </g>
  </g>
  <g
     id="g3520"
     transform="matrix(0.83838771,0,0,0.83838771,835.40933,2.5501138)"
     style="stroke-width:1.78914833;stroke-miterlimit:4;stroke-dasharray:none">
    <ellipse
       id="ellipse3522"
       ry="22.8724"
       rx="49.5023"
       cy="27.0347"
       cx="90.1493"
       style="fill:none;stroke:#000000;stroke-width:1.78914833;stroke-linejoin:round;stroke-miterlimit:4;stroke-dasharray:none;stroke-opacity:1" />
    <path
       id="path3524"
       d="M 24.8452,31.5737 1.98151,58.6436 c -6e-5,0 -4.74536,12.1867 2.48047,19.7362 0,0 9.38282,8.4121 12.07892,8.1964 2.6961,-0.2157 5.6081,-2.6962 11.9711,-9.3827 6.3631,-6.6867 5.3945,-4.1538 7.12,-2.8596 1.7255,1.2942 14.4517,7.7651 15.4223,20.4912 0.9705,12.7259 11.3779,156.4869 11.8632,165.2229 0.4853,8.736 -0.5227,69.885 27.8247,69.885 28.3478,0 25.7218,-45.749 26.6928,-66.957 0.97,-21.208 8.318,-151.435 12.571,-168.2588 4.253,-16.8243 15.631,-21.8393 15.631,-21.8393 0,0 10.888,10.3534 13.804,12.5104 2.916,2.157 11.648,-3.0198 17.04,-7.3336 0,0 3.748,-5.8778 1.888,-16.7973 0,0 -23.053,-31.8691 -34.943,-41.6563 C 131.536,9.81384 114.133,-0.377808 89.7176,0.512085 65.3027,1.40173 48.2231,3.50476 24.8452,31.5737 Z"
       inkscape:connector-curvature="0"
       style="fill:none;stroke:#000000;stroke-width:1.78914833;stroke-linejoin:round;stroke-miterlimit:4;stroke-dasharray:none;stroke-opacity:1" />
    <circle
       id="ellipse3526"
       cy="140.52699"
       cx="89.915298"
       r="32.145401"
       style="fill:none;stroke:#000000;stroke-width:1.78914833;stroke-linejoin:round;stroke-miterlimit:4;stroke-dasharray:none;stroke-opacity:1" />
    <g
       id="g3528"
       style="stroke-width:1.78914833;stroke-miterlimit:4;stroke-dasharray:none">
      <path
         id="path3530"
         d="m 90.0319,87.8665 c 4.2016,0 7.6076,3.406 7.6076,7.6075 0,4.2017 -3.406,7.608 -7.6076,7.608 -4.2015,0 -7.6076,-3.4063 -7.6076,-7.608 0,-4.2015 3.4061,-7.6075 7.6076,-7.6075 z"
         inkscape:connector-curvature="0"
         style="fill:none;stroke:#000000;stroke-width:1.78914833;stroke-linejoin:round;stroke-miterlimit:4;stroke-dasharray:none;stroke-opacity:1" />
      <g
         id="g3532"
         style="stroke-width:1.78914833;stroke-miterlimit:4;stroke-dasharray:none">
        <line
           id="line3534"
           y2="93.937103"
           x2="92.829803"
           y1="93.937103"
           x1="87.233902"
           style="fill:none;stroke:#000000;stroke-width:1.78914833;stroke-linejoin:round;stroke-miterlimit:4;stroke-dasharray:none;stroke-opacity:1" />
        <line
           id="line3536"
           y2="95.473999"
           x2="92.829803"
           y1="95.473999"
           x1="87.233902"
           style="fill:none;stroke:#000000;stroke-width:1.78914833;stroke-linejoin:round;stroke-miterlimit:4;stroke-dasharray:none;stroke-opacity:1" />
        <line
           id="line3538"
           y2="97.010902"
           x2="92.829803"
           y1="97.010902"
           x1="87.233902"
           style="fill:none;stroke:#000000;stroke-width:1.78914833;stroke-linejoin:round;stroke-miterlimit:4;stroke-dasharray:none;stroke-opacity:1" />
      </g>
    </g>
    <g
       id="g3540"
       style="stroke-width:1.78914833;stroke-miterlimit:4;stroke-dasharray:none">
      <path
         id="path3542"
         d="m 89.9179,191.652 c 4.2015,0 7.6076,3.406 7.6076,7.608 0,4.202 -3.4061,7.608 -7.6076,7.608 -4.2015,0 -7.6076,-3.406 -7.6076,-7.608 0,-4.202 3.4061,-7.608 7.6076,-7.608 z"
         inkscape:connector-curvature="0"
         style="fill:none;stroke:#000000;stroke-width:1.78914833;stroke-linejoin:round;stroke-miterlimit:4;stroke-dasharray:none;stroke-opacity:1" />
      <g
         id="g3544"
         style="stroke-width:1.78914833;stroke-miterlimit:4;stroke-dasharray:none">
        <path
           id="path3546"
           d="m 86.6172,198.272 3.3029,-3.302 3.3029,3.302 -3.3028,3.303 -3.303,-3.303 z"
           inkscape:connector-curvature="0"
           style="fill:none;stroke:#000000;stroke-width:1.78914833;stroke-linejoin:round;stroke-miterlimit:4;stroke-dasharray:none;stroke-opacity:1" />
        <path
           id="path3548"
           d="m 92.2119,199.235 1.0111,1.011 -3.3028,3.303 -3.303,-3.303 1.0393,-1.039"
           inkscape:connector-curvature="0"
           style="fill:none;stroke:#000000;stroke-width:1.78914833;stroke-linejoin:round;stroke-miterlimit:4;stroke-dasharray:none;stroke-opacity:1" />
      </g>
    </g>
    <path
       id="path3550"
       d="m 89.837,210.114 c 0.9157,0 1.6581,0.743 1.6581,1.658 0,0.916 -0.7424,1.659 -1.6581,1.659 -0.9158,0 -1.6582,-0.743 -1.6582,-1.659 0,-0.915 0.7424,-1.658 1.6582,-1.658 z"
       inkscape:connector-curvature="0"
       style="fill:none;stroke:#000000;stroke-width:1.78914833;stroke-linejoin:round;stroke-miterlimit:4;stroke-dasharray:none;stroke-opacity:1" />
    <path
       id="path3552"
       d="m 35.1045,31.1417 c 1.1465,0.5847 0.5627,4.0266 -1.304,7.6881 -1.8668,3.6615 -4.3096,6.1557 -5.4561,5.5712 -1.1466,-0.5846 -0.5627,-4.0266 1.304,-7.688 1.8668,-3.6615 4.3095,-6.1557 5.4561,-5.5713 z"
       inkscape:connector-curvature="0"
       style="fill:none;stroke:#000000;stroke-width:1.78914833;stroke-linejoin:round;stroke-miterlimit:4;stroke-dasharray:none;stroke-opacity:1" />
    <path
       id="path3554"
       d="m 40.172,59.7611 c 2.0141,1.1401 2.2912,4.4595 0.6188,7.4141 -1.6725,2.9546 -4.661,4.4255 -6.6751,3.2855 -2.0143,-1.1401 -2.2912,-4.4596 -0.6188,-7.4142 1.6724,-2.9545 4.6609,-4.4255 6.6751,-3.2854 z"
       inkscape:connector-curvature="0"
       style="fill:none;stroke:#000000;stroke-width:1.78914833;stroke-linejoin:round;stroke-miterlimit:4;stroke-dasharray:none;stroke-opacity:1" />
    <path
       id="path3556"
       d="m 17.8149,74.6311 c 2.4825,-2.1146 5.6456,-2.4781 7.065,-0.8119 1.4195,1.6664 0.5578,4.7315 -1.9247,6.8462 -2.4825,2.1148 -5.6456,2.4782 -7.0651,0.8118 -1.4195,-1.6663 -0.5576,-4.7314 1.9248,-6.8461 z"
       inkscape:connector-curvature="0"
       style="fill:none;stroke:#000000;stroke-width:1.78914833;stroke-linejoin:round;stroke-miterlimit:4;stroke-dasharray:none;stroke-opacity:1" />
    <path
       id="path3558"
       d="m 162.688,75.3212 c 2.115,2.4825 2.478,5.6456 0.812,7.065 -1.666,1.4196 -4.731,0.5578 -6.846,-1.9247 -2.115,-2.4825 -2.478,-5.6456 -0.812,-7.065 1.666,-1.4196 4.731,-0.5578 6.846,1.9247 z"
       inkscape:connector-curvature="0"
       style="fill:none;stroke:#000000;stroke-width:1.78914833;stroke-linejoin:round;stroke-miterlimit:4;stroke-dasharray:none;stroke-opacity:1" />
    <path
       id="path3560"
       d="m 145.3,69.139 c -1.88,1.3499 -5.01,0.2085 -6.99,-2.5493 -1.98,-2.7579 -2.061,-6.0879 -0.181,-7.4377 1.88,-1.3499 5.009,-0.2085 6.989,2.5494 1.981,2.7578 2.062,6.0878 0.182,7.4376 z"
       inkscape:connector-curvature="0"
       style="fill:none;stroke:#000000;stroke-width:1.78914833;stroke-linejoin:round;stroke-miterlimit:4;stroke-dasharray:none;stroke-opacity:1" />
    <path
       id="path3562"
       d="m 151.557,44.1354 c -1.1,0.6671 -3.72,-1.6413 -5.85,-5.1558 -2.13,-3.5146 -2.965,-6.9045 -1.865,-7.5716 1.101,-0.6672 3.72,1.6412 5.851,5.1557 2.13,3.5145 2.965,6.9044 1.864,7.5717 z"
       inkscape:connector-curvature="0"
       style="fill:none;stroke:#000000;stroke-width:1.78914833;stroke-linejoin:round;stroke-miterlimit:4;stroke-dasharray:none;stroke-opacity:1" />
    <path
       id="path3564"
       d="m 13.559,51.5439 c 1.0034,0.8058 -0.2694,4.0568 -2.843,7.2612 C 8.14246,62.0094 5.24274,63.9537 4.23932,63.1478 3.2359,62.3419 4.50879,59.0909 7.08234,55.8866 9.65588,52.6823 12.5556,50.738 13.559,51.5439 Z"
       inkscape:connector-curvature="0"
       style="fill:none;stroke:#000000;stroke-width:1.78914833;stroke-linejoin:round;stroke-miterlimit:4;stroke-dasharray:none;stroke-opacity:1" />
    <path
       id="path3566"
       d="m 176.134,63.3429 c -0.981,0.8328 -3.932,-1.0322 -6.592,-4.1655 -2.659,-3.1335 -4.02,-6.3487 -3.039,-7.1814 0.982,-0.8329 3.933,1.0322 6.592,4.1655 2.66,3.1334 4.02,6.3486 3.039,7.1814 z"
       inkscape:connector-curvature="0"
       style="fill:none;stroke:#000000;stroke-width:1.78914833;stroke-linejoin:round;stroke-miterlimit:4;stroke-dasharray:none;stroke-opacity:1" />
    <path
       id="path3568"
       d="m 60.4215,45.5372 c 0,0 28.4719,-28.6335 58.3995,0.4854"
       inkscape:connector-curvature="0"
       style="fill:none;stroke:#000000;stroke-width:1.78914833;stroke-linejoin:round;stroke-miterlimit:4;stroke-dasharray:none;stroke-opacity:1" />
    <path
       id="path3570"
       d="m 44.4619,24.3544 c 1.6009,-0.7937 4.2483,1.2849 5.9131,4.6425 1.6648,3.3578 1.7166,6.7233 0.1157,7.5171 -1.6009,0.7937 -4.2483,-1.2849 -5.9131,-4.6425 -1.6648,-3.3578 -1.7166,-6.7233 -0.1157,-7.5171 z"
       inkscape:connector-curvature="0"
       style="fill:none;stroke:#000000;stroke-width:1.78914833;stroke-linejoin:round;stroke-miterlimit:4;stroke-dasharray:none;stroke-opacity:1" />
    <path
       id="path3572"
       d="m 136.873,24.0802 c 1.58,0.833 1.445,4.1963 -0.302,7.5117 -1.747,3.3156 -4.445,5.328 -6.026,4.4949 -1.581,-0.833 -1.446,-4.1962 0.302,-7.5117 1.747,-3.3156 4.445,-5.328 6.026,-4.4949 z"
       inkscape:connector-curvature="0"
       style="fill:none;stroke:#000000;stroke-width:1.78914833;stroke-linejoin:round;stroke-miterlimit:4;stroke-dasharray:none;stroke-opacity:1" />
    <path
       id="path3574"
       d="m 49.7446,88.5686 c 0,0 38.5017,-11.3552 82.3414,0.6471"
       inkscape:connector-curvature="0"
       style="fill:none;stroke:#000000;stroke-width:1.78914833;stroke-linejoin:round;stroke-miterlimit:4;stroke-dasharray:none;stroke-opacity:1" />
    <line
       id="line3576"
       y2="261.08499"
       x2="85.711899"
       y1="254.56"
       x1="85.711899"
       style="fill:none;stroke:#000000;stroke-width:1.78914833;stroke-linecap:round;stroke-linejoin:round;stroke-miterlimit:4;stroke-dasharray:none;stroke-opacity:1" />
    <path
       id="path3578"
       d="m 74.5226,254.938 3.3434,6.147 3.505,-5.5"
       inkscape:connector-curvature="0"
       style="fill:none;stroke:#000000;stroke-width:1.78914833;stroke-linecap:round;stroke-linejoin:round;stroke-miterlimit:4;stroke-dasharray:none;stroke-opacity:1" />
    <path
       id="path3580"
       d="m 89.5192,254.938 3.3433,6.147 3.505,-5.5"
       inkscape:connector-curvature="0"
       style="fill:none;stroke:#000000;stroke-width:1.78914833;stroke-linecap:round;stroke-linejoin:round;stroke-miterlimit:4;stroke-dasharray:none;stroke-opacity:1" />
    <path
       id="path3582"
       d="m 104.889,254.56 -4.24,0 0,6.525 4.125,0"
       inkscape:connector-curvature="0"
       style="fill:none;stroke:#000000;stroke-width:1.78914833;stroke-linecap:round;stroke-linejoin:round;stroke-miterlimit:4;stroke-dasharray:none;stroke-opacity:1" />
    <line
       id="line3584"
       y2="258.32101"
       x2="103.865"
       y1="258.32101"
       x1="100.784"
       style="fill:none;stroke:#000000;stroke-width:1.78914833;stroke-linejoin:round;stroke-miterlimit:4;stroke-dasharray:none;stroke-opacity:1" />
    <path
       id="path3586"
       d="m 82.5035,244.984 6.2012,-8.844 3.1815,0 5.768,9.167 -2.4248,2.481 -11.0003,-0.108 -1.7256,-2.696 z m 2.6417,-1.053 1.1238,1.756 7.1642,0.07 1.5792,-1.616 -3.7565,-5.97 -2.072,0 -4.0387,5.76 z"
       inkscape:connector-curvature="0"
       style="fill:#000000;fill-opacity:1;stroke:#000000;stroke-width:1.78914833;stroke-linecap:round;stroke-linejoin:round;stroke-miterlimit:4;stroke-dasharray:none;stroke-opacity:1" />
  </g>
  <g
     id="g3630"
     transform="matrix(0.59776738,0,0,0.59776742,282.4498,153.02077)"
     style="stroke-width:2.50933719;stroke-miterlimit:4;stroke-dasharray:none">
    <path
       id="path3632"
       d="m 59.7739,30.3701 c 0,0 -10.2595,5.1298 -13.9512,14.8471 -0.1131,0.2954 -31.5676,84.4438 -37.48652,111.6708 -5.91894,27.227 -11.04864,54.059 -5.52441,74.578 5.52435,20.519 17.36223,32.751 36.69743,37.487 0,0 10.2595,-2.763 25.6486,-21.309 15.3893,-18.546 30.3839,-42.221 41.4322,-47.746 11.049,-5.524 15.247,-6.313 24.071,-6.313 8.823,0 122.324,0 127.848,0 5.525,0 15.39,1.184 22.098,7.497 6.708,6.314 20.519,20.125 26.832,29.989 6.314,9.865 29.2,35.514 36.697,37.487 7.498,1.973 40.644,-17.757 40.644,-48.141 0,-30.383 -6.708,-69.448 -19.73,-107.724 -13.022,-38.2758 -25.254,-67.4758 -25.254,-67.4758 0,0 -5.031,-8.8785 -10.556,-12.4297"
       inkscape:connector-curvature="0"
       style="fill:none;stroke:#000000;stroke-width:2.50933719;stroke-linejoin:round;stroke-miterlimit:4;stroke-dasharray:none;stroke-opacity:1" />
    <path
       id="path3634"
       d="m 51.9796,39.788 c 0,0 20.1243,-14.3536 39.8048,-19.3847 19.6806,-5.0309 24.8596,-6.2148 30.9266,-0.2959 6.067,5.919 30.63,31.0745 33.59,32.2582 2.959,1.1837 8.003,2.8115 23.971,2.8115 15.968,0 43.955,0 43.955,0 0,0 5.764,0.5918 17.01,-12.8736 11.246,-13.4656 19.355,-31.7266 46.168,-23.8236 27.276,8.0396 27.424,7.8916 44.737,19.4336"
       inkscape:connector-curvature="0"
       style="fill:none;stroke:#000000;stroke-width:2.50933719;stroke-linejoin:round;stroke-miterlimit:4;stroke-dasharray:none;stroke-opacity:1" />
    <g
       id="g3636"
       style="stroke-width:2.50933719;stroke-miterlimit:4;stroke-dasharray:none">
      <path
         id="path3638"
         d="m 135.781,110.765 11.838,0 c 0.981,0 1.776,0.795 1.776,1.776 l 0,17.362 17.362,0 c 0.981,0 1.776,0.795 1.776,1.776 l 0,11.838 c 0,0.98 -0.795,1.775 -1.776,1.775 l -17.362,0 0,17.363 c 0,0.98 -0.795,1.775 -1.776,1.775 l -11.838,0 c -0.98,0 -1.775,-0.795 -1.775,-1.775 l 0,-17.363 -17.362,0 c -0.981,0 -1.776,-0.795 -1.776,-1.775 l 0,-11.838 c 0,-0.981 0.795,-1.776 1.776,-1.776 l 17.362,0 0,-17.362 c 0,-0.981 0.795,-1.776 1.775,-1.776 z"
         inkscape:connector-curvature="0"
         style="fill:#000000;fill-opacity:1;stroke:#000000;stroke-width:2.50933719;stroke-linejoin:round;stroke-miterlimit:4;stroke-dasharray:none;stroke-opacity:1" />
      <path
         id="path3640"
         d="m 115.879,126.278 14.501,0 0,-14.501 c 0,-2.942 2.386,-5.327 5.328,-5.327 l 11.985,0 c 2.942,0 5.327,2.385 5.327,5.327 l 0,14.501 14.502,0 c 2.942,0 5.327,2.385 5.327,5.327 l 0,11.986 c 0,2.942 -2.385,5.327 -5.327,5.327 l -14.502,0 0,14.501 c 0,2.942 -2.385,5.327 -5.327,5.327 l -11.985,0 c -2.942,0 -5.328,-2.385 -5.328,-5.327 l 0,-14.501 -14.501,0 c -2.942,0 -5.327,-2.385 -5.327,-5.327 l 0,-11.986 c 0,-2.942 2.385,-5.327 5.327,-5.327 z"
         inkscape:connector-curvature="0"
         style="fill:none;stroke:#000000;stroke-width:2.50933719;stroke-linejoin:round;stroke-miterlimit:4;stroke-dasharray:none;stroke-opacity:1" />
    </g>
    <g
       id="g3642"
       style="stroke-width:2.50933719;stroke-miterlimit:4;stroke-dasharray:none">
      <ellipse
         id="ellipse3644"
         ry="24.0704"
         rx="24.070299"
         cy="132.66701"
         cx="244.63499"
         style="fill:none;stroke:#000000;stroke-width:2.50933719;stroke-linejoin:round;stroke-miterlimit:4;stroke-dasharray:none;stroke-opacity:1" />
      <path
         id="path3646"
         d="m 244.635,111.458 c 11.714,0 21.209,9.495 21.209,21.209 0,11.714 -9.495,21.21 -21.209,21.21 -11.714,0 -21.209,-9.496 -21.209,-21.21 0,-11.714 9.495,-21.209 21.209,-21.209 z"
         inkscape:connector-curvature="0"
         style="fill:none;stroke:#000000;stroke-width:2.50933719;stroke-linejoin:round;stroke-miterlimit:4;stroke-dasharray:none;stroke-opacity:1" />
      <path
         id="path3648"
         d="m 244.635,117.771 c 8.227,0 14.896,6.67 14.896,14.896 0,8.227 -6.669,14.896 -14.896,14.896 -8.227,0 -14.896,-6.669 -14.896,-14.896 0,-8.226 6.669,-14.896 14.896,-14.896 z"
         inkscape:connector-curvature="0"
         style="fill:none;stroke:#000000;stroke-width:2.50933719;stroke-linejoin:round;stroke-miterlimit:4;stroke-dasharray:none;stroke-opacity:1" />
      <circle
         id="ellipse3650"
         cy="132.668"
         cx="244.634"
         r="27.8188"
         style="fill:none;stroke:#000000;stroke-width:2.50933719;stroke-linejoin:round;stroke-miterlimit:4;stroke-dasharray:none;stroke-opacity:1" />
    </g>
    <g
       id="g3652"
       style="stroke-width:2.50933719;stroke-miterlimit:4;stroke-dasharray:none">
      <circle
         id="ellipse3654"
         cy="73.576698"
         cx="92.617302"
         r="24.070299"
         style="fill:none;stroke:#000000;stroke-width:2.50933719;stroke-linejoin:round;stroke-miterlimit:4;stroke-dasharray:none;stroke-opacity:1" />
      <path
         id="path3656"
         d="m 92.6171,52.3674 c 11.7139,0 21.2099,9.4958 21.2099,21.2095 0,11.7136 -9.496,21.2095 -21.2099,21.2095 -11.7136,0 -21.2094,-9.4959 -21.2094,-21.2095 0,-11.7137 9.4958,-21.2095 21.2094,-21.2095 z"
         inkscape:connector-curvature="0"
         style="fill:none;stroke:#000000;stroke-width:2.50933719;stroke-linejoin:round;stroke-miterlimit:4;stroke-dasharray:none;stroke-opacity:1" />
      <path
         id="path3658"
         d="m 92.6172,58.6807 c 8.2268,0 14.8958,6.6692 14.8958,14.896 0,8.2268 -6.669,14.8958 -14.8958,14.8958 -8.2268,0 -14.8959,-6.669 -14.8959,-14.8958 0,-8.2268 6.6691,-14.896 14.8959,-14.896 z"
         inkscape:connector-curvature="0"
         style="fill:none;stroke:#000000;stroke-width:2.50933719;stroke-linejoin:round;stroke-miterlimit:4;stroke-dasharray:none;stroke-opacity:1" />
      <circle
         id="ellipse3660"
         cy="73.5774"
         cx="92.616203"
         r="27.8188"
         style="fill:none;stroke:#000000;stroke-width:2.50933719;stroke-linejoin:round;stroke-miterlimit:4;stroke-dasharray:none;stroke-opacity:1" />
    </g>
    <path
       id="path3662"
       d="m 39.4454,269.197 c 0,0 0.7892,-5.327 10.0622,-15.389 9.2729,-10.062 48.7325,-52.678 48.7325,-52.678 0,0 7.6949,-10.655 27.0299,-11.246 19.335,-0.592 85.527,-2.171 137.416,-0.198 0,0 15.389,2.171 26.635,13.417 11.246,11.246 48.443,51.48 51.403,57.103 2.959,5.623 3.847,6.511 4.143,8.287"
       inkscape:connector-curvature="0"
       style="fill:none;stroke:#000000;stroke-width:2.50933719;stroke-linejoin:round;stroke-miterlimit:4;stroke-dasharray:none;stroke-opacity:1" />
    <g
       id="g3664"
       style="stroke-width:2.50933719;stroke-miterlimit:4;stroke-dasharray:none">
      <path
         id="path3666"
         d="m 164.328,65.4119 c 4.658,0 8.434,3.7761 8.434,8.4343 0,4.6582 -3.776,8.4346 -8.434,8.4346 -4.659,0 -8.435,-3.7764 -8.435,-8.4346 0,-4.6582 3.776,-8.4343 8.435,-8.4343 z"
         inkscape:connector-curvature="0"
         style="fill:none;stroke:#000000;stroke-width:2.50933719;stroke-linejoin:round;stroke-miterlimit:4;stroke-dasharray:none;stroke-opacity:1" />
      <g
         id="g3668"
         style="stroke-width:2.50933719;stroke-miterlimit:4;stroke-dasharray:none">
        <rect
           id="rect3670"
           height="3.5515101"
           width="5.17908"
           y="73.648903"
           x="163.304"
           style="fill:none;stroke:#000000;stroke-width:2.50933719;stroke-linejoin:round;stroke-miterlimit:4;stroke-dasharray:none;stroke-opacity:1" />
        <path
           id="path3672"
           d="m 161.084,74.0439 -0.912,0 0,-3.5513 5.179,0 0,0.9868"
           inkscape:connector-curvature="0"
           style="fill:none;stroke:#000000;stroke-width:2.50933719;stroke-linejoin:round;stroke-miterlimit:4;stroke-dasharray:none;stroke-opacity:1" />
      </g>
    </g>
    <g
       id="g3674"
       style="stroke-width:2.50933719;stroke-miterlimit:4;stroke-dasharray:none">
      <path
         id="path3676"
         d="m 221.063,65.412 c 4.658,0 8.434,3.7762 8.434,8.4344 0,4.6582 -3.776,8.4346 -8.434,8.4346 -4.658,0 -8.435,-3.7764 -8.435,-8.4346 0,-4.6582 3.777,-8.4344 8.435,-8.4344 z"
         inkscape:connector-curvature="0"
         style="fill:none;stroke:#000000;stroke-width:2.50933719;stroke-linejoin:round;stroke-miterlimit:4;stroke-dasharray:none;stroke-opacity:1" />
      <g
         id="g3678"
         style="stroke-width:2.50933719;stroke-miterlimit:4;stroke-dasharray:none">
        <line
           id="line3680"
           y2="71.441803"
           x2="225.084"
           y1="71.441803"
           x1="217.04201"
           style="fill:none;stroke:#000000;stroke-width:2.50933719;stroke-linejoin:round;stroke-miterlimit:4;stroke-dasharray:none;stroke-opacity:1" />
        <line
           id="line3682"
           y2="73.846397"
           x2="225.08299"
           y1="73.846397"
           x1="217.04201"
           style="fill:none;stroke:#000000;stroke-width:2.50933719;stroke-linejoin:round;stroke-miterlimit:4;stroke-dasharray:none;stroke-opacity:1" />
        <line
           id="line3684"
           y2="76.251297"
           x2="225.08299"
           y1="76.251297"
           x1="217.04201"
           style="fill:none;stroke:#000000;stroke-width:2.50933719;stroke-linejoin:round;stroke-miterlimit:4;stroke-dasharray:none;stroke-opacity:1" />
      </g>
    </g>
    <path
       id="path3686"
       d="m 58.3764,31.1918 c 0,0 1.5784,-6.4121 4.2419,-9.3716 C 65.2819,18.8607 79.9805,6.82556 101.585,3.57019 123.189,0.314819 126.444,1.59717 126.444,1.59717 l 11.838,6.70825 c 0,0 95.837,-0.09863 110.437,-0.09863 0,0 12.825,-7.694705 13.811,-7.694705 0.986,0 27.72,-0.296387 60.274,20.124015 0,0 4.143,6.5108 5.031,10.9501"
       inkscape:connector-curvature="0"
       style="fill:none;stroke:#000000;stroke-width:2.50933719;stroke-linejoin:round;stroke-miterlimit:4;stroke-dasharray:none;stroke-opacity:1" />
    <path
       id="path3688"
       d="m 192.686,20.1923 c 8.118,0 14.699,6.5806 14.699,14.6986 0,8.1178 -6.581,14.6987 -14.699,14.6987 -8.118,0 -14.699,-6.5809 -14.699,-14.6987 0,-8.118 6.581,-14.6986 14.699,-14.6986 z"
       inkscape:connector-curvature="0"
       style="fill:none;stroke:#000000;stroke-width:2.50933719;stroke-linejoin:round;stroke-miterlimit:4;stroke-dasharray:none;stroke-opacity:1" />
    <path
       id="path3690"
       d="m 188.494,28.2319 c 0,0 -9.273,9.4209 -7.3,15.9319 l 0.986,0.9865 c 0,0 2.664,-8.1386 10.457,-13.8603 0,0 8.878,5.9683 10.654,13.6137 0,0 2.762,-8.8784 -6.363,-16.5731 0,0 3.354,-4.6364 5.87,-3.8472 0,0 -3.601,-4.3406 -10.112,0.5918 0,0 -4.291,-4.8337 -9.766,-1.0851 0,0 2.959,0.9371 5.574,4.2418 z"
       inkscape:connector-curvature="0"
       style="fill:#000000;fill-opacity:1;stroke:#000000;stroke-width:2.50933719;stroke-linejoin:round;stroke-miterlimit:4;stroke-dasharray:none;stroke-opacity:1" />
    <g
       id="g3692"
       style="stroke-width:2.50933719;stroke-miterlimit:4;stroke-dasharray:none">
      <path
         id="path3694"
         d="m 293.59,35.6356 c 7.273,0 13.169,5.8964 13.169,13.1698 0,7.2735 -5.896,13.1696 -13.169,13.1696 -7.274,0 -13.17,-5.8961 -13.17,-13.1696 0,-7.2734 5.896,-13.1698 13.17,-13.1698 z"
         inkscape:connector-curvature="0"
         style="fill:none;stroke:#000000;stroke-width:2.50933719;stroke-linejoin:round;stroke-miterlimit:4;stroke-dasharray:none;stroke-opacity:1" />
      <g
         id="g3696"
         style="stroke-width:2.50933719;stroke-miterlimit:4;stroke-dasharray:none">
        <path
           id="path3698"
           d="m 300.226,40.7953 -5.263,10.2983 0,5.7212 -2.746,0 0,-5.6676 -5.264,-10.3519 3.029,0 3.322,6.8548 c 0.04,0.0833 0.158,0.3921 0.354,0.9261 l 0.035,0 c 0.07,-0.2384 0.196,-0.547 0.38,-0.9261 l 3.407,-6.8548 2.746,0 z"
           inkscape:connector-curvature="0"
           style="fill:#000000;fill-opacity:1;stroke:#000000;stroke-width:2.50933719;stroke-linejoin:round;stroke-miterlimit:4;stroke-dasharray:none;stroke-opacity:1" />
      </g>
    </g>
    <g
       id="g3700"
       style="stroke-width:2.50933719;stroke-miterlimit:4;stroke-dasharray:none">
      <path
         id="path3702"
         d="m 266.28,61.7601 c 7.273,0 13.17,5.8962 13.17,13.1696 0,7.2734 -5.897,13.1698 -13.17,13.1698 -7.273,0 -13.17,-5.8964 -13.17,-13.1698 0,-7.2734 5.897,-13.1696 13.17,-13.1696 z"
         inkscape:connector-curvature="0"
         style="fill:none;stroke:#000000;stroke-width:2.50933719;stroke-linejoin:round;stroke-miterlimit:4;stroke-dasharray:none;stroke-opacity:1" />
      <g
         id="g3704"
         style="stroke-width:2.50933719;stroke-miterlimit:4;stroke-dasharray:none">
        <path
           id="path3706"
           d="m 273.146,82.9397 -3.176,0 -3.279,-5.8787 c -0.095,-0.1788 -0.202,-0.4314 -0.322,-0.758 l -0.046,0 c -0.067,0.1645 -0.178,0.4171 -0.333,0.758 l -3.375,5.8787 -3.201,0 5.296,-8.0527 -4.838,-7.9668 3.261,0 2.9,5.4065 c 0.186,0.3576 0.354,0.7152 0.504,1.0727 l 0.033,0 c 0.216,-0.4695 0.404,-0.8414 0.561,-1.1157 l 3.011,-5.3635 3.004,0 -4.953,7.9419 4.953,8.0776 z"
           inkscape:connector-curvature="0"
           style="fill:#000000;fill-opacity:1;stroke:#000000;stroke-width:2.50933719;stroke-linejoin:round;stroke-miterlimit:4;stroke-dasharray:none;stroke-opacity:1" />
      </g>
    </g>
    <g
       id="g3708"
       style="stroke-width:2.50933719;stroke-miterlimit:4;stroke-dasharray:none">
      <ellipse
         id="ellipse3710"
         ry="13.1697"
         rx="13.1696"
         cy="76.261703"
         cx="319.73199"
         style="fill:none;stroke:#000000;stroke-width:2.50933719;stroke-linejoin:round;stroke-miterlimit:4;stroke-dasharray:none;stroke-opacity:1" />
      <g
         id="g3712"
         style="stroke-width:2.50933719;stroke-miterlimit:4;stroke-dasharray:none">
        <path
           id="path3714"
           d="m 314.354,84.2714 0,-16.0196 5.056,0 c 1.542,0 2.763,0.335 3.663,1.0048 0.9,0.6699 1.35,1.5425 1.35,2.6174 0,0.8988 -0.253,1.6801 -0.76,2.344 -0.506,0.6638 -1.206,1.1354 -2.1,1.4142 l 0,0.0465 c 1.077,0.1264 1.938,0.5376 2.581,1.2337 0.644,0.696 0.966,1.6008 0.966,2.7139 0,1.3827 -0.535,2.5026 -1.606,3.3595 -1.07,0.857 -2.422,1.2856 -4.055,1.2856 l -5.095,0 z m 2.746,-13.96 0,4.5771 1.681,0 c 0.903,0 1.612,-0.2187 2.125,-0.6562 0.514,-0.4374 0.771,-1.0566 0.771,-1.8575 0,-1.3755 -0.896,-2.0634 -2.689,-2.0634 l -1.888,0 z m 0,6.6367 0,5.2636 2.221,0 c 0.97,0 1.72,-0.2378 2.249,-0.7133 0.529,-0.4756 0.794,-1.1307 0.794,-1.965 0,-1.7235 -1.128,-2.5853 -3.383,-2.5853 l -1.881,0 z"
           inkscape:connector-curvature="0"
           style="fill:#000000;fill-opacity:1;stroke:#000000;stroke-width:2.50933719;stroke-linejoin:round;stroke-miterlimit:4;stroke-dasharray:none;stroke-opacity:1" />
      </g>
    </g>
    <g
       id="g3716"
       style="stroke-width:2.50933719;stroke-miterlimit:4;stroke-dasharray:none">
      <path
         id="path3718"
         d="m 293.621,87.5076 c 7.274,0 13.17,5.8961 13.17,13.1694 0,7.274 -5.896,13.17 -13.17,13.17 -7.273,0 -13.169,-5.896 -13.169,-13.17 0,-7.2733 5.896,-13.1694 13.169,-13.1694 z"
         inkscape:connector-curvature="0"
         style="fill:none;stroke:#000000;stroke-width:2.50933719;stroke-linejoin:round;stroke-miterlimit:4;stroke-dasharray:none;stroke-opacity:1" />
      <g
         id="g3720"
         style="stroke-width:2.50933719;stroke-miterlimit:4;stroke-dasharray:none">
        <path
           id="path3722"
           d="m 301.059,108.687 -2.975,0 -1.412,-4.119 -6.161,0 -1.352,4.119 -2.975,0 5.971,-16.0195 2.979,0 5.925,16.0195 z m -5.074,-6.179 -2.178,-6.54 c -0.064,-0.2098 -0.133,-0.5471 -0.207,-1.0121 l -0.046,0 c -0.065,0.4268 -0.137,0.7642 -0.219,1.0121 l -2.149,6.54 4.799,0 z"
           inkscape:connector-curvature="0"
           style="fill:#000000;fill-opacity:1;stroke:#000000;stroke-width:2.50933719;stroke-linejoin:round;stroke-miterlimit:4;stroke-dasharray:none;stroke-opacity:1" />
      </g>
    </g>
  </g>
  <text
     xml:space="preserve"
     style="font-style:normal;font-variant:normal;font-weight:normal;font-stretch:normal;font-size:40px;line-height:125%;font-family:Lato;-inkscape-font-specification:'Lato, Normal';text-align:start;letter-spacing:0px;word-spacing:0px;writing-mode:lr-tb;text-anchor:start;fill:#000000;fill-opacity:1;stroke:none;stroke-width:1px;stroke-linecap:butt;stroke-linejoin:miter;stroke-opacity:1"
     x="-1.88"
     y="169.2428"
     id="text4221"
     sodipodi:linespacing="125%"><tspan
       sodipodi:role="line"
       x="-1.88"
       y="169.2428"
       id="tspan4223"><tspan
         x="-1.88"
         y="169.2428"
         style="font-style:normal;font-variant:normal;font-weight:normal;font-stretch:normal;font-size:40px;line-height:125%;font-family:Lato;-inkscape-font-specification:'Lato, Normal';text-align:start;writing-mode:lr-tb;text-anchor:start"
         id="tspan4225">Gaze based </tspan></tspan><tspan
       sodipodi:role="line"
       x="-1.88"
       y="219.2428"
       id="tspan4227"><tspan
         x="-1.88"
         style="font-style:normal;font-variant:normal;font-weight:normal;font-stretch:normal;font-size:40px;line-height:125%;font-family:Lato;-inkscape-font-specification:'Lato, Normal';text-align:start;writing-mode:lr-tb;text-anchor:start"
         id="tspan4229">Interactions</tspan></tspan></text>
  <flowRoot
     xml:space="preserve"
     id="flowRoot3848"
     style="font-style:normal;font-weight:normal;font-size:40px;line-height:125%;font-family:sans-serif;letter-spacing:0px;word-spacing:0px;fill:#000000;fill-opacity:1;stroke:none;stroke-width:1px;stroke-linecap:butt;stroke-linejoin:miter;stroke-opacity:1"
     transform="translate(-18.88,-38.289276)"><flowRegion
       id="flowRegion3850"><rect
         id="rect3852"
         width="233"
         height="216"
         x="26"
         y="375.66144" /></flowRegion><flowPara
       id="flowPara3854" /></flowRoot>  <text
     xml:space="preserve"
     style="font-style:normal;font-variant:normal;font-weight:normal;font-stretch:normal;font-size:40px;line-height:125%;font-family:Lato;-inkscape-font-specification:'Lato, Normal';text-align:start;letter-spacing:0px;word-spacing:0px;writing-mode:lr-tb;text-anchor:start;fill:#000000;fill-opacity:1;stroke:none;stroke-width:1px;stroke-linecap:butt;stroke-linejoin:miter;stroke-opacity:1"
     x="288.12"
     y="376.49783"
     id="text4527"
     sodipodi:linespacing="125%"><tspan
       sodipodi:role="line"
       x="288.12"
       y="376.49783"
       id="tspan4529"><tspan
         x="288.12"
         y="376.49783"
         id="tspan4531">Traditional </tspan></tspan><tspan
       sodipodi:role="line"
       x="288.12"
       y="426.49783"
       id="tspan4533"><tspan
         x="288.12"
         id="tspan4535">Gamepad</tspan></tspan></text>
  <text
     xml:space="preserve"
     style="font-style:normal;font-variant:normal;font-weight:normal;font-stretch:normal;font-size:40px;line-height:125%;font-family:Lato;-inkscape-font-specification:'Lato, Normal';text-align:start;letter-spacing:0px;word-spacing:0px;writing-mode:lr-tb;text-anchor:start;fill:#000000;fill-opacity:1;stroke:none;stroke-width:1px;stroke-linecap:butt;stroke-linejoin:miter;stroke-opacity:1"
     x="582.12"
     y="361.49783"
     id="text4513"
     sodipodi:linespacing="125%"><tspan
       sodipodi:role="line"
       x="582.12"
       y="361.49783"
       id="tspan4515"><tspan
         x="582.12"
         y="361.49783"
         id="tspan4517">3 Degrees of </tspan></tspan><tspan
       sodipodi:role="line"
       x="582.12"
       y="411.49783"
       id="tspan4519"><tspan
         x="582.12"
         id="tspan4521">Freedom </tspan></tspan><tspan
       sodipodi:role="line"
       x="582.12"
       y="461.49783"
       id="tspan4523"><tspan
         x="582.12"
         id="tspan4525">Controller</tspan></tspan></text>
  <text
     xml:space="preserve"
     style="font-style:normal;font-variant:normal;font-weight:normal;font-stretch:normal;font-size:40px;line-height:125%;font-family:Lato;-inkscape-font-specification:'Lato, Normal';text-align:start;letter-spacing:0px;word-spacing:0px;writing-mode:lr-tb;text-anchor:start;fill:#000000;fill-opacity:1;stroke:none;stroke-width:1px;stroke-linecap:butt;stroke-linejoin:miter;stroke-opacity:1"
     x="842.12"
     y="348.49783"
     id="text4503"
     sodipodi:linespacing="125%"><tspan
       sodipodi:role="line"
       x="842.12"
       y="348.49783"
       id="tspan4505"><tspan
         x="842.12"
         y="348.49783"
         id="tspan4507">6 DOF </tspan></tspan><tspan
       sodipodi:role="line"
       x="842.12"
       y="398.49783"
       id="tspan4509"><tspan
         x="842.12"
         id="tspan4511">Controller</tspan></tspan></text>
  <text
     xml:space="preserve"
     style="font-style:normal;font-variant:normal;font-weight:normal;font-stretch:normal;font-size:39.99999619px;line-height:125%;font-family:Lato;-inkscape-font-specification:'Lato, Normal';text-align:start;letter-spacing:0px;word-spacing:0px;writing-mode:lr-tb;text-anchor:start;fill:#000000;fill-opacity:1;stroke:none;stroke-width:1px;stroke-linecap:butt;stroke-linejoin:miter;stroke-opacity:1"
     x="996.27545"
     y="215.50555"
     id="text4493"
     sodipodi:linespacing="125%"
     transform="scale(1.0213719,0.97907529)"><tspan
       sodipodi:role="line"
       x="996.27545"
       y="215.50555"
       id="tspan4495"><tspan
         x="996.27545"
         y="215.50555"
         id="tspan4497">Hand </tspan></tspan><tspan
       sodipodi:role="line"
       x="996.27545"
       y="265.50552"
       id="tspan4499"><tspan
         x="996.27545"
         y="265.50552"
         id="tspan4501">Tracking</tspan></tspan></text>
</svg>
