<?xml version="1.0" encoding="utf-8"?>
<!DOCTYPE svg PUBLIC "-//W3C//DTD SVG 1.1//EN" "http://www.w3.org/Graphics/SVG/1.1/DTD/svg11.dtd">
<svg xmlns="http://www.w3.org/2000/svg" xmlns:xlink="http://www.w3.org/1999/xlink" version="1.1" baseProfile="full" width="122.401" height="267.87" viewBox="0 0 122.40 267.87" enable-background="new 0 0 122.40 267.87" xml:space="preserve">
	<g>
		<ellipse fill="none" stroke-width="1.02409" stroke-linejoin="round" stroke="#000000" stroke-opacity="1" cx="61.2005" cy="41.6408" rx="46.5218" ry="36.1937"/>
		<path fill="none" stroke-width="1.02409" stroke-linejoin="round" stroke="#000000" stroke-opacity="1" d="M 97.6992,109.276L 97.3939,108.783L 97.3939,226.449C 97.3939,246.842 80.8621,263.374 60.4692,263.374C 40.0762,263.374 23.5444,246.842 23.5444,226.449L 23.5444,95.1494C 23.1242,92.2293 21.4191,82.8092 15.477,68.6576C 12.1408,64.1806 9.73013,59.1769 8.46692,53.8314C 8.15506,53.1674 8.08136,52.7881 8.20767,52.6503C 7.71487,50.2197 7.45831,47.7224 7.45831,45.1754C 7.45831,20.5084 31.5196,0.5121 61.2006,0.5121C 90.8815,0.5121 114.943,20.5084 114.943,45.1754C 114.943,53.2067 112.392,60.7431 107.927,67.2551L 108.119,67.2323C 99.0733,82.1449 97.466,95.9133 97.3939,103.4L 97.3939,104.479C 97.4238,107.526 97.6992,109.276 97.6992,109.276 Z "/>
		<path fill="none" stroke-width="1.02409" stroke-linejoin="round" stroke="#000000" stroke-opacity="1" d="M 102.417,110.958L 102.072,110.458L 102.072,229.881C 102.072,250.579 83.4034,267.358 60.3746,267.358C 37.3458,267.358 18.6773,250.579 18.6773,229.881L 18.6773,96.621C 18.2028,93.6572 16.2772,84.0966 9.56714,69.7335C 5.79971,65.1896 3.07745,60.1113 1.651,54.6861C 1.29883,54.012 1.21561,53.6271 1.35822,53.4872C 0.801758,51.0203 0.512024,48.4857 0.512024,45.9007C 0.512024,20.8654 27.6832,0.570328 61.2005,0.570328C 94.7178,0.570328 121.889,20.8654 121.889,45.9007C 121.889,54.0519 119.009,61.7008 113.966,68.3102L 114.183,68.287C 103.968,83.4224 102.153,97.3964 102.072,104.994L 102.072,106.09C 102.106,109.182 102.417,110.958 102.417,110.958 Z "/>
		<g>
			<path fill="none" stroke-width="1.02409" stroke-linejoin="round" stroke="#000000" stroke-opacity="1" d="M 42.8752,91.4203C 50.144,91.4203 56.0365,97.3128 56.0365,104.582C 56.0365,111.85 50.144,117.743 42.8752,117.743C 35.6064,117.743 29.7138,111.85 29.7138,104.582C 29.7138,97.3128 35.6063,91.4203 42.8752,91.4203 Z "/>
			<path fill="none" stroke-width="1.02409" stroke-linejoin="round" stroke="#000000" stroke-opacity="1" d="M 79.5259,91.4203C 86.7947,91.4203 92.6873,97.3128 92.6873,104.582C 92.6873,111.85 86.7947,117.743 79.5259,117.743C 72.2571,117.743 66.3646,111.85 66.3646,104.582C 66.3646,97.3128 72.2571,91.4203 79.5259,91.4203 Z "/>
		</g>
		<path fill="none" stroke-width="1.02409" stroke-linejoin="round" stroke="#000000" stroke-opacity="1" d="M 61.2006,124.141L 61.2006,124.141C 67.5103,124.141 72.6254,129.256 72.6254,135.566L 72.6254,175.598C 72.6254,181.908 67.5103,187.023 61.2006,187.023L 61.2006,187.023C 54.8908,187.023 49.7758,181.908 49.7758,175.598L 49.7758,135.566C 49.7758,129.256 54.8908,124.141 61.2006,124.141 Z "/>
		<path fill="none" stroke-width="1.02409" stroke-linejoin="round" stroke="#000000" stroke-opacity="1" d="M 61.1992,217.855C 62.183,217.855 62.9806,218.653 62.9806,219.637C 62.9806,220.62 62.183,221.418 61.1992,221.418C 60.2154,221.418 59.4178,220.62 59.4178,219.637C 59.4178,218.653 60.2154,217.855 61.1992,217.855 Z "/>
		<line fill="none" stroke-width="1.02409" stroke-linejoin="round" stroke="#000000" stroke-opacity="1" x1="61.2006" y1="131.453" x2="61.2006" y2="140.991"/>
		<line fill="none" stroke-width="1.02409" stroke-linejoin="round" stroke="#000000" stroke-opacity="1" x1="56.5985" y1="136.023" x2="65.8026" y2="136.023"/>
		<line fill="none" stroke-width="1.02409" stroke-linejoin="round" stroke="#000000" stroke-opacity="1" x1="56.8401" y1="175.141" x2="65.561" y2="175.141"/>
		<g>
			<path fill="#000000" fill-opacity="1" stroke-width="1.02409" stroke-linejoin="round" d="M 76.6842,235.797L 76.5924,230.499L 78.2644,230.499L 78.2644,237.181L 75.8604,237.181L 74.1928,231.698L 74.1552,231.698L 74.2486,237.181L 72.5895,237.181L 72.5895,230.499L 75.0947,230.499L 76.6478,235.797L 76.6842,235.797 Z "/>
			<path fill="#000000" fill-opacity="1" stroke-width="1.02409" stroke-linejoin="round" d="M 46.3045,231.122L 45.3807,237.25L 43.5566,237.25L 44.8072,230.499L 47.8119,230.499L 49.056,237.25L 47.2432,237.25L 46.3425,231.122L 46.3045,231.122 Z "/>
			<path fill="#000000" fill-opacity="1" stroke-width="1.02409" stroke-linejoin="round" d="M 54.1746,235.661L 55.0082,230.499L 57.7613,230.499L 57.9106,237.25L 56.2216,237.25L 56.1779,231.179L 56.1411,231.181L 55.0138,237.25L 53.3014,237.25L 52.1721,231.179L 52.1349,231.179L 52.0924,237.25L 50.4047,237.25L 50.5539,230.499L 53.307,230.499L 54.1378,235.661L 54.1746,235.661 Z "/>
			<path fill="#000000" fill-opacity="1" stroke-width="1.02409" stroke-linejoin="round" d="M 40.7154,235.344C 40.7809,235.507 40.7591,235.717 40.7283,235.845C 40.6734,236.065 40.5217,236.295 40.0707,236.295C 39.6493,236.295 39.392,236.053 39.392,235.686L 39.3904,235.03L 37.5805,235.03L 37.5805,235.553C 37.5805,237.058 38.7647,237.511 40.0331,237.511C 41.2558,237.511 42.2588,237.096 42.4206,235.97C 42.5031,235.386 42.4424,235.003 42.4133,234.861C 42.1273,233.446 39.5668,233.028 39.3747,232.235C 39.3423,232.097 39.3495,231.959 39.3674,231.882C 39.4163,231.665 39.5623,231.429 39.9842,231.429C 40.3809,231.429 40.6119,231.673 40.6119,232.04L 40.6119,232.456L 42.2964,232.456L 42.2964,231.985C 42.2964,230.513 40.9763,230.283 40.0198,230.283C 38.8197,230.283 37.8406,230.681 37.6598,231.783C 37.6104,232.08 37.6039,232.351 37.6759,232.692C 37.9684,234.071 40.3676,234.471 40.7154,235.344 Z "/>
			<path fill="#000000" fill-opacity="1" stroke-width="1.02409" stroke-linejoin="round" d="M 62.6657,235.331C 62.7289,235.492 62.7094,235.7 62.6783,235.827C 62.6237,236.049 62.4724,236.271 62.0271,236.271C 61.6081,236.271 61.3549,236.035 61.3549,235.669L 61.3537,235.02L 59.5604,235.02L 59.5595,235.536C 59.5595,237.028 60.7337,237.474 61.9903,237.474C 63.1992,237.474 64.1938,237.066 64.3519,235.95C 64.434,235.373 64.3738,234.994 64.345,234.85C 64.0623,233.451 61.5264,233.036 61.3383,232.252C 61.306,232.116 61.3149,231.98 61.3303,231.905C 61.378,231.689 61.5223,231.455 61.941,231.455C 62.3329,231.455 62.5622,231.696 62.5622,232.057L 62.5622,232.471L 64.2294,232.471L 64.2294,232.005C 64.2294,230.549 62.9214,230.321 61.977,230.321C 60.7883,230.321 59.8172,230.71 59.6404,231.804C 59.5903,232.099 59.5834,232.367 59.6554,232.704C 59.9454,234.071 62.3203,234.467 62.6657,235.331 Z "/>
			<path fill="#000000" fill-opacity="1" stroke-width="1.02409" stroke-linejoin="round" d="M 68.3313,236.235C 68.8009,236.235 68.9469,235.917 68.98,235.748C 68.995,235.676 68.997,235.577 68.9966,235.49L 68.9966,230.497L 70.7079,230.497L 70.7079,235.336C 70.7095,235.461 70.6966,235.715 70.6893,235.782C 70.572,237.041 69.5738,237.448 68.3313,237.448C 67.0909,237.448 66.0935,237.041 65.9774,235.782C 65.9709,235.715 65.958,235.461 65.9612,235.336L 65.9612,230.497L 67.6676,230.497L 67.6676,235.49C 67.666,235.577 67.6692,235.676 67.6838,235.748C 67.7173,235.917 67.8633,236.235 68.3313,236.235 Z "/>
			<path fill="#000000" fill-opacity="1" stroke-width="1.02409" stroke-linejoin="round" d="M 82.4177,236.166C 82.9051,236.166 83.0762,235.858 83.1077,235.678C 83.1207,235.602 83.1255,235.507 83.1231,235.421L 83.1231,234.442L 82.4319,234.442L 82.4319,233.455L 84.8206,233.455L 84.8206,235.266C 84.8198,235.393 84.8185,235.487 84.8,235.712C 84.6871,236.941 83.6198,237.38 82.4242,237.38C 81.2278,237.38 80.1609,236.941 80.05,235.712C 80.0306,235.487 80.0274,235.393 80.0266,235.266L 80.0274,232.426C 80.0274,232.304 80.0415,232.092 80.0553,231.984C 80.2053,230.718 81.2278,230.315 82.425,230.315C 83.6214,230.315 84.6709,230.714 84.7959,231.984C 84.8153,232.195 84.8076,232.426 84.8088,232.426L 84.8088,232.651L 83.1077,232.651L 83.1077,232.271C 83.1077,232.271 83.1061,232.112 83.0854,232.017C 83.0551,231.869 82.9273,231.526 82.4108,231.526C 81.9206,231.526 81.7758,231.851 81.7386,232.017C 81.7192,232.103 81.7111,232.223 81.7111,232.334L 81.7111,235.421C 81.7103,235.507 81.7144,235.602 81.7265,235.678C 81.7589,235.858 81.9291,236.166 82.4177,236.166 Z "/>
		</g>
	</g>
</svg>
