<?xml version="1.0" encoding="UTF-8" standalone="no"?>
<!DOCTYPE svg PUBLIC "-//W3C//DTD SVG 20010904//EN" "http://www.w3.org/TR/2001/REC-SVG-20010904/DTD/svg10.dtd">
<svg fill-rule="evenodd" height="571.25" image-rendering="optimizeQuality" shape-rendering="geometricPrecision" text-rendering="geometricPrecision" viewBox="0 0 8268 11692" width="612.5" xml:space="preserve" xmlns="http://www.w3.org/2000/svg"><defs></defs><g transform="matrix(1.84197,0,0,1.84216,-3564.529,-5796.478)"><path d="m6444,3410 1069,389c-37,380-65,704-83,972-19,269-107,491-264,667l-417,667h-97c-231-186-426-338-583-459-158-120-329-208-514-264l-167,639c-55,56-299,292-729,709-431,416-674,828-729,1236-65,92-128,268-188,527-60,260-118,431-173,514-84,56-176,84-278,84-130,0-255-42-375-125-139-148-208-357-208-625 0-93 6-192 20-299 14-106 40-215 77-326-176,18-352,32-528,41-28,10-56-7-83-48-28-42-56-58-84-49-65,93-162,382-291,868-130,486-338,785-625,896-149,0-264-46-348-139 223-1120 449-2241 681-3361 18-93 7-213-35-361-41-148-62-245-62-292 0-46 14-106 41-180 306-278 732-563 1278-855 547-291 959-511 1236-659 565-121 1135-241 1709-361 277,0 527,64 750,194zm-1306-14c-46,9-164,33-354,70s-403,78-639,125c-236,46-424,152-562,319-84,46-158,90-223,132-64,42-129,63-194,63-158,74-357,187-597,340-241,153-426,266-556,340 56,0 134-25 236-76s171-77 209-77c-56,65-181,137-375,216-195,78-311,182-348,312 0,241-41,530-125,868-83,338-176,711-277,1118 27,9 62,16 104,21 41,5 62,21 62,49-37,37-74,55-111,55l83,84c-9,37-41,50-97,41-55-9-104,100-146,327-41,226-95,544-159,951 0,111 14,222 41,333-55,93-106,181-152,264 37,37 92,56 166,56h84c37-19 74-37 111-56 37-18 74-51 111-97s78-116 125-208c46-139 92-278 139-417 0-65-33-116-98-153 93-65 167-166 223-305 55-139 106-273 152-403 0-28-16-44-48-49-33-4-63-11-90-21l-14-111 222-41c83-278 167-561 250-848 0-111-23-208-70-291 28-28 65-19 112,28 46,46 87,55 125,27l-70,125c195,47 352-18 472-194-111-65-185-125-222-181-83,0-125-32-125-97 19-65 33-118 42-160 9-41 9-76 0-104 28,0 55,23 83,70-18,139 63,250 243,333 181,83 285,162 313,236-10-74-51-160-125-257s-116-160-125-187l305,264c0-47-18-112-55-195s-56-148-56-194c65,92 123,162 174,208s76,102 76,167c0,46-9,99-28,159-18,61-39,137-62,230-23,92-111,335-264,729-153,393-229,696-229,909 0,176 32,343 97,500 46-138 88-254 125-347 37-92 111-139 222-139 185,0 297,61 334,181 74-222 148-445 222-667-47,9-95,14-146,14h-104c-130,0-232-28-306-83 19-9 40-14 63-14h76l-111-97c37-37 88-56 153-56 46,0 118,21 215,63 97,41 174,53 229,34 28-148 125-333 292-555s259-352 278-389l-125-111-209-195c65,19 153,58 264,118 111,61 185,91 222,91 75,0 144-51 209-153 241-130 426-412 555-847 130-436 273-718 431-848 268-27 507,26 715,160s401,252 577,354c101-120 169-257 201-409 32-153 49-336 49-549v-347c0-74-75-125-223-153s-389-118-722-271-597-229-792-229c-166,0-319,32-458,97zm875,1514v56l847,666c0-9 19-32 56-69s46-70 28-97c-102-139-225-246-368-320-144-74-331-153-563-236zm514,97-278-125 278,125zm-583,42c92,93 199,185 319,278 120,92 227,162 320,208-56-74-132-153-230-236-97-83-233-167-409-250zm-4348,42c-37,37-55,78-55,125 0,46 14,83 42,111l13-236zm4417,264-208-112 278,195-70-83zm347,166 361,334c10-10 14-19 14-28s5-33 14-70c-92-37-171-78-236-125-65-46-116-83-153-111zm-3416,889v56c64,0 97-10 97-28-46-19-79-28-97-28zm-500,278-264,819 69,111c74,19 130,28 167,28 74,0 155-18 243-55s155-65 201-84c84-305 172-611 264-916h-180c-19,157-47,277-84,361-37,83-111,157-222,222 46-83 93-169 139-257s69-178 69-271c0-46-4-83-13-111-47,19-112,46-195,83s-148,61-194,70zm986,1694c-65-27-111-44-139-48-28-5-56,11-83,48 64,56 148,65 250,28l-28-28zm-375,139c-28,111-42,176-42,195 0,46 23,83 70,111 111,18 194,28 250,28 55,0 101-19 138-56 47-130 47-222 0-278-27,19-71,16-132-7-60-23-122-48-187-76-37,0-69,28-97,83zm-70,306c121,139 246,185 375,139-102-19-178-35-229-49s-99-44-146-90zm-1958,222v-139l-56,167 56-28zm2361-1611c167,0 306,55 417,167l-417-167zm2333-4056c65-18 135-9 209,28 92,65 157,111 194,139l-403-167zm-1652,3084 222,83c-37,9-74,5-111-14-37-18-74-42-111-69zm986-973c55-231 134-442 236-632 102-189 241-340 417-451-149,130-274,324-375,583-10-9-14-23-14-41-56,55-105,136-146,243-42,106-81,206-118,298zm-2556,1639c19,10 35,35 49,77 14,41 39,53 76,34-74,56-120,47-139-27l14-84z" fill="#1f1a17"></path></g></svg>
