<?xml version="1.0" encoding="utf-8"?>
<!-- Generator: Adobe Illustrator 15.0.3, SVG Export Plug-In . SVG Version: 6.00 Build 0)  -->
<!DOCTYPE svg PUBLIC "-//W3C//DTD SVG 1.1//EN" "http://www.w3.org/Graphics/SVG/1.1/DTD/svg11.dtd">
<svg version="1.1"
	 id="svg2" sodipodi:version="0.32" inkscape:version="0.46" sodipodi:docbase="C:\Documents and Settings\Nicholas\Desktop" sodipodi:docname="INC-flag.svg" inkscape:output_extension="org.inkscape.output.svg.inkscape" xmlns:inkscape="http://www.inkscape.org/namespaces/inkscape" xmlns:sodipodi="http://sodipodi.sourceforge.net/DTD/sodipodi-0.dtd" xmlns:rdf="http://www.w3.org/1999/02/22-rdf-syntax-ns#" xmlns:svg="http://www.w3.org/2000/svg" xmlns:cc="http://creativecommons.org/ns#" xmlns:dc="http://purl.org/dc/elements/1.1/"
	 xmlns="http://www.w3.org/2000/svg" xmlns:xlink="http://www.w3.org/1999/xlink" x="0px" y="0px" width="538.473px"
	 height="478.477px" viewBox="0 0 538.473 478.477" enable-background="new 0 0 538.473 478.477" xml:space="preserve">
<defs>
	
	
		<inkscape:perspective  inkscape:vp_y="0 : 1000 : 0" sodipodi:type="inkscape:persp3d" inkscape:vp_x="0 : 300 : 1" inkscape:vp_z="900 : 300 : 1" inkscape:persp3d-origin="450 : 200 : 1" id="perspective38">
		</inkscape:perspective>
	
		<inkscape:perspective  inkscape:vp_y="0 : 1000 : 0" sodipodi:type="inkscape:persp3d" inkscape:vp_x="0 : 526.18109 : 1" inkscape:vp_z="744.09448 : 526.18109 : 1" inkscape:persp3d-origin="372.04724 : 350.78739 : 1" id="perspective2418">
		</inkscape:perspective>
</defs>
<sodipodi:namedview  id="base" pagecolor="#ffffff" inkscape:zoom="1.3083335" bordercolor="#666666" borderopacity="1.0" inkscape:pageopacity="0.0" inkscape:pageshadow="2" inkscape:cx="526.02872" inkscape:cy="300.44324" inkscape:document-units="px" inkscape:current-layer="layer4" inkscape:window-width="1680" inkscape:window-height="990" inkscape:window-x="0" inkscape:window-y="26" showgrid="false" showguides="true" inkscape:guide-bbox="true">
	<inkscape:grid  type="xygrid" id="grid2530" visible="true" enabled="true"></inkscape:grid>
</sodipodi:namedview>
<g id="layer4" inkscape:groupmode="layer" inkscape:label="hand">
	<g id="g2546" transform="translate(-22.929934,-0.7643312)">
		<path id="path2424" d="M339.154,457.344c-0.65-0.65-1.183-2.521-1.183-4.153s-1.262-7.216-2.804-12.406
			c-2.702-9.099-2.989-9.395-8.091-8.273c-3.984,0.875-5.289,0.509-5.289-1.485c0-3.412-3.476-4.698-9.553-3.537
			c-7.759,1.483-5.591-1.155,4.681-5.698c10.142-4.483,14.87-8.691,13.062-11.62c-0.611-0.988-2.501-1.353-4.2-0.808
			c-2.623,0.841-2.683,0.697-0.393-0.95c1.483-1.066,3.747-1.953,5.03-1.968c7.464-0.088,39.514-27.37,53.962-45.936
			c4.747-6.101,18.789-34.595,21.681-43.993c1.063-3.461,2.795-16.407,3.846-28.77c1.863-21.922,2.85-29.813,7.186-57.535
			c5.056-32.318,5.237-37.646,1.571-45.934c-3.523-7.964-5.408-9.205-15.368-10.115c-7.225-0.66-18.832,8.227-24.014,18.385
			c-1.992,3.903-4.462,7.098-5.489,7.098s-1.44,0.689-0.92,1.533c0.521,0.843-0.646,5.888-2.591,11.211
			c-4.432,12.121-4.424,16.472,0.052,32.621c3.101,11.187,3.241,13.303,1.038,15.506c-3.328,3.328-8.225,1.377-8.225-3.278
			c0-2.008-0.769-3.651-1.706-3.651c-2.474,0-9.677,10.399-13.698,19.778c-1.909,4.449-5.671,12.541-8.36,17.979l-4.891,9.89
			l-0.057-7.792c-0.077-10.665-3.209-9.182-10.133,4.804c-5.5,11.109-9.701,17.033-9.701,13.679c0-1.487,6.105-18.908,9.894-28.222
			c0.725-1.782,0.479-3.146-0.565-3.146c-2.554,0-12.876,5.647-17.137,9.377c-1.938,1.697-4.211,2.66-5.05,2.142
			c-0.84-0.519-1.526-0.157-1.526,0.802s-3.894,5.658-8.651,10.443c-4.76,4.786-10.221,11.047-12.137,13.914
			c-8.514,12.734-9.934,15.035-14.189,22.979c-2.48,4.629-5.347,8.933-6.371,9.564c-1.023,0.633-1.396,1.902-0.826,2.824
			c0.568,0.92,0.177,1.674-0.87,1.674s-1.903,1.213-1.903,2.697c0,1.481-0.81,2.697-1.799,2.697c-2.883,0-2.098-3.875,2.704-13.342
			c2.47-4.865,4.488-9.492,4.488-10.281c0-3.8-6.328,1.811-13.707,12.151c-4.502,6.31-8.477,11.472-8.833,11.472
			c-0.355,0,0.186-2.388,1.201-5.304c1.785-5.121,15.67-20.7,24.958-28.004c2.484-1.955,7.744-7.541,11.687-12.414
			c16.605-20.524,42.621-39.812,58.364-43.271c2.993-0.657,5.442-2.026,5.442-3.043s1.112-1.42,2.474-0.898
			c1.36,0.521,2.415,0.002,2.343-1.155c-0.07-1.157,1.768-6.134,4.086-11.058c3.231-6.861,4.36-12.803,4.832-25.444
			c0.688-18.401-1.663-26.75-9.6-34.104c-4.135-3.832-6.327-4.318-19.454-4.318c-8.555,0-18.019,1.139-22.438,2.697
			c-9.353,3.299-8.391,3.39-9.513-0.899c-0.759-2.901-2.451-3.596-8.775-3.596c-9.608,0-19.48,4.975-30.26,15.247
			c-14.286,13.617-22.448,15.029-9.889,1.71c3.461-3.67,6.293-7.368,6.293-8.22c0-4.868-19.161,0.418-28.24,7.791
			c-1.192,0.969-3.216,1.156-4.494,0.418c-1.279-0.737-1.745-0.698-1.035,0.088c1.231,1.365-17.101,13.531-20.389,13.531
			c-2.836,0-1.664-3.334,2.098-5.968c3.043-2.131,3.208-2.755,0.956-3.62c-1.496-0.574-3.198-0.27-3.783,0.676
			c-1.354,2.191-4.446,2.24-4.446,0.07c0-0.906,3.7-3.062,8.225-4.789c4.521-1.729,10.187-4.686,12.586-6.572l4.361-3.433V137.6
			c0-35.245-0.724-60.092-1.836-63.017c-1.611-4.243-2.526-4.691-7.522-3.692c-3.128,0.625-7.082,2.399-8.785,3.941
			c-6.516,5.896-13.396,28.267-16.824,54.69c-2.351,18.118-3.323,87.561-1.244,88.845c3.191,1.974,2.44,6.167-2.22,12.414
			c-5.066,6.789-7.556,17.128-10.188,42.313c-4.906,46.969,10.096,107.498,31.989,129.068c8.028,7.91,9.559,10.769,4.782,8.937
			c-4.337-1.664-6.178,0.354-4.456,4.885c1.024,2.694,0.745,5.13-0.837,7.294c-1.307,1.787-2.883,6.613-3.501,10.725
			c-2.205,14.647-3.047,17.365-5.379,17.365c-3.99,0-5.049-5.396-5.82-29.667c-0.694-21.83-1.212-24.648-7.842-42.667
			c-8.766-23.822-12.294-39.451-14.926-66.113c-2.271-22.994-0.898-52.652,3.158-68.324c1.409-5.438,3.066-12.146,3.686-14.907
			c0.618-2.761,1.845-4.572,2.728-4.026c0.92,0.568,1.249-6.781,0.773-17.234c-1.544-33.882,7.38-111.001,14.674-126.81
			c3.733-8.092,13.294-15.821,22.896-18.509c6.277-1.758,8.688-3.468,9.947-7.06c0.914-2.607,4.55-7.977,8.077-11.932
			c6.293-7.057,6.659-7.198,19.462-7.509c12.842-0.312,13.097-0.412,16.128-6.293c5.464-10.595,16.142-17.663,26.688-17.663
			c4.891,0,7.702,0.987,8.96,3.146c1.008,1.73,1.857,2.337,1.89,1.349c0.102-3.191,9.042,8.538,9.042,11.86
			c0,4.83,2.892,5.678,8.85,2.597c7.187-3.717,11.328-3.49,16.943,0.928c8.687,6.832,12.989,20.155,15.65,48.444
			c1.07,11.373,2.646,27.959,3.501,36.859s2.444,31.959,3.53,51.243c2.629,46.674,2.692,46.908,9.075,32.899
			c2.794-6.134,6.768-12.961,8.826-15.173c2.062-2.211,3.746-4.695,3.746-5.52s3.799-3.908,8.442-6.853
			c7.208-4.571,10.211-5.354,20.518-5.354c11.275,0,12.383,0.366,16.729,5.532c5.104,6.067,5.606,10.636,2.776,25.238
			c-4.21,21.719-6.874,39.175-7.927,51.938c-2.865,34.717-5.333,54.121-8.458,66.525c-3.857,15.311-14.479,37.578-21.566,45.211
			c-2.62,2.823-4.4,5.134-3.953,5.134c0.446,0-1.694,2.63-4.759,5.844c-3.063,3.215-6.92,8.068-8.569,10.788
			c-1.649,2.721-4.038,4.944-5.31,4.944c-1.27,0-2.31,1.212-2.31,2.692c0,1.479-2.87,5.868-6.379,9.753
			c-7.258,8.032-9.803,15.213-9.803,27.65C348.76,445.451,343.12,461.31,339.154,457.344z M235.821,190.654
			c3.469-3.954,6.337-5.401,10.738-5.421c3.304-0.016,6.988-0.652,8.189-1.416c4.346-2.762,6.462-20.198,4.956-40.81
			c-0.795-10.878-1.228-30.486-0.961-43.573c0.685-33.565-0.979-47.738-6.269-53.446c-5.532-5.97-15.097-6.208-21.03-0.523
			c-8.633,8.268-9.448,15.389-9.425,82.259c0.012,34.117,0.593,63.447,1.292,65.178
			C225.228,197.644,230.522,196.693,235.821,190.654z M237.621,153.366c0.331-1.719,2.211-3.323,4.178-3.564
			c1.967-0.241,2.563,0.02,1.327,0.579c-3.391,1.535-2.697,4.374,0.745,3.053c2.012-0.772,2.565-0.459,1.691,0.956
			C243.438,157.825,236.923,156.987,237.621,153.366z M236.383,101.158c0.989-0.989,3.82-2.384,6.293-3.101
			c2.997-0.869,3.896-0.704,2.697,0.495c-0.989,0.989-3.82,2.385-6.293,3.102C236.083,102.522,235.185,102.357,236.383,101.158z
			 M238.076,94.404c1.919-1.452,4.751-2.611,6.293-2.576c1.796,0.041,1.188,0.986-1.692,2.633
			C236.793,97.824,233.606,97.784,238.076,94.404z M298.562,180.57c1.562-1.38,3.21-2.142,3.66-1.69
			c2.637,2.637,3.826-32.262,1.591-46.637c-1.728-11.1-1.826-24.422-0.432-57.577c1.9-45.146,1.689-47.129-5.697-53.646
			c-4.63-4.084-18.949-3.328-23.521,1.243c-1.636,1.636-3.86,2.975-4.943,2.975s-1.428,0.542-0.766,1.205
			c0.663,0.663-0.076,3.161-1.643,5.551c-3.775,5.762-5.332,50.917-3.504,101.659l1.347,37.394l5.193,1.039
			c5.82,1.165,6.46,2.694,2.495,5.983c-1.482,1.23-2.695,3.436-2.695,4.896c0,2.221,2.153,2.449,13.035,1.387
			C289.853,183.652,296.997,181.949,298.562,180.57z M280.435,142.318c0-0.874,2.21-2.011,4.911-2.527
			c4.593-0.878,4.687-0.775,1.453,1.588C282.849,144.268,280.435,144.624,280.435,142.318z M281.333,136.714
			c0.611-0.989,2.479-1.786,4.151-1.771c2.62,0.024,2.668,0.269,0.344,1.771C282.308,138.99,279.928,138.99,281.333,136.714z
			 M282.233,91.764c1.482-0.958,4.313-1.743,6.293-1.743c2.978,0,3.132,0.3,0.897,1.743c-1.482,0.958-4.313,1.743-6.293,1.743
			C280.154,93.507,280,93.207,282.233,91.764z M280.27,85.67c1.141-1.374,4.271-2.918,6.956-3.431l4.882-0.933l-4.237,3.431
			C282.769,88.867,277.031,89.572,280.27,85.67z M345.234,179.591l4.425-0.623l0.546-25.172c0.301-13.845-0.301-31.24-1.336-38.657
			c-1.034-7.417-2.67-24.109-3.633-37.094c-1.798-24.229-3.514-30.934-9.72-37.973c-7.397-8.393-22.551-3.619-25.843,8.141
			c-0.754,2.692-1.228,21.077-1.054,40.855c0.175,19.778,0.41,46.436,0.523,59.239c0.213,24.027,1.533,28.88,7.354,27.032
			c2.498-0.793,2.989-0.232,2.255,2.575c-0.703,2.691,0.12,3.822,3.297,4.525c8.979,1.986,15.096,1.953,16.891-0.092
			C339.969,181.174,342.801,179.935,345.234,179.591z M322.688,136.714c0.61-0.989,3.134-1.798,5.605-1.798
			c2.539,0,4.012,0.782,3.385,1.798c-0.611,0.989-3.135,1.798-5.606,1.798C323.533,138.512,322.061,137.73,322.688,136.714z
			 M324.486,131.32c0.611-0.989,2.277-1.798,3.702-1.798s2.591,0.809,2.591,1.798s-1.666,1.798-3.702,1.798
			S323.875,132.309,324.486,131.32z M321.789,90.029c0-2.31,7.177-6.072,8.692-4.557c0.655,0.656-0.378,2.339-2.296,3.742
			C324.125,92.182,321.789,92.48,321.789,90.029z M321.789,81.875c1.231-1.483,3.96-2.668,6.064-2.633
			c3.603,0.06,3.563,0.213-0.67,2.633C321.294,85.241,318.996,85.241,321.789,81.875z M213.892,443.256
			c-1.145-1.378-1.556-4.152-0.915-6.168c0.682-2.147-0.001-5.322-1.649-7.678c-3.351-4.783-3.688-10.407-0.625-10.407
			c1.203,0,5.7,1.343,9.994,2.981c6.565,2.507,9.242,2.649,16.829,0.898c4.962-1.146,11.994-2.055,15.627-2.02l6.604,0.064
			l-4.494,2.568c-2.473,1.413-6.774,2.599-9.562,2.633c-4.165,0.054-4.871,0.679-3.971,3.516c1.147,3.618,0.228,4.147-11.206,6.45
			c-3.223,0.647-6.639,2.637-7.592,4.418C220.539,444.987,216.376,446.25,213.892,443.256z M227.194,415.443
			c-3.944-1.594-6.639-6.084-4.771-7.952c0.593-0.591,2.95-1.074,5.242-1.074c2.291,0,9.178-2.428,15.302-5.395
			c17.747-8.598,28.529-6.529,17.871,3.428c-6.582,6.147-20.146,12.799-25.782,12.641
			C232.819,417.028,229.281,416.287,227.194,415.443z M290.499,410.636c-5.535-3.464-10.063-6.687-10.063-7.162
			c0-0.477,0.754-0.4,1.674,0.168c0.921,0.568,2.217,0.157,2.88-0.916c1.138-1.84,20.171-0.992,28.261,1.259
			c4.445,1.237,3.903,5.448-1.125,8.743C304.786,417.536,300.935,417.164,290.499,410.636z M249.084,364.535
			c0.676-1.772,1.682-2.771,2.234-2.218c0.554,0.554,0.001,2.005-1.229,3.225C248.316,367.304,248.109,367.097,249.084,364.535z
			 M201.322,350.671c0-2.257,25.635-27.985,35.004-35.132c3.407-2.599,7.06-4.19,8.115-3.538c1.057,0.652,1.698,0.24,1.427-0.918
			c-0.438-1.863,13.606-13.258,38.163-30.964c4.45-3.208,8.495-6.261,8.99-6.782c2.53-2.676,25.396-16.531,26.104-15.82
			c1.339,1.339-5.627,8.011-14.839,14.214c-4.714,3.173-10.391,7.407-12.615,9.409c-2.226,2.002-4.059,2.892-4.072,1.978
			c-0.015-0.914-0.622-0.853-1.35,0.138c-3.166,4.31-16.799,13.575-18.462,12.549c-1.005-0.621-1.604-0.358-1.333,0.584
			c0.271,0.942-4.359,5.431-10.294,9.973c-5.934,4.543-11.81,9.133-13.059,10.199s-3.089,1.435-4.09,0.816
			c-1.002-0.619-1.599-0.361-1.326,0.573c0.469,1.612-28.689,30.228-33.901,33.271C202.319,352.073,201.322,351.852,201.322,350.671
			z M173.629,291.63c-1.669-2.699,9.595-9.531,14.735-8.938c4.681,0.54,4.553,0.749-3.383,5.506
			C175.984,293.591,175.021,293.882,173.629,291.63z M211.209,275.164c3.336-5.397,48.542-30.274,50.839-27.978
			c0.522,0.521,1.84-0.121,2.927-1.428c1.976-2.379,10.92-6.08,37.936-15.703c8.62-3.069,12.943-4.012,10.788-2.351
			c-3.474,2.679-53.95,27.679-55.884,27.679c-2.329,0-32.525,13.543-35.252,15.811c-1.668,1.387-3.895,1.99-4.944,1.34
			c-1.052-0.648-1.912-0.41-1.912,0.531s-1.255,2.193-2.79,2.781C211.335,276.454,210.596,276.157,211.209,275.164z
			 M408.958,206.727c-0.654-2.066-0.768-4.182-0.249-4.701c1.501-1.5,4.779,1.184,4.779,3.912
			C413.488,210.137,410.222,210.707,408.958,206.727z M195.029,165.482c0.611-0.989,2.479-1.785,4.151-1.771
			c2.619,0.024,2.668,0.269,0.344,1.771C196.002,167.758,193.623,167.758,195.029,165.482z M194.129,160.089
			c3.543-2.29,7.708-2.29,6.294,0c-0.61,0.989-2.885,1.785-5.051,1.771C192.169,161.837,191.938,161.506,194.129,160.089z
			 M199.524,127.758c2.473-1.953,5.554-3.568,6.849-3.59c4.017-0.068,0.646,3.103-5.497,5.171l-5.847,1.969L199.524,127.758z
			 M194.129,125.265c0-1.047,9.739-6.531,11.6-6.531c2.407,0,0.681,3.265-2.158,4.081c-1.731,0.498-4.562,1.488-6.294,2.2
			C195.545,125.728,194.129,125.841,194.129,125.265z"/>
	</g>
	<path id="path2400" fill="none" stroke="#000000" d="M255.777,24.134C254.759,24.134,254.759,24.134,255.777,24.134z"/>
	<path id="path3176" fill="none" stroke="#000000" d="M255.012,24.516C252.313,25.306,252.713,28.35,255.012,24.516z"/>
</g>
</svg>
