<?xml version="1.0" encoding="utf-8"?>
<!-- Generator: Adobe Illustrator 21.0.1, SVG Export Plug-In . SVG Version: 6.00 Build 0)  -->
<svg version="1.1" id="Layer_1" xmlns="http://www.w3.org/2000/svg" xmlns:xlink="http://www.w3.org/1999/xlink" x="0px" y="0px"
	 viewBox="0 0 60 60" enable-background="new 0 0 60 60" xml:space="preserve">
<g>
	<path d="M56.836,25.198c-0.174-1.516-1.162-3.193-2.759-4.763c0.017-0.049,0.049-0.091,0.056-0.143
		c0.057-0.426,1.345-10.479-2.562-15.163c-1.23-1.475-2.84-2.271-4.783-2.363c-0.01,0-0.019,0.003-0.03,0.003l-7.368-0.912
		c-0.804-0.042-1.583,0.154-2.279,0.556c-5.221,3.01-8.36,8.712-10.228,13.952c-3.461,1.249-7.226,3.161-11.206,5.699
		c-0.026,0.008-0.055,0-0.08,0.012L4.421,27.034c-0.093,0.041-0.172,0.1-0.238,0.169c-0.099,0.048-0.201,0.082-0.297,0.143
		c-1.085,0.695-1.635,2.054-1.635,4.041l0,9.997c0.004,0.121,0.116,2.97,2.061,4.87c0.444,0.437,1.007,0.785,1.681,1.041
		l28.684,10.421c0.336,0.127,0.653,0.213,0.969,0.262l0.205,0.035c0.312,0.054,0.757,0.13,1.25,0.13c0.75,0,1.607-0.184,2.263-0.893
		c0.054-0.025,0.109-0.049,0.157-0.088l7.609-6.217c0.001-0.001,0.001-0.002,0.002-0.002c1.005-0.775,9.199-7.17,9.928-9.903
		C57.712,38.592,58.287,29.975,56.836,25.198z M55.315,25.065c-0.012,0.08-0.017,0.162-0.002,0.245
		c0.005,0.028,0.267,1.718-1.571,4.387c-1.894-3.553-8.604-8.289-15.321-8.289c-1.358,0-2.776,0.182-4.229,0.529
		c0.453-2.257,1.011-4.228,1.642-5.942c2.145-0.103,3.967,0.075,5.439,0.231c2.168,0.23,4.26,0.833,6.146,1.65l3.021,1.601
		C53.112,21.191,54.962,23.28,55.315,25.065z M47.378,35.604c-0.278-4.858-5.406-6.472-8.186-6.637
		c-2.199-0.052-4.162-0.174-5.926-0.346c0.154-1.817,0.365-3.498,0.626-5.053c1.567-0.43,3.09-0.659,4.53-0.659
		c6.838,0,13.344,5.25,14.269,8.092c0.004,0.012,0.012,0.02,0.016,0.031C51.53,32.394,49.826,33.94,47.378,35.604z M45.903,36.979
		v13.032l-5.607,4.581c0.001-0.04,0.01-0.075,0.01-0.116V41.321c0-1.588,0-4.245-4.295-5.136
		c-0.112-0.028-11.255-2.807-14.519-3.777c-3.249-0.969-13.802-5.092-13.867-5.116c-0.004-0.002-0.032-0.013-0.044-0.019L15.86,23.6
		c0.229,0.16,0.666,0.495,1.429,1.178c1.467,1.314,5.933,5.314,21.84,5.688c0.276,0.017,6.775,0.463,6.775,5.544v0.966
		C45.904,36.976,45.903,36.977,45.903,36.979z M46.447,4.494c0.656,1.323,1.985,5.071,0.546,11.572
		c-1.726-0.647-3.596-1.122-5.562-1.331c-1.368-0.145-3.035-0.307-4.99-0.261C39.735,6.818,44.468,4.945,46.447,4.494z
		 M50.418,6.089c2.791,3.344,2.55,10.248,2.336,12.918l-1.349-0.715c-0.913-0.603-1.92-1.154-2.997-1.642
		c1.418-6.179,0.449-10.199-0.333-12.157C48.985,4.771,49.76,5.3,50.418,6.089z M37.861,3.712c0.446-0.258,0.957-0.377,1.4-0.362
		l4.302,0.534c-4.145,1.98-10.367,7.76-11.793,24.575c-2.363-0.288-4.317-0.671-5.94-1.1C26.217,24.266,28.564,9.072,37.861,3.712z
		 M24.368,26.934c-3.759-1.202-5.335-2.608-6.079-3.274c-0.398-0.356-0.717-0.626-0.985-0.843c3.157-1.959,6.164-3.51,8.967-4.62
		C25.076,22.049,24.559,25.411,24.368,26.934z M36.104,56.535l-0.228-0.038c-0.214-0.033-0.433-0.093-0.68-0.187L6.515,45.89
		c-0.469-0.178-0.857-0.415-1.154-0.706c-1.506-1.473-1.61-3.822-1.61-3.822v-9.974c0-0.989,0.163-2.273,0.939-2.774
		c0.75-0.482,1.921-0.133,2.348,0.059c0.436,0.17,10.717,4.187,14.026,5.174c3.296,0.98,14.125,3.681,14.613,3.802
		c3.129,0.649,3.129,2.187,3.129,3.674v13.154c0,0.462-0.068,0.864-0.203,1.198C38.15,56.794,37.281,56.738,36.104,56.535z
		 M55.609,40.654c-0.403,1.511-4.837,5.462-8.205,8.165V37.388c5.205-3.369,7.562-6.409,8.609-8.634
		C56.533,33.222,56.089,38.857,55.609,40.654z"/>
	<path d="M25.263,37.98l-8.296-2.502c-0.396-0.123-0.815,0.104-0.935,0.501c-0.12,0.396,0.105,0.815,0.501,0.935l8.296,2.502
		c0.072,0.022,0.146,0.032,0.217,0.032c0.322,0,0.62-0.209,0.718-0.533C25.884,38.519,25.66,38.1,25.263,37.98z"/>
</g>
</svg>
