<?xml version="1.0" standalone="yes"?>

<svg version="1.1" viewBox="0.0 0.0 960.0 720.0" fill="none" stroke="none" stroke-linecap="square" stroke-miterlimit="10" xmlns="http://www.w3.org/2000/svg" xmlns:xlink="http://www.w3.org/1999/xlink"><clipPath id="p.0"><path d="m0 0l960.0 0l0 720.0l-960.0 0l0 -720.0z" clip-rule="nonzero"></path></clipPath><g clip-path="url(#p.0)"><path fill="#000000" fill-opacity="0.0" d="m0 0l960.0 0l0 720.0l-960.0 0z" fill-rule="nonzero"></path><path fill="#000000" fill-opacity="0.0" d="m10.385827 9.519685l939.81104 0l0 66.64567l-939.81104 0z" fill-rule="nonzero"></path><path fill="#000000" d="m359.65854 35.56252l0 -20.203125l-7.546875 0l0 -2.703125l18.15625 0l0 2.703125l-7.578125 0l0 20.203125l-3.03125 0zm13.359375 0l0 -22.90625l2.8125 0l0 8.218751q1.96875 -2.28125 4.96875 -2.28125q1.84375 0 3.203125 0.734375q1.359375 0.71875 1.9375 2.0q0.59375 1.28125 0.59375 3.71875l0 10.515625l-2.8125 0l0 -10.515625q0 -2.109375 -0.921875 -3.0625q-0.90625 -0.96875 -2.578125 -0.96875q-1.25 0 -2.359375 0.65625q-1.09375 0.640625 -1.5625 1.75q-0.46875 1.109375 -0.46875 3.0625l0 9.078125l-2.8125 0zm29.15625 -5.34375l2.90625 0.359375q-0.6875 2.546875 -2.546875 3.953125q-1.859375 1.40625 -4.75 1.40625q-3.640625 0 -5.78125 -2.234375q-2.125 -2.25 -2.125 -6.296875q0 -4.1875 2.15625 -6.5q2.15625 -2.3125 5.59375 -2.3125q3.328125 0 5.4375 2.265625q2.109375 2.265625 2.109375 6.375q0 0.25 -0.015625 0.75l-12.375 0q0.15625 2.734375 1.546875 4.1875q1.390625 1.453125 3.46875 1.453125q1.546875 0 2.640625 -0.8125q1.09375 -0.8125 1.734375 -2.59375zm-9.234375 -4.546875l9.265625 0q-0.1875 -2.09375 -1.0625 -3.140625q-1.34375 -1.625 -3.484375 -1.625q-1.9375 0 -3.265625 1.296875q-1.3125 1.296875 -1.453125 3.46875zm28.921875 9.890625l-6.078125 -22.90625l3.109375 0l3.484375 15.015626q0.5625 2.359375 0.96875 4.6875q0.875 -3.671875 1.03125 -4.234375l4.359375 -15.468751l3.65625 0l3.28125 11.593751q1.234375 4.3125 1.78125 8.109375q0.4375 -2.171875 1.140625 -4.984375l3.59375 -14.718751l3.046875 0l-6.28125 22.90625l-2.921875 0l-4.828125 -17.453125q-0.609375 -2.187501 -0.71875 -2.687501q-0.359375 1.578126 -0.671875 2.687501l-4.859375 17.453125l-3.09375 0zm37.203125 -5.34375l2.90625 0.359375q-0.6875 2.546875 -2.546875 3.953125q-1.859375 1.40625 -4.75 1.40625q-3.640625 0 -5.78125 -2.234375q-2.125 -2.25 -2.125 -6.296875q0 -4.1875 2.15625 -6.5q2.15625 -2.3125 5.59375 -2.3125q3.328125 0 5.4375 2.265625q2.109375 2.265625 2.109375 6.375q0 0.25 -0.015625 0.75l-12.375 0q0.15625 2.734375 1.546875 4.1875q1.390625 1.453125 3.46875 1.453125q1.546875 0 2.640625 -0.8125q1.09375 -0.8125 1.734375 -2.59375zm-9.234375 -4.546875l9.265625 0q-0.1875 -2.09375 -1.0625 -3.140625q-1.34375 -1.625 -3.484375 -1.625q-1.9375 0 -3.265625 1.296875q-1.3125 1.296875 -1.453125 3.46875zm18.265625 9.890625l-2.609375 0l0 -22.90625l2.8125 0l0 8.171876q1.78125 -2.234375 4.546875 -2.234375q1.53125 0 2.890625 0.625q1.375 0.609375 2.25 1.734375q0.890625 1.109375 1.390625 2.6875q0.5 1.578125 0.5 3.375q0 4.265625 -2.109375 6.59375q-2.109375 2.328125 -5.0625 2.328125q-2.9375 0 -4.609375 -2.453125l0 2.078125zm-0.03125 -8.421875q0 2.984375 0.8125 4.3125q1.328125 2.171875 3.59375 2.171875q1.84375 0 3.1875 -1.59375q1.34375 -1.609375 1.34375 -4.78125q0 -3.25 -1.296875 -4.796875q-1.28125 -1.546875 -3.109375 -1.546875q-1.84375 0 -3.1875 1.609375q-1.34375 1.59375 -1.34375 4.625zm24.484375 8.421875l0 -22.90625l8.640625 0q2.28125 0 3.484375 0.21875q1.6875 0.28125 2.828125 1.078125q1.140625 0.78125 1.828125 2.203126q0.703125 1.421875 0.703125 3.125q0 2.921875 -1.859375 4.953125q-1.859375 2.015625 -6.71875 2.015625l-5.875 0l0 9.3125l-3.03125 0zm3.03125 -12.015625l5.921875 0q2.9375 0 4.171875 -1.09375q1.234375 -1.09375 1.234375 -3.078125q0 -1.4375 -0.734375 -2.453125q-0.71875 -1.031251 -1.90625 -1.359376q-0.765625 -0.203125 -2.828125 -0.203125l-5.859375 0l0 8.187501zm17.890594 12.015625l0 -22.90625l2.8125 0l0 22.90625l-2.8125 0zm18.0 -2.046875q-1.5625 1.328125 -3.015625 1.875q-1.4375 0.546875 -3.09375 0.546875q-2.734375 0 -4.203125 -1.328125q-1.46875 -1.34375 -1.46875 -3.421875q0 -1.21875 0.546875 -2.21875q0.5625 -1.015625 1.453125 -1.625q0.90625 -0.609375 2.03125 -0.921875q0.828125 -0.21875 2.5 -0.421875q3.40625 -0.40625 5.015625 -0.96875q0.015625 -0.578125 0.015625 -0.734375q0 -1.71875 -0.796875 -2.421875q-1.078125 -0.953125 -3.203125 -0.953125q-1.984375 0 -2.9375 0.703125q-0.9375 0.6875 -1.390625 2.453125l-2.75 -0.375q0.375 -1.765625 1.234375 -2.84375q0.859375 -1.09375 2.484375 -1.671875q1.625 -0.59375 3.765625 -0.59375q2.125 0 3.453125 0.5q1.328125 0.5 1.953125 1.265625q0.625 0.75 0.875 1.90625q0.140625 0.71875 0.140625 2.59375l0 3.75q0 3.921875 0.171875 4.96875q0.1875 1.03125 0.71875 1.984375l-2.9375 0q-0.4375 -0.875 -0.5625 -2.046875zm-0.234375 -6.28125q-1.53125 0.625 -4.59375 1.0625q-1.734375 0.25 -2.453125 0.5625q-0.71875 0.3125 -1.109375 0.921875q-0.390625 0.59375 -0.390625 1.328125q0 1.125 0.84375 1.875q0.859375 0.75 2.5 0.75q1.625 0 2.890625 -0.703125q1.265625 -0.71875 1.859375 -1.953125q0.453125 -0.953125 0.453125 -2.8125l0 -1.03125zm13.34375 5.8125l0.40625 2.484375q-1.1875 0.25 -2.125 0.25q-1.53125 0 -2.375 -0.484375q-0.84375 -0.484375 -1.1875 -1.265625q-0.34375 -0.796875 -0.34375 -3.328125l0 -9.546875l-2.0625 0l0 -2.1875l2.0625 0l0 -4.109376l2.796875 -1.6875l0 5.796876l2.828125 0l0 2.1875l-2.828125 0l0 9.703125q0 1.203125 0.140625 1.546875q0.15625 0.34375 0.484375 0.546875q0.34375 0.203125 0.96875 0.203125q0.46875 0 1.234375 -0.109375zm3.421875 2.515625l0 -14.40625l-2.484375 0l0 -2.1875l2.484375 0l0 -1.765625q0 -1.671876 0.296875 -2.484376q0.40625 -1.09375 1.421875 -1.765625q1.03125 -0.6875 2.875 -0.6875q1.1875 0 2.625 0.28125l-0.421875 2.453125q-0.875 -0.15625 -1.65625 -0.15625q-1.28125 0 -1.8125 0.546875q-0.53125 0.546875 -0.53125 2.046876l0 1.53125l3.234375 0l0 2.1875l-3.234375 0l0 14.40625l-2.796875 0zm7.171875 -8.296875q0 -4.609375 2.5625 -6.828125q2.140625 -1.84375 5.21875 -1.84375q3.421875 0 5.59375 2.25q2.171875 2.234375 2.171875 6.1875q0 3.203125 -0.96875 5.046875q-0.953125 1.828125 -2.796875 2.84375q-1.828125 1.015625 -4.0 1.015625q-3.484375 0 -5.640625 -2.234375q-2.140625 -2.234375 -2.140625 -6.4375zm2.890625 0q0 3.1875 1.390625 4.78125q1.390625 1.578125 3.5 1.578125q2.09375 0 3.484375 -1.59375q1.390625 -1.59375 1.390625 -4.859375q0 -3.078125 -1.40625 -4.65625q-1.390625 -1.59375 -3.46875 -1.59375q-2.109375 0 -3.5 1.578125q-1.390625 1.578125 -1.390625 4.765625zm15.921875 8.296875l0 -16.59375l2.53125 0l0 2.515625q0.96875 -1.765625 1.78125 -2.328125q0.828125 -0.5625 1.8125 -0.5625q1.421875 0 2.890625 0.90625l-0.96875 2.609375q-1.03125 -0.609375 -2.0625 -0.609375q-0.921875 0 -1.65625 0.5625q-0.734375 0.546875 -1.046875 1.53125q-0.46875 1.5 -0.46875 3.28125l0 8.6875l-2.8125 0zm10.6875 0l0 -16.59375l2.515625 0l0 2.328125q0.78125 -1.21875 2.078125 -1.953125q1.296875 -0.75 2.953125 -0.75q1.84375 0 3.015625 0.765625q1.1875 0.765625 1.671875 2.140625q1.96875 -2.90625 5.125 -2.90625q2.46875 0 3.796875 1.375q1.328125 1.359375 1.328125 4.203125l0 11.390625l-2.796875 0l0 -10.453125q0 -1.6875 -0.28125 -2.421875q-0.265625 -0.75 -0.984375 -1.203125q-0.71875 -0.453125 -1.6875 -0.453125q-1.75 0 -2.90625 1.171875q-1.15625 1.15625 -1.15625 3.71875l0 9.640625l-2.8125 0l0 -10.78125q0 -1.875 -0.6875 -2.8125q-0.6875 -0.9375 -2.25 -0.9375q-1.1875 0 -2.203125 0.625q-1.0 0.625 -1.453125 1.828125q-0.453125 1.203125 -0.453125 3.46875l0 8.609375l-2.8125 0z" fill-rule="nonzero"></path><path fill="#d0e0e3" d="m223.91208 501.92126l455.62204 0l0 100.787415l-455.62204 0z" fill-rule="nonzero"></path><path stroke="#45818e" stroke-width="2.0" stroke-linejoin="round" stroke-linecap="butt" d="m223.91208 501.92126l455.62204 0l0 100.787415l-455.62204 0z" fill-rule="nonzero"></path><path fill="#000000" d="m387.66464 528.84125l-3.609375 -13.59375l1.84375 0l2.0625 8.90625q0.34375 1.40625 0.578125 2.78125q0.515625 -2.171875 0.609375 -2.515625l2.59375 -9.171875l2.171875 0l1.953125 6.875q0.734375 2.5625 1.046875 4.8125q0.265625 -1.28125 0.6875 -2.953125l2.125 -8.734375l1.8125 0l-3.734375 13.59375l-1.734375 0l-2.859375 -10.359375q-0.359375 -1.296875 -0.421875 -1.59375q-0.21875 0.9375 -0.40625 1.59375l-2.890625 10.359375l-1.828125 0zm21.764923 -3.171875l1.71875 0.21875q-0.40625 1.5 -1.515625 2.34375q-1.09375 0.828125 -2.8125 0.828125q-2.15625 0 -3.421875 -1.328125q-1.265625 -1.328125 -1.265625 -3.734375q0 -2.484375 1.265625 -3.859375q1.28125 -1.375 3.328125 -1.375q1.984375 0 3.234375 1.34375q1.25 1.34375 1.25 3.796875q0 0.140625 -0.015625 0.4375l-7.34375 0q0.09375 1.625 0.921875 2.484375q0.828125 0.859375 2.0625 0.859375q0.90625 0 1.546875 -0.46875q0.65625 -0.484375 1.046875 -1.546875zm-5.484375 -2.703125l5.5 0q-0.109375 -1.234375 -0.625 -1.859375q-0.796875 -0.96875 -2.078125 -0.96875q-1.140625 0 -1.9375 0.78125q-0.78125 0.765625 -0.859375 2.046875zm10.656952 5.875l-1.546875 0l0 -13.59375l1.65625 0l0 4.84375q1.0625 -1.328125 2.703125 -1.328125q0.90625 0 1.71875 0.375q0.8125 0.359375 1.328125 1.03125q0.53125 0.65625 0.828125 1.59375q0.296875 0.9375 0.296875 2.0q0 2.53125 -1.25 3.921875q-1.25 1.375 -3.0 1.375q-1.75 0 -2.734375 -1.453125l0 1.234375zm-0.015625 -5.0q0 1.765625 0.46875 2.5625q0.796875 1.28125 2.140625 1.28125q1.09375 0 1.890625 -0.9375q0.796875 -0.953125 0.796875 -2.84375q0 -1.921875 -0.765625 -2.84375q-0.765625 -0.921875 -1.84375 -0.921875q-1.09375 0 -1.890625 0.953125q-0.796875 0.953125 -0.796875 2.75zm14.168396 5.0l0 -13.59375l5.109375 0q1.546875 0 2.484375 0.40625q0.953125 0.40625 1.484375 1.265625q0.53125 0.859375 0.53125 1.796875q0 0.875 -0.46875 1.65625q-0.46875 0.765625 -1.4375 1.234375q1.234375 0.359375 1.890625 1.234375q0.671875 0.875 0.671875 2.0625q0 0.953125 -0.40625 1.78125q-0.390625 0.8125 -0.984375 1.265625q-0.59375 0.4375 -1.5 0.671875q-0.890625 0.21875 -2.1875 0.21875l-5.1875 0zm1.796875 -7.890625l2.9375 0q1.203125 0 1.71875 -0.15625q0.6875 -0.203125 1.03125 -0.671875q0.359375 -0.46875 0.359375 -1.1875q0 -0.671875 -0.328125 -1.1875q-0.328125 -0.515625 -0.9375 -0.703125q-0.59375 -0.203125 -2.0625 -0.203125l-2.71875 0l0 4.109375zm0 6.28125l3.390625 0q0.875 0 1.21875 -0.0625q0.625 -0.109375 1.046875 -0.359375q0.421875 -0.265625 0.6875 -0.765625q0.265625 -0.5 0.265625 -1.140625q0 -0.765625 -0.390625 -1.328125q-0.390625 -0.5625 -1.078125 -0.78125q-0.6875 -0.234375 -1.984375 -0.234375l-3.15625 0l0 4.671875zm10.490448 1.609375l0 -9.859375l1.5 0l0 1.5q0.578125 -1.046875 1.0625 -1.375q0.484375 -0.34375 1.078125 -0.34375q0.84375 0 1.71875 0.546875l-0.578125 1.546875q-0.609375 -0.359375 -1.234375 -0.359375q-0.546875 0 -0.984375 0.328125q-0.421875 0.328125 -0.609375 0.90625q-0.28125 0.890625 -0.28125 1.953125l0 5.15625l-1.671875 0zm5.603302 -4.921875q0 -2.734375 1.53125 -4.0625q1.265625 -1.09375 3.09375 -1.09375q2.03125 0 3.3125 1.34375q1.296875 1.328125 1.296875 3.671875q0 1.90625 -0.578125 3.0q-0.5625 1.078125 -1.65625 1.6875q-1.078125 0.59375 -2.375 0.59375q-2.0625 0 -3.34375 -1.328125q-1.28125 -1.328125 -1.28125 -3.8125zm1.71875 0q0 1.890625 0.828125 2.828125q0.828125 0.9375 2.078125 0.9375q1.25 0 2.0625 -0.9375q0.828125 -0.953125 0.828125 -2.890625q0 -1.828125 -0.828125 -2.765625q-0.828125 -0.9375 -2.0625 -0.9375q-1.25 0 -2.078125 0.9375q-0.828125 0.9375 -0.828125 2.828125zm11.110107 4.921875l-3.015625 -9.859375l1.71875 0l1.5625 5.6875l0.59375 2.125q0.03125 -0.15625 0.5 -2.03125l1.578125 -5.78125l1.71875 0l1.46875 5.71875l0.484375 1.890625l0.578125 -1.90625l1.6875 -5.703125l1.625 0l-3.078125 9.859375l-1.734375 0l-1.578125 -5.90625l-0.375 -1.671875l-2.0 7.578125l-1.734375 0zm10.972931 -2.9375l1.65625 -0.265625q0.140625 1.0 0.765625 1.53125q0.640625 0.515625 1.78125 0.515625q1.15625 0 1.703125 -0.46875q0.5625 -0.46875 0.5625 -1.09375q0 -0.5625 -0.484375 -0.890625q-0.34375 -0.21875 -1.703125 -0.5625q-1.84375 -0.46875 -2.5625 -0.796875q-0.703125 -0.34375 -1.078125 -0.9375q-0.359375 -0.609375 -0.359375 -1.328125q0 -0.65625 0.296875 -1.21875q0.3125 -0.5625 0.828125 -0.9375q0.390625 -0.28125 1.0625 -0.484375q0.671875 -0.203125 1.4375 -0.203125q1.171875 0 2.046875 0.34375q0.875 0.328125 1.28125 0.90625q0.421875 0.5625 0.578125 1.515625l-1.625 0.21875q-0.109375 -0.75 -0.65625 -1.171875q-0.53125 -0.4375 -1.5 -0.4375q-1.15625 0 -1.640625 0.390625q-0.484375 0.375 -0.484375 0.875q0 0.328125 0.203125 0.59375q0.203125 0.265625 0.640625 0.4375q0.25 0.09375 1.46875 0.4375q1.765625 0.46875 2.46875 0.765625q0.703125 0.296875 1.09375 0.875q0.40625 0.578125 0.40625 1.4375q0 0.828125 -0.484375 1.578125q-0.484375 0.734375 -1.40625 1.140625q-0.921875 0.390625 -2.078125 0.390625q-1.921875 0 -2.9375 -0.796875q-1.0 -0.796875 -1.28125 -2.359375zm16.75003 -0.234375l1.71875 0.21875q-0.40625 1.5 -1.515625 2.34375q-1.09375 0.828125 -2.8125 0.828125q-2.15625 0 -3.421875 -1.328125q-1.2656555 -1.328125 -1.2656555 -3.734375q0 -2.484375 1.2656555 -3.859375q1.28125 -1.375 3.328125 -1.375q1.984375 0 3.234375 1.34375q1.25 1.34375 1.25 3.796875q0 0.140625 -0.015625 0.4375l-7.34375 0q0.09375 1.625 0.921875 2.484375q0.828125 0.859375 2.0625 0.859375q0.90625 0 1.546875 -0.46875q0.65625 -0.484375 1.046875 -1.546875zm-5.484375 -2.703125l5.5 0q-0.109375 -1.234375 -0.625 -1.859375q-0.796875 -0.96875 -2.078125 -0.96875q-1.140625 0 -1.9375 0.78125q-0.78125 0.765625 -0.859375 2.046875zm9.094452 5.875l0 -9.859375l1.5 0l0 1.5q0.578125 -1.046875 1.0625 -1.375q0.484375 -0.34375 1.078125 -0.34375q0.84375 0 1.71875 0.546875l-0.578125 1.546875q-0.609375 -0.359375 -1.234375 -0.359375q-0.546875 0 -0.984375 0.328125q-0.421875 0.328125 -0.609375 0.90625q-0.28125 0.890625 -0.28125 1.953125l0 5.15625l-1.671875 0zm20.552216 -13.59375l1.7968445 0l0 7.84375q0 2.0625 -0.46875 3.265625q-0.453125 1.203125 -1.6718445 1.96875q-1.203125 0.75 -3.171875 0.75q-1.90625 0 -3.125 -0.65625q-1.21875 -0.65625 -1.734375 -1.90625q-0.515625 -1.25 -0.515625 -3.421875l0 -7.84375l1.796875 0l0 7.84375q0 1.765625 0.328125 2.609375q0.328125 0.84375 1.125 1.296875q0.8125 0.453125 1.96875 0.453125q1.984375 0 2.828125 -0.890625q0.84375 -0.90625 0.84375 -3.46875l0 -7.84375zm4.847931 13.59375l0 -13.59375l1.8125 0l0 13.59375l-1.8125 0z" fill-rule="nonzero"></path><path fill="#d9ead3" d="m231.2769 548.65356l213.76378 0l0 45.858276l-213.76378 0z" fill-rule="nonzero"></path><path stroke="#6aa84f" stroke-width="2.0" stroke-linejoin="round" stroke-linecap="butt" d="m231.2769 548.65356l213.76378 0l0 45.858276l-213.76378 0z" fill-rule="nonzero"></path><path fill="#000000" d="m278.89383 578.5027l0 -13.59375l5.109375 0q1.546875 0 2.484375 0.40625q0.953125 0.40625 1.484375 1.265625q0.53125 0.859375 0.53125 1.796875q0 0.875 -0.46875 1.65625q-0.46875 0.765625 -1.4375 1.234375q1.234375 0.359375 1.890625 1.234375q0.671875 0.875 0.671875 2.0625q0 0.953125 -0.40625 1.78125q-0.390625 0.8125 -0.984375 1.265625q-0.59375 0.4375 -1.5 0.671875q-0.890625 0.21875 -2.1875 0.21875l-5.1875 0zm1.796875 -7.890625l2.9375 0q1.203125 0 1.71875 -0.15625q0.6875 -0.203125 1.03125 -0.671875q0.359375 -0.46875 0.359375 -1.1875q0 -0.671875 -0.328125 -1.1875q-0.328125 -0.515625 -0.9375 -0.703125q-0.59375 -0.203125 -2.0625 -0.203125l-2.71875 0l0 4.109375zm0 6.28125l3.390625 0q0.875 0 1.21875 -0.0625q0.625 -0.109375 1.046875 -0.359375q0.421875 -0.265625 0.6875 -0.765625q0.265625 -0.5 0.265625 -1.140625q0 -0.765625 -0.390625 -1.328125q-0.390625 -0.5625 -1.078125 -0.78125q-0.6875 -0.234375 -1.984375 -0.234375l-3.15625 0l0 4.671875zm10.490448 1.609375l0 -9.859375l1.5 0l0 1.5q0.578125 -1.046875 1.0625 -1.375q0.484375 -0.34375 1.078125 -0.34375q0.84375 0 1.71875 0.546875l-0.578125 1.546875q-0.609375 -0.359375 -1.234375 -0.359375q-0.546875 0 -0.984375 0.328125q-0.421875 0.328125 -0.609375 0.90625q-0.28125 0.890625 -0.28125 1.953125l0 5.15625l-1.671875 0zm5.603302 -4.921875q0 -2.734375 1.53125 -4.0625q1.265625 -1.09375 3.09375 -1.09375q2.03125 0 3.3125 1.34375q1.296875 1.328125 1.296875 3.671875q0 1.90625 -0.578125 3.0q-0.5625 1.078125 -1.65625 1.6875q-1.078125 0.59375 -2.375 0.59375q-2.0625 0 -3.34375 -1.328125q-1.28125 -1.328125 -1.28125 -3.8125zm1.71875 0q0 1.890625 0.828125 2.828125q0.828125 0.9375 2.078125 0.9375q1.25 0 2.0625 -0.9375q0.828125 -0.953125 0.828125 -2.890625q0 -1.828125 -0.828125 -2.765625q-0.828125 -0.9375 -2.0625 -0.9375q-1.25 0 -2.078125 0.9375q-0.828125 0.9375 -0.828125 2.828125zm11.110107 4.921875l-3.015625 -9.859375l1.71875 0l1.5625 5.6875l0.59375 2.125q0.03125 -0.15625 0.5 -2.03125l1.578125 -5.78125l1.71875 0l1.46875 5.71875l0.484375 1.890625l0.578125 -1.90625l1.6875 -5.703125l1.625 0l-3.078125 9.859375l-1.734375 0l-1.578125 -5.90625l-0.375 -1.671875l-2.0 7.578125l-1.734375 0zm10.972931 -2.9375l1.65625 -0.265625q0.140625 1.0 0.765625 1.53125q0.640625 0.515625 1.78125 0.515625q1.15625 0 1.703125 -0.46875q0.5625 -0.46875 0.5625 -1.09375q0 -0.5625 -0.484375 -0.890625q-0.34375 -0.21875 -1.703125 -0.5625q-1.84375 -0.46875 -2.5625 -0.796875q-0.703125 -0.34375 -1.078125 -0.9375q-0.359375 -0.609375 -0.359375 -1.328125q0 -0.65625 0.296875 -1.21875q0.3125 -0.5625 0.828125 -0.9375q0.390625 -0.28125 1.0625 -0.484375q0.671875 -0.203125 1.4375 -0.203125q1.171875 0 2.046875 0.34375q0.875 0.328125 1.28125 0.90625q0.421875 0.5625 0.578125 1.515625l-1.625 0.21875q-0.109375 -0.75 -0.65625 -1.171875q-0.53125 -0.4375 -1.5 -0.4375q-1.15625 0 -1.640625 0.390625q-0.484375 0.375 -0.484375 0.875q0 0.328125 0.203125 0.59375q0.203125 0.265625 0.640625 0.4375q0.25 0.09375 1.46875 0.4375q1.765625 0.46875 2.46875 0.765625q0.703125 0.296875 1.09375 0.875q0.40625 0.578125 0.40625 1.4375q0 0.828125 -0.484375 1.578125q-0.484375 0.734375 -1.40625 1.140625q-0.921875 0.390625 -2.078125 0.390625q-1.921875 0 -2.9375 -0.796875q-1.0 -0.796875 -1.28125 -2.359375zm16.75 -0.234375l1.71875 0.21875q-0.40625 1.5 -1.515625 2.34375q-1.09375 0.828125 -2.8125 0.828125q-2.15625 0 -3.421875 -1.328125q-1.265625 -1.328125 -1.265625 -3.734375q0 -2.484375 1.265625 -3.859375q1.28125 -1.375 3.328125 -1.375q1.984375 0 3.234375 1.34375q1.25 1.34375 1.25 3.796875q0 0.140625 -0.015625 0.4375l-7.34375 0q0.09375 1.625 0.921875 2.484375q0.828125 0.859375 2.0625 0.859375q0.90625 0 1.546875 -0.46875q0.65625 -0.484375 1.046875 -1.546875zm-5.484375 -2.703125l5.5 0q-0.109375 -1.234375 -0.625 -1.859375q-0.796875 -0.96875 -2.078125 -0.96875q-1.140625 0 -1.9375 0.78125q-0.78125 0.765625 -0.859375 2.046875zm9.094482 5.875l0 -9.859375l1.5 0l0 1.5q0.578125 -1.046875 1.0625 -1.375q0.484375 -0.34375 1.078125 -0.34375q0.84375 0 1.71875 0.546875l-0.578125 1.546875q-0.609375 -0.359375 -1.234375 -0.359375q-0.546875 0 -0.984375 0.328125q-0.421875 0.328125 -0.609375 0.90625q-0.28125 0.890625 -0.28125 1.953125l0 5.15625l-1.671875 0zm15.083466 0l0 -12.0l-4.46875 0l0 -1.59375l10.765625 0l0 1.59375l-4.5 0l0 12.0l-1.796875 0zm14.161621 -1.21875q-0.9375 0.796875 -1.796875 1.125q-0.859375 0.3125 -1.84375 0.3125q-1.609375 0 -2.484375 -0.78125q-0.875 -0.796875 -0.875 -2.03125q0 -0.734375 0.328125 -1.328125q0.328125 -0.59375 0.859375 -0.953125q0.53125 -0.359375 1.203125 -0.546875q0.5 -0.140625 1.484375 -0.25q2.03125 -0.25 2.984375 -0.578125q0 -0.34375 0 -0.4375q0 -1.015625 -0.46875 -1.4375q-0.640625 -0.5625 -1.90625 -0.5625q-1.171875 0 -1.734375 0.40625q-0.5625 0.40625 -0.828125 1.46875l-1.640625 -0.234375q0.234375 -1.046875 0.734375 -1.6875q0.515625 -0.640625 1.46875 -0.984375q0.96875 -0.359375 2.25 -0.359375q1.265625 0 2.046875 0.296875q0.78125 0.296875 1.15625 0.75q0.375 0.453125 0.515625 1.140625q0.09375 0.421875 0.09375 1.53125l0 2.234375q0 2.328125 0.09375 2.953125q0.109375 0.609375 0.4375 1.171875l-1.75 0q-0.265625 -0.515625 -0.328125 -1.21875zm-0.140625 -3.71875q-0.90625 0.359375 -2.734375 0.625q-1.03125 0.140625 -1.453125 0.328125q-0.421875 0.1875 -0.65625 0.546875q-0.234375 0.359375 -0.234375 0.796875q0 0.671875 0.5 1.125q0.515625 0.4375 1.484375 0.4375q0.96875 0 1.71875 -0.421875q0.75 -0.4375 1.109375 -1.15625q0.265625 -0.578125 0.265625 -1.671875l0 -0.609375zm5.625702 4.9375l-1.546875 0l0 -13.59375l1.65625 0l0 4.84375q1.0625 -1.328125 2.703125 -1.328125q0.90625 0 1.71875 0.375q0.8125 0.359375 1.328125 1.03125q0.53125 0.65625 0.828125 1.59375q0.296875 0.9375 0.296875 2.0q0 2.53125 -1.25 3.921875q-1.25 1.375 -3.0 1.375q-1.75 0 -2.734375 -1.453125l0 1.234375zm-0.015625 -5.0q0 1.765625 0.46875 2.5625q0.796875 1.28125 2.140625 1.28125q1.09375 0 1.890625 -0.9375q0.796875 -0.953125 0.796875 -2.84375q0 -1.921875 -0.765625 -2.84375q-0.765625 -0.921875 -1.84375 -0.921875q-1.09375 0 -1.890625 0.953125q-0.796875 0.953125 -0.796875 2.75zm19.855896 5.0l-1.671875 0l0 -10.640625q-0.59375 0.578125 -1.578125 1.15625q-0.984375 0.5625 -1.765625 0.859375l0 -1.625q1.40625 -0.65625 2.453125 -1.59375q1.046875 -0.9375 1.484375 -1.8125l1.078125 0l0 13.65625z" fill-rule="nonzero"></path><path fill="#d9ead3" d="m455.83334 548.65356l213.76376 0l0 45.858276l-213.76376 0z" fill-rule="nonzero"></path><path stroke="#6aa84f" stroke-width="2.0" stroke-linejoin="round" stroke-linecap="butt" d="m455.83334 548.65356l213.76376 0l0 45.858276l-213.76376 0z" fill-rule="nonzero"></path><path fill="#000000" d="m503.45026 578.5027l0 -13.59375l5.109375 0q1.546875 0 2.484375 0.40625q0.953125 0.40625 1.484375 1.265625q0.53125 0.859375 0.53125 1.796875q0 0.875 -0.46875 1.65625q-0.46875 0.765625 -1.4375 1.234375q1.234375 0.359375 1.890625 1.234375q0.671875 0.875 0.671875 2.0625q0 0.953125 -0.40625 1.78125q-0.390625 0.8125 -0.984375 1.265625q-0.59375 0.4375 -1.5 0.671875q-0.890625 0.21875 -2.1875 0.21875l-5.1875 0zm1.796875 -7.890625l2.9375 0q1.203125 0 1.71875 -0.15625q0.6875 -0.203125 1.03125 -0.671875q0.359375 -0.46875 0.359375 -1.1875q0 -0.671875 -0.328125 -1.1875q-0.328125 -0.515625 -0.9375 -0.703125q-0.59375 -0.203125 -2.0625 -0.203125l-2.71875 0l0 4.109375zm0 6.28125l3.390625 0q0.875 0 1.21875 -0.0625q0.625 -0.109375 1.046875 -0.359375q0.421875 -0.265625 0.6875 -0.765625q0.265625 -0.5 0.265625 -1.140625q0 -0.765625 -0.390625 -1.328125q-0.390625 -0.5625 -1.078125 -0.78125q-0.6875 -0.234375 -1.984375 -0.234375l-3.15625 0l0 4.671875zm10.4904785 1.609375l0 -9.859375l1.5 0l0 1.5q0.578125 -1.046875 1.0625 -1.375q0.484375 -0.34375 1.078125 -0.34375q0.84375 0 1.71875 0.546875l-0.578125 1.546875q-0.609375 -0.359375 -1.234375 -0.359375q-0.546875 0 -0.984375 0.328125q-0.421875 0.328125 -0.609375 0.90625q-0.28125 0.890625 -0.28125 1.953125l0 5.15625l-1.671875 0zm5.6032715 -4.921875q0 -2.734375 1.53125 -4.0625q1.265625 -1.09375 3.09375 -1.09375q2.03125 0 3.3125 1.34375q1.296875 1.328125 1.296875 3.671875q0 1.90625 -0.578125 3.0q-0.5625 1.078125 -1.65625 1.6875q-1.078125 0.59375 -2.375 0.59375q-2.0625 0 -3.34375 -1.328125q-1.28125 -1.328125 -1.28125 -3.8125zm1.71875 0q0 1.890625 0.828125 2.828125q0.828125 0.9375 2.078125 0.9375q1.25 0 2.0625 -0.9375q0.828125 -0.953125 0.828125 -2.890625q0 -1.828125 -0.828125 -2.765625q-0.828125 -0.9375 -2.0625 -0.9375q-1.25 0 -2.078125 0.9375q-0.828125 0.9375 -0.828125 2.828125zm11.110107 4.921875l-3.015625 -9.859375l1.71875 0l1.5625 5.6875l0.59375 2.125q0.03125 -0.15625 0.5 -2.03125l1.578125 -5.78125l1.71875 0l1.46875 5.71875l0.484375 1.890625l0.578125 -1.90625l1.6875 -5.703125l1.625 0l-3.078125 9.859375l-1.734375 0l-1.578125 -5.90625l-0.375 -1.671875l-2.0 7.578125l-1.734375 0zm10.972961 -2.9375l1.65625 -0.265625q0.140625 1.0 0.765625 1.53125q0.640625 0.515625 1.78125 0.515625q1.15625 0 1.703125 -0.46875q0.5625 -0.46875 0.5625 -1.09375q0 -0.5625 -0.484375 -0.890625q-0.34375 -0.21875 -1.703125 -0.5625q-1.84375 -0.46875 -2.5625 -0.796875q-0.703125 -0.34375 -1.078125 -0.9375q-0.359375 -0.609375 -0.359375 -1.328125q0 -0.65625 0.296875 -1.21875q0.3125 -0.5625 0.828125 -0.9375q0.390625 -0.28125 1.0625 -0.484375q0.671875 -0.203125 1.4375 -0.203125q1.171875 0 2.046875 0.34375q0.875 0.328125 1.28125 0.90625q0.421875 0.5625 0.578125 1.515625l-1.625 0.21875q-0.109375 -0.75 -0.65625 -1.171875q-0.53125 -0.4375 -1.5 -0.4375q-1.15625 0 -1.640625 0.390625q-0.484375 0.375 -0.484375 0.875q0 0.328125 0.203125 0.59375q0.203125 0.265625 0.640625 0.4375q0.25 0.09375 1.46875 0.4375q1.765625 0.46875 2.46875 0.765625q0.703125 0.296875 1.09375 0.875q0.40625 0.578125 0.40625 1.4375q0 0.828125 -0.484375 1.578125q-0.484375 0.734375 -1.40625 1.140625q-0.921875 0.390625 -2.078125 0.390625q-1.921875 0 -2.9375 -0.796875q-1.0 -0.796875 -1.28125 -2.359375zm16.75 -0.234375l1.71875 0.21875q-0.40625 1.5 -1.515625 2.34375q-1.09375 0.828125 -2.8125 0.828125q-2.15625 0 -3.421875 -1.328125q-1.265625 -1.328125 -1.265625 -3.734375q0 -2.484375 1.265625 -3.859375q1.28125 -1.375 3.328125 -1.375q1.984375 0 3.234375 1.34375q1.25 1.34375 1.25 3.796875q0 0.140625 -0.015625 0.4375l-7.34375 0q0.09375 1.625 0.921875 2.484375q0.828125 0.859375 2.0625 0.859375q0.90625 0 1.546875 -0.46875q0.65625 -0.484375 1.046875 -1.546875zm-5.484375 -2.703125l5.5 0q-0.109375 -1.234375 -0.625 -1.859375q-0.796875 -0.96875 -2.078125 -0.96875q-1.140625 0 -1.9375 0.78125q-0.78125 0.765625 -0.859375 2.046875zm9.094421 5.875l0 -9.859375l1.5 0l0 1.5q0.578125 -1.046875 1.0625 -1.375q0.484375 -0.34375 1.078125 -0.34375q0.84375 0 1.71875 0.546875l-0.578125 1.546875q-0.609375 -0.359375 -1.234375 -0.359375q-0.546875 0 -0.984375 0.328125q-0.421875 0.328125 -0.609375 0.90625q-0.28125 0.890625 -0.28125 1.953125l0 5.15625l-1.671875 0zm15.083496 0l0 -12.0l-4.46875 0l0 -1.59375l10.765625 0l0 1.59375l-4.5 0l0 12.0l-1.796875 0zm14.161621 -1.21875q-0.9375 0.796875 -1.796875 1.125q-0.859375 0.3125 -1.84375 0.3125q-1.609375 0 -2.484375 -0.78125q-0.875 -0.796875 -0.875 -2.03125q0 -0.734375 0.328125 -1.328125q0.328125 -0.59375 0.859375 -0.953125q0.53125 -0.359375 1.203125 -0.546875q0.5 -0.140625 1.484375 -0.25q2.03125 -0.25 2.984375 -0.578125q0 -0.34375 0 -0.4375q0 -1.015625 -0.46875 -1.4375q-0.640625 -0.5625 -1.90625 -0.5625q-1.171875 0 -1.734375 0.40625q-0.5625 0.40625 -0.828125 1.46875l-1.640625 -0.234375q0.234375 -1.046875 0.734375 -1.6875q0.515625 -0.640625 1.46875 -0.984375q0.96875 -0.359375 2.25 -0.359375q1.265625 0 2.046875 0.296875q0.78125 0.296875 1.15625 0.75q0.375 0.453125 0.515625 1.140625q0.09375 0.421875 0.09375 1.53125l0 2.234375q0 2.328125 0.09375 2.953125q0.109375 0.609375 0.4375 1.171875l-1.75 0q-0.265625 -0.515625 -0.328125 -1.21875zm-0.140625 -3.71875q-0.90625 0.359375 -2.734375 0.625q-1.03125 0.140625 -1.453125 0.328125q-0.421875 0.1875 -0.65625 0.546875q-0.234375 0.359375 -0.234375 0.796875q0 0.671875 0.5 1.125q0.515625 0.4375 1.484375 0.4375q0.96875 0 1.71875 -0.421875q0.75 -0.4375 1.109375 -1.15625q0.265625 -0.578125 0.265625 -1.671875l0 -0.609375zm5.6257324 4.9375l-1.546875 0l0 -13.59375l1.65625 0l0 4.84375q1.0625 -1.328125 2.703125 -1.328125q0.90625 0 1.71875 0.375q0.8125 0.359375 1.328125 1.03125q0.53125 0.65625 0.828125 1.59375q0.296875 0.9375 0.296875 2.0q0 2.53125 -1.25 3.921875q-1.25 1.375 -3.0 1.375q-1.75 0 -2.734375 -1.453125l0 1.234375zm-0.015625 -5.0q0 1.765625 0.46875 2.5625q0.796875 1.28125 2.140625 1.28125q1.09375 0 1.890625 -0.9375q0.796875 -0.953125 0.796875 -2.84375q0 -1.921875 -0.765625 -2.84375q-0.765625 -0.921875 -1.84375 -0.921875q-1.09375 0 -1.890625 0.953125q-0.796875 0.953125 -0.796875 2.75zm22.340271 3.390625l0 1.609375l-8.984375 0q-0.015625 -0.609375 0.1875 -1.15625q0.34375 -0.921875 1.09375 -1.8125q0.765625 -0.890625 2.1875 -2.0625q2.21875 -1.8125 3.0 -2.875q0.78125 -1.0625 0.78125 -2.015625q0 -0.984375 -0.71875 -1.671875q-0.703125 -0.6875 -1.84375 -0.6875q-1.203125 0 -1.9375 0.734375q-0.71875 0.71875 -0.71875 2.0l-1.71875 -0.171875q0.171875 -1.921875 1.328125 -2.921875q1.15625 -1.015625 3.09375 -1.015625q1.953125 0 3.09375 1.09375q1.140625 1.078125 1.140625 2.6875q0 0.8125 -0.34375 1.609375q-0.328125 0.78125 -1.109375 1.65625q-0.765625 0.859375 -2.5625 2.390625q-1.5 1.265625 -1.9375 1.71875q-0.421875 0.4375 -0.703125 0.890625l6.671875 0z" fill-rule="nonzero"></path><path fill="#f4cccc" d="m231.2769 645.11285l213.76378 0l0 45.858276l-213.76378 0z" fill-rule="nonzero"></path><path stroke="#cc0000" stroke-width="2.0" stroke-linejoin="round" stroke-linecap="butt" d="m231.2769 645.11285l213.76378 0l0 45.858276l-213.76378 0z" fill-rule="nonzero"></path><path fill="#000000" d="m290.17407 674.962l-3.609375 -13.59375l1.84375 0l2.0625 8.90625q0.34375 1.40625 0.578125 2.78125q0.515625 -2.171875 0.609375 -2.515625l2.59375 -9.171875l2.171875 0l1.953125 6.875q0.734375 2.5625 1.046875 4.8125q0.265625 -1.28125 0.6875 -2.953125l2.125 -8.734375l1.8125 0l-3.734375 13.59375l-1.734375 0l-2.859375 -10.359375q-0.359375 -1.296875 -0.421875 -1.59375q-0.21875 0.9375 -0.40625 1.59375l-2.890625 10.359375l-1.828125 0zm21.764893 -3.171875l1.71875 0.21875q-0.40625 1.5 -1.515625 2.34375q-1.09375 0.828125 -2.8125 0.828125q-2.15625 0 -3.421875 -1.328125q-1.265625 -1.328125 -1.265625 -3.734375q0 -2.484375 1.265625 -3.859375q1.28125 -1.375 3.328125 -1.375q1.984375 0 3.234375 1.34375q1.25 1.34375 1.25 3.796875q0 0.140625 -0.015625 0.4375l-7.34375 0q0.09375 1.625 0.921875 2.484375q0.828125 0.859375 2.0625 0.859375q0.90625 0 1.546875 -0.46875q0.65625 -0.484375 1.046875 -1.546875zm-5.484375 -2.703125l5.5 0q-0.109375 -1.234375 -0.625 -1.859375q-0.796875 -0.96875 -2.078125 -0.96875q-1.140625 0 -1.9375 0.78125q-0.78125 0.765625 -0.859375 2.046875zm10.656982 5.875l-1.546875 0l0 -13.59375l1.65625 0l0 4.84375q1.0625 -1.328125 2.703125 -1.328125q0.90625 0 1.71875 0.375q0.8125 0.359375 1.328125 1.03125q0.53125 0.65625 0.828125 1.59375q0.296875 0.9375 0.296875 2.0q0 2.53125 -1.25 3.921875q-1.25 1.375 -3.0 1.375q-1.75 0 -2.734375 -1.453125l0 1.234375zm-0.015625 -5.0q0 1.765625 0.46875 2.5625q0.796875 1.28125 2.140625 1.28125q1.09375 0 1.890625 -0.9375q0.796875 -0.953125 0.796875 -2.84375q0 -1.921875 -0.765625 -2.84375q-0.765625 -0.921875 -1.84375 -0.921875q-1.09375 0 -1.890625 0.953125q-0.796875 0.953125 -0.796875 2.75zm16.621521 5.0l-3.609375 -13.59375l1.84375 0l2.0625 8.90625q0.34375 1.40625 0.578125 2.78125q0.515625 -2.171875 0.609375 -2.515625l2.59375 -9.171875l2.171875 0l1.953125 6.875q0.734375 2.5625 1.046875 4.8125q0.265625 -1.28125 0.6875 -2.953125l2.125 -8.734375l1.8125 0l-3.734375 13.59375l-1.734375 0l-2.859375 -10.359375q-0.359375 -1.296875 -0.421875 -1.59375q-0.21875 0.9375 -0.40625 1.59375l-2.890625 10.359375l-1.828125 0zm14.389893 -4.921875q0 -2.734375 1.53125 -4.0625q1.265625 -1.09375 3.09375 -1.09375q2.03125 0 3.3125 1.34375q1.296875 1.328125 1.296875 3.671875q0 1.90625 -0.578125 3.0q-0.5625 1.078125 -1.65625 1.6875q-1.078125 0.59375 -2.375 0.59375q-2.0625 0 -3.34375 -1.328125q-1.28125 -1.328125 -1.28125 -3.8125zm1.71875 0q0 1.890625 0.828125 2.828125q0.828125 0.9375 2.078125 0.9375q1.25 0 2.0625 -0.9375q0.828125 -0.953125 0.828125 -2.890625q0 -1.828125 -0.828125 -2.765625q-0.828125 -0.9375 -2.0625 -0.9375q-1.25 0 -2.078125 0.9375q-0.828125 0.9375 -0.828125 2.828125zm9.266357 4.921875l0 -9.859375l1.5 0l0 1.5q0.578125 -1.046875 1.0625 -1.375q0.484375 -0.34375 1.078125 -0.34375q0.84375 0 1.71875 0.546875l-0.578125 1.546875q-0.609375 -0.359375 -1.234375 -0.359375q-0.546875 0 -0.984375 0.328125q-0.421875 0.328125 -0.609375 0.90625q-0.28125 0.890625 -0.28125 1.953125l0 5.15625l-1.671875 0zm6.243927 0l0 -13.59375l1.671875 0l0 7.75l3.953125 -4.015625l2.15625 0l-3.765625 3.65625l4.140625 6.203125l-2.0625 0l-3.25 -5.03125l-1.171875 1.125l0 3.90625l-1.671875 0zm16.0625 -3.171875l1.71875 0.21875q-0.40625 1.5 -1.515625 2.34375q-1.09375 0.828125 -2.8125 0.828125q-2.15625 0 -3.421875 -1.328125q-1.265625 -1.328125 -1.265625 -3.734375q0 -2.484375 1.265625 -3.859375q1.28125 -1.375 3.328125 -1.375q1.984375 0 3.234375 1.34375q1.25 1.34375 1.25 3.796875q0 0.140625 -0.015625 0.4375l-7.34375 0q0.09375 1.625 0.921875 2.484375q0.828125 0.859375 2.0625 0.859375q0.90625 0 1.546875 -0.46875q0.65625 -0.484375 1.046875 -1.546875zm-5.484375 -2.703125l5.5 0q-0.109375 -1.234375 -0.625 -1.859375q-0.796875 -0.96875 -2.078125 -0.96875q-1.140625 0 -1.9375 0.78125q-0.78125 0.765625 -0.859375 2.046875zm9.094452 5.875l0 -9.859375l1.5 0l0 1.5q0.578125 -1.046875 1.0625 -1.375q0.484375 -0.34375 1.078125 -0.34375q0.84375 0 1.71875 0.546875l-0.578125 1.546875q-0.609375 -0.359375 -1.234375 -0.359375q-0.546875 0 -0.984375 0.328125q-0.421875 0.328125 -0.609375 0.90625q-0.28125 0.890625 -0.28125 1.953125l0 5.15625l-1.671875 0z" fill-rule="nonzero"></path><path fill="#cfe2f3" d="m353.9567 643.3753l-10.503632 -9.732239l4.86615 0l0 0c-2.769226 -17.187927 -12.443207 -29.1969 -23.519989 -29.1969l9.732269 0l0 0c11.076813 0 20.750793 12.008972 23.519989 29.1969l4.86615 0z" fill-rule="nonzero"></path><path fill="#a5b4c2" d="m329.66534 605.2353c-11.306091 3.704773 -19.425201 19.646057 -19.425201 38.140015l-9.732269 0l0 0c0 -11.692139 3.2792053 -22.765137 8.931274 -30.158447c5.6520386 -7.3932495 13.078308 -10.3237915 20.226196 -7.9815674z" fill-rule="nonzero"></path><path fill="#000000" fill-opacity="0.0" d="m329.66534 605.2353c-11.306091 3.704773 -19.425201 19.646057 -19.425201 38.140015l-9.732269 0l0 0c0 -21.499939 10.87561 -38.92914 24.291351 -38.92914l9.732269 0l0 0c11.076813 0 20.750793 12.008972 23.519989 29.1969l4.86615 0l-8.9609375 9.732239l-10.503632 -9.732239l4.86615 0l0 0c-2.769226 -17.187927 -12.443207 -29.1969 -23.519989 -29.1969" fill-rule="nonzero"></path><path stroke="#000000" stroke-width="2.0" stroke-linejoin="round" stroke-linecap="butt" d="m329.66534 605.2353c-11.306091 3.704773 -19.425201 19.646057 -19.425201 38.140015l-9.732269 0l0 0c0 -21.499939 10.87561 -38.92914 24.291351 -38.92914l9.732269 0l0 0c11.076813 0 20.750793 12.008972 23.519989 29.1969l4.86615 0l-8.9609375 9.732239l-10.503632 -9.732239l4.86615 0l0 0c-2.769226 -17.187927 -12.443207 -29.1969 -23.519989 -29.1969" fill-rule="nonzero"></path><path fill="#fff2cc" d="m318.69553 307.63254l19.46457 -19.46457l19.46457 19.46457l-9.732269 0l0 211.62204l9.732269 0l-19.46457 19.4646l-19.46457 -19.4646l9.7323 0l0 -211.62204z" fill-rule="nonzero"></path><path stroke="#000000" stroke-width="2.0" stroke-linejoin="round" stroke-linecap="butt" d="m318.69553 307.63254l19.46457 -19.46457l19.46457 19.46457l-9.732269 0l0 211.62204l9.732269 0l-19.46457 19.4646l-19.46457 -19.4646l9.7323 0l0 -211.62204z" fill-rule="nonzero"></path><path fill="#fff2cc" d="m543.25195 307.63516l19.4646 -19.46457l19.464539 19.46457l-9.7323 0l0 211.62204l9.7323 0l-19.464539 19.4646l-19.4646 -19.4646l9.7323 0l0 -211.62204z" fill-rule="nonzero"></path><path stroke="#000000" stroke-width="2.0" stroke-linejoin="round" stroke-linecap="butt" d="m543.25195 307.63516l19.4646 -19.46457l19.464539 19.46457l-9.7323 0l0 211.62204l9.7323 0l-19.464539 19.4646l-19.4646 -19.4646l9.7323 0l0 -211.62204z" fill-rule="nonzero"></path><path fill="#f3f3f3" d="m282.23358 152.15663l0 0c-3.4885254 -18.427902 7.964966 -36.670418 29.500336 -46.986557c21.53534 -10.316147 49.375732 -10.89669 71.70746 -1.4953003l0 0c7.910553 -10.714752 22.389221 -18.112541 39.056458 -19.955696c16.667236 -1.8431549 33.56543 2.0848236 45.58316 10.595795l0 0c6.7388 -9.714684 19.97052 -16.241707 34.99991 -17.264946c15.029388 -1.0232391 29.72934 3.6021194 38.883636 12.234756l0 0c12.174622 -10.297539 31.544739 -14.6332245 49.72882 -11.130997c18.184021 3.5022354 31.916016 14.213356 35.25403 27.498604l0 0c14.915955 2.9245453 27.340637 10.359123 34.063904 20.382881c6.7232666 10.023758 7.0855713 21.653381 0.99334717 31.884155l0 0c14.687866 13.741043 18.123718 32.05081 9.025391 48.096436c-9.098389 16.045624 -29.364014 27.416428 -53.23419 29.869019c-0.16821289 15.059387 -11.658081 28.8777 -30.040833 36.12877c-18.382751 7.251068 -40.787903 6.802582 -58.57953 -1.1725769c-7.578247 18.036224 -28.9086 31.307098 -54.775482 34.079132c-25.866882 2.7720337 -51.63318 -5.451721 -66.1669 -21.118317c-17.815277 7.722107 -39.19214 9.946594 -59.30841 6.171692c-20.116241 -3.7749329 -37.277374 -13.231293 -47.612213 -26.235931l0 0c-18.204987 1.5313416 -35.8067 -5.248535 -44.069458 -16.974777c-8.262772 -11.726242 -5.427643 -25.902618 7.0983276 -35.493454l0 0c-16.239334 -6.870407 -24.52562 -20.503586 -20.537888 -33.790375c3.987732 -13.286774 19.34584 -23.216324 38.06566 -24.610764z" fill-rule="nonzero"></path><path fill="#000000" fill-opacity="0.0" d="m264.34592 211.268l0 0c7.663391 3.2421722 16.516388 4.7128906 25.370361 4.2147064m11.596802 48.254715c3.8075256 -0.32028198 7.5396423 -0.99850464 11.100067 -2.0171814m95.81525 22.080566c-2.6779785 -2.8867188 -4.920105 -5.9714355 -6.688202 -9.201569m127.63522 -3.7597961l0 0c1.3815918 -3.288269 2.2767944 -6.6726074 2.6705933 -10.096558m85.94641 -24.858368c0.17913818 -16.033035 -12.489563 -30.713058 -32.564514 -37.73456m76.77283 -40.229202c-3.2510376 5.459549 -8.214172 10.302643 -14.500183 14.149551m-20.554016 -66.418015l0 0c0.5539551 2.204689 0.81036377 4.44252 0.76556396 6.6824646m-85.74695 -23.049408l0 0c-3.0369263 2.568718 -5.5390015 5.439232 -7.4282227 8.522163m-66.45599 -3.4930954l0 0c-1.6184387 2.3331451 -2.8269958 4.802025 -3.5978088 7.3497467m-81.04306 2.0103455l0 0c4.7253723 1.9893265 9.096985 4.3836975 13.018799 7.1305084m-114.22528 41.35161l0 0c0.48080444 2.5398407 1.240509 5.0483704 2.2720032 7.5021057" fill-rule="nonzero"></path><path stroke="#000000" stroke-width="2.0" stroke-linejoin="round" stroke-linecap="butt" d="m282.23358 152.15663l0 0c-3.4885254 -18.427902 7.964966 -36.670418 29.500336 -46.986557c21.53534 -10.316147 49.375732 -10.89669 71.70746 -1.4953003l0 0c7.910553 -10.714752 22.389221 -18.112541 39.056458 -19.955696c16.667236 -1.8431549 33.56543 2.0848236 45.58316 10.595795l0 0c6.7388 -9.714684 19.97052 -16.241707 34.99991 -17.264946c15.029388 -1.0232391 29.72934 3.6021194 38.883636 12.234756l0 0c12.174622 -10.297539 31.544739 -14.6332245 49.72882 -11.130997c18.184021 3.5022354 31.916016 14.213356 35.25403 27.498604l0 0c14.915955 2.9245453 27.340637 10.359123 34.063904 20.382881c6.7232666 10.023758 7.0855713 21.653381 0.99334717 31.884155l0 0c14.687866 13.741043 18.123718 32.05081 9.025391 48.096436c-9.098389 16.045624 -29.364014 27.416428 -53.23419 29.869019c-0.16821289 15.059387 -11.658081 28.8777 -30.040833 36.12877c-18.382751 7.251068 -40.787903 6.802582 -58.57953 -1.1725769c-7.578247 18.036224 -28.9086 31.307098 -54.775482 34.079132c-25.866882 2.7720337 -51.63318 -5.451721 -66.1669 -21.118317c-17.815277 7.722107 -39.19214 9.946594 -59.30841 6.171692c-20.116241 -3.7749329 -37.277374 -13.231293 -47.612213 -26.235931l0 0c-18.204987 1.5313416 -35.8067 -5.248535 -44.069458 -16.974777c-8.262772 -11.726242 -5.427643 -25.902618 7.0983276 -35.493454l0 0c-16.239334 -6.870407 -24.52562 -20.503586 -20.537888 -33.790375c3.987732 -13.286774 19.34584 -23.216324 38.06566 -24.610764z" fill-rule="nonzero"></path><path stroke="#000000" stroke-width="2.0" stroke-linejoin="round" stroke-linecap="butt" d="m264.34592 211.268l0 0c7.663391 3.2421722 16.516388 4.7128906 25.370361 4.2147064m11.596802 48.254715c3.8075256 -0.32028198 7.5396423 -0.99850464 11.100067 -2.0171814m95.81525 22.080566c-2.6779785 -2.8867188 -4.920105 -5.9714355 -6.688202 -9.201569m127.63522 -3.7597961l0 0c1.3815918 -3.288269 2.2767944 -6.6726074 2.6705933 -10.096558m85.94641 -24.858368c0.17913818 -16.033035 -12.489563 -30.713058 -32.564514 -37.73456m76.77283 -40.229202c-3.2510376 5.459549 -8.214172 10.302643 -14.500183 14.149551m-20.554016 -66.418015l0 0c0.5539551 2.204689 0.81036377 4.44252 0.76556396 6.6824646m-85.74695 -23.049408l0 0c-3.0369263 2.568718 -5.5390015 5.439232 -7.4282227 8.522163m-66.45599 -3.4930954l0 0c-1.6184387 2.3331451 -2.8269958 4.802025 -3.5978088 7.3497467m-81.04306 2.0103455l0 0c4.7253723 1.9893265 9.096985 4.3836975 13.018799 7.1305084m-114.22528 41.35161l0 0c0.48080444 2.5398407 1.240509 5.0483704 2.2720032 7.5021057" fill-rule="nonzero"></path><path fill="#000000" fill-opacity="0.0" d="m319.7546 148.84514l263.93698 0l0 66.645676l-263.93698 0z" fill-rule="nonzero"></path><path fill="#000000" d="m381.42038 196.56798l0 -28.640625l3.890625 0l15.03125 22.484375l0 -22.484375l3.640625 0l0 28.640625l-3.890625 0l-15.03125 -22.5l0 22.5l-3.640625 0zm42.683594 -6.6875l3.625 0.453125q-0.859375 3.1875 -3.1875 4.953125q-2.3125 1.75 -5.9375 1.75q-4.546875 0 -7.21875 -2.796875q-2.65625 -2.8125 -2.65625 -7.875q0 -5.234375 2.6875 -8.125q2.703125 -2.890625 7.0 -2.890625q4.15625 0 6.796875 2.84375q2.640625 2.828125 2.640625 7.96875q0 0.3125 -0.03125 0.9375l-15.46875 0q0.203125 3.40625 1.9375 5.234375q1.734375 1.8125 4.34375 1.8125q1.921875 0 3.28125 -1.015625q1.375 -1.015625 2.1875 -3.25zm-11.546875 -5.671875l11.578125 0q-0.234375 -2.625 -1.328125 -3.9375q-1.671875 -2.03125 -4.359375 -2.03125q-2.421875 0 -4.078125 1.625q-1.640625 1.625 -1.8125 4.34375zm27.261719 9.21875l0.515625 3.09375q-1.484375 0.328125 -2.65625 0.328125q-1.921875 0 -2.984375 -0.609375q-1.046875 -0.609375 -1.484375 -1.59375q-0.421875 -0.984375 -0.421875 -4.15625l0 -11.9375l-2.578125 0l0 -2.734375l2.578125 0l0 -5.125l3.5 -2.109375l0 7.234375l3.53125 0l0 2.734375l-3.53125 0l0 12.140625q0 1.5 0.1875 1.9375q0.1875 0.421875 0.59375 0.671875q0.421875 0.25 1.203125 0.25q0.59375 0 1.546875 -0.125zm7.2695312 3.140625l-6.34375 -20.75l3.625 0l3.296875 11.984375l1.234375 4.453125q0.078125 -0.34375 1.078125 -4.28125l3.296875 -12.15625l3.609375 0l3.109375 12.03125l1.03125 3.96875l1.203125 -4.0l3.546875 -12.0l3.421875 0l-6.484375 20.75l-3.65625 0l-3.296875 -12.421875l-0.796875 -3.53125l-4.203125 15.953125l-3.671875 0zm23.746094 -10.375q0 -5.765625 3.203125 -8.53125q2.671875 -2.3125 6.53125 -2.3125q4.265625 0 6.984375 2.8125q2.71875 2.796875 2.71875 7.734375q0 4.015625 -1.203125 6.3125q-1.203125 2.28125 -3.5 3.5625q-2.296875 1.265625 -5.0 1.265625q-4.359375 0 -7.046875 -2.796875q-2.6875 -2.796875 -2.6875 -8.046875zm3.609375 0q0 3.984375 1.734375 5.96875q1.75 1.984375 4.390625 1.984375q2.609375 0 4.34375 -1.984375q1.75 -2.0 1.75 -6.078125q0 -3.859375 -1.75 -5.828125q-1.75 -1.984375 -4.34375 -1.984375q-2.640625 0 -4.390625 1.96875q-1.734375 1.96875 -1.734375 5.953125zm19.902344 10.375l0 -20.75l3.171875 0l0 3.15625q1.203125 -2.21875 2.234375 -2.921875q1.03125 -0.703125 2.25 -0.703125q1.78125 0 3.625 1.140625l-1.21875 3.265625q-1.28125 -0.765625 -2.578125 -0.765625q-1.15625 0 -2.078125 0.703125q-0.90625 0.6875 -1.296875 1.90625q-0.59375 1.875 -0.59375 4.109375l0 10.859375l-3.515625 0zm13.3828125 0l0 -28.640625l3.515625 0l0 16.328125l8.3280945 -8.4375l4.546875 0l-7.9375 7.703125l8.734375 13.046875l-4.328125 0l-6.859375 -10.609375l-2.4843445 2.390625l0 8.21875l-3.515625 0z" fill-rule="nonzero"></path><path fill="#fff2cc" d="m859.5171 503.6509l0 -297.7605l0 0c0 -26.706696 -21.650085 -48.356766 -48.35681 -48.356766l-106.61658 0l0 -12.150452l-25.247131 22.174316l25.247131 22.174332l0 -12.150467l106.61658 0l0 0c15.634644 0 28.309082 12.674393 28.309082 28.309036l0 297.7605z" fill-rule="nonzero"></path><path stroke="#000000" stroke-width="2.0" stroke-linejoin="round" stroke-linecap="butt" d="m859.5171 503.6509l0 -297.7605l0 0c0 -26.706696 -21.650085 -48.356766 -48.35681 -48.356766l-106.61658 0l0 -12.150452l-25.247131 22.174316l25.247131 22.174332l0 -12.150467l106.61658 0l0 0c15.634644 0 28.309082 12.674393 28.309082 28.309036l0 297.7605z" fill-rule="nonzero"></path><path fill="#d9ead3" d="m718.04724 503.65878l213.7638 0l0 100.787384l-213.7638 0z" fill-rule="nonzero"></path><path stroke="#6aa84f" stroke-width="2.0" stroke-linejoin="round" stroke-linecap="butt" d="m718.04724 503.65878l213.7638 0l0 100.787384l-213.7638 0z" fill-rule="nonzero"></path><path fill="#000000" d="m735.4233 548.09247l0 -17.1875l6.46875 0q1.71875 0 2.625 0.171875q1.265625 0.203125 2.109375 0.796875q0.859375 0.59375 1.375 1.671875q0.53125 1.0625 0.53125 2.328125q0 2.203125 -1.40625 3.71875q-1.390625 1.515625 -5.03125 1.515625l-4.40625 0l0 6.984375l-2.265625 0zm2.265625 -9.015625l4.4375 0q2.203125 0 3.125 -0.8125q0.9375 -0.828125 0.9375 -2.3125q0 -1.078125 -0.546875 -1.84375q-0.546875 -0.765625 -1.4375 -1.015625q-0.578125 -0.15625 -2.125 -0.15625l-4.390625 0l0 6.140625zm13.4453125 9.015625l0 -12.453125l1.890625 0l0 1.890625q0.734375 -1.328125 1.34375 -1.75q0.625 -0.421875 1.359375 -0.421875q1.0625 0 2.171875 0.6875l-0.734375 1.953125q-0.765625 -0.453125 -1.546875 -0.453125q-0.6875 0 -1.25 0.421875q-0.546875 0.40625 -0.78125 1.140625q-0.34375 1.125 -0.34375 2.46875l0 6.515625l-2.109375 0zm7.2265625 -6.21875q0 -3.46875 1.921875 -5.125q1.609375 -1.390625 3.921875 -1.390625q2.5625 0 4.1875 1.6875q1.625 1.6875 1.625 4.640625q0 2.40625 -0.71875 3.78125q-0.71875 1.375 -2.09375 2.140625q-1.375 0.765625 -3.0 0.765625q-2.625 0 -4.234375 -1.671875q-1.609375 -1.6875 -1.609375 -4.828125zm2.171875 0q0 2.390625 1.03125 3.578125q1.046875 1.1875 2.640625 1.1875q1.5625 0 2.609375 -1.1875q1.046875 -1.203125 1.046875 -3.65625q0 -2.3125 -1.0625 -3.5q-1.046875 -1.1875 -2.59375 -1.1875q-1.59375 0 -2.640625 1.1875q-1.03125 1.1875 -1.03125 3.578125zm11.582031 7.25l2.046875 0.3125q0.125 0.9375 0.71875 1.375q0.78125 0.59375 2.140625 0.59375q1.46875 0 2.265625 -0.59375q0.796875 -0.578125 1.078125 -1.640625q0.15625 -0.640625 0.140625 -2.703125q-1.375 1.625 -3.4375 1.625q-2.5625 0 -3.96875 -1.84375q-1.40625 -1.859375 -1.40625 -4.453125q0 -1.78125 0.640625 -3.28125q0.640625 -1.515625 1.859375 -2.328125q1.234375 -0.828125 2.890625 -0.828125q2.203125 0 3.625 1.78125l0 -1.5l1.953125 0l0 10.765625q0 2.90625 -0.59375 4.109375q-0.59375 1.21875 -1.875 1.921875q-1.28125 0.703125 -3.15625 0.703125q-2.234375 0 -3.609375 -1.0q-1.359375 -1.0 -1.3125 -3.015625zm1.734375 -7.484375q0 2.453125 0.96875 3.578125q0.984375 1.125 2.453125 1.125q1.453125 0 2.4375 -1.109375q0.984375 -1.125 0.984375 -3.515625q0 -2.28125 -1.015625 -3.4375q-1.015625 -1.171875 -2.453125 -1.171875q-1.40625 0 -2.390625 1.140625q-0.984375 1.140625 -0.984375 3.390625zm11.972656 6.453125l0 -12.453125l1.890625 0l0 1.890625q0.734375 -1.328125 1.34375 -1.75q0.625 -0.421875 1.359375 -0.421875q1.0625 0 2.171875 0.6875l-0.734375 1.953125q-0.765625 -0.453125 -1.546875 -0.453125q-0.6875 0 -1.25 0.421875q-0.546875 0.40625 -0.78125 1.140625q-0.34375 1.125 -0.34375 2.46875l0 6.515625l-2.109375 0zm16.539062 -4.015625l2.171875 0.28125q-0.515625 1.90625 -1.90625 2.96875q-1.390625 1.046875 -3.5625 1.046875q-2.734375 0 -4.34375 -1.671875q-1.59375 -1.6875 -1.59375 -4.734375q0 -3.140625 1.609375 -4.875q1.625 -1.734375 4.203125 -1.734375q2.5 0 4.078125 1.703125q1.59375 1.703125 1.59375 4.78125q0 0.1875 -0.015625 0.5625l-9.28125 0q0.109375 2.046875 1.15625 3.140625q1.046875 1.09375 2.609375 1.09375q1.15625 0 1.96875 -0.609375q0.828125 -0.609375 1.3125 -1.953125zm-6.9375 -3.40625l6.953125 0q-0.140625 -1.5625 -0.796875 -2.359375q-1.0 -1.21875 -2.609375 -1.21875q-1.453125 0 -2.453125 0.984375q-0.984375 0.96875 -1.09375 2.59375zm10.910156 3.703125l2.09375 -0.328125q0.171875 1.25 0.96875 1.921875q0.8125 0.671875 2.25 0.671875q1.453125 0 2.15625 -0.59375q0.703125 -0.59375 0.703125 -1.390625q0 -0.71875 -0.625 -1.125q-0.421875 -0.28125 -2.15625 -0.71875q-2.3125 -0.578125 -3.21875 -1.0q-0.890625 -0.4375 -1.359375 -1.1875q-0.453125 -0.765625 -0.453125 -1.671875q0 -0.828125 0.375 -1.53125q0.390625 -0.71875 1.046875 -1.1875q0.484375 -0.359375 1.328125 -0.609375q0.859375 -0.265625 1.828125 -0.265625q1.46875 0 2.578125 0.421875q1.109375 0.421875 1.625 1.15625q0.53125 0.71875 0.734375 1.921875l-2.0625 0.28125q-0.140625 -0.96875 -0.8125 -1.5q-0.671875 -0.546875 -1.90625 -0.546875q-1.453125 0 -2.078125 0.484375q-0.625 0.484375 -0.625 1.125q0 0.40625 0.265625 0.734375q0.25 0.34375 0.8125 0.5625q0.3125 0.125 1.859375 0.546875q2.234375 0.59375 3.109375 0.984375q0.890625 0.375 1.390625 1.109375q0.515625 0.71875 0.515625 1.796875q0 1.046875 -0.625 1.984375q-0.609375 0.9375 -1.765625 1.453125q-1.15625 0.5 -2.625 0.5q-2.421875 0 -3.703125 -1.0q-1.265625 -1.015625 -1.625 -3.0zm12.0 0l2.09375 -0.328125q0.171875 1.25 0.96875 1.921875q0.8125 0.671875 2.25 0.671875q1.453125 0 2.15625 -0.59375q0.703125 -0.59375 0.703125 -1.390625q0 -0.71875 -0.625 -1.125q-0.421875 -0.28125 -2.15625 -0.71875q-2.3125 -0.578125 -3.21875 -1.0q-0.890625 -0.4375 -1.359375 -1.1875q-0.453125 -0.765625 -0.453125 -1.671875q0 -0.828125 0.375 -1.53125q0.390625 -0.71875 1.046875 -1.1875q0.484375 -0.359375 1.328125 -0.609375q0.859375 -0.265625 1.828125 -0.265625q1.46875 0 2.578125 0.421875q1.109375 0.421875 1.625 1.15625q0.53125 0.71875 0.734375 1.921875l-2.0625 0.28125q-0.140625 -0.96875 -0.8125 -1.5q-0.671875 -0.546875 -1.90625 -0.546875q-1.453125 0 -2.078125 0.484375q-0.625 0.484375 -0.625 1.125q0 0.40625 0.265625 0.734375q0.25 0.34375 0.8125 0.5625q0.3125 0.125 1.859375 0.546875q2.234375 0.59375 3.109375 0.984375q0.890625 0.375 1.390625 1.109375q0.515625 0.71875 0.515625 1.796875q0 1.046875 -0.625 1.984375q-0.609375 0.9375 -1.765625 1.453125q-1.15625 0.5 -2.625 0.5q-2.421875 0 -3.703125 -1.0q-1.265625 -1.015625 -1.625 -3.0zm12.859375 -11.03125l0 -2.4375l2.109375 0l0 2.4375l-2.109375 0zm0 14.75l0 -12.453125l2.109375 0l0 12.453125l-2.109375 0zm8.785156 0l-4.734375 -12.453125l2.21875 0l2.671875 7.453125q0.4375 1.21875 0.796875 2.515625q0.28125 -0.984375 0.78125 -2.375l2.765625 -7.59375l2.171875 0l-4.703125 12.453125l-1.96875 0zm17.0625 -4.015625l2.171875 0.28125q-0.515625 1.90625 -1.90625 2.96875q-1.390625 1.046875 -3.5625 1.046875q-2.734375 0 -4.34375 -1.671875q-1.59375 -1.6875 -1.59375 -4.734375q0 -3.140625 1.609375 -4.875q1.625 -1.734375 4.203125 -1.734375q2.5 0 4.078125 1.703125q1.59375 1.703125 1.59375 4.78125q0 0.1875 -0.015625 0.5625l-9.28125 0q0.109375 2.046875 1.15625 3.140625q1.046875 1.09375 2.609375 1.09375q1.15625 0 1.96875 -0.609375q0.828125 -0.609375 1.3125 -1.953125zm-6.9375 -3.40625l6.953125 0q-0.140625 -1.5625 -0.796875 -2.359375q-1.0 -1.21875 -2.609375 -1.21875q-1.453125 0 -2.453125 0.984375q-0.984375 0.96875 -1.09375 2.59375zm21.703125 7.421875l-4.5625 -17.1875l2.328125 0l2.609375 11.265625q0.421875 1.765625 0.734375 3.515625q0.65625 -2.75 0.765625 -3.171875l3.28125 -11.609375l2.734375 0l2.46875 8.703125q0.921875 3.234375 1.328125 6.078125q0.328125 -1.625 0.859375 -3.734375l2.6875 -11.046875l2.296875 0l-4.71875 17.1875l-2.1875 0l-3.625 -13.09375q-0.453125 -1.640625 -0.53125 -2.015625q-0.28125 1.1875 -0.515625 2.015625l-3.640625 13.09375l-2.3125 0zm27.902344 -4.015625l2.171875 0.28125q-0.515625 1.90625 -1.90625 2.96875q-1.390625 1.046875 -3.5625 1.046875q-2.734375 0 -4.34375 -1.671875q-1.59375 -1.6875 -1.59375 -4.734375q0 -3.140625 1.609375 -4.875q1.625 -1.734375 4.203125 -1.734375q2.5 0 4.078125 1.703125q1.59375 1.703125 1.59375 4.78125q0 0.1875 -0.015625 0.5625l-9.28125 0q0.109375 2.046875 1.15625 3.140625q1.046875 1.09375 2.609375 1.09375q1.15625 0 1.96875 -0.609375q0.828125 -0.609375 1.3125 -1.953125zm-6.9375 -3.40625l6.953125 0q-0.140625 -1.5625 -0.796875 -2.359375q-1.0 -1.21875 -2.609375 -1.21875q-1.453125 0 -2.453125 0.984375q-0.984375 0.96875 -1.09375 2.59375zm13.707031 7.421875l-1.953125 0l0 -17.1875l2.109375 0l0 6.140625q1.328125 -1.6875 3.40625 -1.6875q1.140625 0 2.171875 0.46875q1.03125 0.46875 1.6875 1.3125q0.65625 0.828125 1.03125 2.015625q0.375 1.171875 0.375 2.53125q0 3.1875 -1.578125 4.9375q-1.578125 1.75 -3.796875 1.75q-2.203125 0 -3.453125 -1.84375l0 1.5625zm-0.03125 -6.3125q0 2.234375 0.609375 3.234375q1.0 1.625 2.703125 1.625q1.375 0 2.375 -1.203125q1.015625 -1.203125 1.015625 -3.578125q0 -2.4375 -0.96875 -3.59375q-0.953125 -1.171875 -2.328125 -1.171875q-1.390625 0 -2.40625 1.203125q-1.0 1.203125 -1.0 3.484375z" fill-rule="nonzero"></path><path fill="#000000" d="m757.53265 577.09247l6.59375 -17.1875l2.453125 0l7.03125 17.1875l-2.59375 0l-2.0 -5.203125l-7.1875 0l-1.890625 5.203125l-2.40625 0zm4.953125 -7.0625l5.828125 0l-1.796875 -4.75q-0.8125 -2.171875 -1.21875 -3.5625q-0.328125 1.65625 -0.921875 3.28125l-1.890625 5.03125zm12.6640625 11.828125l0 -17.21875l1.921875 0l0 1.625q0.6875 -0.953125 1.53125 -1.421875q0.859375 -0.484375 2.078125 -0.484375q1.59375 0 2.8125 0.828125q1.21875 0.8125 1.84375 2.3125q0.625 1.5 0.625 3.28125q0 1.90625 -0.6875 3.4375q-0.6875 1.53125 -2.0 2.34375q-1.296875 0.8125 -2.734375 0.8125q-1.0625 0 -1.90625 -0.4375q-0.828125 -0.453125 -1.375 -1.140625l0 6.0625l-2.109375 0zm1.921875 -10.921875q0 2.40625 0.96875 3.5625q0.96875 1.140625 2.359375 1.140625q1.40625 0 2.40625 -1.1875q1.0 -1.1875 1.0 -3.6875q0 -2.375 -0.984375 -3.5625q-0.96875 -1.1875 -2.328125 -1.1875q-1.359375 0 -2.390625 1.265625q-1.03125 1.25 -1.03125 3.65625zm11.425781 10.921875l0 -17.21875l1.921875 0l0 1.625q0.6875 -0.953125 1.53125 -1.421875q0.859375 -0.484375 2.078125 -0.484375q1.59375 0 2.8125 0.828125q1.21875 0.8125 1.84375 2.3125q0.625 1.5 0.625 3.28125q0 1.90625 -0.6875 3.4375q-0.6875 1.53125 -2.0 2.34375q-1.296875 0.8125 -2.734375 0.8125q-1.0625 0 -1.90625 -0.4375q-0.828125 -0.453125 -1.375 -1.140625l0 6.0625l-2.109375 0zm1.921875 -10.921875q0 2.40625 0.96875 3.5625q0.96875 1.140625 2.359375 1.140625q1.40625 0 2.40625 -1.1875q1.0 -1.1875 1.0 -3.6875q0 -2.375 -0.984375 -3.5625q-0.96875 -1.1875 -2.328125 -1.1875q-1.359375 0 -2.390625 1.265625q-1.03125 1.25 -1.03125 3.65625zm21.375 6.15625l-4.5625 -17.1875l2.328125 0l2.609375 11.265625q0.421875 1.765625 0.734375 3.515625q0.65625 -2.75 0.765625 -3.171875l3.28125 -11.609375l2.734375 0l2.46875 8.703125q0.921875 3.234375 1.328125 6.078125q0.328125 -1.625 0.859375 -3.734375l2.6875 -11.046875l2.296875 0l-4.71875 17.1875l-2.1875 0l-3.625 -13.09375q-0.453125 -1.640625 -0.53125 -2.015625q-0.28125 1.1875 -0.515625 2.015625l-3.640625 13.09375l-2.3125 0zm19.386719 -14.75l0 -2.4375l2.109375 0l0 2.4375l-2.109375 0zm0 14.75l0 -12.453125l2.109375 0l0 12.453125l-2.109375 0zm5.3164062 0l0 -12.453125l1.90625 0l0 1.78125q1.375 -2.0625 3.953125 -2.0625q1.125 0 2.0625 0.40625q0.953125 0.40625 1.421875 1.0625q0.46875 0.65625 0.65625 1.5625q0.125 0.578125 0.125 2.046875l0 7.65625l-2.109375 0l0 -7.578125q0 -1.28125 -0.25 -1.921875q-0.25 -0.640625 -0.875 -1.015625q-0.625 -0.390625 -1.46875 -0.390625q-1.34375 0 -2.328125 0.859375q-0.984375 0.859375 -0.984375 3.25l0 6.796875l-2.109375 0zm21.425781 0l0 -1.578125q-1.1875 1.859375 -3.484375 1.859375q-1.484375 0 -2.734375 -0.8125q-1.25 -0.828125 -1.9375 -2.296875q-0.671875 -1.46875 -0.671875 -3.390625q0 -1.859375 0.609375 -3.375q0.625 -1.515625 1.859375 -2.328125q1.25 -0.8125 2.78125 -0.8125q1.125 0 2.0 0.484375q0.890625 0.46875 1.4375 1.234375l0 -6.171875l2.09375 0l0 17.1875l-1.953125 0zm-6.671875 -6.21875q0 2.390625 1.0 3.578125q1.015625 1.1875 2.390625 1.1875q1.390625 0 2.34375 -1.125q0.96875 -1.140625 0.96875 -3.453125q0 -2.5625 -0.984375 -3.75q-0.984375 -1.203125 -2.421875 -1.203125q-1.40625 0 -2.359375 1.15625q-0.9375 1.140625 -0.9375 3.609375zm11.160156 0q0 -3.46875 1.921875 -5.125q1.609375 -1.390625 3.921875 -1.390625q2.5625 0 4.1875 1.6875q1.625 1.6875 1.625 4.640625q0 2.40625 -0.71875 3.78125q-0.71875 1.375 -2.09375 2.140625q-1.375 0.765625 -3.0 0.765625q-2.625 0 -4.234375 -1.671875q-1.609375 -1.6875 -1.609375 -4.828125zm2.171875 0q0 2.390625 1.03125 3.578125q1.046875 1.1875 2.640625 1.1875q1.5625 0 2.609375 -1.1875q1.046875 -1.203125 1.046875 -3.65625q0 -2.3125 -1.0625 -3.5q-1.046875 -1.1875 -2.59375 -1.1875q-1.59375 0 -2.640625 1.1875q-1.03125 1.1875 -1.03125 3.578125zm14.253906 6.21875l-3.796875 -12.453125l2.171875 0l1.984375 7.1875l0.734375 2.671875q0.046875 -0.203125 0.640625 -2.5625l1.984375 -7.296875l2.171875 0l1.859375 7.21875l0.625 2.390625l0.71875 -2.40625l2.125 -7.203125l2.046875 0l-3.890625 12.453125l-2.1875 0l-1.984375 -7.453125l-0.46875 -2.125l-2.53125 9.578125l-2.203125 0z" fill-rule="nonzero"></path><path fill="#ffffff" d="m307.7545 402.06497l0 0c-0.6470642 -5.3761597 1.4773865 -10.698242 5.471924 -13.707886c3.9945374 -3.0096436 9.158569 -3.179016 13.300812 -0.43624878l0 0c1.4673157 -3.125946 4.152893 -5.2841797 7.2444763 -5.8218994c3.0915527 -0.5377197 6.2259216 0.60821533 8.455078 3.091217l0 0c1.249939 -2.8341675 3.7042542 -4.738373 6.492035 -5.0368958c2.7877502 -0.29849243 5.5144043 1.0509033 7.2124023 3.569397l0 0c2.2582397 -3.0042114 5.8511353 -4.269104 9.22403 -3.2473755c3.3729248 1.021759 5.9200134 4.146637 6.5391846 8.022491l0 0c2.7667236 0.85321045 5.0713196 3.0221558 6.3184204 5.9465027c1.2470703 2.924347 1.31427 6.3171997 0.18423462 9.301941l0 0c2.7244263 4.0088196 3.3617249 9.350525 1.6741028 14.031708c-1.6876221 4.6811523 -5.4466553 7.998474 -9.874237 8.71402c-0.031219482 4.3934326 -2.162445 8.424805 -5.5722046 10.540222c-3.4097595 2.115448 -7.565613 1.9845886 -10.865753 -0.34207153c-1.4056702 5.261902 -5.362152 9.133575 -10.160126 9.942291c-4.7979736 0.8087158 -9.577301 -1.5905151 -12.273102 -6.1611023c-3.3045044 2.2528687 -7.2696533 2.9018555 -11.000946 1.8005371c-3.7312927 -1.1012878 -6.914459 -3.8601074 -8.831451 -7.6540833l0 0c-3.3768005 0.44674683 -6.6416626 -1.5312195 -8.174316 -4.95224c-1.5326233 -3.421051 -1.0067444 -7.5568542 1.3166504 -10.354919l0 0c-3.0121765 -2.004364 -4.5491943 -5.98172 -3.8095093 -9.858032c0.73968506 -3.8763123 3.5884094 -6.773163 7.0606995 -7.179962z" fill-rule="nonzero"></path><path fill="#000000" fill-opacity="0.0" d="m304.43655 419.3102l0 0c1.4214478 0.9458618 3.063568 1.374939 4.7058716 1.2295837m2.151062 14.077881c0.7062378 -0.09341431 1.3984985 -0.29129028 2.058899 -0.58847046m17.772491 6.441803c-0.49673462 -0.8421631 -0.91259766 -1.742096 -1.2405701 -2.6844788m23.674683 -1.0968933l0 0c0.25628662 -0.95932007 0.42230225 -1.9466553 0.49536133 -2.9455872m15.941956 -7.2521973c0.033203125 -4.67749 -2.316681 -8.960266 -6.0403137 -11.008728m14.240387 -11.736511c-0.60302734 1.5927734 -1.5236511 3.0057068 -2.6896057 4.1280212m-3.8125 -19.376862l0 0c0.102752686 0.6431885 0.15029907 1.296051 0.14199829 1.9495239m-15.904938 -6.724457l0 0c-0.563324 0.74942017 -1.0274353 1.586853 -1.3778687 2.486267m-12.326721 -1.0190735l0 0c-0.30020142 0.68066406 -0.524353 1.40094 -0.6673279 2.144226m-15.03244 0.5864868l0 0c0.87649536 0.5803833 1.6873779 1.2789307 2.4148254 2.0802917m-21.187317 12.063934l0 0c0.08917236 0.7409973 0.23010254 1.4728394 0.42141724 2.1886902" fill-rule="nonzero"></path><path stroke="#ffffff" stroke-width="2.0" stroke-linejoin="round" stroke-linecap="butt" d="m307.7545 402.06497l0 0c-0.6470642 -5.3761597 1.4773865 -10.698242 5.471924 -13.707886c3.9945374 -3.0096436 9.158569 -3.179016 13.300812 -0.43624878l0 0c1.4673157 -3.125946 4.152893 -5.2841797 7.2444763 -5.8218994c3.0915527 -0.5377197 6.2259216 0.60821533 8.455078 3.091217l0 0c1.249939 -2.8341675 3.7042542 -4.738373 6.492035 -5.0368958c2.7877502 -0.29849243 5.5144043 1.0509033 7.2124023 3.569397l0 0c2.2582397 -3.0042114 5.8511353 -4.269104 9.22403 -3.2473755c3.3729248 1.021759 5.9200134 4.146637 6.5391846 8.022491l0 0c2.7667236 0.85321045 5.0713196 3.0221558 6.3184204 5.9465027c1.2470703 2.924347 1.31427 6.3171997 0.18423462 9.301941l0 0c2.7244263 4.0088196 3.3617249 9.350525 1.6741028 14.031708c-1.6876221 4.6811523 -5.4466553 7.998474 -9.874237 8.71402c-0.031219482 4.3934326 -2.162445 8.424805 -5.5722046 10.540222c-3.4097595 2.115448 -7.565613 1.9845886 -10.865753 -0.34207153c-1.4056702 5.261902 -5.362152 9.133575 -10.160126 9.942291c-4.7979736 0.8087158 -9.577301 -1.5905151 -12.273102 -6.1611023c-3.3045044 2.2528687 -7.2696533 2.9018555 -11.000946 1.8005371c-3.7312927 -1.1012878 -6.914459 -3.8601074 -8.831451 -7.6540833l0 0c-3.3768005 0.44674683 -6.6416626 -1.5312195 -8.174316 -4.95224c-1.5326233 -3.421051 -1.0067444 -7.5568542 1.3166504 -10.354919l0 0c-3.0121765 -2.004364 -4.5491943 -5.98172 -3.8095093 -9.858032c0.73968506 -3.8763123 3.5884094 -6.773163 7.0606995 -7.179962z" fill-rule="nonzero"></path><path stroke="#ffffff" stroke-width="2.0" stroke-linejoin="round" stroke-linecap="butt" d="m304.43655 419.3102l0 0c1.4214478 0.9458618 3.063568 1.374939 4.7058716 1.2295837m2.151062 14.077881c0.7062378 -0.09341431 1.3984985 -0.29129028 2.058899 -0.58847046m17.772491 6.441803c-0.49673462 -0.8421631 -0.91259766 -1.742096 -1.2405701 -2.6844788m23.674683 -1.0968933l0 0c0.25628662 -0.95932007 0.42230225 -1.9466553 0.49536133 -2.9455872m15.941956 -7.2521973c0.033203125 -4.67749 -2.316681 -8.960266 -6.0403137 -11.008728m14.240387 -11.736511c-0.60302734 1.5927734 -1.5236511 3.0057068 -2.6896057 4.1280212m-3.8125 -19.376862l0 0c0.102752686 0.6431885 0.15029907 1.296051 0.14199829 1.9495239m-15.904938 -6.724457l0 0c-0.563324 0.74942017 -1.0274353 1.586853 -1.3778687 2.486267m-12.326721 -1.0190735l0 0c-0.30020142 0.68066406 -0.524353 1.40094 -0.6673279 2.144226m-15.03244 0.5864868l0 0c0.87649536 0.5803833 1.6873779 1.2789307 2.4148254 2.0802917m-21.187317 12.063934l0 0c0.08917236 0.7409973 0.23010254 1.4728394 0.42141724 2.1886902" fill-rule="nonzero"></path><path fill="#ffffff" d="m531.75446 402.06497l0 0c-0.6470337 -5.3761597 1.477417 -10.698242 5.471985 -13.707886c3.9945068 -3.0096436 9.158508 -3.179016 13.300781 -0.43624878l0 0c1.4672852 -3.125946 4.152893 -5.2841797 7.244446 -5.8218994c3.0915527 -0.5377197 6.225952 0.60821533 8.455078 3.091217l0 0c1.25 -2.8341675 3.7042847 -4.738373 6.4920654 -5.0368958c2.7877197 -0.29849243 5.5144043 1.0509033 7.2124023 3.569397l0 0c2.2582397 -3.0042114 5.8511353 -4.269104 9.22406 -3.2473755c3.3728638 1.021759 5.919983 4.146637 6.5391235 8.022491l0 0c2.7667236 0.85321045 5.07135 3.0221558 6.3184204 5.9465027c1.2471313 2.924347 1.314331 6.3171997 0.18426514 9.301941l0 0c2.7244263 4.0088196 3.3616943 9.350525 1.6740723 14.031708c-1.6876221 4.6811523 -5.446594 7.998474 -9.874207 8.71402c-0.03125 4.3934326 -2.1624146 8.424805 -5.5722046 10.540222c-3.40979 2.115448 -7.565613 1.9845886 -10.865723 -0.34207153c-1.4057007 5.261902 -5.3621826 9.133575 -10.160156 9.942291c-4.7979736 0.8087158 -9.5772705 -1.5905151 -12.273132 -6.1611023c-3.3045044 2.2528687 -7.2695923 2.9018555 -11.000916 1.8005371c-3.7313232 -1.1012878 -6.9144897 -3.8601074 -8.831421 -7.6540833l0 0c-3.376831 0.44674683 -6.6417236 -1.5312195 -8.174316 -4.95224c-1.5326538 -3.421051 -1.0067749 -7.5568542 1.3166504 -10.354919l0 0c-3.012207 -2.004364 -4.5491943 -5.98172 -3.8095093 -9.858032c0.739624 -3.8763123 3.588379 -6.773163 7.060669 -7.179962z" fill-rule="nonzero"></path><path fill="#000000" fill-opacity="0.0" d="m528.4365 419.3102l0 0c1.4215088 0.9458618 3.0635986 1.374939 4.7059326 1.2295837m2.151001 14.077881c0.7062988 -0.09341431 1.3985596 -0.29129028 2.05896 -0.58847046m17.77246 6.441803c-0.4967041 -0.8421631 -0.91259766 -1.742096 -1.2405396 -2.6844788m23.674622 -1.0968933l0 0c0.25628662 -0.95932007 0.42236328 -1.9466553 0.49536133 -2.9455872m15.941956 -7.2521973c0.03326416 -4.67749 -2.3166504 -8.960266 -6.040283 -11.008728m14.240356 -11.736511c-0.60302734 1.5927734 -1.5236206 3.0057068 -2.6895752 4.1280212m-3.8125 -19.376862l0 0c0.10272217 0.6431885 0.15032959 1.296051 0.14196777 1.9495239m-15.904907 -6.724457l0 0c-0.5633545 0.74942017 -1.0274048 1.586853 -1.3778687 2.486267m-12.326721 -1.0190735l0 0c-0.3001709 0.68066406 -0.524353 1.40094 -0.6673584 2.144226m-15.03241 0.5864868l0 0c0.87646484 0.5803833 1.6873779 1.2789307 2.414795 2.0802917m-21.187317 12.063934l0 0c0.0892334 0.7409973 0.23010254 1.4728394 0.42144775 2.1886902" fill-rule="nonzero"></path><path stroke="#ffffff" stroke-width="2.0" stroke-linejoin="round" stroke-linecap="butt" d="m531.75446 402.06497l0 0c-0.6470337 -5.3761597 1.477417 -10.698242 5.471985 -13.707886c3.9945068 -3.0096436 9.158508 -3.179016 13.300781 -0.43624878l0 0c1.4672852 -3.125946 4.152893 -5.2841797 7.244446 -5.8218994c3.0915527 -0.5377197 6.225952 0.60821533 8.455078 3.091217l0 0c1.25 -2.8341675 3.7042847 -4.738373 6.4920654 -5.0368958c2.7877197 -0.29849243 5.5144043 1.0509033 7.2124023 3.569397l0 0c2.2582397 -3.0042114 5.8511353 -4.269104 9.22406 -3.2473755c3.3728638 1.021759 5.919983 4.146637 6.5391235 8.022491l0 0c2.7667236 0.85321045 5.07135 3.0221558 6.3184204 5.9465027c1.2471313 2.924347 1.314331 6.3171997 0.18426514 9.301941l0 0c2.7244263 4.0088196 3.3616943 9.350525 1.6740723 14.031708c-1.6876221 4.6811523 -5.446594 7.998474 -9.874207 8.71402c-0.03125 4.3934326 -2.1624146 8.424805 -5.5722046 10.540222c-3.40979 2.115448 -7.565613 1.9845886 -10.865723 -0.34207153c-1.4057007 5.261902 -5.3621826 9.133575 -10.160156 9.942291c-4.7979736 0.8087158 -9.5772705 -1.5905151 -12.273132 -6.1611023c-3.3045044 2.2528687 -7.2695923 2.9018555 -11.000916 1.8005371c-3.7313232 -1.1012878 -6.9144897 -3.8601074 -8.831421 -7.6540833l0 0c-3.376831 0.44674683 -6.6417236 -1.5312195 -8.174316 -4.95224c-1.5326538 -3.421051 -1.0067749 -7.5568542 1.3166504 -10.354919l0 0c-3.012207 -2.004364 -4.5491943 -5.98172 -3.8095093 -9.858032c0.739624 -3.8763123 3.588379 -6.773163 7.060669 -7.179962z" fill-rule="nonzero"></path><path stroke="#ffffff" stroke-width="2.0" stroke-linejoin="round" stroke-linecap="butt" d="m528.4365 419.3102l0 0c1.4215088 0.9458618 3.0635986 1.374939 4.7059326 1.2295837m2.151001 14.077881c0.7062988 -0.09341431 1.3985596 -0.29129028 2.05896 -0.58847046m17.77246 6.441803c-0.4967041 -0.8421631 -0.91259766 -1.742096 -1.2405396 -2.6844788m23.674622 -1.0968933l0 0c0.25628662 -0.95932007 0.42236328 -1.9466553 0.49536133 -2.9455872m15.941956 -7.2521973c0.03326416 -4.67749 -2.3166504 -8.960266 -6.040283 -11.008728m14.240356 -11.736511c-0.60302734 1.5927734 -1.5236206 3.0057068 -2.6895752 4.1280212m-3.8125 -19.376862l0 0c0.10272217 0.6431885 0.15032959 1.296051 0.14196777 1.9495239m-15.904907 -6.724457l0 0c-0.5633545 0.74942017 -1.0274048 1.586853 -1.3778687 2.486267m-12.326721 -1.0190735l0 0c-0.3001709 0.68066406 -0.524353 1.40094 -0.6673584 2.144226m-15.03241 0.5864868l0 0c0.87646484 0.5803833 1.6873779 1.2789307 2.414795 2.0802917m-21.187317 12.063934l0 0c0.0892334 0.7409973 0.23010254 1.4728394 0.42144775 2.1886902" fill-rule="nonzero"></path><path fill="#ffffff" d="m816.88837 398.81433l0 0c-0.6470947 -5.37619 1.477356 -10.698273 5.471924 -13.707916c3.9945068 -3.0096436 9.158569 -3.179016 13.300781 -0.43624878l0 0c1.4672852 -3.1259155 4.152893 -5.284149 7.244446 -5.821869c3.0915527 -0.53775024 6.225952 0.60821533 8.455139 3.091217l0 0c1.249939 -2.8341675 3.7042236 -4.738373 6.4920044 -5.0368958c2.7877197 -0.29852295 5.5144043 1.0508728 7.2124023 3.5693665l0 0c2.2582397 -3.0042114 5.8511353 -4.269104 9.22406 -3.247345c3.3729248 1.0217285 5.919983 4.1466064 6.5391846 8.022461l0 0c2.7667236 0.85321045 5.071289 3.0221863 6.3184204 5.946533c1.2470703 2.924347 1.31427 6.317169 0.1842041 9.30191l0 0c2.7244263 4.0088196 3.3617554 9.350555 1.6741333 14.031708c-1.6876831 4.681183 -5.4466553 7.9985046 -9.874268 8.71402c-0.031188965 4.3934326 -2.1624146 8.424805 -5.5722046 10.540253c-3.409729 2.1154175 -7.565613 1.9845886 -10.865723 -0.34210205c-1.4057007 5.2619324 -5.3621826 9.133575 -10.160156 9.942291c-4.7979736 0.8087158 -9.5772705 -1.5904846 -12.273071 -6.161072c-3.3045044 2.2528381 -7.2696533 2.901825 -11.000977 1.8005371c-3.7313232 -1.1013184 -6.9144897 -3.8601074 -8.831421 -7.654114l0 0c-3.376831 0.44674683 -6.6417236 -1.5312195 -8.174316 -4.95224c-1.5326538 -3.4210205 -1.0067749 -7.5568542 1.3166504 -10.354889l0 0c-3.012207 -2.0043945 -4.5491943 -5.9817505 -3.8095093 -9.858032c0.739624 -3.8763123 3.588379 -6.773163 7.060669 -7.1799927z" fill-rule="nonzero"></path><path fill="#000000" fill-opacity="0.0" d="m813.57043 416.05954l0 0c1.4214478 0.94589233 3.0635376 1.374939 4.7058716 1.2296143m2.151062 14.077881c0.7062378 -0.093444824 1.3984985 -0.29129028 2.058899 -0.588501m17.77246 6.441803c-0.4967041 -0.8421631 -0.91259766 -1.742096 -1.2405396 -2.6844482m23.674683 -1.0968933l0 0c0.2562256 -0.95932007 0.42230225 -1.9466858 0.49536133 -2.9455872m15.941895 -7.2521973c0.03326416 -4.6775208 -2.3166504 -8.960266 -6.040283 -11.008728m14.2404175 -11.736511c-0.6030884 1.5927734 -1.5236816 3.0057068 -2.6896362 4.1279907m-3.8125 -19.376862l0 0c0.1027832 0.6431885 0.15032959 1.2960815 0.14202881 1.9495544m-15.904968 -6.724457l0 0c-0.56329346 0.74938965 -1.0274048 1.586853 -1.3778687 2.486267m-12.326721 -1.0190735l0 0c-0.3001709 0.68066406 -0.524353 1.40094 -0.66729736 2.144226m-15.032471 0.5864868l0 0c0.8765259 0.5803528 1.6873779 1.2789001 2.414795 2.0802612m-21.187256 12.063965l0 0c0.08917236 0.7409668 0.2300415 1.4728088 0.42138672 2.1886597" fill-rule="nonzero"></path><path stroke="#ffffff" stroke-width="2.0" stroke-linejoin="round" stroke-linecap="butt" d="m816.88837 398.81433l0 0c-0.6470947 -5.37619 1.477356 -10.698273 5.471924 -13.707916c3.9945068 -3.0096436 9.158569 -3.179016 13.300781 -0.43624878l0 0c1.4672852 -3.1259155 4.152893 -5.284149 7.244446 -5.821869c3.0915527 -0.53775024 6.225952 0.60821533 8.455139 3.091217l0 0c1.249939 -2.8341675 3.7042236 -4.738373 6.4920044 -5.0368958c2.7877197 -0.29852295 5.5144043 1.0508728 7.2124023 3.5693665l0 0c2.2582397 -3.0042114 5.8511353 -4.269104 9.22406 -3.247345c3.3729248 1.0217285 5.919983 4.1466064 6.5391846 8.022461l0 0c2.7667236 0.85321045 5.071289 3.0221863 6.3184204 5.946533c1.2470703 2.924347 1.31427 6.317169 0.1842041 9.30191l0 0c2.7244263 4.0088196 3.3617554 9.350555 1.6741333 14.031708c-1.6876831 4.681183 -5.4466553 7.9985046 -9.874268 8.71402c-0.031188965 4.3934326 -2.1624146 8.424805 -5.5722046 10.540253c-3.409729 2.1154175 -7.565613 1.9845886 -10.865723 -0.34210205c-1.4057007 5.2619324 -5.3621826 9.133575 -10.160156 9.942291c-4.7979736 0.8087158 -9.5772705 -1.5904846 -12.273071 -6.161072c-3.3045044 2.2528381 -7.2696533 2.901825 -11.000977 1.8005371c-3.7313232 -1.1013184 -6.9144897 -3.8601074 -8.831421 -7.654114l0 0c-3.376831 0.44674683 -6.6417236 -1.5312195 -8.174316 -4.95224c-1.5326538 -3.4210205 -1.0067749 -7.5568542 1.3166504 -10.354889l0 0c-3.012207 -2.0043945 -4.5491943 -5.9817505 -3.8095093 -9.858032c0.739624 -3.8763123 3.588379 -6.773163 7.060669 -7.1799927z" fill-rule="nonzero"></path><path stroke="#ffffff" stroke-width="2.0" stroke-linejoin="round" stroke-linecap="butt" d="m813.57043 416.05954l0 0c1.4214478 0.94589233 3.0635376 1.374939 4.7058716 1.2296143m2.151062 14.077881c0.7062378 -0.093444824 1.3984985 -0.29129028 2.058899 -0.588501m17.77246 6.441803c-0.4967041 -0.8421631 -0.91259766 -1.742096 -1.2405396 -2.6844482m23.674683 -1.0968933l0 0c0.2562256 -0.95932007 0.42230225 -1.9466858 0.49536133 -2.9455872m15.941895 -7.2521973c0.03326416 -4.6775208 -2.3166504 -8.960266 -6.040283 -11.008728m14.2404175 -11.736511c-0.6030884 1.5927734 -1.5236816 3.0057068 -2.6896362 4.1279907m-3.8125 -19.376862l0 0c0.1027832 0.6431885 0.15032959 1.2960815 0.14202881 1.9495544m-15.904968 -6.724457l0 0c-0.56329346 0.74938965 -1.0274048 1.586853 -1.3778687 2.486267m-12.326721 -1.0190735l0 0c-0.3001709 0.68066406 -0.524353 1.40094 -0.66729736 2.144226m-15.032471 0.5864868l0 0c0.8765259 0.5803528 1.6873779 1.2789001 2.414795 2.0802612m-21.187256 12.063965l0 0c0.08917236 0.7409668 0.2300415 1.4728088 0.42138672 2.1886597" fill-rule="nonzero"></path><path fill="#f41111" fill-opacity="0.2808" d="m29.422573 361.48032l902.39374 0l0 96.97638l-902.39374 0z" fill-rule="nonzero"></path><path stroke="#cc0000" stroke-width="2.0" stroke-linejoin="round" stroke-linecap="butt" d="m29.422573 361.48032l902.39374 0l0 96.97638l-902.39374 0z" fill-rule="nonzero"></path><path fill="#000000" d="m317.58817 414.32913l2.859375 -0.25q0.203125 1.71875 0.9375 2.828125q0.75 1.09375 2.3125 1.78125q1.5625 0.671875 3.515625 0.671875q1.734375 0 3.0625 -0.515625q1.328125 -0.515625 1.96875 -1.40625q0.65625 -0.90625 0.65625 -1.96875q0 -1.078125 -0.625 -1.875q-0.625 -0.8125 -2.0625 -1.359375q-0.921875 -0.359375 -4.078125 -1.109375q-3.15625 -0.765625 -4.421875 -1.4375q-1.640625 -0.859375 -2.453125 -2.125q-0.796875 -1.28125 -0.796875 -2.859375q0 -1.734375 0.984375 -3.234375q0.984375 -1.515625 2.875 -2.296875q1.890625 -0.78125 4.203125 -0.78125q2.546875 0 4.484375 0.828125q1.953125 0.8125 3.0 2.40625q1.046875 1.59375 1.125 3.609375l-2.90625 0.21875q-0.234375 -2.171875 -1.59375 -3.28125q-1.34375 -1.109375 -3.984375 -1.109375q-2.75 0 -4.015625 1.015625q-1.25 1.0 -1.25 2.421875q0 1.234375 0.890625 2.03125q0.875 0.796875 4.5625 1.640625q3.703125 0.828125 5.078125 1.453125q2.0 0.921875 2.953125 2.34375q0.953125 1.40625 0.953125 3.25q0 1.828125 -1.046875 3.453125q-1.046875 1.609375 -3.015625 2.515625q-1.953125 0.890625 -4.40625 0.890625q-3.109375 0 -5.21875 -0.90625q-2.09375 -0.90625 -3.296875 -2.71875q-1.1875 -1.828125 -1.25 -4.125zm22.4375 7.359375l0 -22.90625l16.5625 0l0 2.703125l-13.53125 0l0 7.015625l12.671875 0l0 2.6875l-12.671875 0l0 7.796875l14.0625 0l0 2.703125l-17.09375 0zm21.328125 0l0 -22.90625l10.15625 0q3.0625 0 4.65625 0.625q1.59375 0.609375 2.546875 2.171875q0.953125 1.5625 0.953125 3.453125q0 2.4375 -1.578125 4.109375q-1.578125 1.671875 -4.875 2.125q1.203125 0.578125 1.828125 1.140625q1.328125 1.21875 2.515625 3.046875l3.984375 6.234375l-3.8125 0l-3.03125 -4.765625q-1.328125 -2.0625 -2.1875 -3.15625q-0.859375 -1.09375 -1.546875 -1.53125q-0.671875 -0.4375 -1.375 -0.609375q-0.515625 -0.109375 -1.6875 -0.109375l-3.515625 0l0 10.171875l-3.03125 0zm3.03125 -12.796875l6.515625 0q2.078125 0 3.25 -0.421875q1.171875 -0.4375 1.78125 -1.375q0.609375 -0.953125 0.609375 -2.0625q0 -1.625 -1.1875 -2.671875q-1.171875 -1.046875 -3.71875 -1.046875l-7.25 0l0 7.578125zm26.578125 12.796875l-8.875 -22.90625l3.28125 0l5.953125 16.640625q0.71875 2.0 1.203125 3.75q0.53125 -1.875 1.234375 -3.75l6.1875 -16.640625l3.09375 0l-8.96875 22.90625l-3.109375 0zm15.3125 0l0 -22.90625l3.03125 0l0 22.90625l-3.03125 0zm24.71875 -8.03125l3.03125 0.765625q-0.953125 3.734375 -3.4375 5.703125q-2.46875 1.953125 -6.046875 1.953125q-3.703125 0 -6.03125 -1.5q-2.3125 -1.515625 -3.53125 -4.375q-1.203125 -2.859375 -1.203125 -6.140625q0 -3.578125 1.359375 -6.234375q1.375 -2.671875 3.890625 -4.046875q2.53125 -1.390625 5.5625 -1.390625q3.4375 0 5.78125 1.75q2.34375 1.75 3.265625 4.921875l-2.984375 0.703125q-0.796875 -2.5 -2.3125 -3.640625q-1.515625 -1.140625 -3.8125 -1.140625q-2.640625 0 -4.421875 1.265625q-1.765625 1.265625 -2.484375 3.40625q-0.71875 2.125 -0.71875 4.390625q0 2.921875 0.84375 5.109375q0.859375 2.171875 2.65625 3.25q1.796875 1.078125 3.890625 1.078125q2.546875 0 4.3125 -1.46875q1.765625 -1.46875 2.390625 -4.359375zm6.828125 8.03125l0 -22.90625l16.5625 0l0 2.703125l-13.53125 0l0 7.015625l12.671875 0l0 2.6875l-12.671875 0l0 7.796875l14.0625 0l0 2.703125l-17.09375 0zm34.171875 0l-6.078125 -22.90625l3.109375 0l3.484375 15.015625q0.5625 2.359375 0.96875 4.6875q0.875 -3.671875 1.03125 -4.234375l4.359375 -15.46875l3.65625 0l3.28125 11.59375q1.234375 4.3125 1.78125 8.109375q0.4375 -2.171875 1.140625 -4.984375l3.59375 -14.71875l3.046875 0l-6.28125 22.90625l-2.921875 0l-4.828125 -17.453125q-0.609375 -2.1875 -0.71875 -2.6875q-0.359375 1.578125 -0.671875 2.6875l-4.859375 17.453125l-3.09375 0zm25.28125 -11.15625q0 -5.703125 3.0625 -8.921875q3.0625 -3.234375 7.90625 -3.234375q3.171875 0 5.7187195 1.515625q2.546875 1.515625 3.875 4.234375q1.34375 2.703125 1.34375 6.140625q0 3.484375 -1.40625 6.234375q-1.40625 2.75 -3.984375 4.171875q-2.5780945 1.40625 -5.5624695 1.40625q-3.234375 0 -5.78125 -1.5625q-2.546875 -1.5625 -3.859375 -4.265625q-1.3125 -2.703125 -1.3125 -5.71875zm3.125 0.046875q0 4.140625 2.21875 6.53125q2.234375 2.375 5.59375 2.375q3.421875 0 5.6249695 -2.40625q2.21875 -2.40625 2.21875 -6.828125q0 -2.796875 -0.953125 -4.875q-0.9375 -2.09375 -2.765625 -3.234375q-1.8124695 -1.15625 -4.0780945 -1.15625q-3.21875 0 -5.546875 2.21875q-2.3125 2.203125 -2.3125 7.375zm22.734344 11.109375l0 -22.90625l10.15625 0q3.0625 0 4.65625 0.625q1.59375 0.609375 2.546875 2.171875q0.953125 1.5625 0.953125 3.453125q0 2.4375 -1.578125 4.109375q-1.578125 1.671875 -4.875 2.125q1.203125 0.578125 1.828125 1.140625q1.328125 1.21875 2.515625 3.046875l3.984375 6.234375l-3.8125 0l-3.03125 -4.765625q-1.328125 -2.0625 -2.1875 -3.15625q-0.859375 -1.09375 -1.546875 -1.53125q-0.671875 -0.4375 -1.375 -0.609375q-0.515625 -0.109375 -1.6875 -0.109375l-3.515625 0l0 10.171875l-3.03125 0zm3.03125 -12.796875l6.515625 0q2.078125 0 3.25 -0.421875q1.171875 -0.4375 1.78125 -1.375q0.609375 -0.953125 0.609375 -2.0625q0 -1.625 -1.1875 -2.671875q-1.171875 -1.046875 -3.71875 -1.046875l-7.25 0l0 7.578125zm19.90625 12.796875l0 -22.90625l3.03125 0l0 11.359375l11.375 -11.359375l4.109375 0l-9.609375 9.28125l10.03125 13.625l-4.0 0l-8.15625 -11.59375l-3.75 3.65625l0 7.9375l-3.03125 0zm21.53125 0l0 -22.90625l16.5625 0l0 2.703125l-13.53125 0l0 7.015625l12.671875 0l0 2.6875l-12.671875 0l0 7.796875l14.0625 0l0 2.703125l-17.09375 0zm21.328125 0l0 -22.90625l10.15625 0q3.0625 0 4.65625 0.625q1.59375 0.609375 2.546875 2.171875q0.953125 1.5625 0.953125 3.453125q0 2.4375 -1.578125 4.109375q-1.578125 1.671875 -4.875 2.125q1.203125 0.578125 1.828125 1.140625q1.328125 1.21875 2.515625 3.046875l3.984375 6.234375l-3.8125 0l-3.03125 -4.765625q-1.328125 -2.0625 -2.1875 -3.15625q-0.859375 -1.09375 -1.546875 -1.53125q-0.671875 -0.4375 -1.375 -0.609375q-0.515625 -0.109375 -1.6875 -0.109375l-3.515625 0l0 10.171875l-3.03125 0zm3.03125 -12.796875l6.515625 0q2.078125 0 3.25 -0.421875q1.171875 -0.4375 1.78125 -1.375q0.609375 -0.953125 0.609375 -2.0625q0 -1.625 -1.1875 -2.671875q-1.171875 -1.046875 -3.71875 -1.046875l-7.25 0l0 7.578125zm21.171875 7.109375l-0.859375 -12.140625l0 -5.078125l3.484375 0l0 5.078125l-0.8125 12.140625l-1.8125 0zm-0.734375 5.6875l0 -3.203125l3.234375 0l0 3.203125l-3.234375 0zm9.625 -5.6875l-0.859375 -12.140625l0 -5.078125l3.484375 0l0 5.078125l-0.8125 12.140625l-1.8125 0zm-0.734375 5.6875l0 -3.203125l3.234375 0l0 3.203125l-3.234375 0zm9.625 -5.6875l-0.859375 -12.140625l0 -5.078125l3.484375 0l0 5.078125l-0.8125 12.140625l-1.8125 0zm-0.734375 5.6875l0 -3.203125l3.234375 0l0 3.203125l-3.234375 0zm9.625 -5.6875l-0.859375 -12.140625l0 -5.078125l3.484375 0l0 5.078125l-0.8125 12.140625l-1.8125 0zm-0.734375 5.6875l0 -3.203125l3.234375 0l0 3.203125l-3.234375 0z" fill-rule="nonzero"></path></g></svg>

