<?xml version="1.0" encoding="utf-8"?>
<!DOCTYPE svg PUBLIC "-//W3C//DTD SVG 1.1//EN" "http://www.w3.org/Graphics/SVG/1.1/DTD/svg11.dtd">
<svg xmlns="http://www.w3.org/2000/svg" xmlns:xlink="http://www.w3.org/1999/xlink" version="1.1" baseProfile="full" width="179.37" height="330.445" viewBox="0 0 179.37 330.45" enable-background="new 0 0 179.37 330.45" xml:space="preserve">
	<g>
		<ellipse fill="none" stroke-width="1.02409" stroke-linejoin="round" stroke="#000000" stroke-opacity="1" cx="90.1493" cy="27.0347" rx="49.5023" ry="22.8724"/>
		<path fill="none" stroke-width="1.02409" stroke-linejoin="round" stroke="#000000" stroke-opacity="1" d="M 24.8452,31.5737L 1.98151,58.6436C 1.98145,58.6436 -2.76385,70.8303 4.46198,78.3798C 4.46198,78.3798 13.8448,86.7919 16.5409,86.5762C 19.237,86.3605 22.149,83.88 28.512,77.1935C 34.8751,70.5068 33.9065,73.0397 35.632,74.3339C 37.3575,75.6281 50.0837,82.099 51.0543,94.8251C 52.0248,107.551 62.4322,251.312 62.9175,260.048C 63.4028,268.784 62.3948,329.933 90.7422,329.933C 119.09,329.933 116.464,284.184 117.435,262.976C 118.405,241.768 125.753,111.541 130.006,94.7172C 134.259,77.8929 145.637,72.8779 145.637,72.8779C 145.637,72.8779 156.525,83.2313 159.441,85.3883C 162.357,87.5453 171.089,82.3685 176.481,78.0547C 176.481,78.0547 180.229,72.1769 178.369,61.2574C 178.369,61.2574 155.316,29.3883 143.426,19.6011C 131.536,9.81384 114.133,-0.377808 89.7176,0.512085C 65.3027,1.40173 48.2231,3.50476 24.8452,31.5737 Z "/>
		<ellipse fill="none" stroke-width="1.02409" stroke-linejoin="round" stroke="#000000" stroke-opacity="1" cx="89.9153" cy="140.527" rx="32.1454" ry="32.1454"/>
		<g>
			<path fill="none" stroke-width="1.02409" stroke-linejoin="round" stroke="#000000" stroke-opacity="1" d="M 90.0319,87.8665C 94.2335,87.8665 97.6395,91.2725 97.6395,95.474C 97.6395,99.6757 94.2335,103.082 90.0319,103.082C 85.8304,103.082 82.4243,99.6757 82.4243,95.474C 82.4243,91.2725 85.8304,87.8665 90.0319,87.8665 Z "/>
			<g>
				<line fill="none" stroke-width="1.02409" stroke-linejoin="round" stroke="#000000" stroke-opacity="1" x1="87.2339" y1="93.9371" x2="92.8298" y2="93.9371"/>
				<line fill="none" stroke-width="1.02409" stroke-linejoin="round" stroke="#000000" stroke-opacity="1" x1="87.2339" y1="95.474" x2="92.8298" y2="95.474"/>
				<line fill="none" stroke-width="1.02409" stroke-linejoin="round" stroke="#000000" stroke-opacity="1" x1="87.2339" y1="97.0109" x2="92.8298" y2="97.0109"/>
			</g>
		</g>
		<g>
			<path fill="none" stroke-width="1.02409" stroke-linejoin="round" stroke="#000000" stroke-opacity="1" d="M 89.9179,191.652C 94.1194,191.652 97.5255,195.058 97.5255,199.26C 97.5255,203.462 94.1194,206.868 89.9179,206.868C 85.7164,206.868 82.3103,203.462 82.3103,199.26C 82.3103,195.058 85.7164,191.652 89.9179,191.652 Z "/>
			<g>
				<path fill="none" stroke-width="1.02409" stroke-linejoin="round" stroke="#000000" stroke-opacity="1" d="M 86.6172,198.272L 89.9201,194.97L 93.223,198.272L 89.9202,201.575L 86.6172,198.272 Z "/>
				<path fill="none" stroke-width="1.02409" stroke-linejoin="round" stroke="#000000" stroke-opacity="1" d="M 92.2119,199.235L 93.223,200.246L 89.9202,203.549L 86.6172,200.246L 87.6565,199.207"/>
			</g>
		</g>
		<path fill="none" stroke-width="1.02409" stroke-linejoin="round" stroke="#000000" stroke-opacity="1" d="M 89.837,210.114C 90.7527,210.114 91.4951,210.857 91.4951,211.772C 91.4951,212.688 90.7527,213.431 89.837,213.431C 88.9212,213.431 88.1788,212.688 88.1788,211.772C 88.1788,210.857 88.9212,210.114 89.837,210.114 Z "/>
		<path fill="none" stroke-width="1.02409" stroke-linejoin="round" stroke="#000000" stroke-opacity="1" d="M 35.1045,31.1417C 36.251,31.7264 35.6672,35.1683 33.8005,38.8298C 31.9337,42.4913 29.4909,44.9855 28.3444,44.401C 27.1978,43.8164 27.7817,40.3744 29.6484,36.713C 31.5152,33.0515 33.9579,30.5573 35.1045,31.1417 Z "/>
		<path fill="none" stroke-width="1.02409" stroke-linejoin="round" stroke="#000000" stroke-opacity="1" d="M 40.172,59.7611C 42.1861,60.9012 42.4632,64.2206 40.7908,67.1752C 39.1183,70.1298 36.1298,71.6007 34.1157,70.4607C 32.1014,69.3206 31.8245,66.0011 33.4969,63.0465C 35.1693,60.092 38.1578,58.621 40.172,59.7611 Z "/>
		<path fill="none" stroke-width="1.02409" stroke-linejoin="round" stroke="#000000" stroke-opacity="1" d="M 17.8149,74.6311C 20.2974,72.5165 23.4605,72.153 24.8799,73.8192C 26.2994,75.4856 25.4377,78.5507 22.9552,80.6654C 20.4727,82.7802 17.3096,83.1436 15.8901,81.4772C 14.4706,79.8109 15.3325,76.7458 17.8149,74.6311 Z "/>
		<path fill="none" stroke-width="1.02409" stroke-linejoin="round" stroke="#000000" stroke-opacity="1" d="M 162.688,75.3212C 164.803,77.8037 165.166,80.9668 163.5,82.3862C 161.834,83.8058 158.769,82.944 156.654,80.4615C 154.539,77.979 154.176,74.8159 155.842,73.3965C 157.508,71.9769 160.573,72.8387 162.688,75.3212 Z "/>
		<path fill="none" stroke-width="1.02409" stroke-linejoin="round" stroke="#000000" stroke-opacity="1" d="M 145.3,69.139C 143.42,70.4889 140.29,69.3475 138.31,66.5897C 136.33,63.8318 136.249,60.5018 138.129,59.152C 140.009,57.8021 143.138,58.9435 145.118,61.7014C 147.099,64.4592 147.18,67.7892 145.3,69.139 Z "/>
		<path fill="none" stroke-width="1.02409" stroke-linejoin="round" stroke="#000000" stroke-opacity="1" d="M 151.557,44.1354C 150.457,44.8025 147.837,42.4941 145.707,38.9796C 143.577,35.465 142.742,32.0751 143.842,31.408C 144.943,30.7408 147.562,33.0492 149.693,36.5637C 151.823,40.0782 152.658,43.4681 151.557,44.1354 Z "/>
		<path fill="none" stroke-width="1.02409" stroke-linejoin="round" stroke="#000000" stroke-opacity="1" d="M 13.559,51.5439C 14.5624,52.3497 13.2896,55.6007 10.716,58.8051C 8.14246,62.0094 5.24274,63.9537 4.23932,63.1478C 3.2359,62.3419 4.50879,59.0909 7.08234,55.8866C 9.65588,52.6823 12.5556,50.738 13.559,51.5439 Z "/>
		<path fill="none" stroke-width="1.02409" stroke-linejoin="round" stroke="#000000" stroke-opacity="1" d="M 176.134,63.3429C 175.153,64.1757 172.202,62.3107 169.542,59.1774C 166.883,56.0439 165.522,52.8287 166.503,51.996C 167.485,51.1631 170.436,53.0282 173.095,56.1615C 175.755,59.2949 177.115,62.5101 176.134,63.3429 Z "/>
		<path fill="none" stroke-width="1.02409" stroke-linejoin="round" stroke="#000000" stroke-opacity="1" d="M 60.4215,45.5372C 60.4215,45.5372 88.8934,16.9037 118.821,46.0226"/>
		<path fill="none" stroke-width="1.02409" stroke-linejoin="round" stroke="#000000" stroke-opacity="1" d="M 44.4619,24.3544C 46.0628,23.5607 48.7102,25.6393 50.375,28.9969C 52.0398,32.3547 52.0916,35.7202 50.4907,36.514C 48.8898,37.3077 46.2424,35.2291 44.5776,31.8715C 42.9128,28.5137 42.861,25.1482 44.4619,24.3544 Z "/>
		<path fill="none" stroke-width="1.02409" stroke-linejoin="round" stroke="#000000" stroke-opacity="1" d="M 136.873,24.0802C 138.453,24.9132 138.318,28.2765 136.571,31.5919C 134.824,34.9075 132.126,36.9199 130.545,36.0868C 128.964,35.2538 129.099,31.8906 130.847,28.5751C 132.594,25.2595 135.292,23.2471 136.873,24.0802 Z "/>
		<path fill="none" stroke-width="1.02409" stroke-linejoin="round" stroke="#000000" stroke-opacity="1" d="M 49.7446,88.5686C 49.7446,88.5686 88.2463,77.2134 132.086,89.2157"/>
		<line fill="none" stroke-width="1.02409" stroke-linecap="round" stroke-linejoin="round" stroke="#000000" stroke-opacity="1" x1="85.7119" y1="254.56" x2="85.7119" y2="261.085"/>
		<path fill="none" stroke-width="1.02409" stroke-linecap="round" stroke-linejoin="round" stroke="#000000" stroke-opacity="1" d="M 74.5226,254.938L 77.866,261.085L 81.371,255.585"/>
		<path fill="none" stroke-width="1.02409" stroke-linecap="round" stroke-linejoin="round" stroke="#000000" stroke-opacity="1" d="M 89.5192,254.938L 92.8625,261.085L 96.3675,255.585"/>
		<path fill="none" stroke-width="1.02409" stroke-linecap="round" stroke-linejoin="round" stroke="#000000" stroke-opacity="1" d="M 104.889,254.56L 100.649,254.56L 100.649,261.085L 104.774,261.085"/>
		<line fill="none" stroke-width="1.02409" stroke-linejoin="round" stroke="#000000" stroke-opacity="1" x1="100.784" y1="258.321" x2="103.865" y2="258.321"/>
		<path fill="#000000" fill-opacity="1" stroke-width="1.02409" stroke-linecap="round" stroke-linejoin="round" stroke="#000000" stroke-opacity="1" d="M 82.5035,244.984L 88.7047,236.14L 91.8862,236.14L 97.6542,245.307L 95.2294,247.788L 84.2291,247.68L 82.5035,244.984 Z M 85.1452,243.931L 86.269,245.687L 93.4332,245.757L 95.0124,244.141L 91.2559,238.171L 89.1839,238.171L 85.1452,243.931 Z "/>
	</g>
</svg>
