<?xml version="1.0" encoding="utf-8"?>
<!DOCTYPE svg PUBLIC "-//W3C//DTD SVG 1.1//EN" "http://www.w3.org/Graphics/SVG/1.1/DTD/svg11.dtd">
<svg xmlns="http://www.w3.org/2000/svg" xmlns:xlink="http://www.w3.org/1999/xlink" version="1.1" baseProfile="full" width="385.292" height="269.697" viewBox="0 0 385.29 269.70" enable-background="new 0 0 385.29 269.70" xml:space="preserve">
	<g>
		<path fill="none" stroke-width="1.02409" stroke-linejoin="round" stroke="#000000" stroke-opacity="1" d="M 59.7739,30.3701C 59.7739,30.3701 49.5144,35.4999 45.8227,45.2172C 45.7096,45.5126 14.2551,129.661 8.33618,156.888C 2.41724,184.115 -2.71246,210.947 2.81177,231.466C 8.33612,251.985 20.174,264.217 39.5092,268.953C 39.5092,268.953 49.7687,266.19 65.1578,247.644C 80.5471,229.098 95.5417,205.423 106.59,199.898C 117.639,194.374 121.837,193.585 130.661,193.585C 139.484,193.585 252.985,193.585 258.509,193.585C 264.034,193.585 273.899,194.769 280.607,201.082C 287.315,207.396 301.126,221.207 307.439,231.071C 313.753,240.936 336.639,266.585 344.136,268.558C 351.634,270.531 384.78,250.801 384.78,220.417C 384.78,190.034 378.072,150.969 365.05,112.693C 352.028,74.4172 339.796,45.2172 339.796,45.2172C 339.796,45.2172 334.765,36.3387 329.24,32.7875"/>
		<path fill="none" stroke-linejoin="round" stroke="#000000" stroke-opacity="1" d="M 51.9796,39.788C 51.9796,39.788 72.1039,25.4344 91.7844,20.4033C 111.465,15.3724 116.644,14.1885 122.711,20.1074C 128.778,26.0264 153.341,51.1819 156.301,52.3656C 159.26,53.5493 164.304,55.1771 180.272,55.1771C 196.24,55.1771 224.227,55.1771 224.227,55.1771C 224.227,55.1771 229.991,55.7689 241.237,42.3035C 252.483,28.8379 260.592,10.5769 287.405,18.4799C 314.681,26.5195 314.829,26.3715 332.142,37.9135"/>
		<g>
			<path fill="#000000" fill-opacity="1" stroke-linejoin="round" stroke="#000000" stroke-opacity="1" d="M 135.781,110.765L 147.619,110.765C 148.6,110.765 149.395,111.56 149.395,112.541L 149.395,129.903L 166.757,129.903C 167.738,129.903 168.533,130.698 168.533,131.679L 168.533,143.517C 168.533,144.497 167.738,145.292 166.757,145.292L 149.395,145.292L 149.395,162.655C 149.395,163.635 148.6,164.43 147.619,164.43L 135.781,164.43C 134.801,164.43 134.006,163.635 134.006,162.655L 134.006,145.292L 116.644,145.292C 115.663,145.292 114.868,144.497 114.868,143.517L 114.868,131.679C 114.868,130.698 115.663,129.903 116.644,129.903L 134.006,129.903L 134.006,112.541C 134.006,111.56 134.801,110.765 135.781,110.765 Z "/>
			<path fill="none" stroke-linejoin="round" stroke="#000000" stroke-opacity="1" d="M 115.879,126.278L 130.38,126.278L 130.38,111.777C 130.38,108.835 132.766,106.45 135.708,106.45L 147.693,106.45C 150.635,106.45 153.02,108.835 153.02,111.777L 153.02,126.278L 167.522,126.278C 170.464,126.278 172.849,128.663 172.849,131.605L 172.849,143.591C 172.849,146.533 170.464,148.918 167.522,148.918L 153.02,148.918L 153.02,163.419C 153.02,166.361 150.635,168.746 147.693,168.746L 135.708,168.746C 132.766,168.746 130.38,166.361 130.38,163.419L 130.38,148.918L 115.879,148.918C 112.937,148.918 110.552,146.533 110.552,143.591L 110.552,131.605C 110.552,128.663 112.937,126.278 115.879,126.278 Z "/>
		</g>
		<g>
			<ellipse fill="none" stroke-linejoin="round" stroke="#000000" stroke-opacity="1" cx="244.635" cy="132.667" rx="24.0703" ry="24.0704"/>
			<path fill="none" stroke-linejoin="round" stroke="#000000" stroke-opacity="1" d="M 244.635,111.458C 256.349,111.458 265.844,120.953 265.844,132.667C 265.844,144.381 256.349,153.877 244.635,153.877C 232.921,153.877 223.426,144.381 223.426,132.667C 223.426,120.953 232.921,111.458 244.635,111.458 Z "/>
			<path fill="none" stroke-linejoin="round" stroke="#000000" stroke-opacity="1" d="M 244.635,117.771C 252.862,117.771 259.531,124.441 259.531,132.667C 259.531,140.894 252.862,147.563 244.635,147.563C 236.408,147.563 229.739,140.894 229.739,132.667C 229.739,124.441 236.408,117.771 244.635,117.771 Z "/>
			<ellipse fill="none" stroke-linejoin="round" stroke="#000000" stroke-opacity="1" cx="244.634" cy="132.668" rx="27.8188" ry="27.8188"/>
		</g>
		<g>
			<ellipse fill="none" stroke-linejoin="round" stroke="#000000" stroke-opacity="1" cx="92.6173" cy="73.5767" rx="24.0703" ry="24.0703"/>
			<path fill="none" stroke-linejoin="round" stroke="#000000" stroke-opacity="1" d="M 92.6171,52.3674C 104.331,52.3674 113.827,61.8632 113.827,73.5769C 113.827,85.2905 104.331,94.7864 92.6171,94.7864C 80.9035,94.7864 71.4077,85.2905 71.4077,73.5769C 71.4077,61.8632 80.9035,52.3674 92.6171,52.3674 Z "/>
			<path fill="none" stroke-linejoin="round" stroke="#000000" stroke-opacity="1" d="M 92.6172,58.6807C 100.844,58.6807 107.513,65.3499 107.513,73.5767C 107.513,81.8035 100.844,88.4725 92.6172,88.4725C 84.3904,88.4725 77.7213,81.8035 77.7213,73.5767C 77.7213,65.3499 84.3904,58.6807 92.6172,58.6807 Z "/>
			<ellipse fill="none" stroke-linejoin="round" stroke="#000000" stroke-opacity="1" cx="92.6162" cy="73.5774" rx="27.8188" ry="27.8188"/>
		</g>
		<path fill="none" stroke-linejoin="round" stroke="#000000" stroke-opacity="1" d="M 39.4454,269.197C 39.4454,269.197 40.2346,263.87 49.5076,253.808C 58.7805,243.746 98.2401,201.13 98.2401,201.13C 98.2401,201.13 105.935,190.475 125.27,189.884C 144.605,189.292 210.797,187.713 262.686,189.686C 262.686,189.686 278.075,191.857 289.321,203.103C 300.567,214.349 337.764,254.583 340.724,260.206C 343.683,265.829 344.571,266.717 344.867,268.493"/>
		<g>
			<path fill="none" stroke-linejoin="round" stroke="#000000" stroke-opacity="1" d="M 164.328,65.4119C 168.986,65.4119 172.762,69.188 172.762,73.8462C 172.762,78.5044 168.986,82.2808 164.328,82.2808C 159.669,82.2808 155.893,78.5044 155.893,73.8462C 155.893,69.188 159.669,65.4119 164.328,65.4119 Z "/>
			<g>
				<rect x="163.304" y="73.6489" fill="none" stroke-linejoin="round" stroke="#000000" stroke-opacity="1" width="5.17908" height="3.55151"/>
				<path fill="none" stroke-linejoin="round" stroke="#000000" stroke-opacity="1" d="M 161.084,74.0439L 160.172,74.0439L 160.172,70.4926L 165.351,70.4926L 165.351,71.4794"/>
			</g>
		</g>
		<g>
			<path fill="none" stroke-linejoin="round" stroke="#000000" stroke-opacity="1" d="M 221.063,65.412C 225.721,65.412 229.497,69.1882 229.497,73.8464C 229.497,78.5046 225.721,82.281 221.063,82.281C 216.405,82.281 212.628,78.5046 212.628,73.8464C 212.628,69.1882 216.405,65.412 221.063,65.412 Z "/>
			<g>
				<line fill="none" stroke-linejoin="round" stroke="#000000" stroke-opacity="1" x1="217.042" y1="71.4418" x2="225.084" y2="71.4418"/>
				<line fill="none" stroke-linejoin="round" stroke="#000000" stroke-opacity="1" x1="217.042" y1="73.8464" x2="225.083" y2="73.8464"/>
				<line fill="none" stroke-linejoin="round" stroke="#000000" stroke-opacity="1" x1="217.042" y1="76.2513" x2="225.083" y2="76.2513"/>
			</g>
		</g>
		<path fill="none" stroke-width="1.02409" stroke-linejoin="round" stroke="#000000" stroke-opacity="1" d="M 58.3764,31.1918C 58.3764,31.1918 59.9548,24.7797 62.6183,21.8202C 65.2819,18.8607 79.9805,6.82556 101.585,3.57019C 123.189,0.314819 126.444,1.59717 126.444,1.59717L 138.282,8.30542C 138.282,8.30542 234.119,8.20679 248.719,8.20679C 248.719,8.20679 261.544,0.512085 262.53,0.512085C 263.516,0.512085 290.25,0.215698 322.804,20.6361C 322.804,20.6361 326.947,27.1469 327.835,31.5862"/>
		<path fill="none" stroke-linejoin="round" stroke="#000000" stroke-opacity="1" d="M 192.686,20.1923C 200.804,20.1923 207.385,26.7729 207.385,34.8909C 207.385,43.0087 200.804,49.5896 192.686,49.5896C 184.568,49.5896 177.987,43.0087 177.987,34.8909C 177.987,26.7729 184.568,20.1923 192.686,20.1923 Z "/>
		<path fill="#000000" fill-opacity="1" stroke-linejoin="round" stroke="#000000" stroke-opacity="1" d="M 188.494,28.2319C 188.494,28.2319 179.221,37.6528 181.194,44.1638L 182.18,45.1503C 182.18,45.1503 184.844,37.0117 192.637,31.29C 192.637,31.29 201.515,37.2583 203.291,44.9037C 203.291,44.9037 206.053,36.0253 196.928,28.3306C 196.928,28.3306 200.282,23.6942 202.798,24.4834C 202.798,24.4834 199.197,20.1428 192.686,25.0752C 192.686,25.0752 188.395,20.2415 182.92,23.9901C 182.92,23.9901 185.879,24.9272 188.494,28.2319 Z "/>
		<g>
			<path fill="none" stroke-linejoin="round" stroke="#000000" stroke-opacity="1" d="M 293.59,35.6356C 300.863,35.6356 306.759,41.532 306.759,48.8054C 306.759,56.0789 300.863,61.975 293.59,61.975C 286.316,61.975 280.42,56.0789 280.42,48.8054C 280.42,41.532 286.316,35.6356 293.59,35.6356 Z "/>
			<g>
				<path fill="#000000" fill-opacity="1" stroke-linejoin="round" stroke="#000000" stroke-opacity="1" d="M 300.226,40.7953L 294.963,51.0936L 294.963,56.8148L 292.217,56.8148L 292.217,51.1472L 286.953,40.7953L 289.982,40.7953L 293.304,47.6501C 293.344,47.7334 293.462,48.0422 293.658,48.5762L 293.693,48.5762C 293.763,48.3378 293.889,48.0292 294.073,47.6501L 297.48,40.7953L 300.226,40.7953 Z "/>
			</g>
		</g>
		<g>
			<path fill="none" stroke-linejoin="round" stroke="#000000" stroke-opacity="1" d="M 266.28,61.7601C 273.553,61.7601 279.45,67.6563 279.45,74.9297C 279.45,82.2031 273.553,88.0995 266.28,88.0995C 259.007,88.0995 253.11,82.2031 253.11,74.9297C 253.11,67.6563 259.007,61.7601 266.28,61.7601 Z "/>
			<g>
				<path fill="#000000" fill-opacity="1" stroke-linejoin="round" stroke="#000000" stroke-opacity="1" d="M 273.146,82.9397L 269.97,82.9397L 266.691,77.061C 266.596,76.8822 266.489,76.6296 266.369,76.303L 266.323,76.303C 266.256,76.4675 266.145,76.7201 265.99,77.061L 262.615,82.9397L 259.414,82.9397L 264.71,74.887L 259.872,66.9202L 263.133,66.9202L 266.033,72.3267C 266.219,72.6843 266.387,73.0419 266.537,73.3994L 266.57,73.3994C 266.786,72.9299 266.974,72.558 267.131,72.2837L 270.142,66.9202L 273.146,66.9202L 268.193,74.8621L 273.146,82.9397 Z "/>
			</g>
		</g>
		<g>
			<ellipse fill="none" stroke-linejoin="round" stroke="#000000" stroke-opacity="1" cx="319.732" cy="76.2617" rx="13.1696" ry="13.1697"/>
			<g>
				<path fill="#000000" fill-opacity="1" stroke-linejoin="round" stroke="#000000" stroke-opacity="1" d="M 314.354,84.2714L 314.354,68.2518L 319.41,68.2518C 320.952,68.2518 322.173,68.5868 323.073,69.2566C 323.973,69.9265 324.423,70.7991 324.423,71.874C 324.423,72.7728 324.17,73.5541 323.663,74.218C 323.157,74.8818 322.457,75.3534 321.563,75.6322L 321.563,75.6787C 322.64,75.8051 323.501,76.2163 324.144,76.9124C 324.788,77.6084 325.11,78.5132 325.11,79.6263C 325.11,81.009 324.575,82.1289 323.504,82.9858C 322.434,83.8428 321.082,84.2714 319.449,84.2714L 314.354,84.2714 Z M 317.1,70.3114L 317.1,74.8885L 318.781,74.8885C 319.684,74.8885 320.393,74.6698 320.906,74.2323C 321.42,73.7949 321.677,73.1757 321.677,72.3748C 321.677,70.9993 320.781,70.3114 318.988,70.3114L 317.1,70.3114 Z M 317.1,76.9481L 317.1,82.2117L 319.321,82.2117C 320.291,82.2117 321.041,81.9739 321.57,81.4984C 322.099,81.0228 322.364,80.3677 322.364,79.5334C 322.364,77.8099 321.236,76.9481 318.981,76.9481L 317.1,76.9481 Z "/>
			</g>
		</g>
		<g>
			<path fill="none" stroke-linejoin="round" stroke="#000000" stroke-opacity="1" d="M 293.621,87.5076C 300.895,87.5076 306.791,93.4037 306.791,100.677C 306.791,107.951 300.895,113.847 293.621,113.847C 286.348,113.847 280.452,107.951 280.452,100.677C 280.452,93.4037 286.348,87.5076 293.621,87.5076 Z "/>
			<g>
				<path fill="#000000" fill-opacity="1" stroke-linejoin="round" stroke="#000000" stroke-opacity="1" d="M 301.059,108.687L 298.084,108.687L 296.672,104.568L 290.511,104.568L 289.159,108.687L 286.184,108.687L 292.155,92.6675L 295.134,92.6675L 301.059,108.687 Z M 295.985,102.508L 293.807,95.968C 293.743,95.7582 293.674,95.4209 293.6,94.9559L 293.554,94.9559C 293.489,95.3827 293.417,95.7201 293.335,95.968L 291.186,102.508L 295.985,102.508 Z "/>
			</g>
		</g>
	</g>
</svg>
